<mxfile host="65bd71144e">
    <diagram id="LtUXD_5DMbQcOx-mYeUd" name="Page-1">
        <mxGraphModel dx="1079" dy="790" grid="1" gridSize="10" guides="1" tooltips="1" connect="1" arrows="1" fold="1" page="1" pageScale="1" pageWidth="850" pageHeight="1100" math="0" shadow="0">
            <root>
                <mxCell id="0"/>
                <mxCell id="1" parent="0"/>
                <mxCell id="2" value="" style="shape=image;imageAspect=0;aspect=fixed;verticalLabelPosition=bottom;verticalAlign=top;image=data:image/png,iVBORw0KGgoAAAANSUhEUgAAA5MAAALLCAYAAABkRdanAAAAAXNSR0IArs4c6QAAAARnQU1BAACxjwv8YQUAAAAJcEhZcwAADsMAAA7DAcdvqGQAAP+lSURBVHhe7J0HgFxV1cfPbnpoAykQkpAChN4RUT87WOgiIIr03nvHThGR3m0IWAARRQQVsaGogEBIQi/pdSbJZHvf7/zPufe9+97M7M4mu8mW80vu3PvuKzM7+97M/e25796KuYub28kwDMMwDMMwDMMwukClyw3DMAzDMAzDMAyjbEwmDcMwDMMwDMMwjC5jMmkYhmEYhmEYhmF0GZNJwzAMwzAMwzAMo8uYTBqGYRiGYRiGYRhdxmTSMAzDMAzDMAzD6DImk4ZhGIZhGIZhGEaXMZk0DMMwDMMwDMMwuozJpGEYhmEYhmEYhtFlTCYNwzAMwzAMwzCMLmMyaRiGYRiGYRiGYXQZk0nDMAzDMAzDMAyjy5hMGoZhGIZhGIZhGF3GZNIwDMMwDMMwDMPoMiaThmEYhmEYhmEYRpcxmTQMwzAMwzAMwzC6jMmkYRiGYRiGYRiG0WVMJg3DMAzDMAzDMIwuYzJpGIZhGIZhGIZhdBmTScMwDMMwDMMwDKPLmEwahmEYhmEYhmEYXcZk0jAMwzAMwzAMw+gyJpOGYRiGYRiGYRhGlzGZNAzDMAzDMAzDMLqMyaRhGIZhGIZhGIbRZUwmDcMwDMMwDMMwjC5jMmkYhmEYhmEYhmF0GZNJwzAMwzAMwzAMo8tUzF3c3O7KhmEYhmEYhmEYxgBm523HuVLnmEwahmEYhmEYhmH0A7oigqX40xE5yYcNIhpcSTQIqSLOKzlVIOdtTCYNwzAMwzAMwzB6EasjhX87kiWQJW9ICQH0KRJBlH0elpFzwkO67IoK6kwmDcMwDMMwDMMweo7O5PC5o3L0kZ+PdktE04/PJSTQC18kgUi+HOTAL/syHvw64OuCLEGxuk1vj19biMmkYRiGYRiGYRjGalBuBPHdU3MieFveM5rmnK5lSJuIW5GyKypBHQjLQqoivX7sbcVFsCssPEu7viZgizSZNAzDMAzDMAzDSFGOKHoxlAgiL4skIqEsWzBRgWhTFrtl5xQRs05YEyFcxCLYU8JnMmkYhmEYhmEYxoCjM1mEKPpupr6rqRdGIJkrAxQjsXKFtGhBCpeyTEIquwKEcE0wmTQMwzAMwzAMwyiTzmTx/dNyNPWe0bTgTJXGUBYjR3SFaNkRSmMoUyiXI4prKoerQ09In8mkYRiGYRiGYRh9js5k8VUMYsN2KNNbsA2GI5xCHlHGwDK5c5NiJ3IUGFIoS77ckTCuC1Esh56QPpNJwzAMwzAMwzB6LeUOcvP3L+doqJsbEdNj+DkSQ5n0EilRSE6bsUxmz4nvKUReTmRxcQlh7O1i1d2vz2TSMAzDMAzDMIx1SrnCeOVeObrmhULZe+jAHB35RNfuQyxFKVEsl94sVyaThmEYhmEYhmH0ScqVxhAIZDEqK4mGDSIawunSZ1UkHzskRyMGEw3nhCgl1qWjlD46idyn8Xfq/msqkqC3y1V3vj6TScMwDMMwDMMwupWuSmMpYUR3VC+MIocsgyiHXVmPejIZkUSUcr0hKpTDOMm+blsvlWG3V5/wXOPvGN3vhdJk0jAMwzAMwzCMdU53SSNEMYokevlD2QngV1PCGPL0ETlqY6Px6YBf67a/PiRHI51QeiENo5SRVAZCidQdUcreLljd9fpMJg3DMAzDMAzD6JCuSGMpYYQcijSyxHlplEgjJwje0U+VFsY/p4QRqbXYcltcrm4kGr0eSZQSXV99lNI/p+/22lNRSn4JvZbuem0mk4ZhGIZhGIZhCGsqjZAyH2GMpBHS5vJjOhBGRBghJu38EImik8NIFoPUyutQVypv4fyyf7oo5cE5GslSGUYpIZJeKnsiSskvoVfTHa/PZNIwDMMwDMMwBiAdiSNE0Y+ampZGRO18t1QRR0hZIGfH/qETYWT7gICEYihy6MssgeFyZ9KIvIXzllYVyGLgZ/nlATlab6hGKYciudeO1+2TyKTPXVrdKCW/pF5Nd7y+inkmk4ZhGIZhGIbRb9mpzGhjWhojWfQ5hCsQsPA+xie+mKMD3b2Kf/LCiMTLyBOyGCSp60ASwxyi6BOOWWyKkO7grVNyBVFKCOWEElHKcSyaa5tFa9D9NoTfxjXCZNIwDMMwDMMw+gnliGMojdINFbLIcuil0UfpvDR++ffFZemPh6s0sttF4iiSyBUJWfQ514scIvky8qB8qeuWaqxdFq6mnJpMGoZhGIZhGEYfpDNx9NKICN7VH8klpDEdZUQ64nfFRe4Ph+ViYUTickIWeWVCHL0chuUgR2TR50gheK0XfO1JCQVWIPE/X+aC1nG6/muf1h3K4J57bnf741Can3LKmZL/6Ed3S+7rTzzxNMlLcdttN0avobKyMip3lkB31COFz1uqjPTpT39OjlMOJpOGYRiGYRiG0U8pVxwhhX5+RaQznxlN938+Fwkj0hcfLy6NT0Ea2Qwk2oic65D7JLIIEfTLrpyWRV/20tjMCcdMU6qb6l0/y7KlQKYkK17mdNLhY+j+3/K2Wu0eks917CFj6C9/+aPIVYhf/uQnP0N/+9vTUm7nHT/1qc9KeSCxuiIJTCYNwzAMwzAMoxexuuLo73EMp944+LFCYfPSGCYvkJEoIndS6MsY5CYtjb7Oi2OaYsKYvjczBNvf9XMVRIGPz/9j3PJZR4/R5QFKd90z6Um8x13AZNIwDMMwDMMw1hHdJY6HlYg2/v6LOZnE/zdfYIFk2YPvhd1Si0kjci+HYdmPmJqmq8KYplSEcl3x+KE5nZfSvcd4f31UN5pCxOV+cB7kHY34ym9dr2Z1X5/JpGEYhmEYhmGsJTqSxzURR0QbQxmELHoJPOrJ0fTTz/P6YJ2XQ6lLlYt1Sy0lfN0tjR+5Ois/g0RKXY7up+3tuoAcy1rGi3Rll4flGTduTTtf+LYeOIKtrwOwD3i0yLyU4f2lXighkaFUlhrxFa+0t7M6r9Fk0jAMwzAMwzB6gJ4SxyfRTZXdKowupqUwiiZyOvuvo+n7H88VjTam6Q5pBJ2J4z43Z8n5of4sKLscP1e4TuVRJdInWXbSiBSVXY5tVkcmPdj3F5iXkoVyBKTSCSV+N5FQIjmZ9GIpUUrefzxLZV8TytV5fSaThmEYhmEYhrGGrDVx5HIog2EZOaKKUd5K9I3/jC4qgt0ljZ5Sx/vMrW6AHDgcv1b+7/0vKYyc8DOGUhlvo3JYLCqpEUs8Q1wn66mNZnx/9WUS+Cjlr1yUUn53/HtChBK/r0gqA5lE2Xd7TUcp5WX2crr6Gk0mDcMwDMMwDKOLlJLHNRFHPzCOl0QRRL8clCGLPnlpRLmJU9oGulsaQaljfvyGbBSdq3ByJRLJhDIpOScfgfTiGIpkGJ1s54VQKFGJf5Jjg2Jl/jfj+1utkUx6IJU/3z9H6w/l36mLUvrfZySUSHxopEpXFqnk/cMoJV5hb6crr9Fk0jAMwzAMwzA6oKfEMYw0hjnEMC2PoTSi3JwaCKcnpNFT6tgfuiYbReFEHpGcRHVFJqXMeSSTrt5Lpm7ju7nyAh9AxFGWOXcHxD/kYbmwq6t7QV0kilIelKORkEr8fvG7dr9jL5SD+fA+ShkmH6Xs7lFYewK8o+ViMmkYhmEYhmEYAR3JI6QII31e+dxouvPTORUKJ44of/G3JcSRHahAGv0yym5Z8kAaJS9DHLtDGj17bk70hdTP8YFvsTiiwA8ii0ESafQCxbnU+xwJu+GBfz7+r7lLXhhDkYzKbp2msItrYXdXKfsD+2VO3SWTHh+lXI+FUkZ8db9/CKUfoCcdpYykkvdHlLI/CaXJpGEYhmEYhjGgKUceMQgLoo8+feX3xaN1xcQRQlgQdQxSJI3IS4jj7w7N0UFuzsjuFEdQTE73/Iab65F/fv6fzFOpqEy6OsmxGx74PRDxQO5SOgqZFslYKFUisaBl3TESSNT5ssvxb03vmyxGIkrpzou+HqXc/I7i53NnmEwahmEYhmEYA4pi8hgJGjf2r3l+NN348ZxEnbw8Ivp0xO+SDW4MjpMWR8k5hV1UkXthDKUR5ZCejjh6ij3PHl9PyaMnWBYhxLKr87IIQfIyGeWuzFm0PRDx4Afkzg1jgUyVZb0vizD6rq6aZGcoo2yoB5Z6eQKoZPfdN5nA7Q5R/Zm7l7JYlDIUyrURpfRCiGN2VQ7lnk73c3lSi0UxmTQMwzAMwzD6LR2KowONf8gApNEL5HF/KGyM/+aQnE76z63nwx8fLVNHeFnsaHAc5FgXsjbEsdhzhHiBfOnbY1ZPJpE7QSoqk2GSA4jjCeKC/J4gT0QhOaWjlbqdimKii6uXRiwXK7u8u7u6hrtDKMEjB+k0Ijh//AA9g5H4/ZDE+0AmRSqDVCpKuTqRwsVnx8fgQ5eko3VdxWTSMAzDMAzD6HeEEllM0iCQ3/xP6Qb7wwfG4gg/QY4EKUQE8pSnR9Mdn1aZDKXRy2VIbxBHEAljilAmIX4JeNlXyTosuzrJ0xLp83SSA+h7CZBL4vcqIY/p5Wg7FUUvlKj0slhMIKNlTj0pk34BEdCiUUqIpJdK3rRYlHKiE8qQJR2JYUFF138ivEMFpCqLbSN1wQqTScMwDMMwDKNf8dAxQyTvTLAgg2f9Jd7mJ5/LiYewqmjukhfI8L7HK/41mr62t84BGdLT4ljqZ/LPkV5fSiBDypVJKfuEReQsRchFjFB2khRt55PbHyLC/+X9lcTvn7zXyDnJe+7KUb1sp2LoE6/RPFp2ZZeHy4X3TcqrWX0Su8cLEEqAKGViXkqXEkLJaet79Xflu6UuO6d7zhP89EJUSBQjpM6tCNf7el/X0bLJpGEYhmEYhtFvKBWRhGR9g+UPESOIoOf2T7FAcg7/YG+RHNIIiUEukUaXR61ppjOpW1PKPf7qyGOa7pZJvxxty0l2R87vId5GvM9R4vc2lMlEjvpoOyeQfIRIKnmjSCBR58vALRfeN+le0OqS2L3wWHi+B4Mopb/n1kcpd7tPf2fvn5aLusF2JJPupwkKiaIgy/wQ1qfrCpaLlKPclaf9oPh56DGZNAzDMAzDMPoNkMliwvW1D+boO89rw/i6/4sF0ucikMhZXkqRFre0rALUlRLBkGL7hqR/hpD09qsjkCFrJJNILEMij+k8SLI78uA9RyEtjWmpjOqwDHHUguS+zFu4Mhf5QcryRCqTyJNdXd0LWl0Suxc/lo9SPuzupYRQ7vOw/t6mH5+LIpYQSUQp0dUVXVvdj6C5Q34c5JrJclRG8utdfZS7cmdC2BV2OOtlfpR3VQ7OMtkkZcMwDMMwDMPoy+y07eZFRTKkI0kL6UzwOhLGrY5+gtpam6idU1sLUoOm5jpqbaqlloYqWvHf29zW5b2m7hbIkHUhk5K7VEokI4n0dbwQTg8iuTtQQiDDssvXtkx6vFSCZ76Ukylmoq6v/D5BJvFeIU29ZzTNPs39oQMJL93nrrztD7tHDCMpxEHlyC6PlsN1qNfk30/8UlA2mTQMwzAMwzD6PB2JpK/HcilxS8tauE9HbH/Gi9yubolTazNLULPkUm5pFLFUmeQEmWysplObLnFHKE343N0pj2nWuUwi9/LoxTHIZRvJUQHJCSKU7kDFBDJa5rQuZDIUSc+fWShFJvk9QkRyrwfWXA5VDAF+Vs31Z4/L+v6giDx+/978wUe1fjUxmTQMwzAMwzD6PGmZDEUM9aFIrq447nT+65LPvHl72vHcmSw6rZwgkT6PhVISS6VEJlsbqZ3z1pZ6EUpEJ1sbVtFprVfJ8ULWlkCGdFkmUfRlpO6USSwjx7Krl+0kVynqskxyKXnfpHtBqwvv7qcE6YzJR/ycKgcNoYpBw+i9nx3sajtnh7Necj8TiH8erQqX9Q1aUylMs8ne57hSx5hMGoZhGIZhGH2aUCQ7E0JQzrY7nafiWMw7IJM7nfcaC04okj6HSLYko5Po8hp0d21t0u6urU01dHrb1+WY/rWsLYEM6QmZRH0olLI7cngQFpwP+VQQlVRHinJJvDIUSq6RMlbiH/JEWZ5Hl1dHJhHNLEW5shV2Z576lUdZLIexWLJcVg7i92MQv0mVnPMbxrz5g4/Rtqc8yy+5nd764celrivseN4s/nm9aHPO56Qut9Ibd3+Itj31X25Lxr8//N7geaed+Iyeq3yeFpPeUj+vyaRhGIZhGIbRZylHJLG+LHEsRgnviKOTXiSREI3EMicWyig66e6dlHsom+u53Kgy2VhNuee+L8fb42tZeuk7sdStTbpDJpFDHmVEV1fXZZn0OadIKl0ebcsbiEy6A/jIHD9IvZaRaR2W/bbprq4dySIoVxhLEYpkV9n10rlakNevuf95kPufSdcj1/dB349AKFkkcW6+cffeSZkE7liQyW1O+pucr2/f9xmJpjbX5mjhk+fKZngf8LMUez9MJg3DMAzDMIw+i5dJL4tdijqWgxOhNCKTiARFEUmfO5HkPI5OchldXUUqG/XeyZZ6iVC2NKyiyftcxaJVMfBkEplzwUREErlblnUu1+RFCeKkCWV+0LIcOC6/esNUzouzOrK4+QdPkmO/dtsurqY0H782/l3i5eDn8D9LG14jL/hcfha/ofwssiDLUnRlLaLOL2Pb+A1qxwQ38h5pXRSdhFDe03F0EiB62lK/itNKScv+cY3Ul8Jk0jAMwzAMw+gzQB5Dyok6zrwF3VLjvMs4GUqj0ckZ0lAvJZRxdJJzGYwHXQm1u2ub7+7aXEdT9v1av5VJfwwkIPIB90GG3AuWelBSLH096iTF8oTyy9cmz4c05Qjj+L1PpYX/vZc23+tEOeZrt+/q1pRm90tn889aSZWDBnGOpN1V5ed370EIXnvy52Ltw8/AC5JjA5/L9shRJ0su83VY1jxalrJ/X5B7odRcZFKik8/pPo437/0/V4JI/ppaG6skYg6hbGaZxDkMLDJpGIZhGIZh9DnS8rj07BxtenvXo44QSdD9MhkPxMPmGJULopOok8F4kHx0knM3uuvkT1/eL2Qyksigzh8DCQ/iPQxySepASXnkFEYn//uNMbpTEcoRxs33OokWvfAjkaJJhz1Acx89xq0pBL9TvFC8/pm37CgDL0EUNXF9JI5ITiSljLwiIdEe/7Mmfkb+4RKRSSSRQ6zjBy99Ui8FKWuO/24ZshiVuSRvWlImJYdQSnTyOZbIj8gRpx3/NLXKSMN1NPuhI2n8frfw+chC2VAl56rvqlvsPcY6k0nDMAzDMAyj15CWx7ln5Gj9oUSDBvECC0rmhtGUvyRHme+pUMoIq2W0ZtcoOhlIQUjc1RUNdReJlEZ7LJNaDqKTIpOuu6s04utZKOulAY/GeX+TSUl+e3cM8SHGuQ+/N5pDsP5+SXFp7EqXVC9ApVBZ7Ah5pfKakzIJwQyE0olkQih5HWeyrztMRFIkOeeH8rq6ai5rozq/jAq3LGU9eKFIoqzRSTDthGei808HhKqRtPhPl8p6TymJ9JhMGoZhGIZhGOsUL5B//3KOPvHL0bTk7BwNH8wVTiDRKM9cr/KYv4xF8rs6zQe6t3ZFJj09E52EOGpkko0xjkbyciI6KSKJwXjQ3RWD8TRpV1dOaNxP+czX3JHXHj0ik0E9/49yeeDf15/OjaURwtJRBKwUpaRxx3NmuBIjT5qmaGWArsdrjmXSi2Qgk1zWbq6QSCeTqPc/d+pp4HoQyTjiWmZXV13QUlTHKayDMLo6KUd5LJWv37mnDLTz1o8+KV1aEY3UgaBYJNG1tWEVLf/PLThiyd8D3nO/DmWTScMwDMMwDGOtEkYf/8ECOSlDEn0cDIF08qiJH7gyc/VGlL9qJbfCWdS4bQyZBCKSoMzWbI9FJ8/FlAyue6sTSi37ZUikj06irPdOyj2ULkIp0aHGKpq875XuyGuPSCb5Zyz4McM6lN2yl6UoeYlMyeRfzl/zSCNIi+OO57zqSmn4iUNSi0UqisCyqFkRmeRKyVUcfWQyEkmpl024LAeLgN9F9026HJJX2NVVN/ZSyQu6HJS1iDq/rLnII2pRJ0/QRrPcYEHTTvyLyON7Dx4ky+P3u1m6WKNLqx9VuKPfSyiSHpNJwzAMwzAMo0cJ5RHRx41HEI0dSTRiCFcE0UdNvDB0KGW+tT4vKPnvtRBVrZIWeObalEh6ymjR9lxX19dEdHUaBhVILLc5odRyGJ2EVPqpQiCWnCCT0uWwZq1HJ0vKpFuI6rDebSN5kJ67omekcYezp8sT8n9GHzsmtU3BLuUdQ7bih7RM4of1Ullwv6SIJBK2kU0TTyd+xym8FzTZ1RVqqBupSCKXPeW/LEum67Q+3icsz7x5O2wpbHvKPzUCKclHIatoyZ+vkPXl/o5MJg3DMAzDMIy1QlogffRxSLHoI26IHD6cMl8bzhVK/tYRlDm33i3x8pU5ylxTQiRBmS1a3921Z7q6qlCSSGQbJ5VJL5g+OonlaN7J6P5JTuh22FgjdWtLKMMurvj5Ej+iW4jquPBiiYFw1lwaX+HHxLPHcLWuKbE+osj6gqrOjgFUBoHI5HmviTDGMqlCqSLphDISSZTLuG8SziflZFdXEUKXgJdKt+BKup0WUeeXMZfmNKnG+yn3Q8o9uXpPpI9CtjTkRSb978Bk0jAMwzAMw1inpOVxg2FE49YnGsHyWFEgkLwwZAhlvr0BL8TkbxuhBW6dQiTzD08kmjeHaFWeMleP0nVMUZkEZbRqe76rq0tRWWUSgimRShmYR6OUGp3EvZNOJnEPJTf+WxqqWSavckfvWUrJ5P++1T3SCEJxVGksRZE32FVpVmR9gtT6opuXd4wCmYxEEgLp8lAgJR/k6ni9k0l/HA+cr1AoO+jqipIuRHmyTpdnfH8rVEgkVwfWgUAiuYikuyeypW5Fp/dFdkRaKE0mDcMwDMMwjNUiLZBbbKTRx6F+8Bw0pCXxw6BKylyzMS/ERPKYInMOi+RDLJL55USLFhK1tkpUEoPu/O4jy9xWRSijVdtTMgnhUIHUiCSboluOhbIgOomyRCdZKJsbuNzoIknc+Od8bUQnIZPFWFNpBDuc9bIrMWmrKqDEeletWRePUbB5Z/sDFkHNhKIyiVwikKFIppZ5f9kFBwmelt1PUsmuri5hhY9KSuZPbtS7/NUbpkgVUIlEdBvRyFo9hxoRjUQkEvNGrqTl/75Jtl2d360nHc2smLfEZNIwDMMwDMPonJ22ieURPH9MjiZsoPc+VhYdPGcIZb6zIS8o+dtGulLHzU+RyZ9tSjT7PaKGBm5tc911buTWjiizVdtz0cmZ3MbnF+sFMiGTgVRG0UmUnUyySPoBeVpdd9fJ+1zujt59FJPHrspFWhpBQhyLsQYyqWs62x+ktinYpbxjyFZu00KZTAklurli2QllLJWyuaTwaSGGPhXr6uplUhJOaNmWH3Rvmn79JFfWrtoShZRIZIOcNyKTiEKKRFbR0r983W29ZhKZxkcoTSYNwzAMwzCMkoQC+bcv52giuyG6sA4riD5y4hZ05tpNuBCTv90LJBO1Oks3P0UkH9mCaN5s3jkvLe6Sg+4Uo4yWbY/JpMw5ydLIhuAFkm1R8oRQRnNQQiKDLq9Rd1eIgUrBmkQnu0McAcRh8mEPcKmC5jx6NIvjS7oiQYk3BsiqDtYLJdZzta7pbH+Q2qZgl/KOIVu5TTuVSRFHJ5OBVKIrLKKTOI4IZUAyKunLpbu6vvLdibIf2PmCt+Rc0Sik686KaLb7A4TcF8kiufSv35Ttu1Mg0+C8MJk0DMMwDMMwItLRx38dlaPJGY0+YpwciT4iAW4tZ66L72UECXkshraQpZimVPdW0F1RSQ9EEnSXTAKNTs4QIYglkpOUvUCGQqndXWOZRJQSMsm5u+cNYlmOUHaXOIINJ3xApNGz/Zn/40dYUUc/fgdvjKzqYL1QYj1X65rV2L+gqrxjhPIXyyRXOonEBiqUpUQSy5BNPZYcLjgmJBKpo66uL10TX4c7X/i2/tEBAinnB0QSI/+6eyJFINGVNU/Zf35X9ulJiQwxmTQMwzAMwxjgJKKPR+Zosw2INh5ONNxHHyGPaAwjcUO5IPp4x3rcIkapjGZltEnhtqvdvdXThVZtT3Z1hSHEEqlJ5TItkyqUOvekG4zHy6R0XUR0soYm76tTOHi6Sxw3nPgByef8KhZHoPKYhn9o/V+C0mt0VQfrhRLruVrXdHH/opuXdwwIYIgIJZ+DPiqJDXx0Ugfd0SglRDIhlXwcn8Knhjz6FHZ1/e+3xrotVCD9Hxl8tNpLpIqkuyeyYRUt/es33F5rTyI9JpOGYRiGYRgDkLRAbsV+OBLRR3/vo48+oiU8aBBlrsm4CiePaaRFWUazMtokua2I5K+2IJo7h59gpbSyu9S91VNmy7Znu7qiq2IokUFqLy6Usx860h2lc1ZXHKvmvyjl9D2P25+p9SV/MAEC5YpF6WBlxzsyJda7as26eIyCzTvbH/DPqFmC4jKp5URUMiGSyGVTOV74FniR/OdVyT8K7HTBmyKQBRLpu7NGo7PWRHNEgrUtkCEmk4ZhGIZhGAOEUCBnnJCjMeyEmLqjIPrILd+C7qvFBDKNtCo7aVpGq+PtRCQxDUh+BdHCBdK9lVq4/npEJd9wW5XZZC1zM9BzXV11zslIJL1Ycnrzhx93WyaZ+uVH6P1fHuGWYrpDFArk8QyWx6I/Qwc/GK8LhaiQDlZ2vCNTYj1X65rO9gepbQp2Ke8YslVq01AmZRtII5chjrFQ6nIskqjX9wzp2SsLo8k7szxK91X5w4Lr6iwS6USyVwlk8KbgZ3LLJpOGYRiGYRj9mFAg556Ro/WGEA0uGHmVk0Qf46k78neu70oOhFI6QzYpb7vMOXVuISb/nZpE91bQZZkEZW7ak11dZ926k6tJsu0p/+S3Uu+pfOtHn3K1SigIaQEsRkdCEe6//RkvuFLwoou+/hI/lKBiVJyO9mNK7+gosZ6rdU1n+4PUNgW7lHeMYi81kkkcgzdIyqQuqzyqSD7/nfia8+yC+x4lCu2j0pBHRCFZHCGREoX0kch6NwATC+QzV7oj9IRAuh8WP5YvJAiWpZhezzUmk4ZhGIZhGP2H9AA6i87KyeA5FUWij7DKzHc24gWlQCBDukEmM2fHApm/dZhGIDHIzsXtlL+2gTJXDHdrlVgkPWU2W8vcrDtlEhIZsuO5s/h1oLsrxLGNXrtjd7cmBnLQkTROOeIXEpGSyeYbMNXDKremkMLooxfIEPeiU69dKVoZUFy0lA72lVWdH7soXK1rVmP/gqryjlHsZyyUyQp69cZt3NpCsK1KY9jN2XVpbm1hqXQSKdFH3AvpBLKpjhY/fak7irJ6Ahn/EPrzhD+UK0dV4TqQXK9ZkW38epNJwzAMwzCMvk0okHNO1+jjkHKn7rhrA27wltEclE26tl0ojyB/y1AnkC1ELZwgkl8bTvlvVHG5WUcj4dXJ7q0hZTy/p8xNV0cosW0a3O/mmXnTtq5UHtud+hy9ce9H3JIy6Ys/FZHUOQOrJUoFSsnn9mc870qulV8UbwCaJeloPwYS5YqFdLCvrOrk2KXWc7Wu6eL+RTfv/BjYYuatO+piJ+x4zqt82fBJhj8W8MmmfzTAiKxB9FFyiCPKQSTSD7DE8rjoTxfrAR2dy2Pwc3Ax+Vtx5agqXAdkB1dbfF2SggolMG6TScMwDMMwjD5IKJALz8rRSJbHioLuq/wwbBhlvhlHHEUe03STTGbOqnUlJX/rcLlPMJTHKKG+rU261uavWM5b87HRvfW76e6tabrQdC1j085ksjNxxHPMvLlzeYwjhRAPzd+4e2+pAVsf+5ROOi/3yNXQ/N+dIfVeLopJ5HanP6/N/bhtzyQWUrh1RTfpZD/9X4IO9pVVHawXSqznal3Txf1Ti7Nu3dmVOgdzaHpJlJxPyjfu/hBty8KPOv39OXGU3EWfIY4ouy6syW6s6L6qAhne9wgK5TF+8asVVYw2Kb0uKDBxfVwbrncEAhliMmkYhmEYhtFHCAVy2Tk5Gloi+kgj16PMVcN4QSkqkAnQeHbFjiginaFA5m8fEYsi8pagDKFsRaNbG+D6fO0ij/nLc7rMm2S+XyoqGVLOi2XK3MwLo5fKkJ3OZ3EM29H8Hsy8eTu3UJx4ao3gBbj37vW79pIcTDv+aRGMdx88iCYdeh9LJCKQtdTSWMXl2qICCal5896PiEgCeWnh60supHDrim7SyX76vwQd7FtCQmJKrI+er/T+s27bxZU6JhJE/D5E/pAHZRbGooLo8nfv35+2/OrjQT0ijihrBBLnuI9GShdWd//jkmeukucP2WTvc12JkZ8x/fO55ag6XB+v01JqXbQY1jPudxA+CgW/m3Cdy4O65Na6ZDJpGIZhGIbRiwkFcsV5OaqEQKIdF0Ug+QEj6qy/PmUuhVkq+bs3dCU0ml2xJOVsw3BjuyD6eBuij9zAjoTRy6NLkEkRSP8cyedCl9b8pSyTvFl5IgnKebGODjYtJ+qIh87kEbLiETdJPGk7vX6nzucIpp3wjHZxDOcL5LTojxe5LZJsfdwfqIJ/6RWV/LutGCR5Bedv3POhLkYmg/qim5TaD7DydLS6o31XUyZfu31XV+oYGZmW32MvhfgFeDFU+fM514k08rKIILbRaKJfD0GM6iCHUtdK835zIk086G4uh11YNRUTRo+II/94HQtjuC6u11JqXbgYLpSUxejB4cpBfbw2XAfiNTHpbbhoMmkYhmEYhtG7CAVyOQtkNPcjGnFIiD4OGaIRyEuxQokFMoU0tDuhg20yZ+r9eiB/x0iVQ0hiJI28LCLpZVIb6HJMOazPHa6c+R6L5CUskrypiiRELtywI8rdjnGbFkQdnTjiHkeUy7nXcYezXnalkPi1SIl/7tfv3FOWwTYn/lUEEiN06kidmHDeTTrfuIqWP3ej21LBNCEVlUPYHSGRLmEEJYhkWiYL2vwFFY7QAFyeoNR+oCOZ7Gg/psSOr92+mysVB92CVfTwjnpZ5ATBk/NKz7GELKZyiF+izgmiRhZDaXTLThZRt/jPl8vr6AwIo04ZEuKWJSuyTv9rOSKqdAQLwfELxDTx3OE+0UPiMayP4eWoSgvJLcL1HredyaRhGIZhGMa6JxTIpWfnaNhQLsATvURCIIdyJQTykrhll7+HBbLT1hwa3K5YkuQ2RQXSRxq9RIb3QaJeGvYugeB4UTnIIZD5C3LUxIcZe1tXZRJ0vG16hFUII965GU4e8To7ijrucPYrrhTgf7YC2um1O/ZwZRbIk/8ej9SJ+yAhkIhCQiAbVlHuXze4LZUtvvAjlsch/Gv2Esk5JBJlF5FEWDqUye3R1TXRyE8spAjWFd2s4327KpPFRq8N2e60//AjRI/fTxE+5Hhvw7pYDCWXyGFYj/NOl7Wsgqii6Je9KCK1FNyzWAq9l1F/Nv3Zw5/TlQvqAS9Hq1PrSolfYp/4UVgtWQRRgeFyqj5eW7guJlzn0QpfbTJpGIZhGIaxjkgMonNmjtaDQCaikPyAYVnXS3VhvSeezoNb1YmsOGicu2IJMmdUu5KiAskNcrnPETknyKMXSNRJhBIHxvHdE4TP48tuEwG5222TW0bT4rNyNO4OFkmRO90kKHRCcru0PO58wVuuhC15W36NHcrjOa/KNgrL4e27lSWUXpwwh6R0X0UU0glkGwtkixNIrAvvgxz32eupctAwdsShLI1IRWTSCWQYlUT+xj0fXqcyGYpzMSCLBTIYyF+yPpXLNrxtWIYMOjFM37OIuq5JYhr94ZIRRleWLFUfrQrrQbwuKCju2OGjkH5j/TrJ0ltzKVqIa5P1IHxl4brERrwYLid/miV/+ZordYzJpGEYhmEYxlokFMjZp+Vow2FE7BAqkFEUkuVhxAjKXBXPu5gUyDQQJVcsRUqAQHGB5AZ9gTw6gRSJxHOh0Y893DHDQ/sy8lSSmT9412ZOm7NAenx3UwHb6kOnpMWwq/K44zkzXCl+Pt1Py7hvr6hM8gav3R5H3rY58S8sjrgPEiOx6misGoHMSzQyFMhRH76A5XE4VQ7hNJhFUmRymIhkcZmEPA7uPpksuklhZdhNN40M/uPFzyVfllyET/NYAONlFUpfRu7WyXaa+/3WTBLTxO9BrE6yoHmEr0NWvD4oKCVlMXpwuHJQH6/lUrQQ10blYF28lkvhpuFCKVmUQnLdkmeudGUlHEUY5WKDQQGTScMwDMMwjLWAl8i3Ts7RRuyIw0t0Y01M43FvxpViwSlOZ+uBbhMKZP5Ofi4IgAgkJ5HHZpVHjMQaRiAho/Ic7olcJvgy8lRqReLdIZDNfKjJd8cSuTNLJDZLEFUUrClLHvHzzLxlB1ebZMdzZ7qSO3biKXRBHgPxDoUyvM8v6sYa3gPJEokIZEt9vqDx7RvnEMPKISNUKCGTg4eKUHYsk66LqxPJiopKmZdyTWUyHBgojXRDheTh/HB5QhpF+FQCw3sQ4+XUYDV8TkVlrHfLy/7+HfeMxSlPEouhP2gcbQx//qBO/vtloHVKUN9VWQTBuvAxrI/h5ahKC9FjVA/ChcJ10WJKJCOkyPJYZIqS8JxFt+vEfiCxqAsmk4ZhGIZhGD2EF8jXT9II5PrFurEOHkyZ78RRx1ggQ7i51mGLza0ssU3m9CpX4uPfxQIpcsgpjD5CIsOpPETMXPKEx0fZL/uySy04NCcvkFPuCQUyFkAgEphGqgqjijtf8La+b/yaOpPHWByL4Z4z8dTxQjo66ZFurG4kVswJ6e+BbG2sFoHMPfd9t2XcOA9zAGEcJCI5nCpEJhGd1C6uhTIJeQyjkqjnk4elEtODlCOT4VQkaWTuRPygEinUc0Ijhq4sYqi5jxTqMkRQlyNBTJQ5tTbT0r9+Q5+oA1ZfFj36M6s7+Z+fc7e8/N83SY1n9EcuSvyeSjHmo5e5EtOJmKUf402iAsPlVH28tnCdEtaDUrII3LJk4Tq3Dz8sfjoeVGjUh86T37MXyC2+8ONgt3D/5NLcx05wJcVk0jAMwzAMoxsJu7G+d6pGIQcX6caKyfo9+R84gSzZKnMrOmy18cpgfYFAQrwgAxBGEUcnkb4LaxR9dMnji8Vyl+AeiEBCIiGPE++K5RGkBTJJrJPp0VR3vpDlEcgGvB2eiFPX5bEY7ln9kwvxgp/DcLvT/i1dSrc69klqa/JRSCeQDaso++x1sh0IxSgUSOAb7ZAZ3821wt0vWVwm4xTLpOaQSUglJtPf/oznWRg/KMcuBgQY75m8y8WkERKIZZwbThglcVnWFRNFkcWWTu+rW3NRTOLfw66A19DV/YrtM/bjvhsoX8BFpSusB2G8M1yX2IgXw+VQFqMHhysX1GOp1DotL376UsnRxRq/O/+zbXHoTxJbKxUsjMe7cszMtxa5UhKTScMwDMMwjDUkFEhEITcZQTQcAokxcyKBrKTMtZtwQcn/IJbJSGI6bJXxyk7WZ04LBPLuDVQQIYoQxuaUQGKdT6AzgQzL2I1zEUg+fBMvTwoEMpJAj+zrDxAz46ZtXEnZ+cJ3XIm35dfTvfKYxr2e4GXNum1nV4KEPcviiKk86ui9n32BJh58b9FurMWECetKiVRHYjPpsAf4NGGBDGTy3QcPcmtLg9cqI51iJFTkIosqjCqQEEUVxijCGJRjSXRl1wW1vQ3RxW/qkxShu2Sxo/ckJHw+v08pyekMf82O3/9WfnRKxZkXswW/P1tyPCckfvl/bpZlMPaTX+dH3S561IIjXChcFy2WEfFU3D5RVXJdmIXrFv/pEsnDKOSkL94ndUq87dxfH+dKXXtPTSYNwzAMwzBWg1AgZ56Qo8xwog2G8UIH3VjzP2SBLNnyKpSbJMXXZ05b5UqhQDpp9AKJZZFKlQtuWeoO5QhkkCCQEn3kND4YQAfEIgiwQwp+rtLyCJw8Qn5YZEKxA9FgOXH7l0ksrAb6Omfdqs8VRSGPedINpuMH0llVMDl9RyLVkUwCGXQHA/Agyf2SQ2nhk6W33+ro3/GPipOKcQICvXjn/v34tT7B7xd+p5BDFcakKDpBjPJUam3u8L7FNRHG1ZHEjbf8JP3266Ujrd0NruMJB9zulvi9LXJ+LXjiTMlHfej8hFRu+qlvaaGr0UVQZF1cFdYDXo6qkutkr9S6RX+8SHLMgYlzXCXyp1IXU8ECeawrr76Um0wahmEYhmF0AS+R04/P0a73jabcubnOu7H+EBFJ1+Qq2fIqf31RgZSoI+SRU3MgkFjnBbKYPAJfRp5KuPexhXN0X51wZyyQu1z0ruTYTOFSvMCwPN44zZWVnd0+gns9Ij2cZt2yo1uh7HD2dG6jJxvOUas5UZ3epjxm3bqTKxFte/Kz/HbV63yQTbU051dfpc0/d4NGIRuqIikqV6w6k0m8Zj/4DkSyUrq4ctlFI32XVuneii6t8j5w8j+qvNXtNPfRY6SrIokYhrLoyiyKbS7PPnut2znJ6spiOaLoj73J1vvQb64qPTrsusZf0xMOvFPy8L3WTB/n/+50EbRB6KI8eDgt+9u3aLN9rpZ1MeGOruyINLPIOlmOqpLrigljRHCNLPrDhZKjK3Vba5NK5GH3S13I3EdVIldXIENMJg3DMAzDMDohjELOOCFHY9YjGlHQjbWCMteO4oKiAhkSNLmKtr5cZYmWWebUvCt5gWS7i6KPQRdWiCMk0stjFwUSm4tActrs9kAeL36fH7GBLvtCtOjWzbhxa7es7HLRe5LLPXvyejR6NvOW5JyQO5z9Mj/6hrHm2k6OG8tROaxKLnRIKJDbnfocC6QbTAcD6fjBdFggm+tX0PJ/xxGo1RGuULZK7R/JoxtwB11cVSD5pOLkc/kRo98lBBzlVhlQZdNPfZOLLfxrb6bcP6+X46bp6usvRxQ93SEkvQVc5xMPutstOVJ/0Jj/+GmSj/nYZfyrGk5L//ZN2mzfWNR7WhgT62QXXV741Pk09hNfkz+AqEQ+IPXJI1XQnEeP7tbfWcV8k0nDMAzDMIwCdgwE8pXjczRqBNEGQ7nx5KOQaKVxIy9zXSCQP3ICWbJ15VaUsT6URyACCUmUyGMgkInuq0i8sUiHI3wuWafFqMwJuyH6iPsfxwXdV1UgQ9zOLkPh1e9v5crKLhdDHvHmeOlx8lhkvscdznrJlVyTN2o0+2X893WeeF1MepskXiK3O/2/bjTWBhmNtQ3yyBLZ0lhFLXUrKfvP78p2wAsYGuarI5MhaTkrfjz+STFSK34Wfh9ULvBzcXLvYdjFshjlvs7OZBHHwTaz+pEolguu+4kH3+OWgvNKihU0/7en0LjPXk+L/3SpyBsGT1riBiIa9xmcP/i9ySIT7M/o79QtpNaVFEam4wh9BS188lwa9ZELJQKN39vkwx+U1SFzfnW05N39OzWZNAzDMAzDCAglEmTPydGQVBQyc10sXPkfxTIZWFaiGOMqS7S+MqesdCU+LkZ4FVF00cdiAgkLxI2MoDOB9HXI3W6IPiJtHgjkrpfM1k399nGB0fKrN2wpuSeSTn4N7XLw4tHH7c94MWoAy2OBPPpl4LeJy4rfVjMlsSAkurG6KT1kQJ0oCqnTeTTLYDoYhKW0jHWHUIZ0JnOl6Mpr6Og5cJxNtvks/faKeN5MQxGZPOQHbsmfWcH5xcV5vzmZhfJ7MsDNpp/+tkSVl/xZp93Y/LM3lD43S0kh03mX7nC9lv19tv68UJH8mZRD0G27p/4wYDJpGIZhGMaAJxGFPC5Hm65PNBJzQpboxpr/MedFW1BBZRfWe4mMBDKMPkruBDK8/xEHCJ/Dl8M8lSCQfu7H8P7HXS+dy+uxkSJdUrXgH1ggp0oOdrlkDj9yPVYhauYGe0lHHxEJBNE9f7oQlzmP29DheilEmUR0EsTrYiqSAnnqc9GckDqYjkok7oGUOSH/9T23ZXmS1t1CuaZ0JqR4rc/eH8yVaJQNPg+2OOSHwfmVPP/m/eYkub8S99gu+tPFEpHEfa6L/ngxbf65GwvOS4+e2uHKoFxqXZSF63S02U0/+U3pki0SeQQkMrkNmPPIUT0aYTaZNAzDMAxjwOIl8sVjczRmJNGGw9gZMRorJBLtMm79Jbqx/hgCFjSdiraiXGXJFpauyJwcRCHv2dCJYxNRkxPIaAAdJN5nNQUS9z+KQHKaGAjkbpfOk010Q2QuF9pp+vemuLKy6yUsnFwvoonIIwSSX2M6+ogRURV+AwMxTEQhpajLaxSdZMJRX7c77T8qkIhCckPfRyFb/JyQ/7jGbdm1KJ/HC9zaksrw+dLy6F+DCWPPIEL5hR9xyZ1r0SlXQfMeO0Em+W9raaQFT5whgzWRGygJ9y6O3y/sjhyct1IMloX4+J3/0UQLGF127CeuigaHmnzEz2VdYm9emP3wV3q8q7LJpGEYhmEYA4owCgmWnZOjocXmhLxG739UgQwJmk5FW1Gl12dOXuFKfNx7N9KIIwTSSySEMurCyjv7FOIXwzxI2FwEkg8R3v8IdrtsvithY93Wl8H06ye5EqKV81wJ9z7yAZ1ApkdoxRyH8qY5CZQmrZSRa43UBuW4HplvBPvl6CHOOQubyrNu28WVEP2EQDZqcoPpIGIEgcRgOpDI5f+5xW3dPSKIBnx3CmVaFD14DuuOum4QmcRIuUx85sXn49xfHy9C2d7aSPN/dwaN359/h1jNlxO6n+r8lZ54Py255YhoBVN6HTI8VzjQzpQv/cKtSTL74S+vlXteTSYNwzAMw+j3hAL54jE52nxDovU66MYK8j9xIla0pRRUdrSes4RASjdWdw9kk5NIiUK6CCQsUAyPkz+uz4FbJfgyJ7ien/8xvP9x9ysWuu1dx9WEmEISIZBbuGUIJGRTt1GB1Ckm0vNDbnPS3/g9w5sGSdRcEDHkcqpOs8I6v1w6Oulzotdu39WV0gKJrqzoxuq6sjayQNZXUe65G9zWPRNJXF2hLCaOa6PRb3QNfGZMOvS+4BSMz0WASf5xfyKm4ECkcuJBd3FthVxpC1j4JhyA33O4jyuXOF58zmNN8XUYSXbTT36DmutXOpH8pdQnjsXF2Q8dudbOKZNJwzAMwzD6LV4i/3t0jsaux2I3PN2NlevCwXR+MsaVguZR0ZZS5+szJ6lE5n+4cUogXQQyMY0H5zC78Fi+jLxI8gPoIAI5Pui+useVi/mRV8p/bIxFzfH4ynUTpOzZ1UcreRsvkJhmYuZN22o9M+2EP/Mjv1ncqE3IYrSMreL6hBy6cryfLuG/e0huL5nmr90eR+SkC2trKJD1OiKr68ba2lBVdDTWnqSYUBaTRWDC2PcQoYwm++dz0p+mDOZqnHLkwzKCajsL5Vzp+vojvY7aWmROygkH3sFbBjsFx9AsXMdE14EnXp7/+Kky2E9zbU5F8siH3JrkPrMf+tJaPddMJg3DMAzD6Hd4iXzhmBxNzlDH3VjvY4Es2hoKKgvWF1+XOWm5K/FxpRsrSyPk0UcgC6bywM6c/DHCvEjy9z9CIsMBdD7wtaV8KGzEoDGrBT085y9fO15qwG6XI1rptmF5hEDqBPdNNPPm+P7HrY/7Az9CDPlNk0YuJ85jKUSO/+Gy5pJhWericvF6zf261+7YXWoA7r9sa2lSiXQCKVFIpIZqmdIj++x1buu1I5Aek8b+j8ikTPqv56k/W1HCfI1bHvUYn5t87bQ1y0A3k77I28o11aqD9Bx0V8Gegp7sjtLr/L7zfnsyjdv3Omqsxh+K9NyDyCpuK87e/+URa/38M5k0DMMwDKNf4AUSLDgzR+ujGyuikKW6sUIiQwpaREFF0daSVmZODATyh2yuch9kIJFeIH0kstwoJG+G3HdfRQRyi7tigdzr61l+jIXR57780jXjUCHsdjkamFwJiXSNXYy+CkGbdeuOuhGz1TG/p3cfOIC2PvYpbZ3ijeM8EsaojDcVq3WbqAur5FITrcN/fcB2vozM5bz8+p17ujJGYf0XtXuBTEUhZToPRCE5eZnraYHsTBpx3plA9k/wu5182IPRKRvDMvmrr/L18oQMQgWZhMhNOeIXuPo0WtnWIkJZdM5KEJ3/fk2wXoq6jGNs/vmbqKlmqVwHOB+nfvkRWafE+73/y8NNJg3DMAzDMLqCl8h3T83RxiOIBqW6saIiczVLHpO/b6zkMUEzqKBFlKoIFjMn5lyJj/mjTVgWWRQhi+jG6ruwQiZXJwrJm7ZyDnls5DQpEMi9v5nV3fhBczRdNQcvfmdTycFuV3Cj0m0cRx+bCwbQQYNY0UZphzLpl4My8mgZJOoA564cH4fo9bv2khxse/I/WB4hkE0skiqQrS2IQrJENro5IRt15EpPT0hkMXE0URyY+M+Vgnkb5fRlmXzkKIne448yXh4hc1OOfETkUrq+/vr4TuesTCwLbtll8x47kcZ+8hvU4u6TnPrlX+mKCN6Q/7//i8PWyblqMmkYhmEYRp8jjEIuPTtHwwoG04m7sYL8T51EFrR6UhUdreeil0iZZxID5oRRyLREYj1ubMSO4XFdlYDcRSDhgxDIJk5hF9YPf4cF0u3jnFFyKfLDC9+OI6y7X7HY1UMgNfqoArm1rPdsdfTv+DHZaPWFLslkYj0vumXkkkmlryN64+69JQcYxEflkSXSTechEgmBbKphgeTEeU8KZFoeTRwNTySTMu1GiJztNPuRr8i9xPJHGlxnnL/3s0Pirq98biN6Gc9XqddAjFuOqrUQb1VBcx87njbb91pqql4iNZkpHws3cFSwSH5xnZ27JpOGYRiGYfQZfANv/hk52mAYF3w3VpFIbmUNGUKZb23ICxBIH6ULmjoFrZ5URZH1mROCKOSPWVAhjHIvpM9dQr0IJKKQ2Jof/PHCPEy8qR9EB1HIyXerRP7fNVlZL5u5bUOB/O83A4G8cgmv0w10AJ0WfhmFArnl0Y9zszNsibpyVKUFyORWxz7JS/ym4j3lpLKI9cWW8T9c1hyPb9z7EX6MkcY3vzaJQvourD4CKSOxskA21/WYQJo8GuWCz5rJR2DaDTmrFSnoEqbe2OakvzqRVJmUa+eY37tzvFFGVcX0IULyIPGiL6XWY7RYTC/SVL1YRiqWqORXHo3WR/D19v7PDzWZNAzDMAzDKEYYhVx+bo4G+cF00KZCGjSIMldvzAUllkhPqqlT0PIJKoJi5gTck8jHwxQhvhurF0nMCRndDwmJhMRhZ07h8V2VwJv4ZThfExIL5MQgCvmx65xEIvGyc0RZ+PfXQ4FcKiukkysasu2tImgzvh8L5JZf/a0rucYnZ6p4nrhe0UIsk9gBdVwqOQgPqvw2mr/5g49KNYjlUbv9RfdBIvmpPJpqKPeveBoP0F0CafJorC743Imn3gjR8372w0dK9+yoCzlfh+/89HPa9ZU/E3COv//Lw2iSm6vS7+ezoODg5aAKo8UmopJTPy65Xn8x77FIApNJwzAMwzCMAC+RS87O0XAIZGIwHS4MG0aZr6/HCyx89wcCWbRlE1QWrI8rMserQAKJQvqBcyT66EZkLYhC8v7hMX0ZeZh4U0QhIZDhXJCf/F4yChmmf10ZCORVy6RSo5AaCZEI5Pe3cluwQB71G2lsJnHLnCWboXG9Eq/rsKtrWOb8rR99UvbxYL9YHl03VpFIN5COSGQdLf/3jW6Pnos+mjwaq0MskjjHHVFRC5iCA4NF4TPAdyl/+yf70LQTntFzn2XyvZ9/IZhaJATXjysKyStzzqPH0PgDbhORRLQe5zS6z8bEW+M51uV5bjJpGIZhGEavwktk/vxcYTfWwYPphj820zUvqIzl799McrYrlzsKWjel12eOZ0lzSBQSkgiJ9AKZmBuS66UrKQ7AKTysq0on+CYEcrPbY4H89PeDgXSkoDnSPy6LBXIPFkjIowqkRkA0AhkKpG9kugamSF6Ir8f/cF1cr8TrOpLJt3+yr27kkG59iMyEEUgffYwEslbKoeiZQBq9FZFJmccxviZiKlgkj6Dtz3iez3sVSb02W+UPK9uc/PfoPuB3HzxI9tDpRUDyCix1reJeSz8ViIrkb6RekE3i/XCfpsmkYRiGYRgDGi+QnvylLJJoLyENGkQ0cj3KXIFRdpT8AyyRBS2YoKKjdYAXvUTK4DwwPt+VFeLY1BhLJOoxwSMkUqROdlN8GblPvBly3Ac55rZYIPe9qbhAgr9eHAjk1zDgjm7k78WCoL0aCOTUr/xaCyJ5HleSLK4N61dHJt/56eddrYLus/q6II7o3uck0gsk5JET5oNc/p9b3F6KCaTR2/GfReE8jknnq5BRW7c/8398japEyr3KLJVv/uBjtO0p/5Q/+OA6wHUECqcXSSy4Ra3DKLFp4i7rIRUskgev83PfZNIwDMMwjHVCWiC/9eEcfePfo1UkB3PDaugwtrGxlDmjTtbnH8C8iUGzpaAFk6oosj5zXBCFxDyTXiJDgfTTe8iIrHwQMT7kup/gqtIJu+BeyHEuCvnZW7TbrLihFOLyXy6MBXLPr2flpUjjVBqoLGktEMgtdQNm6pcfDdqgrtDNMukbvyEY9EOFFuLoEhrLiSikjsKK6GRPRR+BCaTR0+BzqdQ8jh7I5A5nvewkUqOTb9z9Idru9P/Ksv+jyjv371dkapH08XTZ12KU2HGf/R41VS2W40pk8quPu7VMcL2+9+BBJpOGYRiGYQwc0gJ5+6dydPZfVbyu3Csn3VfnnZFLTM6vEulJNVsKWjFBRVDMHLdUcolCwubkXkgnkI2c/P2Q6MaKbq5ifEiym+LLyH3StiQ1cxobRCE/f5tO5yG7IJeC5n++QCVyr29m5WVIN1aYJEsaBO3VG6bIeqCNWt965DxoSGq2ZjL57oMHurKCOewQacHgIrjXS8WRpVFeW5OUwy6sqA8FD5hAGn0ZlclwLke5cCIwnyPY4ezpfPHqH3+QY95UjVa2skg2UmtzrUT1k1OLBFegFMLrUUeInXjQ3dRUs5Sa61aoSBaMwhyDbrQmk4ZhGIZh9GvSApkGEgkgkld9MEdXPz+asufkpIto/kEWyURLJdVsKWjFxBWZY1UgQaIrqwgkIpBOImVEVkgkGoXYmh/C46KcTrwpBtMZfWsskPvfkezGGpb/dF66GysX0BB13UWnXz9JVzLavY6bj8lWp+bpui7K5HsPHqxlB54rjja6nF/PgifOkuiIRh4RhUSkpYH3aO9xefT45zGBNNYW/rNKp+AIia8nzOkIdjxnRiSSyF+/c08WzFfkGpL5Upsgk5+jKZhepOCa9MTXJsBUIuP3u5kaqxbJH2xwDSTmhPXw4rsPHNgrrg2TScMwDMMweoRSEunlMY0fVOfre+fo2//VcqFMglRFYrE9kkgZ4RXW5ruxIgKZvhdSBJK3Ebtj/LHCHIk3Q47NcS/kpq4b64F3J6fyCMt/OLtYN1YMpsMCyc+N+RVn3DhNN2CmfOkhbpn5RuOayyQG5kiDhq2XxzaXS+QREUcfeeQ8+49rIklcW/IIwucyiTTWNhKV9PcjhwTXGabi2PHcmTTr1p1UKKV7Qju9dvtusuzvl2xtrJZurp2NCuvB6LBbHPJDaqpZJpFJEcljnnBrQXJ7dEk3mTQMwzAMo9/QUQSymEB6efQ8/oUcHfybuO61E3O0w4/Lj05mjtX52EQiYW5hN1aRSHRj5YR1XiJBeDiU04k3RTfWMUEUEhx0T3GRfPKsdDdWThKBhLg10qs3xPdBxvPYuYbiGsikn2/Og2N7cdTnRu5HXI0FUiSypZFfZ1skcxDGsNzTmEQavYFIJhN/pPFUyDQcEEmPCOW5MzjfmXY67zX+COB/fC1h6puWhioWvv2DgXxC9OjxNY77MI+gCQfcLlFJRDVVJn/v1nr8dc8yef/+JpOGYRiGYfR9vESG3VVBWiDT8vjrQ3L0xd8m69LHmH9mTib1T943CbT5kjlGBRKIRCLa6AVSJDIcTMcJZFoikYdl3gw5BnBFFNJP6XHWU1k5XEMD0QNHjqGDWSa9SD5xeqlurO4+yO9N1pWM3kPlGquBPGrml1FMrUMera6Iutt5MNBHJK2SvDA6eYRIui6rWAahxIG1IY4h/vlNII11jf8c06l24uswgq9HRPtjmdRtZt26o+Q7X/CWXHfontraVMMyuUq6ok458pGENBY7Ngb0mfTF+yQq2bhqodRtMu2zkhd7Kb1FJIHJpGEYhmEYq0VaIgEkMC2EnocPzNGXniguj2n8cZCvOC9Hm9ySFMrMMYslzz+4mYqi78bayKbno5AQyyg06Jo7vtUT5j45icSckOFgOmc8mZXZSbAOT9PAh6+v45/n2FggP/AN7caqg+mgGyvug9zCrVVkVMdAEKWUFkat1GJqHRqcIZMOe8BJo0uhNLqyHyxHf8B1L48ek0ijt4HPs2g+x+A69Phu4wmZlP8VNPOWHWjnC9/ha65JRjVGF1fMOZkcyAfoPkn0D0MYeKexajFLaF6jksc+6dYW7CDdZ00mDcMwDMPok3QUiQwF8uf75+ioJ8uTR09aQMF/j87R3g8m62WeybAbq0ikvxfSCSSm9XAS5TPJfdnJI3JEIUcF3VgPujdLI0YQjRxJNGwY0ZDBXMltOvjpXQcUi0K2ssAhKtFAM4L5ICez8CWEsUyZxP1TaRC5UGnUQXtEGF30UcQRXVbRXZW3AWlxBOtKHj0mkUZvJIpKFszn6K9PyOTBBVFJZLNu0cgk2PG816hNopJV9PZP9u1wIB+Br//3Xff0zT9/k0QlcU2P2uZzUhfD+7ldMUJsb7p+TCYNwzAMwyiLUCKLSV8xuiqPEhkIBAsNuJD8/WNVGiGPviurH5G1o26sPvcJm3LCnJCbuijk3t/J0pAhREOHEg0friIJoUT5BwcHUchvZlncsH87vXzNWNrl4tmJ6TwwpYb+DEWEMSjrOn3AlAAhk754v0hhIokwQhybeBlRR5VH/YF6T9SxGCaRRm9GopLhXI7AXZv+isU0HKWikrtc/D5/7LTSjO9vTdud9m9qqc9L9LBgMB++/v3xFL0PEwPvNFYvoebarFwrWx/7Bzl+IRUyQqzJpGEYhmEYfYaOJPJHn83RSX+K6zqSx2ICqn+511aTduuUFprmruyns8idm5OpOPLX475IJ5DhvZAeX0SeTrxpekqPPb+RFcdDV9bBg4mGQCaHEf3BDaQDIJp4Oggo5oREFHD6dye6tSx/h94XvG5kyIvJpOZzHjlKajyTDv2Jk0a95zGMOkZdVoN7HUFvlkePSaTRFxCZPBoymZY9oPOxlopK7nLRe1yukGuztblORnUFU496rOixEvB+6D47fv/bqLFqoYwCKzJ5HMtkkb2ByaRhGIZhGH0CL5Ehd++To9OfSUphKYFMy6Mf1TCSRl2IyoX1UpB6RAU8+a/ly49C8mbIsXk4pcfuV6lAAuQVlUSVnCCTz12hEvnha7LSaxa9ZUUi0Y2VG3uv3jBV1oMtDv0xP6IBioOgJjio1kp5zq+ORiliiy/8yMkjIo7IY2mMJBJdVvHETFocQW+UR49JpNFX8J9zOp8jcNcwcEUMpFM6KjlbPiBwvWIUVgy88/ZP9onvv/Toh4EUPRBJ/CEJU4HgfkkVyT+6tQ7/QcW8c99ne901ZTJpGIZhGEaCtETe+skcnfu3WAzLlUeMWqqS5RpDTrCQtMot+zJXStGVFS2/52Ty3VNztNW9oyl/uXsNvhWDPJ2cQKIr6/g79LXtdsViPhxboyT5L0+F9OK3VCLRjdV7KrqyopEYRiHRJU1fnzsAP2jm6pi5vz5Ocs/Eg+9VcSwlkLjfkZMnLY+9WRzT4LWbRBp9BXzebXW0m89RL18mKgiY07GkTF4yW65nP7fkG/d+hLb8KkQyeQwlqOMiel1MOOgualq1iFoaq1Qmj/+T2yAJnu/t+z5jMmkYhmEYRu8jLZDXfzRHl/4zKYdpiUzL46TD7pcGTyxa2nAqWheIV7ROiq4si3EZx0hEJy/j1+JbMMiREMTjPD2lB9j10nnsj4P4QJX8HBBJPfbLV8ddWdHdVQ7J+8tgOs110ZyQkEHsIy9LXpDurxUVNO+xE1CImMgNxHCajoKoo5R1oBzQl+XR438GE0mjLyEyeQxkUq/uGF3GXJFpkcTDLB+V5E8NGfxK5pZcJaO46kA+qeO5/XwtPs8wQJdOB7JAeiGM2m5/WRdvFfM2iyQwmTQMwzAMo9cQSuRVH8zR1c8nBRF4iUzLI7p4FooialDGFlqX3Ebr4zosuhy1QblYPRpg//5qjj78s9GUv9gJJcsfoogSheQ04U59nTud/wa742CXBvExWCYrVSZfvmZT2WaPr2clx3EkCin3Qk7QOgbD9evr0Nejr4Ll8bcnS8kz4YA7RA7jBGHk3AkkBsvRF6v0B3n0mEQafRUVyd+7JYDr3BUdmNOxdFRyDv7yxNd3A7U01tAbd3/Q3Xup26YOxcQ1uA9z4iE/oKaqRdRct0Kuo2nHP+3WOmRz3Qejw/bGa8xk0jAMwzAGMOmIJMTRS2NYBhMPvodbDixjaNwkBCtcxv9wGTkytxys01W+zpW5UoqurKCM/1jWwTBmn5ajKfeMlkF5IJHjXDdWsP2Z/6PKQUOpYtCQlExW0itOFDGlB9CurC30yrXxHJYTDryTH4PXx4X5j5+GhYjx+9/qpNFFH13ksc1FHlEXsqbymN4/ZF2KKF4Xnv/Z+y9zNYbRdxCZdPM5evwnEMCIrEBlUj6EBBl4B1FJ/mzQuSXrqLWhmt78wUc7vPdS4c+wBw6gKV/6BTXVZKkxP1/+iDV6+wNkXSlMJg3DMAzD6FV4kUxLI9ji0J9I101E5ub/7vQiETrNsSyiGKyL6gStC7fHfzzEgoksLhetl/9xGQNihGx97FPS8Nv2lGepcsgIJ5OcWCRn3Li124po9yuXSo4uZRC+8F7ICQfczo84fgUteOJMrXRgDjiII4lAtjhp1AikyKMbKMezuvJYShp3POdVF+nEdCAN1NpUQyve/rOsC/dZW2Lpn9OikUZfxX/+4bOjOBX8mfL5klHJXS+Zw9c97qnG9YiBd/L09o/3cV1mPbxDAZDJ/eUztql6Maelcj1NO0GvZyW5Hwb06a3XmsmkYRiGYQwwOpJIMPnwB0WcJLW30vzfniL3AEoDB3LHKSmH6Wgl/ofLmkuG5WJ1WojKupSsTwtqXJa1KpMnO5kcPJRm3baLbLHrpXN5c9wvWaESyfLnR2Qdv98tUr/wyXNl2bP5524QaYwjj14gC6OOoLvlURuqEF73e5DXos8vjVcM9tFQRe//8vDEc+F4PS2U/jksGmn0ZfA5GIukfo6keeenhTKpUcn35TMF16Rcixh4554Pp7rMAnfQ4NjoNjv1y49oVHLVAhFRlcln3BaOaJ8KltRPm0wahmEYhrFu6UgiZXJtFsf3f3mEjMKK+4Agkl5m5j9+apeik+E6IV0n1W4/XYjXSdGVZTEuyzFc2T1wpseGTG5z8j/orR9+XKp3vvBt9twhciw0dl793mSpL8a4z1wX/awqbhBIiCOijsmmUjEBLEfgSokj2P3KJfo8EEhEOV2O1yO/C0lu4B5EJ5sbqKWpWkaDHPPRy6SbnacnhdL/DBaRNPo6IpMyn2OI+0xhMJ9j4cA7KpO7XjKXP1P4H7q4uulA3vrhJ1gmnwwPwcVgwYHPqUkYeKd6icikiOSJXiQLtwcmk4ZhGIZhrDM6kkh0yUKXUcyJpvLYRrMfYqE8/GeyHIkMIpSPn5YQyg4FssgycsnC+qJ1KMZltwEKrh7FwvX4i79np/NfF5FkK6MZN07TyoDN9rnaCRqSj/pxjp85RVoCyxW1YvIY7ov1mO8Sr5GfmP+rTCLFQulfY/A6W3x0sk4iJ5t/7vvUXL+CWhtrouN2t0z6n8Uk0ugP+M/EgjkdPfyZgjkdS3ZxvZRlkq9JuQ75unv9rr067C6L/x5csxgdurFqEbXUr5Rra9qJf3FrFd1cH9/68ad69XXHMtloMmkYhmEY/ZAdtxkveVoicW9OJCsy+X+rjJK65VGPSQMJXSenHPGLWGRcrt1dS0cnZbnkOs6kJqyTyngfqZMaVGrRlZWO6lUmtzvtPzRo6EiiykESQfCM/fiVtOwf19CYj1+hP5NEHSGOhc2gtASubtRx1lsLJfe/Bz2OvuYV/71VBgF66TtjVChFHPFaVCjD348ILl6zi5giOom5L9+89yMSUW6uzXGjdAW1NFRJlESP331C6Y/17P2XuhrD6NvgmkyIZPRZElNMJn1UEmW5DjEdSGMVX4v/52RStytEKxHtxGcrpgNpWDVfPofG7HCwrCvY0S2+9SPIpH6W9EYqXW4YhmEYRj/CCwzwIrnNSX+nbU78K5ec1OERjSjMuwiQc5r65V/R7Ee+ImWMgOoT/pqOwXjYbnhjSI/LwxSsw794mTMtOVw9HqPKeG1QmSyH20TluO6Nez4k90qi0QcB8qmlsVrWI4qAycUhZX4/yFKYwv2QipHeB429dAKxSJ7L76e+314kk7jfhfu9+IQ6/R0h6e9Hfh+YMxNbVA6mysHDOA1nfx4my92Jfz9MJI1+R3Rd4VrjTJL+S4pkCmyPzyT5A0+ziiS6y8qx3DZSCBMyzVvdAFoQSVxf0TZ+U0la6O0iCUwmDcMwDKMfAXkJRRJse+q/aNtT/qkNFE5eTiAlKigV0t31vZ8d4uoqaOqRj9CcR46SCB9V6ByNFZUQynsCoXQ65l2O88QyExQd2MjVRitRCLfsoBwthvXJLq4dSaAnFEHg9ym2X7itT8XEMY3/PYz60Ln8/mkjdfl/bikikgzajh753ejvSBKaa14i8fvh38Mbd+8tv9No6pNgKpTuwP+cGB3XRNLoT+C63Pr4P0lZr0r9hyVXmQLXoUYlZV5JXtD7mdFDAPPHAr+/T8g4DxIEFQPv4I9Zvku6ILvIQ5D6DvyJZBiGYRhGX8dL5PLzcpS/KOdqSbp9SkOJGysJQXHSqPVoDlTSVkezUP78C7osdVjt1ktyE/9HQO4gdSWSX5fIQ1w9Hv2qYJv01p6onguYrw3JU0oiIUY+RwrlMb2P38antDiWkseQWCTP40e8d8VFEssvXz2GS/y7wG8KvxNBlyXhd+By/B6i3wHqWSx1Dk33e2L8z7e6+P3xcz564Zau1jD6D3pF4fpyyLWl6e2ffIZ2PHeGW5FEr7F2FslWwlQ9mB8yIjiGJFQF/0Brs0Ylcb8zrrNtTvqbbFUI6orV9z70U8cwDMMwjD6Jl8jsuSyRF+Zo0FCuDINTUcNGkzZqWEASy/wYNIBUHCu0u+vDrrsrpEXqK2niIT9IdHcVufOGx3limQmKQtz9VRYcKKS2DOUzLPN2uMfz3QcPTEiTL3sJDBPWhSkkvW1XxTFNLJLn63vKafm/by4ekQxxb78UeB//O4l+N/g9cJp16060w9nTddPofcGItUXewy7i3yuLRhr9EX9t6seev66wkCZZJ1HJi9+XbTUqqaM9Y+RoiXJyvRwy9c/z9n2fkXvSNSqp9zXH6J6SoteEeyU/sVqfP2sbk0nDMAzD6IOgUdR2/TBaerZK5JBhXInBSxG0Cr7dpUGDhk7USFFRDJOXROTJ7q64fxLdXYP7J51URvdPAhaaWGRSSWQnnYe4el+UPK4LH/G63vvZwTIdxlRumAHIj8fLYFockUL8dj6tqTx6vNiDUR92Isnv//J/39S5SAq6vfyuBF2WhPdecr+O3xP8x3svA/boIElxt7uu4987E0mjP4MByPS68rhrLEohvOyqdHRoRq41RCUbZRHXpVyb0YbYJ5UYTOfT1lwnkUlca4KsR+6SkFjo9ZhMGoZhGEYfwgvL4rNytEWGaNhwrkQk0kskyx4Ng1k6pCGjyctIMuIFadRlTWF3V7deDoPtNIlUuvpY/FRuBF9MLwckomiJLLUlH/+9nx8qryeUwve5LpTFMKUJxRGpu+QxxEskGPXhC/hR39dyRDLu6hqC9x6H0N+LzzHNyU7nv8Hvixvl1TVsZVoTbtxicJ9i70FH+Pdl25P/YSJpDBD4eopSXHz7J/uU7OKK6w+fR340aAy8M+2Ep7U+TBEoo9vsvvyZ+jtqbdF7JXXwL6JtTv57tE0y+ce+gfsmMAzDMAyjN+MlcsGZOcqfn6MRI7gSfyiHSOLbvJKbH0OGEm28MdHESVyhYP4zLyLa0NEkYsk7au6XXe4bRCKMbnTXh7/M1U4ikVha4+6uvBknEcRQLtPJr5NcizFunYeL7//ii5K8HEF4OpJGj5cjn3pCHkO8SEIiR334Qnn/8J4vf+7GMiOSAf6tl1x/Jz69esNU2uWi9/i9QTc7bdBiegJMnI6pQlqb6rFTl/DvKd6XRy/aytUaRv8j/oMPX0/RZYVytMCpEJkO5NJ5slZ6ACTulQz3CY/DyRcZzEfZxtcnopIxutJvpkn/vfnDj/fIZ1VPYDJpGIZhGL0YL5FzTs/RSpbI9SGRuC/SRyLREBrCVrnhRkQTJhJNmkKZE1bwihDXVOFtY7GEFIZ1sSgi3+qY37vurroO3V1LTxdyGh+f7S8USf3vHjT3RU+ia6xb+f4vj5B5Lt//5WFFJbIYoTgiheLY0w2yWCQvlPdKEv/LPff9LolkHJ3k9zuR+JGPOf36LXSi9EAkVSLRdQ6N1Gpa/u8bO5TsNP59tWikMVCYduJfcEFxKbi+oqTLxcBnnXxe4dpra5bRlKed8AzWxEky5C5F68KBd+rlukMvAF3rto1StEufwWTSMAzDMHohXiIBRmjNrMdtDD+4Dr69EYkczAsbrE+0OW83ZSplTl5FmcPnUP5XUyRFcCNFpDBqvnDu6zpIZXV3Rbda4ERSnNA/FItSlohOzn74SJr90JcSMuRlJy1IXhp9WpvyGOJ/P6M/oiLJbwreoC6LZAE4FDI5ZAW9ct142u3yhfyWoYud3qslyYtkYy0t+/vVJpKGUQbuSuXkPgtdeuvHn3JdXLEMKmjWrTvSrpgOBBejG3gnikrKbvzgk9tPS/rv7R9/Oh54pykYeCfazy1HVNCbP/jYWv0cW1PcN4BhGIZhGL0BL5FvnJQrHKEV39pIgwYRjRxJtNk4lsgtKXNaDWWOmMcCOTUpkRGueVPQ8NEGDw6quV92uWyHRZXHwu6u/Do4beG7uwIIjxdHV9IHzePldpnHEtFOHNOLkJccn3xdmNaVPIbEInkRP+K9wPtVSbl/3bBmIino7wDplWvH0W5XLOa3tQ195RJdWtE4xT1YLQ152asc/HsITCSNgQKu121O/Kt+rvkUFKPPumJg7lb5Q04bi2QLvX7nBzTCKTv6Q8T/pMZlAAPvSFSysTq69mL8hsEOfQx8JRmGYRiG0QtAg+eV43K09JwcjduICkdoHcQPuFly7FiNRJ5ZT5kjF1D+UZZITqWIJDJotMRi6UXI13lR1Dzq7or9eFmE0nd3jaYLGUQTD7mX5j/uurtG1oiiW+Y099fH0txHj6E5jx5Nc351tKwuJpFeeHzqDfIYEovkxfyzu/eR35/cv763RiIZd3Vl+JAvX7Mp7X7lUnkP/UitEEk/ImRLQxU1162g7D+vj97H0lRE7zHoDe+jYaxV9DJ1KbFAb/3ok7TjOaXmltRpd3SgK41K6l76T5biQ3HSwls/+lQ88E5Trf5BiNn2lH/Kek19H3w1GYZhGIaxDoGcNF43TEZonbKJG4w1lEg/Quuo0XpP5DnNlDlqcaFEStuksIHy2h17aIEbOaFYSkMorBMx9OU4yXQh0t1V1085EtOFHMVlLKtQRhPpA3HJdpr3m5M4nUhzHzuBRfJ4t1IF0ktNKDi9VR5DIpH8PyeS7j1cU5FM8/LVY2n3q/R40oiFRLpGKaKRrY1V1FK/kpb9/dsdiKS+Nvx+/Civ/v01jIGCv2bleohSSHpZkS6ul83XhTZ0cdUBrwRc+9HhooJLMTrwTp1cs7j2iiLH0vTmDz7a565PfEUZhmEYhrEOQCPHN3S2ZIksOkLrUDdC6xaTKXN+G2WOWdZpJBJkDp/tSooIo2vsxPIY1IU51+s2LIn6QjhhNepdNFIWdVlkl/MtDvmhRCfnP34qzf/tKTTpsPtp8hE/l21BWho9aYHsrcQieQk/6vsEicz98/puE0kfndTjsZLLiK2NMnAHRLKlsZolchU1166gJc9cVUQk3e9Rfk/4bVbS8v/cYiJpDGi2OelvrgT0GpEkn3NS6Ugs6Ocbega0IyqJgXc+6I7l9k9t7+sQ6dz62KeigXcglRHynEHq47hvB8MwDMMw1hahRGKE1vzFuUKJHMwVG2GE1i0oc1EFZY5fTvlfb8kSuSV2K0nm8PdFJPOPpbfzgojGS5xisYQQahn/8EIkxzIn393Vb6f3T2p317mPHkvzHjuB5v32ZN5PmfKlX0o9IpihRHpCeewLgpMQSfeeeInszojkS99x3VwR3cVgH4hIuvsj0a0V0cjmuuW0+OlLUyIZ/67kdyrLEMmbZa2JpDGw8dcEUrwI3vrhJ7SLq1sGs27dSaYDQaWMoCzTgbioZAJ3IDkukqtidIAsRCXjgXe2PfVfrpQm2LGPUTF/SaO/q8EwDMMwjB7ECwnACK2DII/oHerbEWiM+MF1NtmEMqfqnGSQyARyH2KSzGHvS57/zVZEzU1EdXVEtTWUOVP/Ir7D2a+4v7Djvh2YiivjWGgsqb1EdZr75Th/94EDacujfiPdXj1Tv/IoP8YSE64L6asyE4nkRy/FTynl7D+/260SCSCSe3ydj8m/CpR3ufh97dYKiWxYJfdHNtUuo0VPXeBEUl+Lvu9SclUVtPzfN0mNx0TSGIjg2t3m5L+7JY+/XpS3fvjxQCZ1HWQSIygDRCQRXZx5y460zUnuWMlDOOJKHHPKEb+gxurF1LBybvSHtFgmCw/w5r0f6ZPXqUUmDcMwDKOHQYPGC0nJEVoHs0SuxxI5bhxlLh8qIimRyLRICnFDBBKJBInM/2oSUdUqNtXlRDmWkhWcR+g+UdSKk5R98nVhzvXSzYtT2N0VsohIJbpxgfd/cRj/POtx/aGRSPpGEXKf+iL+9zbmo5dF70lPiyS1tUqd3h9ZHYlkc23WieS5/DLwu/G/H7wul/PvCCIZRi376ntvGN2Hfq5pikuQvhkn5KTOA5HcJZoOpJ10OhB/r6RLUSFOvoRjysA7Mm2P/kEQbHvqc/zot4pLkrSqT6LfCoZhGIZh9AiQkReP1RFaIZGlR2jdlDJXjqDMGfUdSKSDGx6xRG5N+UcnE9VUszyuYJHkhhFSVRVRQ6PbgYlaLCohsqyVQR2SlxM0jtw6/vfO/Z+ndx/Y303UzS976EiqHDIiuhfpnZ9+TnIQimRfJhRJ/55kn72ux0WypamOdjx3pjRqW+rzGpGsWUYLnzqfRn3oPH4Z+L3Evydfhlgu//eNIpJDN9gMhzaRNAz5HNNHn+RRrh2ir6y/SPKQSpkOBC6J6UCa6bXbd3NrEkcIEj9G16N2cW1trpWIpo9Kxtu6zfz2nN64p29GJYF1czUMwzCMHsCLCEZoHRFGIaPWBC8MZavccCO2lTGU+epSyj+2Fa9woPtpCTJffI/yv92aqLWFhbEh6tJKdbVEjU1a34b92ylz7WjZZ8dzXuVDap38tR3dVsMy1nEednfFvUSebU95Vl8zv3jIzBv3fFhXOPqbtEQi+bHLJcfPnX322h4TyQp521tYJHF/ZA21NmhE8p3793NbEovk+Xru6IPk0ih1y7nnvi8iOWyDcbT4z5ebSBoDGlzD2578D7fkrhl/6Tje/MHH4ilB9GLSLq5XsGDis7GlkVoaa2jWbTt3eiyA46HHRnNtjhqrFnJaHMnkdqf9W/Ji4PO0r16v+FYwDMMwDKObQAPGi0j+AhZJP0Krj0SGI7Rimg+M0JoWyRJAIkUkH5tKVM8CuSqvXVmXs+DkuVxXT9TczCLp5dDtKKgE+hZQXHb1PvEyGkQQSTR+tjv9v7T9Gc9T5eDhVDloKKfBCZFEA6h/i6S+Lz0qklxWkdQpBFpYJJsbEJFcTpt/Xu99HPVhiCS25JOIcz9aKwQfEokEhm1oImkYEXKNIKGsVYp+zuGPbCEy8I5MB8Ib82dom3Rx1bklOzpWWIlBs1pTA+90JJKpg/U5TCYNwzAMoxtISGR6hFYRSW4wDHEjtE50I7Qex9uxRBYVSTRaHJFE4r7IhyfqfZGQSLkvcgVRLTdaMOgO7rXzEomE4COD7rX4y7o0WnBYOTbKblkrRRIxCMT2Z75IO5z1kgrk4GHsK/y6WVpev2svTh/EDv1SIkEskle494dF8h89LJKtLJKNTiTd/JEttcupqXopLfrDBSySF/BWXiI5YS95bSyS/7ohuj9y3Ge+S4ufNpE0DH8dx+hnXJxSBFU6Zy56bLTK4Duv37mn9syIKH4szBE57finWSb9ND5ViRGslfS++Nz9UJ++Zk0mDcMwDGMNCCVyxXkshxexRKJbq49Eor0wmI1y/Q2Ixk+gzCWDKXNivrREBkQS+dutdXCdakgky6MfXKemhqipkaiVJRLdWkOJROJqREczN2pXV7wWEREpOCnhBEnE/GkY8RV/qReBHDSUXQUmTPTaHbtLg8oLZH+VlUgkP64iiX/Zf1yzFkRS763SOSQ1ItlUwyL5x4to1Ecu5JcSzxmJ1wWJxO8Nc1xCJNFgHfeZ61kkLzORNAzHtqf8kx/d510BhXUSlbx0Lq/idejiGkYlo+MUOZZck1qvUUmVySSl9nV5H6Zi/lK7Z9IwDMMwVocdp42nN07K0ej1NOgo8ugFEgnTfAwfTrTxJjKwDsCAORGIIhYhc+i7kucfn6bdVht4X9wPCXnE/ZFNuC8SUUgXevQS6ZOTyRbepJ53n3jXaNrxvFm8jlfKc+Kv7u302u27cpl/jnNnclvIiQqD+yUhOX79rLf7v6DgdwnGfPxK176roGX/uHqtiGSLv0cyEslltPhPl9Doj1ykO7nfS3Ri8X/McRmJ5GdZJP906YD4PRlGOeB6VpkMiK4jTMPxf0EXV72mZt26s04Hgs9CFkkI4Yybtu3wOCE4JubfbapeQg35edJrAGx32n8kj0jsXkFv3L13r7h28bLw7dBVKhaYTBqGYRhGl9jBiQdGaB0W3g+Jb2OkSl4YNoytcGO2k7GUOXJBUiI98g0cfw1HEvm7bdgEIZEYXMdLJOeNQRQS+7lMgECizDk2aWwh2vwOjUjudN7rstIPwIO/wEv9+W9wuwgvXFGJbHZdYoleGyBy4n+fY1kk5RfI/5f9vadFsplFso4Ti6R0bXWjtnJDFBFGEUlptCIh0zgyljE1SSyS3xPxHCi/K8PoDFzPkQB2IH4qk/76cjJ5xWJewMA7TdJTAJ+V257yr2iz4lTI7QFbH/cHHXhnFQbeWRQPvHN6KJPJA0Ek+/q1azJpGIZhGGXipaPkCK1yXySvwH2RkMijlnBlKhqZhgUvIZFigoFE4n5ILLewHfrIov/mVjdUkeTUzrs2cBp3u0rkzhe8GQkk9pt5yw5af+Hb/HpjicS9lujO5SVzIIlJLJJXuXZeBYvkd3pMJPGuY6qBZnRtlVRFzXKPpBPJP19Oo//vYt7KNToDiUQZU5PIiK0bTZBaE0nDSCIyeSoLYFFU/F4/KUdHjMR1o1cX/oC222UL+DN8MFXwBykG0GlpqKLX7tijyLHctRmAY2551G+ke3rjqgWyL2RSRbJwe4/JpGEYhmEMALxwANyDGI/MygntBPz1G/1cN9iAaDRL5LEqIjJ9RyffspkvvEP5J7YVoZPIo5/mAyKJyCQilOnRWZEjOYlEQiRyUyeRu1z0jkokJ/ybeRMfX+rf09cqL5rXiEQ20qxbdpT1A01KIpH8BIuka/D1qEjyU7Q1O5GUrq0QSe3aOu+xE2Tb0f93ifsd4RVp7pdDkcQ9lIv+eLGJpGGkKJRJdx05IH6JLq6MyKREJZk29BqooZk3bx8cJz5G8mgshHy8aSf82U0HsogaVs4NopL/lbwY/UEkQfBnScMwDMMw0qBhMuf0XOcjtG4xiTIXVohI5n87TVJhsyMGEikiiWgkIo+rVhEt5+Nnl3Fe3uA6SE3smit5d4jkrpe8T7tczMIoz1tBM27aRkRyl0tmy8ASFYMGs4RIbIzbSw0048atRSTRoBm4Ivk1fuT3i+Wsp0Ryz4RIskQ2YQ5JjUiiAQqRhESO/uilIon+H16TJC57kRyemSjbmEgaRiGxSOp1oylY0sUEEMldL53HJVx17XIvc1tLcuCdaP+oih+i65Ov7ZaGEgPvpJGdXeofWGTSMAzDMIrgZQMjtMqgpuF9kQAjtI4YSTRqFGVOqZYqFcgiSFdTBQIJJBqJ6TwwXyS6slbzMVCOBtdx+3iJ9MnJJAbXGX2rRiL3uHwetbW1RdHI6TdMlXppIEljhxPuh2xvFYmcefN2sn6gykhCJF1jcNnfvt2tIgmJBBBJPEUkkpxk+o86Fsm65XJ/FbrUaXOVca/Hn2iY3xKoSG4hZYzyaiJpGIWoTD4nZX8laUGXMP1Rcm7JCo1KXr6ILz3+gG/XQbHwh7jt3HHC/YuBY0YD76ycR7nn3MA7UVSycF/UvH73B/vFdWyRScMwDMMIQGMEKXeuTvNROYwrw3sjMULreusRjRvHG+8oIhlHIksTRSJ/v53MF0k1LI+Y3gORyCxLDOaOlG6t/t5I3iklkIhEtvLqzE2jRSQ/+PUl9IGrFvHrYhXhNP17U0Qkd7t8gYxKiKk9RFJEIuvpVV4PkUQDZsCL5Ce/Lu8bfqk9IZLo1hpHJJucSCIiuYpFcoVGJH9zkvxe5HeE1+Jejy9DJCGRwETSMDrGX9vuKoquI7dUFIjkLhe/z5vgA953/XdRyTL2h0hufdwfNTLZVCu3DcTE+0qJH3zqLyIJTCYNwzAMw4HGCEZoxST/g0OJRBrEDyNGsIVsSrQ9S+Tp9ZQ56O3OJfKQt2OJfHxrvR9y5YpYIvN5jUhCIuXeSN4plEjXnbW9mY9142gadcto+sR1Wfq/77CoVOr8gy9dO5Fe/u4k2vOqJbT7FUu4tYIwaoU0jBD1mn79JPlL+0CWSJAQSX5/8G/Z377VIyKJBiMG9W2FSDbEIomurU0Qyd+eTGM+elncukRzEw1aLmM+ScxvCZHEvVebf+5GqYdIGoZRmu1Oe06vJ7mmykPm1ZXN21kGm2Ugsu1O+7esK8Rdq1Hij2kRybqCLq6yBT/IsXVTR2Khz2PdXA3DMIwBDySjrBFax0+gzOG4t4Yd8PFtJBeCbqwhEElIpEgi7otEd1ZEJCGUPgpZxuA6mZu1O+sBd2SlZyymnsSuz16pXSn3/hbXN7fzYTTJHGncwJnx/a1kvUWyQpH8hjbluIW39K/f7DGRHMSppUlFElMM6GA7eo/k/MdPpTEfu5z3kFcir0VL/Mj/MS1JJJKfZ5F06xb94QL7XRpGCXCNF5dAvbreuOdDtMM503nJXXec+4F38Ec5amuW6xW9N/Q4frvi4HjTTngmGHhnTjTwzvZnPC+5kjzO63ftJblFJg3DMAyjj4PGBxIG1xmHORkhk9FIrdwAGMoVG29CtPU0ypzXJiIJiUyIpJBsLEg0UkRyWze4zkqiHEtLdinRihUslBhcJ7g3Mi2QiEayLGJwHS+Sh/84Kz1skf566RgRyU9cn6W9vgmRxGFcF63mOnrluxNEJAd6JNLjRXJTiCQajWtNJKtFJDUiuYKaa5Y5kbxCXgMSXo80bt1yUiRv4iNrvYmkYZSmUCT5uolScXTgnfl8eeEDXwfeafddXIvtFx4S1yujA+8gKsmf6QnCjQvpT9eyyaRhGIYxIEHjYxm6tF6UU4lkMt9lcUuN0ErbbEeZrywuIZEO116IJPJJ3Be5ZTxC6zKM0Mo5BtmBXIYSGUQgvURCDiGRY28bTUf/XIUHEvn46WPoqXPH0EF3Z+kj12SpulYjlG3SnbWeXrluc3r1hqkmkQGRSH7qm64B2HMiiVNnMLesWpoaqSkSybzcI9lUzSL5u9NpzMdVJOUfXo/r2oomGUaTTYgkVvO6RU+ZSBpG5+j1rSkJoohvncyfwSkq8MGKnD+PW9HF9bZdWEoxNyQqw5RYkGk9AGSyralWeh7EUckXJB8omEwahmEYAwrIBRLmixw6nCtct9b8Fa6hsf76RBMmqESesJIyB7xZWiIdmYPfchK5PW+7NVFVlZPIpXpvZLmD60AibxpNY25VifQiCR46bgwd93CW9rkpS4v5sDhceyum+GCJvHYzevV7k00iUyRE0jUCl/71Gz0jknwO4bbapgYWyXp0a2WRrNfBdjDK44InzmCRvJJfgd7nqgN+uMYpLy/7+7cjkRy/382yDf4tfOp8+50aRldxl5YmPBAdOnyBq0BUcheZMimKSrYHUclonzAVsvXxf+LPXz/wjo9odkSFdHHtb9cz3kHDMAzD6PeIWFw/jJa7UVplvkjfpdUPrsNkLh9GmZOrWRAxB+S2knxjpBgQSZHIJ1g4a6t1jkh0Z4VErsLgOvU+fFgokYhEcmqDRGJwHZbIY36RlMgHjxpDZz6py2++RbSSD4kRXVubG+nlazal6ddvYRJZhFgkv8WP/Pvj32HPi2SDdG3VwXby1Mwi2QiR/P3ZNPbjV/FL0NfhXw8S6jCaLERyxCZTRCQVE0nDKAdc6xJNdJeWpORCUSoHoUsK/mTDn8EtzTTzlh3ddB6l9wmPKSLZXCsyiT8CvXNqOvLpt4336Y+YTBqGYRj9HjQ2Fp2Vo/EZbvT7UVpFJPkLHl1aM7xi8hTKP7U9No8lMiTVFpBoJEQSA+xgNFZM84HurIhGrlxJVMd16K8KiWxje0xLJAshEiRyk1tUIpE8kEikLz2Qpemv6nyF//36GG7ANNPLV4+h6d+dYBJZgoRIOmlb+pev95hIomtrU30gkvUqkohILvz9OTT2E1fp60CzS15PJZ9O+FdJS//2rUgkFX29C586z363hlEucn2FKQZdUnc4e7pbCpBRr0Ery2RHkcXkcd+4+4M07cS/uC6udXJPNNj63tG0/RkvcqnwNRSr6i+YTBqGYRj9FkgF0srzcjQSgccwGgkLGDmSaHMWj62mUeboZZTZ73WRyMxBb/IGabQlEEkkopGPTY2n+ViKwXVYKDFSaxcG10lL5ANfUYk85qEsfeKGLL33HlFDPe+K4zG4L9IksjSRSH762/wr0xZcT4tkoxdJ6drKIlnvRPJJiOTXeA/eSCRSFRL/UF76N3S/JRZJPo9cHdLCJ00kDaMc/PVeFvg4YNDFddfLFvClxlci17W1thTppoqNfQqWdJHaWxrlFoP0dCAJop1kiV6/8wP98rrG16lhGIZh9CvQwGj97jBaerbOGVmRmDOSv9kxSuuo0URTt6LMqTWUOeTd4tHIAAimSORTO+h9kRihVSRyiY7Uiik/GhuTEukFMpDIcHCdtEQinfybLH321iy9wT6L8XraWtqptbGOXr5mM9nOJKM0CZHkFpz8862/biIUySGD9B5JL5LN0rV1uRPJc1kkv66tTzRa/WvhBInEIEBg/H63aGNTXidE8lz7HRtGF9CuqWn0etIU45cqKjUqWckf1IhKysA7p2M6j3gfX3KXpqTX7/ogF/jjXOaWrJVBtuKBd14MdpKqAYHNM2kYhmH0KyAUc07PUcYProM2g/9yx8h9I9cjGjuW02aUOfBNyj/BAlnkmxDy6OVSyiyRcrOinyuyukq7svooJLqzAn8sL5PIeTU2wT2RIC2R4IwnsrRgkQY4ZZwe3hfdqKZ/d6KsN8HomFgkv6PtOGkBEi155qpui0qmRbKx3g2201gVd22tWaYi+UkWSX4l4WvBMu7b9Izfn0VSt5AckUz7PRtG+eC6j2XSX0sKll6/+4NxF1eueO22XWmXS+bQoCEj+LLkirYmaqpbRTNv2UFkUo6QPIxDKzGAzrTjn6YmzC25aoGkSCbPRBfX4vTXqCSwyKRhGIbRL/DRyOw5LJLsizLdRxiNHM52OXZToq23psyJeSeS2/HKoi0HQaKREEncF4nuq4hAIhKJeyMx7Ue5g+vcpIPrHPvLwi6tZz+VpcN/mqXpM4gWcltDbrOM7oucKA0QE4yO8SK5GUQSDcQeFsmhfF41NXAjVERSR21trlsZiOQ3+KyKI5F6jlWKSOL+SDB+/1tdvW5jImkYXUNFskg0US8pX1WAH3gHXwuISkIktz+DRbJgH1+RqNR7JZvr5H5J8G7BwDtpkvv3N0wmDcMwjD4NGhReJrbIEA0JI5L4lhvMCxvpADuZs5soc9hckUgVSYe0ImIgkB65L3I5C8mSxSqS+ZU64I4fXCd9XyQkEpFFSKQbXAcSieTxXVqP5rpXZxLNnq3TT7a1tNLLLC12X2T5RCK5z9XB77GiR0Wysb6ZGuuq4sF2cI+kE8lNP/lNfhn8OvzUH24eyaV//Xo89YcXSa7Hthikx37XhrF64KqX5AsOdEl955RC0UMXV9m2vY1aEwPvREdyKQmiktuc9Ff+nG7ULq4Nebmet8LAO4moZMfH6W+YTBqGYRh9Fi8SMt3HxanpPtDyHzGSaNzmRNOmUeaYbKFEhrjvfIlE/mFHvS8SeInEQDvo4poeXAcC6ZMTyUYWyY2LSOT9X1aJPOnXWdrn5qxM9YGAZ1tLmwgL5os0iSyfhEgK/EvkVuKSZ67sGZHk86upoZma6iGSNTKKY3P9SmquyUpkUeaz9C1a5K6MAYBikbxN6iGR+IdpQ+z3bRirh7/cJAnJikOGYW5JBV1cMfAO1mE/DLoTD7wTHaBDIJJ+4J123IsQkXzekNfv3LNfX+Mmk4ZhGEafw0cjF5+lA+wUne5jk010gJ3T6yhzyHulJdKBbq8ikk/ydrgfMreM8jdy/Rn1RDVsfOUMrsPtEgyus+ltKpIeSCTS6U9k6YC7sjRjls4eIvNFNtXLfJHApKJ8kiLJv3O0Djkt+XPPiOQwiGR9i0QkMeiGn0eyuWaZCGE4n6UkLuPf0r98LRbJA27jVVqP9SaShrF64PpH19QYvaY6Qwbe4c3wNYGo5Kxbd+bjvODWFsMfV48tc0uySKJXAq7p907rrItr/8cG4DEMwzD6FF4iMN1HhY9E+u96DLAzYoTcG5k5Sef+6lwi35Ac0UiZg6OKRbKa98VQqg0NIpCZqzeh/BXcaPDfmF4mkbNItnAa7QbXCSUSQCLP/kOWFi0mWrRIA5v4g3Z7axO9cp3+LCYUXSMWyWtcG08bekv+fEXPiORQiGQrNdSuYpHEYDucy/QfEMmz4vksGRVFFLSrrRfJCQfcrvVYz/8XPHGW/d4NYzVRmSwtgeiS+s6pOTpkqEYmX7sdA+/MpkFDRvI1zVdpewtfz3maefP2RY7jruGA1+/6AE074Rlqrs1S46qF1JCfJ9c12P7M/0leCotMGoZhGEYvAI0HJJnu46Ii030M44oxY4i2niYimf/99jpwTgdAJPN/3ImFcxu9FxID7GQxX+QKHanVD64DII5eIhGJ5NTqBteBSB73UJaO5eTx0cijfp6l6dOJ5s5lIWnk3fmYGFwHIokGhglF10iKJBp9mnpUJBvanEjqYDst9TrYjoikm89S/rn7I3GfZKFIol6TiaRhrD7+M6AzDhk635WUSnRh4euvklNrc1NKJOPPkohUFQbeaZUurjrwTjn0d5EEJpOGYRhGr8ZLJMifn6NhI7iQHmBnww2JJk2mzDktlDl8noikEjQMAiCRIpKY7qO2muVxuc4ZiYSIJKwv6NKavyxHmetGq0S6wXXqeZNRt6hEInm8RJ7waJY+dWOW3npbvTS+L3KcSeRqEonkvtfyr1Zbefi35M+X94hIDmeRbG5olwiGdm0NRJKFUKchCSSSy0i4ZzMWyTt0XbTeMIw1peOuqcWRgXeQEwbe4Q9wIXVd+sWgCtN6bHPy30Um22RuyVVlRCVTB+nHmEwahmEYvRbIw/TjczLdB6KRMt2Hl0hEI4ezWW62GWUuHUKZ45a7aKQXSUfq+zyKRmKAHQyqk+PjYnJHlDFKq0QjVSKjSKQLTsrgOk06uM64O1QkPT89kiWS02m/y9Ln78jSrFk6e0hba7v8JRv3RZpErj4JkeRfqkoc0eKeEslhLJKN7VQPkWzQwXZa3PQfC544MzUNiUtcTojkgRBJHFkeZD32tXPAMLqT4BrkhC6uO5z9ClYI6OK662Xz5fpDF9fW1ubUKK6M370EOvCO3i/Zji4pReHnvnNPSfhYeP3OPQbEtW73TBqGYRi9Di8OC8/M0XqJ7qyc8IU/eAjRBhsSjRtHmaOWcAUVSmSCdsoc4O6NfHI7HUIV4cJ8Xsvh4DrAi6SXSV7VzCI55ja9LzKUSACRxH2RCxaw3PDLwawhuC8SDZDp350g25hArD6xSF6n7T33sPjpy3pEJEfwOYfgdF31yngeSTf9x4LfnZEaPdblDLraJkTS1atwkuxr54FhrD74LNCopLu2ioD7G2OZrBCZ3O2KJVTBF/eQQRXUWF9F07+3ZWo6j2Loc0AOt/zq43z9L6XGlXNp2T+uofdPy9HUe/T7IGSHs15yJf7Mv2NgyCS+lg3DMAyjV4CGgheH5eexSI7kQiIayQ8j1yMaP4EyF1WISBaNRgZkDnhdRFKm+/jNVKJVLJDLlwdzRtazLKLvKpujl0efXJfWWhYLiORxDxdKJNKRD2bpZW67zGeZxIiubWyTuC8SIonGhAnE6uPPh3EQSbTt9KFbRdIjIjlcf4f11flAJDH9RyiS/BrwOtxrwb+kSN6Z2Ab/TCQNo7vAdRegl6EkiOR7p8YjrOrAO3P4MqyUeyXb21v58zkVlSzAH1BFEsRdXKtl2Ysk5DFMAxGLTBqGYRi9AkjDS8flaPP1NTIURSPle50fMN1HJsNWMZ4yX5pP+SdZIDv5BoNI5v+0E8kQqohEIgoJmUzPFwmQ+YR7I1kmm1gmx7po5PEskrIlP0Agpe5XWZo9m6iGDycjtLa10svXbCbrTBzWnEgkP3MdP2rjDvnipy/tVpFEVPID38zSSCeStVXo2uqn/4BILqX5IpLJ0WMhifi/+OnLkyIpkunWM/N/d7qdD4bRDeAzoaOIIu5vTHZx3Y12u3wRVQwaLFHJlqZ6eum6LUocQ6/XEMjk1sc+Re/cv5+rielIHgdKVBJYZNIwDMNYp6Bx4KVhy411Zg/ClB9eJDHdxwYbEG0xiTLntTmR3IFXlEajkSySGGAHc0Riug+M1Lpsqd7IiCk/cG9kOhrpBthp44RRWiGSkEgkjxfJz9yapVmvEVXz4dta2qm1sVZEEg0IE4c1JxbJ7/IjTgROLGk9JpJ83uE2qlgkEZFkmaxZpiK5bzx6rPxDWV5PIJIH3SV1/h8wkTSM7qEzkSyFDrzD//iSbGn2A+949JrWlAQiue0pz0pUcsKBd9Ho/7tE6tHF1YgxmTQMwzDWGWgcvHxcjpaGA+z4iOQg/nIfPpxo080oc9lQypywUiSyI5GMJPJPboCdGpZIDKyzZJGO2IqIJG5oLDXdB0skBtjZ5JZCibzvS2Pop5wO/ZHWPX3uGOkd29rUwBI5lqZ/b7JJQzcTiaQXtz/1jEiuxyLZyr/3mio3/YcbtbW5GhHJ01OD/rjXw2V0tQ1F0m0hx8Y2JpKG0b0g8liKYlFJP/AO/ibZ1tLMqcQoriXA9q3N2sUVUgnQxXWgdmkthsmkYRiGsdYJo5FTNyEaxs5YMN3HRhmiKVMpc1ZjCYlEo94VGZXInXk7N8BONYskRmnFdB+ITDZyQyCY7iMRjeQkc0bePJo2vV1F0gOJRDrukSx9/HtZmsdtEy80el/kRItGdjP+3BBpk98xRPKSnhHJkfq7j0SyvopTnpoCkUxLJPJQJCcedLdsI7jt5j9+mp0ThtFN+M8ERCaTQumuSX/9paioHCLX5iD+XmlubqSZt+zIxyg1nUchOoprHbU01ci1Xk5UciB1cQV2z6RhGIax1vANAtwbucVGehtkJJBoC8icDGyWo8dQ5rRarsDoqx11aW2nzP6vSyn/xx11VFYkDKzDciD3SfpIpJdIkJLJhhaizVISCSCRZz2Vpbnz1EvFRWWqjxp69YapJgs9gD9Hxn32en7UBmJPiiS6NFetrKLmBpbIaPoPFkmWQQz6owIJOJeiim0okkKw3fzHT7VzwzC6EXwuaBdXvc7QBTUthahLRyZ3v3IZVQ6qoMH81VJXtZxm3LRtSZn0g+0UY9SHzuOvkDa55juLSppMGoZhGEYPgMbAi8fkaPMNiNZDJBISiYS2ARriQzQamTlfv5Y6lkgls/9rEo2UUVMwoE5NtYpkNeeY26HFRSIBMp+cRDZzGnOrG2DnEZYVtykkEhz5gE730cCHgo+2NdtUHz1JLJLfk1yiffx/0R8v7jaZ9CK5/noqkqtWQCTjrq0SkWQZ1C62QF+DeygUyVA2GRNJw+h+VCYL5dHXFRNJz97fylJLYyP979oJiWOk5VHX6XWMOSK3Pu6Pcs90w6qFtOTPl0s9sIF3kphMGoZhGD2KFwSw4rwcVfpoJL6zkdD/CNN9jB1LmRNXUf6pHbmSv5o6+HaCRIL8H1g4IZEN9SqRGFwHU334iR5xDH8cCCTKqGaJ2PgWlcgTIJEMVt13hErkyb/J0vz5RMtX8ObwURultccJRdJLJOgpkWzn32t+RTU111dRqwy2g4jkMpr/21OCezWxl3shnC/+08WxSB58T1Tvs/m/PVWKdo4YRvdRTCRBWgYLo5JLZW5JXPfFSB4zvo5fZyHc9tR/UXNtTv641LByDmWfvY5mn5ajKUXvl/SfEZDJ3U0mDcMwDKO7QCMA0cgJGxGNCAfXwXcvIjpDuXLjTShzDssfoyIJ+KupyLdTJJFhNBLdWSGSGLW1o+k+XDTST/fhJdLzExbJc/+YpSXLiObN00PBR9ua62n69VuYIPQgsUjeEAf6+CRZ9MeLulUk92SR3IBFEudCfnkNNbFEtrJM+nkk5/32ZBbJ613b0L8Q3C+pUpsUSbfebYtsHouonSeG0b2EMhkKZFiHexllYBwWShl459J5VDlkOA0exNcmf5DXVeVo5i07FBdIwEW/hOjitBP/wjKZpcZVi0Qmcd2DWCSDfQNMJg3DMAyjG/ByAPLn5+KpPrxIYmi99TfQkVqPzQUS6eGvptS3k3RpfXoXFkK2QUQeMTJrfoUOroNopEz1gbAjb5xOLJGIMGKUVhCKJCQSHPuwdmldxYcTieTneeXacbLOBKHn8OfK5p+7QXLfSOt2kfyGRiQxSPDKXC011a/S6T8wjyQ3Guf95qTEfZrIVWxVamORvFfW6mYqkcghonaeGEb3E36flIpQ+qik79662xWLqbJyMA0bStRQV0cvf3dSsK+7xpNZBGQSc0vi3umG/HyJUMYy+bLkxRiIIglMJg3DMIxuBV/8L7IgTtpIA4/JAXb4AUO3jhpNmTNYAJlCkQTuq4mzOBq5kwqjH2Ann9dRWxGhbIVExvtI4iqfMGckKCaRpz+RpWXLiBZwG0B9tJ1evnqsrDM56FmSIulbdixvf7iw20VyPRbJIXwursjVUVOtiqTcI1kDkTwxuk8TryMdHU2IpKyLJRKYSBpGz4DPiGICGRLKJAgH3hk6mL8mVq2gV2/cho/joop82UaXeAqI5LYn/4M/I9DFdQk1rJhNuee+H3RxNZlMg693wzAMw1hj8KWPNP+MHG09ikUyPd0Hhm5Fl9avrSciCYksLpKggjL7vRZFI+XeSJFIFsjF/GW9dAlRFZdR5wfZCQWSq5Bkug8WyRN+lZXkCaORr79OMlprCwZ9ZTGFSKJBYHLQs8Qi+X1+ROtOU0+I5MiRRMP49Msvb6CmuipqacTIrXlqrl0eiCQkMo5G4qRNiOQhEElIpP6Tbfi/iaRhrDuKieRuly2QuX//9+0x1NLUrCKJ7qm4ZPWy7ZC21kaZU7IVc0tiAlqmM5EcyJhMGoZhGGsMxAD3RubOzek9aWFEEtN9YICdCRMoc6F+jZeWSCWz3yzK/3nX+N7IulqiZUuJliwiWr7cTfnRwt/6MEcmjEZCJHlV5sbRNOrW0XRiSiKRTvltlg68O0tvvElUw4dua2kX8XjluvEmBmuBoiLJ9IRIjhhBNGIYurY2UWPdKmqVuSRXiUjOfex4d59mKJH6ehb98cJAJH/AtUmJxDbzfmMiaRg9hf+cKA0uxEIqBg2Wz5GPfCdLL1y9uda5VA4YtRtzS+KzAtf/7NPLmVtyYEYlgXVzNQzDMFYb/2W/8KwcrccNdhFIJNfYlmhkZmPKnAfDY4n8A0tkB986kEgg90biJkeIJEZoXblCp/tAJBL3TLa5g3iJRHJRSXRVHZ2SyB8frpHIs5/KUhUf5t33+FANvDlv//LVus6kYO2QEEk1OAYRyQu6XSQxZSn+uLE820L11SuoBXNJYrCd2hzNefSYgvs09fXoa4FIgvU3wx8+/ProQe6xtHPGMHoOfFYUdnF11yLgIkZeDe+X3PWSuVQ5dIQMvIOBwmvzOZpx83ZFRmAtBF1ctznpb/L50Fi1kOqXz2aZvFXWdRaVHMgyaZFJwzAMY7XwUoDpPtYbwQUMsoNurfiuxwA7G2xANGmyiCQkUkQSBG2BkEQ0En1Oq6uIFi/mtIifhGWyvk5NMS2SLhqJ6T4QjSwlkohGvv0uNz7e0JlEWltbRSTRADApWDtEIvn5G/k8wImgqSdEctgwog3XJ1q5vI3qa1ZSCyKS6NpatyIQSfca8Foq0CTS14IJysH6m+3k1iNz23IykTSMtY2//jTD5RiKpKdiEL6IKmgwfxc1NzaWLZKethZEJeuptYm/b+QLpnMGskgCk0nDMAyjS0AIkJacnaP8RTmqRETST/mBAXYQDsIorZcNpczxK1giXYO8BJBIFUk3UitML8disYglMrtMI5Iy5QdbY7F7IyGR3x9NG9+sEulFEhKJdNZTWTrywSzNnMWHzelTSJfWazYzIVhn4HxA19LuFUmwB4skBn7aaEOSwX7rqlZo11YZuZVF8ldfLbhPM3wtoz58AZ9mbSqSskrX+4R7LO28MYyeJY5KumsP/32SLYpTUTlIvobwddTS3KCVZSAD75zyz+heydaGKuniOqeMLq4DHevmahiGYZSNjywVn+6DjRLRyJ13pcxnZzqJTBN/5WQ+77q0/nlXrmYzRNQR0ciVK3XuSEz3gSlAwuk+ACTSCWUb74LpPk58lGUk+DaDRJ73dFZurUSXVswegsNAIoHJwNoH587mn79JymgQLnzqAil3Z0RSRJLPy00yRKtwGq1c7rq2IiK5nGY//OWC7rWQSLDwqfNp9EcukgE31h+X/gMIl/n/vMdOlCU7fwyjZ1GZdIPmuLoQyB/mljxwyHxdRhfXy+ZT5eDh8hmAexhqV+VEDssBx5O5JWswt+QCasjPE5kEHXZx5Rf32u0WmTQMwzCMDsEXO9KyczQaWTDAzoiRROPHU+biQR2IJNBmAURSurRCJFtbdUAdDLCDaCSikjUuGombGr1IOoGU5KKRkUg6wmjkvHlEr87QWy7bWnWAHXzhmwisffwfIaRhKPJWQeP3u0XrugERya9nachgFsmN9W8S1XnftXUVNdevVJEMutfqoDt6PopI/t8lTiR3lvWKvGBJ+Afs/DGMtYNceq5cDC+SnorKIbLPYP5uam5soJm37ODWlAJH94m/J1g8ZeCdploRSX/fdAHRbhUDXiSByaRhGIZREi+RmO4jf0FOp/vAX31FJPnbFH8CHjWK6IMfosyptSKRpUUSEjlTRfIZRCPZDjHADgbXWcRfxksWs/nliRoaVDDTXVqdRPrpPk5iiUQCPz5MJRLRyJMey9KMmUTzuJ2BWy9f+vaYaLoPY+3jRXL8fjdz+ytqhbHAndctUUkvkrhHahSLZG01n0Yr8tSMiKQbcGf2Q19SkcRzQwzR4oxex/k05qOXSUPSRyL8drKt/COa+9gJdg4ZxlpAvne6cJ+jp6KiUv62ie+N0l1c42vfg3setzn5HyyS2sUVnxvg5d2+LnmE7Fa4/0DHZNIwDMMoipeA5enpPvAdimHy1l+faLc9KXN+O2X2fbUMiZyZjEai1Y+pPjBv5PIcL9dqt9Zi0UjcGwmJxHQft6hIeiCS4Kwns/TuuyQiiUO1tbRZNHIdE4pk1ADj/90lkh70sB61id5um1++ihuD1XLPE0Ty/V8eod1rnUSqGuJ1qNCO+dgV1NpcJyK5xRd+LPW+wYhH5CaShtF7QJfUgrklL+frk69b9E5obmqh1pamlJC6674E7Rh4pwUD79RSext/2TCT7x7Nz/Oy27Xj/QcyJpOGYRhGAvmrMKdFZ+Uof2GOBiEayV/Q2qWVv0wxTObYTYk+sDdlDn6H8n/sPBopEvnMbrzEdtjUqF1ZF/KX/9Kl2g8V83QUi0ZCIjmhS2vm5mQ08kcskUiIRh7zUJZeeZW9dEkQjbxmUxOAdUiBSLoG2cInu08k8ceCvb6VFZFs5tNqRbaamlkkfdfW939xmIhkWiL96xj78Su58VgTiCSO6rfU7TAXpZ1HhrF28J8bXaWicrBc2vg7Z1NjPc261X8n6dVcCkQltzv1Oe3i2oS5JfXzIB54p/T+kFj7bDCZNAzDMAL8F/nK83I00k/34e+NxI0oG21EtMeelDm7mTL7vCIiKRT5ro2ikZBIrMcwqhhYB5FIme5jOVFdLdsf15eY7kPujbyxuERe8OesRCMx1ccbb2pUSru0WjRyXROL5C38u+dfPhKfBAufPLdbRfIDLJKbsEhiWpjcshpqqkfX1lUy4M77v/iidq11z51+HWM/8TW5p1JE8lCNSPp/ui3R3F+bSBrG2qYrXVxl4J1L5/H1WilfUZieuBV/WRJwvXcO7pX2o7i2NGoXV41KJqcdMYpjMmkYhmFI4x/JT/dRUTDdB5vlttsT7bkXZQ54iyVyZ0kJgu/tRDQSw6hiZFYMsINo5DJM98Ff2I38hd/JdB8Sjfx1LB+QSIBo5KLFRP97mWg5O6mf7sMkct1TIJLuxOh2kfwmi+TGeoouW1JHzSyS2rU1T+/9/AtBRNQleR0qkpt+8hsinSqSP+HapETiwUTSMHof0sU1Nboq5pbEpTtkCKKSfm7JDkZgTSEiGc0tWR4WlYwxmTQMwxjgoPE/93SWyPNz4owikT4aiW/njTch2uMDlPnKYsp86uWURErLOyIZjeR1iDrmV2o0EgPsYLAdjNyKekgkSIlk5gaWSAywwxLpRTKKRj6TpdOfyMoorZjyA+P3hNFIo3cwfn8vkqAHIpIskhtniIbyubpscQM11eE+ySpqbmCR/NkhKrJeDuUc1fLCJ8+hTT/1bekCC5Gc5ERStsNmbtu5vz7OzifDWMvIHzU7jErKRVpARYXOLYm1zY31WlkG6OLq55Zsk4F39A9MNrdk1zCZNAzDGKD4aGT2nBxtFA6wI9FIflhvfaLtd6DMhRWU2e/14tHIgMznwmgkGyK6sC5lgcRIrVlEI4tM9+ElEslFI6/cK0cnh9HIL2qXVkQjZ88hevkVnTfyf98aY9HIXgbOp/H738ollTIvcN0pknuySGY2IhoxnGjJwiZqqM1L1zSZS7LWNQJFDuPXgK6uC39/Dm22z9XUXJeLRFLXyw4uIXO5YRi9BL0+IX+zIXruEtW5JRfINYvRnFua293AO12JSjZGo7hCKoF1ce0a3Frw3+iWLFmyZGmgJDT655+pA+wMKZjug61y0mSi3fekzJcWlCWRIpJRNLKZaAV/4S/iL3mJRq4kqscAOy4a6V9GKJEuGgmJXHYpVqpEikg+k6Uq9tCXuH0wP5juA3OAvfY2P0fwc1ladwnnlMLngBM4ifp1EyKS38jSRhsSrb8eRLKFRXJl1LUVkjjvsRMSMutfw4Lfny3HaKpZ5kTyPj1XkfxrdMtzHz3WzitLltZJShNcn44DBs1zJaVykA68g1Fcmxrqy5hbMglkEt1bWxtrZbnk3JIB2sXVPiN8ssikYRjGAGKHaRMkLT8vRxuM5ApIpL83chDb5AYbEO24E2VOrmJBnNWhRILM52ZoNPIvu/N3Cn+xYLoPDK6DaCRGbK2poaLTfeC+SCRehQF2IJFhNPKHQTTyrbdIurWid2wcjVxA/3zgEre1sa7BOQXG73+bOplrAELiuiMq6UUSpyeikksWtlFd9QrCFCAycmvdcrnH0YukeqFrhLocjUQRyS86kfSNVN1YlmORNAxjbSLfTdLF1V+b7vosgUQlL5nDm1XKVxe+fkrPLVlINLckpgNpxsA72sW1YG5Jo1NMJg3DMAYI+LKOpvtID7AzbDjRlCkajTxsLuX/1Fk0coaKJKKR2F+m+1hGtJAb4kuXEK3KEzXwFzuG1vPRSB+JdCLpB9hJS6SI5DNZyi0neuFFFoelGtRENBINfWvs9y4ikTwAIhk3BLtbJDGt6ehNIJJENVXLZSTWlgZEJFkkWQJVZDUaKa/BSeKCJ84KRPKnuk5w23COf3MfPcbOLcNYp/hrs5Coi2tAxaChcu0OlYF3WujVG7fpvIurXPL6PDK3JAsopgRpx3cVY11cu47JpGEYRj9H/uLLCQPsFE73wUY5ZizRTjtT5oQ8ZT7Dgsgi2REajdzNRSPZDjHdByKRSMv5y762lqiZ7Q/TfUAifXIiKV1aEY18LCsJRBL55yyd88cszZyl031g+sl4gB1r6Pc2vEhOOOB2adRJSw0C9/uzulUkEZEeO4ZFchFRdT6nEUnp2rqC5vzqaH7+QGSRu3KhSAK/jZaRzTGRNIx1hv8c6Yx0F9eKykEITOrckpgbqhT6ccBJC4hqbuvmlvTTgeAzAgPRdUbcxdXwmEwahmH0Y/AlvdRN9yED7ITRyJEjibbckjfaiTJfeJ8lcpekSOJ7NyCKRkIisT9GzZPpPviLFdFISCWm++ggGokerzLAjpNIAIkEFz6TpYUsC4hGrljhopGuS6t9efc+QpFU+Jzg/xC47hTJYcOIjvhplh45bgytWrFcRLIVc0lCJB85yj0/TlY8v8s5LXjiTNrkQ+dKIxFghFYkWc0P8o+3N5E0jHVPVwbNee323WnXy+bzZVwpfw/FdwXmliw4hv84iAsR7a2NbjqQWmptrJG6SZ1GJZPHMJSKBUsb8HVvGIZh9DMkGnkBSyQEEpFI/32K6T5GjZZBdjIHvcMVJCKppL4S3KKPRopEtrIVVrM4wvjQnRWjtob3RQLkSE4m0aUVnOIkEqt+eKhKJLq0YhrKN9/kw/J3OoKdEAlgjfzeSVIk+ZyQNpYKXHeJ5B4skui+NmE8n598qi1btJJevXEaTTvhz9Rcu5xmP3xkwfMLLIgLfncGjfrwBbT83zfRpC/eH61CAd1ZweTDH5Sopp1jhrFuwedJRzKJLq7heizvdsUSqhw0iNYfyV9BNY304jXBMcLPgyIgurj1cX+gpuql1LhqPjXVZKM/OhWXST3Wa7fvap8XRbDIpGEYRj8DX8yjbx+ejEbiuxB9gTbciGirrXmjnUQkNRrpRbKQgmhkfZ1O94FoJKKSmKOjsYkF04lkIJASjcRIrSySkEgvksCLJKKR789meeA2AEZsDQfYsS/t3kksknfwecXnhIsGdpdIegYPIho3Tsd0yi5ZJfdITjvxL/T2T/Z1Ipl8fklOJIGI5GFeJF0kkkuQSBNJw+g+5BJbTToTyVJUVFbKDFYgmltSPgbkQRaLIV1cMbekmw4E89OW7uLa8bEMpWKhRSYNwzD6DdvzFzPujYzui/RfrpjuYwwL3MRJlDnwLWzagUTq10LmszMkF5FEPyJEIVcs53yVSiXui0QY0X+LeJF0eToaCX4QSOQq9tC33uZDcTsgjEa+bg38Xg3OsQkHssgJ2tDqTpHEebDXt7I0bjNe4PNi/pwaaqzLR/dIvv+LL8rzozttyMSD7qb5vzudRn/0Um4o1tMGE/bgWhVIQRqZUpDHOb/6qp1rhrGOwedJZ1HJOSx6+7v7JSUqeflCGXwHc822txL9+xtjyh40BzI57YRnqLl2GTXkF0pkMhmVjD4xCkBk0j4zCrHIpGEYRj8AX8gb3RZEI71IYsz0jTbSeyO32U5EsrNoJIBIQiJFJOtqdLoPRCOzLAw11URNqek+IJE+lYhGQiTP+1NWBtl5o8h0H/iSti/q3k0skji5XIokbc3BefCBb2bl7x6YN27h/Hpqql8VzSWpInknb1nB+V004aC7RCK9SAKIJBqHPhIpry+KVuhrNZE0jL6DF0lPReVg6SiDOzYaG/hLpEwgkkAH3qnjxN9lTDy3pH4+FMNEsjQmk4ZhGH0cNPCXn5uj9TBSq78/Et+0w9gqx45lidyWMl9dRplPv1KGRL6qIvnXPTBpl073sWA+0ZLFRHk33QfumfQD7IQiCYnESK03sUj+JimRSIhGLl9B9N8XiJYG032YRPYNcJ4pTspY0OBo6FbabQPusEhusgnRBusRzZvTTA21eRlwp7lhFb338y84kWTcc/u4I0Ry7Ce/Ho3cOvmwB2QbSYLLedlE0jB6B51FJdMgKrnrpXP5Oq6kQfxdh6hkc1P5c0uCbU7+ezyKK3+u4PPild1tbsk1wWTSMAyjj4IvYiQMsjNoOFdAJPGpjhtJMCnfFpOJtt2eMge/W2Y08lUXjdxNB9hZxA1uRCNzOaKamuQgOz7hvkgkXoXpPiCRaZFENBLTfbw6s3C6D2vU9w28SIrMBSI3vztF8htZ2mhDnUty3ux2qq9eQa2YAgQi+eBBwXPjmSGHKosQyU0//W2JXKpIPij1SrwdEkZ/tXPOMPoAfMmmB94BMrckr8PfShsbWmkG5pbswryQbTK3ZL3MLSl/FGUm3YVRXKdL2eg6JpOGYRh9EDTul54TTPkh0UhO6Bs4ahTR1tMoc/wKyuzLgvg0SyTa1CXQaCRv97c9MJKBDqwj0cglen8k7K+D6T7QpTVz82g6NZTIL2g08qK/ZGnRYp3uY+VKPYx1ae1bRCJ50F0iZF7kIHHdKZLrrUdyn+T8ufhbRk4G3IFIvvvAAQXP7eVw/uOn0Wb7XEPNtTkVycMhkjiq3w6ZVJhIGkYvwn+uFBBds3rdpqmoGCQdb3AHR1e7uBadW/KMYgPvJLEurh1jMmkYhtGHwBcwEgbZGYZoJAbakWgkf7uOGEk0fiLRdjtQ5rC5IpEikh0gEvnXPSj/zG5EebY9RCIXLSRavlyn/GhpYQN0EumTE8l2F42ERKZF8vyns3T6E1n638sko7U2N1k0si8SiqQ277SB190iOZzP5YnjiRbzqZHnc69VRLJKBtwBqpH83E4iUQORHPeZ71JTzdJYJLGNJGS+bBFJw+iNJKKOcqkG128K6eJ6GV/DvA3ulWzh75RXvje1S1HJdolKqkwiAYtKrjkmk4ZhGH0ENOwXnRVEI323VsyhkMkQbbkVZU6ppsznZrFE7opdShJHI/ckaqjX6T4QjcTNjFWriJoaWRrRpdWJZBiNdAPsbHxLMhp5L6KRnC76a5ben8OiwO2E6mreraXdopF9EC+SE0UkXSOPG3LdKZIylySfy1tMJMrxIXPLVrqIZBW1sEji/kYMriNIQ1MKLJKn0rjP3kCNVYtTIolMX6cU+d+cR74iZcMweiG4VOV6ddevA5HEgi6ulYNl02HD8LXF31FdBFFJdG/1IhkPvFMai0p2jsmkYRhGL8dHIzHIzshwkB3/rbrZOL038suLRCJLiqT7rvYSmX+Gt1vBYgqJRDRyxQqd8iMdjQxEsg3RyJsKo5EQSUQjT/x1lv77PNFCPpwfYOfla8bal3EfRUXONfT4fEM0sNtE8utZ6ZU9YTxRTRXRkoUskHKPJCKSK2n2w1/W58d5HjU2fZmoqWYJi+StLJI/i+vdOixrJFOX7PwzjN4Dvs92OJtFMbquywNzS6J7K76Xorkly0DnlnxWu7g211JrOQPvdO2lDWhMJg3DMHoxPjqUvzA1yM4gfthgA6LJU1kkt6PMAW8VkcjkN2HmM8G9kTLdBxsfRDK7TEOITU1sgIhG8sahRCK5aOQmiEb+NimRSBip9c23iWbM1Hkj21raLBrZh8F5l4gIyqnUPS0rL5JoFG6+uf7RYcG8WmpGNFKmAGGRfOgImnjwPfrcvlXHZQy+M/+3p9CYj15G7a3NKpKy2r82lUjdrYKF9Ct2/hlGr8Rfs4VA/jC3pEfnllwk1//wYfxV1UA0/ftbl9nFVZ8HA++0NtcTpgRp488OULSLq3x2xEWjc0wmDcMweiE+GrkMg+xczF+quDcSf5HFp/ZQXhgzViXymCxlPvVK591aWSTzf/8A5f+8i/YnnI9o5CIdFQf2hxa9G9kuIZJc3cqOKdFIlsi0SEIiv/rLLP37v0TL2EnjaOSm1ojvo/g/YIiRqZVJQtfS7ohKAgw4vNmmRMP4VJ73fgM11YVzSR6mIulbde514N88FsmxH7+KG4V1tOHEvXSd2y6USCwjsmnnoGH0TQrnlhwklzbul2woa+Ad/RxAN9XtTvuPyKR0cW2slqhkQRdX3dxnkmbdZl1cy8Fk0jAMo5eBxvzbp7BEnp+joYkpP/jrDUNeTpxEtN32lDnkvY67tTISjYRIIhqJ6T4wwA6ikZg/srbIdB8QSNwXiZxXNbBIjro1FY08RKOR5/4pS6/OIHrzTXeLZUtLNMCOfQH3TbxIqswBNKmo20QSUckPfDNLo0fzubkR0ex3W6i+dqV2bXVzSU48+F7ekp8XLUdOeAUqkifTpp/6ZjQKo0qjrpOSk0hgImkYvRN8xnRl0BydW5LFsqJSRBJ/sOy4i2v8OeDx04GgiytGiAbTfRdXt3nhXsklozQmk4ZhGL0IfNFikJ2xG/JCepCdTTDlxzaUOTFPmX1nlBGNnK7RyKd30uk+5vMX8pLFRKvy+NMufytjSFY2yDASCZHkhJHyMN3HZrePptNSInnJ37J0+E/13siVfCg/3ccr146zBnwfJimSvoWlEcndu3HkVowVtdlYovfeIaqt8iO36lySIpLy1LFEogyR3Gyfq2V0Vxlw54ifyzq/XkUSWETSMPoyRQfeGTRELnF0cW2oa6UZN21bREjxGeA/B5LovZLaxdWzBbq4njO9yF6lj2MUx2TSMAyjF4CGPNLy84oMsjOcK8ZzQx9Tfhw+r4xo5HQVyb/uzuK4kmgBN6wXIhqZ49Z7LVFzC3+7Oon0yYlkO6+qayQafatKpBdJiUZywnQfz79INHs2C2ez69Jq0cg+TyySPiqITO9P7E6RxG2+W/BTzX6PqGplVkdurde5JCceApH0iojXoGneb052U4AscyL5C7eeD4xtBFlgkTzSzkPD6KX4z5mugi6uGCYAqXBuSb32i4Eurtue+i/XxTUeeGeem1syuVfyOLNu28U+S8rEZNIwDGMdgy/Y+fzlJoPsDOOKcJCdjTYi2nJLypxaS5nPv0b5P5cRjfzHByj/xx11ug9EI5Gv8tN9lIhGskRi/J2Nbx5Nm9+RjEbe46KRB92blek+amp4NzfdB7Av3L5NUiQZJ3RpkcQpszp4kRwxgmjKZKJ5c4lWZOO5JN+5fz8WyR/Ic4okIokkQiRPos0/hylAFkkjcApEUla57QRsj8wvG4bRW+lqF9fdLlvAl3YFDcXAO/wVFs8tGX4GlCbu4lon0UmAqOSO5/iBd8o7jlEak0nDMIx1BBrxSBhkZ4P1uCIcZGfYUKJNN9N7I7+yRCQyEski33uJaOTKFRgeU+fnWLGcqK7IdB9eJlkkMd3HDf8iGntbMhoJiUTCdB8YYAfj9aSn+zCR7B9o91I+sTjh9MJAN90BRFLmkuSG4JZT9e8ayxbno7kk37nvs7SFE0k5sd1rABDJ8fvdTI2r+DxmpnzpF26drk9uX0GzH/qSnY+G0Ycp3sVV55ZEF9d6dJvRWpd3TruM4oqBd2pkOR54Rz83imFRya5hMmkYhrEOgES+cXKJQXbWx5QfUyhzVhNlDny7eDQy+A7UaOReGo3EPZGIRmJo1aoqDTemB9gJopGNvBrTfVzzAovk48lo5IV/ydLnbs8G0320ihyYRPYfcB4iKojWmjat4gbWmnZvFZHEXJJDiKZO4dMxT7Rovpv+g9PbP9mXRfKHvCU/nzytPi8WRCT3v1Uiku3tbbTRpA9JvSIbu0WtM5E0jN4NPmu6GpXc5ZI5fIkPkiED+GOAmro0t+SuMrdka0uDdHHFfdno3RANvGN0GyaThmEYaxEfjVx8Vo7GbcQVYbdWzOA+egzRNttS5tjlLJG7dditNYpGYqTWlct1lNbFfrqPOg0jhtFIL5JcjWm2ahqJNkU0kiXSi6SPRh71iyz9+z9EWa7GYVob6ujlazazBns/AuchUDWLBQ2D3XSXSA7mU3ryFnzK8bk29/1aaqp3MlnH5yiQp3XPLc8PkTyRJhxwBzVVL5UuaiqSwG+DzJUZE0nD6PsgKjnX3cvoqRw8VC714cOJGtgjX5W5JVPzQnZANB0Ip/Y2/iJjtIvrq1I2ugeTScMwjLWEb7yvOC9HI0ZyAd1afTRyJFdM3IIy57VR5tDZIpKKNpjTZPZ10cg/7US0hAUSXVqX8xexRCNxbyRbYyiRiEQi99N93DKaJtyZikYerNN9fPqmLL31ljuMm+5j+vcmWYO9H+HPxXRkEIPd7H5VaZHE6VQulYOIxo/XaVHfe6eRGmUuSQy4s5Le/+VhtMUXfsRbyRNrwvM/diJ2pabaZdwArEmKpHuNWgDWtdUw+hP7Vc5zJaWiYrDMSYvPkAbcrlEmOrfkv6mtGaO4oourTidUMLdkEayLa9cxmTQMw1gLoPHuB9mpRDTS3xs5iAuZjYm2mkaZk6pcNNKLpMc3nlUiRSQRjcyvIFrMErl0qd4niXkj0/dGepHkhOk+VtaTTPdxOkskEoBEIn3p/iw9/wIf1k330cINfz/dh3259h8SIhkIGrqWRiLZFWtMgagk5pLcdCzRxhsRvfNmK9XXYC7JampmkXzv54c6kQT83O41+LN8009/m4UzL40/Xe+2ibbgbblu9kNH2HlpGH0AfOaU7uKK69pf24rMLXnZfK6uEJGUkcO/O6m8qKQ7lEQlpYtrndyjDayLa89gMmkYhtGD4EsUKVswyA5/4w1jq9x8c8pcVEmZLy0oIpEhFSqRz+5F+ad3Jsou0/sjMd1HR/NGIrFf1jfqdB9T7lGR9ITRyPfeJ2rGLZb8gGjkqzdMtcZ6PyMpknEjLiGSndCRZ0Ik92SR3GQTovHjiN5+g6hmVc6N3Jqn9352cByRFEmEROq/uY+dQJvtey011+Z05NYvPeReXvw6kcvLjpYNw+ibxNc1IokFA+9U6tySGAW6rg5/Ee0Edzg9ospkK6YDadKBd4B1ce0ZTCYNwzB6CDTcXzsxR/kLcjQkMcgOP2y4IdHULSlzen2JaGRMZt9XJOX/vidRdRXRsiVESzmtWKHLzc38zcnWiFa+T04iEY1cxZ457o5kNPJulkikr/wsSy/+L4xG1tAr1423aGQ/ZosveJEEqYjkGiAi+Y0sbbiBDrjzzlsInvu5JPMyl+QWX/ixPncgkSjPfex4GvfZ71FT9RIVySMhkniN8etENFKquPz+Lw+389Mw+gCFUcnwui4N5pbEwDv4u2tjfa2rLYI7nD/qrNv83JLaxRX3aOMzxc8t2RHWxXX1MJk0DMPoZnw0cvHZORq/MVcM5eRFEn12xo6lzKVDKPPVZZ1EI1UkJRr5F94O03wgGolRcfIrier4C9Z3awVeIvFHXK7GvZGIRk66OxmNhERe8EyWPn9Hlt55j7+o5d7IVheNnGJfpv0UnJPxfYrAtcBK4U6rcvAiiVt/t5lGNJvPq9zS5FySXiSdQjL6/HN/fTxt/vkbqXHVAieSD+s6ISmRSCaShtEX0eu3M2RuycsXyjWPgXcaGzC35JaFXVzd4Yod1c8tiS6ukEpgUcmeozL6LViyZMmSpTVOaLDPOCFHKzHIzgiuQ7dWiUbyyvXWJ5o0mTLntJQfjfzHXjpPZHYpi+QSouUslOjWKgYYRCO9RHLCvJEYqVXujfxdVhLw0cgTfp2l/72kTooB7lob6+mVazej199ZIKnYz2WpbyeclzFcgZYaJwx4szpRydAzZeRWFkn02t5uW6JFfAotXpCaS/JQL5Igfn6IpEwBwiIJVCQBtkxKJBCRtHPUkqW+k4SoUEDxLq5ubkmWyfpa/jILccd1WQJEJbc7/b8alcQorvwZhD9QlT3wjn22rFayyKRhGEY3sf3WE2j+mTnaYhP+fA2n/MD8CJuMIpq2DWWOX0n5Z1gi8SFcAi+RMsjOqpU60zvMD4Ps1FQTNbtoZCiSTiZxzyPmjcRIrV4iASQSfOGHWXrtdaLaWohku4jA9Ou30C9Ro1+C8xJIZBAnnpx7EMkT1rh7q4jk17MScN92G52hZt5snf6jlZPMJXnoT/jZ9J+XSDz/3F8fRxMOvEPnkmxrpY0mf0QPii39ZthHcBFJO08No8+Az56uTOUhA+9cOpcv90qZnxa3XjQ2ulFc9WMjKiaJV7ZLVLKBk84tCV61gXd6FJNJwzCMNQRfmEgyyA6m/IBEYpAd+dPqCKIJEyhzAUviYXNVJDtAu7V+UOflwFQffpAd3B9ZX8/CyN+uGGQHeIlEatZBdsbcNprOCKORB42RdOaTWfrUjVmaz21x3Ecpg+xcM1Ya59ZA778kRFLaWyp1ZYtkGIJM4UUSfyvZais9Zd97py6aS/KtH3+aJjmRVDvEXvIgIjnx4HuoqWqJdEdTkYREqkjqdrotKjCViGEY/QtEJdP3MlYM0rkl0WUe0yW/+v1ptMM5KqTBp4KjsEa7uLq5Jdvx5Ug00bq49igmk4ZhGGuAb6zLIDvo1uqjkYP4IZPhVvbWlDmlRiSyI5GMu7V+gKjGDbKzbJlKZNUqDTnii7FINLKVV2VuHi2D7EAkPZBI8OUHs/QKfxev4sPgL72QABlkxySyXxOJpOtiikYXHjFqancMuAMws83kyUTDhhC99XoTNdbmZS5JjMiq8DNKW0+fX5elQgbbaXHzv5WSSL8tsPPVMPofn0/PLVk5SD5XhvJ3aT260KDOpZjCGnRTlbklXRdXP/BOl7q4GquFyaRhGMZq4KORS87OUf4ibjhjkB2Z8oPTMF7YbBxlLh5EmS8vKi2R7rvQRyPzf91du7L6QXYQmcSXaQsbYLG5I1uIGlkkR92qEpkWSQyy87nbs/RuNMhOiwyyY9HIgYOIJJ9o2vTS6Te6LJI451K8/B2dS3L8eKJNMix6M9uornqF3CfZXJeTLqmTvngfP6lv9HFycjj30WNps32u5u1WSGNv6pcfibcR3Lau/P4vDrPz1TD6GPh+7HIX18sW8KVfIfdfN/F320vfnUw7uqikEn5OFCLTgUgXV0QmdUqQzru4lj6eUR4mk4ZhGF0EX5LTj8/RyvNz0os1McjOBhsQTZlKmTMbWSJ3l1SKzD4uGvnsXtqfB3NHIhqJQXYwVweGsUMoMZw7EhKJqmbe/6bRtKnr1uq5iyUS6YRHdcoP9JCVaOS3x9Ar146zRvkAAedofK8i4MduajNBJDGX5JgxRBNZJl+bSVSd17kkm2uX03s/P5RF8qe8JZ4Qz+ufGyJ5DI37zHepqWaZE8lfue1Acluk93/xRTtnDaMfUmzgncpBOvDOSMwtWYMvuxD5YCjJ9me8IFFJEclGFUlEJUt3cdXPGGPNMZk0DMPoAmikLzgzR5NH8ddQOOXHEC6MGUu03Q6UOSbXoUQCiKREIzF3JPqfYt5IyGSOxbAag+xg7kgnkT45mcSqjW9hiXwiGY2ERF769ywd8gMdZAeDwLa1tEm3VmCN8oEBzlGgzSR+FEHTkVNXu3srzj9GRPIbWdo4QzRtKz6nZhHl+ZzViOQKeu9nBzuRZAIxlKgoi+Tmn7tBBtyJRdIRbQu0YCJpGH2TrkYlIyoGyT3Y+LtsQzS3JD4Pog+HoqCbqtwrKV1cdeAdfMa8ukexqGTyeLNu29k+Z9YQk0nDMIwywJcjUu7cHK2PQXYQjZRurfylNHI9oi0mUebcVsoc/G7ZIhkNsuMlUgbZYQNsbeHGu2u9B/dGYpCdzI2jaQy6tbJIenw08ozfZ+nFl4gWLCRq4W0RjXz5mk3li9K+LAcGXiQnHeq6mEqbCSJ53BrfJ+lFcv31iXbYnuidt3Brr3ZtbalbSe8+cEAckcRzc+7/zWGRHL/fzdSQ17kkI5GU1ygvEgsumUgaRr+FL3FEJUN0bslF8lGAqCS+BjG3ZFcGzRGZbKqXyGQbBhJgJt4ZRiXjzxejezGZNAzD6ATfQM9fmKPBw7ngo5GD2SY33oRo2jTKnLiqg26t+gUm3Vohkpg7sraaW+JLVSIhk4hOQi7Tc0c6kcTckRhkR6KRKZG8/NksHflAll7h78xwkB1gDfKBQ1IkUdLGU7eI5NUqkujWvfNORPPmEC2cl5dBLlrqV9E793+eRfJ+fjp+Tk76j+HynEePpgkH3EaNqxZyRXvctbWIRMq+Ub1hGP0Gd5n7q7vY3JKV/L06gr9j6zBRcpnIwDsytyTul8TAO+m5Jd0TF8Gikt2DyaRhGEYJfDRSBtm5OJeMRg7jb7zNx1PmwgrKHD6//G6tmDsyv0IlUkSSU20NUUuRuSMRjeTqzPdHy9yRZ4YSeeAYSef/WUdqfe9956I2yM6ARge9QUkbT90lkjKX5FAWyR35tF1GNPvdamqGSGIuyfs+Q5MOg0jifyyRIpK/YpE86C5qrFos0YLMlI+5dbKRS8hUIrGEey7t3DWMvgm+Mwu6uPrLXLMEOrfkPPlexWcMvgqjuSXLRLu41rtRXPNSV7yLq9ETmEwahmEUIYpG+kF2fDQSU35suCHRlltR5rS6DqKRMZl9XtZurQ31rksri+nSpTpya0MDSyNbYzjIjk8QyZtG05V75QpEEhz/qyz97yU+3HI9hA2yM3DB+SoiGQkaJ0hbNzF4CNF22+kp/NYbmEtylYok5pKESPLziQqKKOrzQyQnHnIvNbFI4j4mRAuwiRK/Ni+RqDORNIx+hH4U+EyYdVuxuSWHyMfG+ushKqlzS5bbxXX7M/9H7dLFtY6Tv8/Sd3Gd4ZaMnsRk0jAMIwUa5hhkR6b8GMYVXiSHcot67KZEH/oIZY5aUpZEikhi7sjqVXp/JKKRmEOyukpH0gnnjvQyyRLZ4uaOhETmv4YVCkTy0n9k6eB7s/T6G/EgO7ifzaKRAxP/h4+ouSZCRzIFR3dEJff6dlYG28FckrNeDeaSrFsh26hG4jnd86PsaKpeytKpg2FM/cqjXIN1bj0kMtjnvZ9/wc5fw+gPuMs8uNoTFM4tOVjuGsE4dnVubslyQBfX9lY38I50cdXPmvLmlrQurt2FyaRhGIYDjXKk5eEgO/iURLdWjDoyeQplzm6mzMdeKC8a+c+9Kf+X3YhWLFeRxPyRyGGAHXVrvXE0jb412a31TpZIpNO57oUXiRYu4k1Tg+wYAw8vksmBb7pPJDGX5KSJRKM2IZr+cns8l2T9ChkkZ/JhD+hzytPiQV/DnF99lTbb91pqrs05kfy1W49MJVKXdB8TScPo++DzaIdzprurOk1hrQ68s1A+QkaM0NmwdG7Jrg2809qsXVwhlKDDLq7FX5yxBphMGoZhMPgSnHt6TgbZGYRBdrxIYpzyUaOJ9v4IZY5b0Wm31igaibkjcS8kRBJdW5csIVqFuSOLDLIDieQkg+zcxBL5+2yBSF7xzyx96f4sTefv2Koq3hbdWi0aOaCJRdIPfIMlTMHRPSLp55KcPBkiSVS9MitzSWLk1vd+dghNPvxBfV7fOpOMRfKRo2jcZ79HTdVLApFU0hIJTCQNo/+gV3VIfK0jklhs4B18jKw3kqimGl+GXUNHcdW5JX1UsmgX1/hlGN2MyaRhGAMeNMqXnp2jjdbnBUgkBtnBtxv+VDpxImXOb6fMJ1+i/F9YIjv4MoqikTJ3JIsj7olENBKD7NRg7sgi0Ugnk81NpIPssEh6fDQSg+y8xN+/788mauLtJBrpBtkxBiaRSLqBb/CAf5jLsbtGbt1gA6IddyB6jdtkK7I5nQKkPk/vPnigiqTgLggnlRDJzT9/IzWuclOAeJGERMo2shBnUZ1hGH0ZfCbteE448I5+JpQCUcldLpnDm1TKwDv4Tmyo61oX121P+Se1NaOLK+aWLDHwTpGXMetW6+LanZhMGoYxYMGXHxIG2RmWHmQnkyHaa2/KnFwtEiki6Sny/ehFUkYoya/UeyMXLdS5I1HnB9kBXiKREI3E3JG3FYrkZf/I0nGPZOnF/xEt58P4QXYsGmkAHfgGuGhfN4iZF8nhw4l23Zlo9nt8Gs/HFCA11NpQRe/cv58TSddCw3O654VIjt//NhlwJxJJXlcsGqn7VEiE085lw+hvuOs8APKXHnincvAw+ShYDwPvsEe+ckPX55ZE11Z0cW1va5G6KCoZfNwYPYvJpGEYAxJI5MJig+wM44VxmxPt/WHKfGZmUiKLEHVrxdyRNVUakVy8iGjpEqKqVRpyLDF3JOZVxiA7Z6FbqxPJOw8YIwmD7GCAndffJKpnFw0H2TEGNjh3wxFUpb3ELTKMnromUUmIJKYAQc/uHXfUGWzee7tGpwBp1ClAJh/+M97StdBECKUgIjnxoLupqWZJNGF4LJEg2MftZyJpGP0NXNvxVZ+mcOCdQTRokM4tWVtd7tySFSKm253+Hxl4R7q48meU7+LqNimJRSW7H5NJwzAGHGiMLz8vJ38NjQfZ4YcNNiTafQ/KnNFAmY8+X5ZISrfWv/J2frTWhfN16o/aTgbZ+f5oGnWriqQHEglOeyJLz79AtGgxb26D7BgBOHdBKJFIayqSHjTstt6KLwu+HF6b2UiNdaukeyumAFGRZCIh1Ffh3JBFcll039KWRz2mlfIqsT0ytyFjImkY/Qd8LnUloihzS142nz8SKqQXBP7m+sI15Rwj/gyReyUx8A5GcW2skroZNrfkOsFk0jCMAQO+8JBkkJ0wGjmEjRIjjSAaeeDbLJF7dCiSmU+7aOQ/P0hUz9KICCTujVzMaSUG2Wngbzp0a+WNQ4lElRtkBxKZFkkMsnPET7P0Kn+fVlfrIWyQHcPjRVJGUBVB04ZVd4ikH3Bn/HiizTYleuUlorrqlTrgTr3eiyTP554zkkh+mP3wV2jcvtdRc93yQCRlJTZ1+7gy5yaShjGwQCRxfnpuyUqdW3KD9UmGFOiY8DNEiUdxrXE1RBPQxfVcm1tybWMyaRjGgAAN8WXn5Ch/MX+h+UF2MOXHyPWIdtqJMue2UuYT/xORVJJfXB6IZDTITg1/iWGQnYXcMF62TA1Q5o4MopGBTGLVxrcko5F3sEQiYZCd/71MNHuODbJjFJIQSbTA5PTsnoikv08S039su42K5Co/cmvDKh259Yifu601GukFcfbDX6bNP3cDNVbrfZKxSLpMtgO6vV9lGMbA4nNFuriiSz3ml6yrKTXwjvvcCMD8kNue+pzr4lpLLfVdmFvSurj2CCaThmH0a6Jo5AU5GuoH2YFI4htsE2497/VByhw2z0UjvUgWR0TyX3uz7TWqSC5boiK5fLlGKFtbYpEM7o2MBtlBt9YnkyKJQXaOfVgH2cFYPTiEDbJjFCOeigNAJL/abSK53vpEu+1K9PpMouySFdTaoCL57gMHOJFUiVSH1NcAkRy/3y3U6Abc2fKo38h2+O82xGZxztl7Dx5s57Vh9CPw/drVLq67Xb5IPiJwqwm+OovPLek/Pwppl+lAtIsrpBJYF9d1h8mkYRj9FnzJLTrLDbKDocd9NBI3aUzbhjIXVFBm3xkdSKR+mUm3Vogk5o7ENx8G2cG9kTJ35CqVy1KD7EAkMcgOS6QXSR+NhEi+9jrRG+EgOxaNNFLgPE5OxcGpdDurbHCu7cEiiWH5d9+NaP5conmzV1EzRLKxit756edFJJMSqQkiOeHAO6ipZikt//dNTiSxym8DXFmyChNJwxiAlJpbEsMUrM8yWV2Fv7iGhJ8hSRCV3P6M5zUqiVFcG6ujqGTHXVxLH9NYc0wmDcPol6ABvuK8HI0cyQt+kB1M+bHRRkS77UGZry7rUjRSurXWsUhmlxEtYJHE3JG1NZ0PsoNurWE0cn83yM7vsvTfF4gWs4/6aKQNsmOkwXkc4xpDLGZzHkFUks/F1UREEiO3DtKRW+v5VH7r9Tpqqq/iBloVvf2TfVkkf8HPyM+ZEsTZDx9JEw++l5prstTa5LqnySZ+G+DKnOEY7z14kJ3bhtHPWJ2o5K6XzGWZrJCB09v5+7Khzt/zKB8iWuyAtpYmkUlMB4IurqB0VDI+5qxbd7LPoB7CZNIwjH4FvtyQMMhOZTjIDsIvk6YQfXBvyhzwVhkS+ZIkmTsSNzFWVxEt4i+iRYv0PsmGBrZAtsZ0t1YkiORNo+lslkgkD0Tyin9l6fD7sjQ9GmSn3QbZMYriRTKajkPaRToNRyySOPlWj0oWyalTiTZYj2j6yy3UUJuPBtyZApF0z6fg+V1iMNhOc/1K7d761d/qegE5tsOmEtOkd00kDWNAUnTgncH8XcyfDxtsQDLwzis3bMVCWv6gOSKSMoprLX/9alSzeFTSfyYZPY3JpGEY/QY0vqNBdsJurevztxYG2TlpFWU+Hg6yUxwvkdKttbGeaDkL4fx5OnckpFIG2WFr9NFIL5MskS1u7si0RCJhkB3cGzlnLh8iGmRnrDW0jQKSIsmo2aVEcvWQ+yS/maVxmxFNmUT0vxeIaquWyxQguE9S7kFyzxclZPww+6EvyYA7TdVLApHUddF2TiIVnxuGMRApHHhnsPSIGDEMX6flzi2pXVy3Ow1zS+J+yVr+rErNLRnhPosCLCrZs5hMGobRL5BopB9kx3drHTKYaNzmRB/YizJfnFtmt1YWyX99CH/+1G6siEQu4C8hzCGJbq4ddWu9cTSNvjUpkrezROLeyKMfytILLxKtXOm6tVo00ugEEUlInYgdKCVmOBHLww+4k9mIaOeddOTWldlcJJKIIsbPg+dGJg8ikjLgzqqFRURSs1AjsfTugwfaOW4Y/RB853Z54J3LFsjHyUj+nm5kj3xR5pbsJCqpHz9CW6ubW7JJ75cEcRfXYENjrWIyaRhGnwZfaCKS4SA7+LYaMVIH2TmzkTL7vNq1bq3N/C0H68O9kZg/EgPu4JsvPcgOJJJTGwbZQbfWp+JurZBIEclnszTzNaK33tKesf/7lk35YXQMzudIJAVVtDmPfGXN75NkkcSl8YE9id58HT23VzqRrKJ379+fpnzpl7wlPy+e20kkgEhOOPBOmQKkvb0t6NqK7bBpqJFabyJpGAMX6eJ6ZqqL6yA3t+SGOj1zp/iPFIfOLckiWTC35Ey3ZKwLTCYNw+izoNG98rwc5S/hLyw/d+Qgfhg9mmi33YkmTaX8X/eQ1BE+Gpn/5wfZ+Oq1Oyu6tWLuSNzU0dzCAskGGYqkk0ncTrnJLSqSHkgkOO2JLP3nv3y4pS4a+W2ttwa2UQqc00JCJFnmOhVJnJil8QPuDOXrZA++NJYuJnr/HUikiuQ7932WRfIh3pKfTZ46fn6IJAbcaapeKlEBRCWj9bK53xZIhYmkYRj0uYq5ruSoqKQh/Bk0mO2jDtNrlQIfKcHHCuaHlLklmzG3ZJ30oijexbUQ6+La85hMGobRJ/HRyIrhvOAH2cHwcJMnE+2+J2X2f1NNzxO2dwOibq2wPUzzgWjkwoU66SPEstQgO27uyLG3FYrklf/K0hd/kqXp09lF+fvSBtkxysGLZHpex85F0lNcKL1IDuLrZIcd+HzkU33mqw3UWLdKRPLtn+yjIikNuLgVh2jj7IeOoC2+8GNqrs3xtnnXvfVx2aQgGol9+f+7D5hIGkZ/Bp9Vqzu3JAbewR0kL313SmEXV3ycIBWhXaYDQRfXWolQAptbsndgMmkYRp8CX2Kjbhuug+z4eyMxYdVGGaIdd6LMiRhk58Xi0cjgSyrq1vov1601x431BRhkZ7H2v8EIOaXmjvSD7KBbqxPJ2/cbI+mCZ7L0/ItEc/lQNsiOUS6hSEaKBpl7eM26tnpwiUyeRDR6Ez4nX8BUICvlnqO3fvRJmnKkE8noAoHEoqzLGLkV80mKSB4NkUxJJJIsurJhGAOYCje35EtuWakYNFhGkMbcklWrcI9IihIfHYhK6tyS6OJaW2RuSeviuq4xmTQMo8+ABje6tQ4LB9lBv71x44h23Y0yh87perdW/IkUkUgMsiNzR3YyyA7mjrx1NJ0TRiNZIjHIzjEPsUhyQ31lnndBt1aLRhpdIJ7XkRdE5lYHnLAxMuDON7M0dizRttOIXnyeG3Irl3GDrIbe/MHHVCT1CSVJtFGeuoLe/+XhNH6/m+MBd1gkQ42UffyurvbdBw6w890w+jEdRyXjTwePzC156Tz5bBk+jL8b+bu0Pppbkok+Q0ojIonIpOviCsqJSloX17WDyaRhGH2C4TcOl7kjo26taPFiJJGpWxLtvCtlPjOzc4n8lI9Gum6tmC8S90YuxtyRK4kaG/SbLi2RqHKD7EAi0yJ5+bNZmjGL6E03yE5bc6s04u1LzCgHNM5kXkcsiMlpy2r2w1+m3a9cnaikCqWI5Dey0q0M90lOf5kou8RNAVKfl23iVlwskUgQyQkH3kGNVXxt8PG2Ovp32AIbMLqNLroyYyJpGAOV+HMAU3gUDrwzVD5fNnID70zH3JKYF1J36RSdDgQD79TJAGDAopK9B5NJwzB6NWhoI23CDWIZrRWfWuizl8nwyh0oc0yOMh99viyRlGgkRBJzR2KUVhlkZ2kwdyQ3wr1IBjKJVRvfkoxG3ua6tZ7+RJae+4+O1eMH2Xnl2s2sUW2UBc5tQdpivmWF7q2BSKobdgm5T5JFcthwor33InrvHaJ5c1aJSLZiwJ3796MpRz7MW0IiQ5EkEUkdcGeJNOIQlYzhbeS1urLDRNIwBirx54AnPfBOReUguWd7OH8eVVc1uNrOQRdXnVuyQUZxtYF3eicmk4Zh9FrQ0F5+rhut1Q+yg7kjN9uMaJddKXPobJbIPSUV+0LzeJEUWcSfRWWQHf6SwdyR9SUG2UFE0g2yMybVrRUi6QfZeWU6UW0t72KD7BhdxItkNB2HAJE8sjAi2QWhxD26GHAHl8qeu2sA/s3Xaqm5vkoH3LnvMyySj6QkUp8fIrnFoT+h5pplsi0abohKRtukttc6XzYMoz+Dz6y4i2v4OVCc1+7Yg3a7fKF8RKw3Use0a2qo06hkmUhUsrneRSa1e+xMG3inV2EyaRhGrwRfWvkLcjQoHK0Vf9acPDXo1gqJDEl+sUm3VojkcyySLWyGuaVE8+e6uSNZKjHaa6lBdiCSN7NE/iEryQORvPAvWfrvCzbIjrHmqEgCbZgVFcku4EUSM+Rst53eUjz9f806cmsji+SPP+1EElvrcwpcAZGcdNj9MnJrU23WieQTuk20qdte0HrMT2nnvmEMJMLPgZiiXVwrB2NGEOniiimbX71xG7emM/Q5JCrZhFFc44F3xlsX115FJX5VlixZstRbEiRSRPIi/kJCt1bMHYlPqo024tbxDpQ5fgVlPvZCEZH04ChBt1aIZF0t0aKFLJLz3SA7vNzBIDtwzFHo1pqSSKRjH9a5I/Pson6QHfAGN6bDn8OSpY4SzvGESMoKPHQAztMyQC/wLbYgmjie6Pn/ENVU6X2Sb/3wEzT1y6FIujx4Xozc2rhqQSySWBVt77fjHPvwf4iknfuWLA2MpMSlYhTMLckfSEP5u3wQfy7VdjS3ZIQ+G7qpbnvqv0Qm25prqaVeB94pB+xrn0trL1lk0jCMXsN23MBedo7r1orRWiGSg/lh7KYajTxsbtCttTRRNBI36mO+SNwbCZlEfz+MkOO7tQIfjeTUznKIQXYwd2RCJD8/hi7/Z5b2uzNLr79J1NjImze3yH1p+MJCMoxywXked23lhIwfZj/0pTWOSmLAnVGjiHbakeiF//Ipn8vqyK33/p+IZPScwAkhHt7/xWE04YDbqWkVBtyhWCSFqMD4fWKRNAyj/4PPrYJ5ITtAurhesVg+ZjbcgKimmqilsb6TLq7hZw3+YKtdXDHwThvm5GKsi2vvw2TSMIxeAb6o8ufnaCim/fDdWocOI5o0mWiX3SjzudfKkMj/Sco/92GiJjY+GWRnLtHSJcEgO7BG3thHI5FYIlv4e2rjm0fTuUG3Vkgk0hm/z9Jz/9ZBdiQaKYPsjLOGtNFlcJ4rTsokKtgFkSwRnfQiuf76RB/cixtc04kWL1ghItlcv8Jt5RtqeO64/P4vvkgTD76HGjHgDjfYEJXUTfW1KW4f+V9hImkYRgJ0cS2YWxID7/B3+Qb8ubQq30ozbt7erUkTftZoZHG705+ndkwJgulAGvX+bevi2jsxmTQMY52CxrWIJLq1sjtG3Vo32JBXbkeZE1dR5uMvliWSUbfWaj/IDicMslPXydyRN46m0beqSHogkVc+l6XD7svSSy+7QXZadJAdi0Yaq4MXSZnb0Ukk6HJEMiWU/j5JdCXb+4MYtRWjt1ZRc0M1i+RKEb+pX/6VbuyEUB9UJLc49MfUVL00mgx8q2N+79Z7/D7IwnrDMAYC+OzqMCqZ+lhAVHLXy+bzx00FjRjBX7X8PYu5JYtHJYt/prS3skhi4B2M4uq6uM7cs7y5Je37ee1iMmkYxjoDX1BLzs5R/mLXrRWfSPgz5ugxRDvvQpkjFpTZrRXRSJZIhA2z3CiXuSMXE+Xzrk9qKhoJieTUhkF2blKJTIvkRX/N0n+fJ5rDDXOM3dPW1EgvXzPWvqSMNUJEMmg8qUgudUtdx4vk4MFEu++OBhs3pl5toKb6Kp0C5L7P/j975wEYR3H18afqCj7bkjEdY9N7Db0kQAoBQiAhQOi9995CEnrvnQAJIY2aAMkHJHRTXcDdYAzuPsmWZfVT+d7/zcy222uyZMvy+9l7Ozs7u3t3up2b300zIikS6a5r1hDJDQ5/hlJ1Sekr6Yukwx4j/80/gGlF9D5QFEWyBF4whcfsyMA7xSVlkn0kBhEtWWzmlgxjD86A38S1nrfML2hr35+rVjLz+ZTuQ2VSUZQVAkRy0flV1Lc/bziRRNXKeusTbbsdJX4yubBmrZjiY+5cI5Joj4oOGimWy+Dcka5ZK4skBtkZcjeL5L99ibyHJRLL8X9L0oej7SA7nBa1kWNvXkcL0EqnwefdzetoYDXz5A6YwlLeBJIXlxBtsgnRoNWIPv2onRrrFrNILqWpT3yfRfIffCn/mrLwtrt2S30VNdfOjYikSeOeqpNIoCKpKIrgZwvCD6MD7xSVyI9cffsQ1abNLRk5OIA0cT39Q5ZJzC1Zn/fcksinJtyzpeZPKwCVSUVRlisoVGOpuaiKijHth2vWis5em2xKiVOWUmKfz/Nv1vr+Lmx9i4hms0Ri7kgMuIPJrOLmjsSC2sg7zCA7UZG88v0kHfhgkiZO0kF2lK4Dn/cwkDnM6fjLZa6V3PE3SVp7baJRI4lGv0+0tCYpI7dOeWwv2vAoiCRS4sEU3mRuSV5//ezPZcCd5to5UlDz4b0mKa/MP7elIqkoqx7Iv0JNXJEluGwhhuDckqutZlpL+HNL5jjYEp5bEjWT2Zq4BvMpZUWgMqkoynIDX0pzzrLNWjHtB3IgNGsdWkG01TaUOHIu1fxvR1myfTd4tZFof4rBdVAbicF2apeYiR8zzR3JuzB3JCQyKpJnvZqk97gwvoDL9lIbqYPsKF2AE0lXKykyx5/teJEMVDfmAE2uMeDO4MFEO25nRm6tWljFIomRW3c3IinYG0mua8IQSRlwp3YedWBCVWbUsa9KGiQ3RTN7HOD46U//WO8FRVnVCWQLjrgmrkXFZTJFEeaWXLzYzS0Zc3AGIJNm4J06r1YyrolrJKdSVhAqk4qiLBdQqK46r4oGDOANN1prGQfWWZcSF3RQ4qdTjURmwWvW+iGLZP1SM8AOBtrJY+7IxO0VNBSD7AQl8keVsvziqSR99rkZp6e9tV0H2VG6hHSRxFZRjhrJ3ELpRLJ/f6LddiGaNIFvg5k11NpUR62NXHITcDFTzHK1kdiGSK536OPUsnQ+F9ZMQc2IpCTglQ0IHLYCqijKKgyygSxZgWviilrJbS79hmWyiPr0MY2O6pfmM7ekITi3ZBsG3mmqsXuiRDSSg19qE9cVBhfnXKlLF1100aXrFxSosdRcWEWlaNbqRBIl4Y03ocRppglLrEgGviu8Zq3vfY+oioXwO8wdOdf87NncxBYYXxvZYQfZOZ8lEosDEolBdn5wZ5K++cZUcrbJIDtr8BcSC2rgNeiiS+cWiOTfjMzJZznwgc6KOTYOiCQG3CkrMyO3LphHNHVyHaWaaqXgNf2pH9OGRz1vEst13TUhkofS+oc/TS11CynVsMiI5HFGJE3RLPD8cJzdxDn1ntBFl1VvwXd39nkh0ynGFz3nHYMGoa8k51m3jMgxaE4Yv4lrvddyItjENZJTefmUIf516NK9i9ZMKorSbWy20br03ZlVZtoPNGt1/SOHYFb1rSlx9AK/WWsmOLmpjdzdzB05zw2yY+eOhAUGB9nBApFsNS1eB99tRDIIRPKEv5u5I4OD7IyTQXZQaFaUZQOf/Q1FJLGFB1PimfHcLzrdT9KJZEkp0bbbcgR/1sd+3kJN9UtkkIppT+5vRNJKpLmivbbZoFR9ldRKeiLJpEuk2y4KiKSiKEoYNHFNn1uylEr4u17mllyMpkH54eaWlFpJFsnWpsDcktLEdUIkr7KLssJRmVQUpVtAYXrBOVW0On+hyGitEEkM7bb2OpS4qIgSB3+Vu1nrvp/JItN+YGxxSCSatWLuSIzeikF24pq1sl82sndW3hsWybtts9afPpikCRPNiK7+IDuztNCsdAn47AtS0PFLO4WJJD7Q6aAfEgbbGT7MDLhTX7uI2ppraerj3xeRTJNICRbR1386lNY+8F5qXuIPuIOUfuGM155EAojkj/SeUJRVFORjhdRK+nNLEg3ob37MNXNL5l8r2SG1kk1SM4kfyICrlQzmTuENTnM3mrhqXrWiUJlUFKVLwRcQlsUXVFEfTPvhmrX27Ue00UaUOKMxd20kIxL54e5U8+5ORAu5AP7dt0Tz57JU8heMWGCkWSskkhe0isEgO7cc1EHn/ycskueyWO51S5Lm8+lQG9nWVG8H2dEvIaVrcCIpczsGRK1zNZK+UEo/yd8kafhwoi23IPrgPQxinJS5JKc8uhdtePQLIpIGu8ZKRPJntO7BD1HL0nnUgblYmY2Oe03WBk7oDjUHmaCiKEoG4ueWLKci/r4fnOD8KXZuyey0t0EkG6it2e9niVrJrc6bYDY0e+qRqEwqitJloCA96eQqmfajqA9HuGaticFcAt6KEsckWSJZDnN8G4hIjt6dqIG/UDDdB2okg4PsROeOhEhydDM75lA0a41IJJZf/zlJn3xqTuEG2Rl36wYqkkqXY0TSAsFbpsJPhzfgDkZG3PV7RJ99TLRg7iKZS3LyI7vTSIikpMWjvZiIpRFJDLjTLAPu1EutpC+SnCb0/LyA1koqipKT9Lkli2VcPQy+U7skOrdkZry5JVN2FNe4uSX97CmE1kqueFQmFUXpEiCSc8+uorXYG73+kaX8sOZalLikhBKHzrAi6Uj/Zgg1a0VTVtRGzplDtBhzR/IXU4a5IzswWuudFbQGmrUGRfKHlbLG3JFTpxGlUpw81eINsqNfQEpXgnvAF0lImvmMz/jz4cvQT3IN2oFFEhX7e+xONG0q0Tdf11KKRTIVGunQ3k8ihyYMkXQD7mCU13SRtEEJeBsqkoqyioO8LHsTVz+/AGZuyblSK7n66uZ34E9vwDkKG3inDQPvoGaSF+ANvBO+nNLDUJlUFGWZwJcOlurzqqg/pv1A/0jkLPhpcsORlDirWSQyLJIO/xvCb9a6sz93JNYYZAcW2AFr5IRBkWSJbMUgO3dV0AUskVGRPP//krT3rUlv7shWNGu9aW0tKCtdDu4BA3+mvdq+omUXyWuT0tV45x3RrJVowvgGamkwA+5M/8MPaeTRL3JKez0rkQYTTtVXewPuGJDWphcCx3C8iqSiKJlBflEkNYnpc0uWSp9uNHHF77/5gnNtfuandhRXzC251KuVlCau59smrkqPRWVSUZRO4wrQmPajpB8HXLPW1QcRbbEVJY5flEEiw5hmrXsQNTUQzZ1tBtmp4i8qTPyYZe7IJhbJinuMSGIXgERiOfavpllrXR1EskOatY7XZq1KN+Dugw2P+kfAzSCSh3VaJB3FfE9tuokZGfHTj9upqb5GClvTnviBFUlGJNJd2IS//tMhtM5P76OW2rmeSG50/Ot+MpvOAyLJcqooihJPIL9ggnNLbnvZtyyTRdQX3Vv4y7iugLklQXsbi6SbW7Ix09yS6WgT156ByqSiKJ0CBWj8MllzCUsfvkCQm5TwwxrDKXFZGSUOm1mASO5OVMtfILP4S8E1a42bOxISyUs7Btm5s4KG32dE0uGatf70oSRNmcKnaOa0LKNjfj9MvnD0S0fpLkQkBSNpEMllAbWSGHBnzeF8r7FMYsCdpTVVLJJ1NPWxvY1IyqVcAc9cF/8hkuse8jC1LF3AhbQW2Ssi6eGOYaSW0t/We0RRVm3w3Z7exDWQZ8RQVNJHspHBg4mW8Fd5p+aWbGkwc0vaQcImBOaWVHo2KpOKohQMvmwWnltFA9Gs1Y3W2qecaMSGlDgnlaVZq09i309lqflgF6IqFkIZrXUeeu3bZq1skEGRtDKJgVyH3M0S+X9JWRwQyQvfTNK+tydp/nxOyt9Hbc2NOlqr0q3gXgiLpM+yNG/FgDurrUa0K98en35MlJy/SGokp8iAOxBJXMtdz6559fUfD6H1fv6kzCfZ2mzmafNFMngME5BI1ErqfaIoSphInsGgWWr63JIlMv8tWlDUFDy35Ed+rWRg4J21tInrSoPKpKIoeYOCM5aaC6qoHM1aRST5i2Ygf4NsvgUlTqzJszaSJXL0HlTzDqeFQMporQuJ6uuIWvmLKE4k2S8bmomG3WtE0nEXSySW4/9umrUuXcrJ+RQyWust62kBWek2cC8YAgUuFrRlad7qBtwpLyfafVeiGV9hMQPutLFMCp4E2uviP8dBJDf4xR+ptWGRDLrj95ME7hgGx6tIKooSAXmaXysZyDMyYOaWnC3ZCX5cbuHv6NHXDy+oVtLMLdloZbJW4vKpldQmrj0HlUlFUfICXzIzTq+imotts1b0j0Sz1mHDKHFFX0r8Ylb+IvnRHv60H+gfiZFbGxspbbRW/MDJC1rq1TSR/FIZEskDTLPWgx9J0uTJ5hTtLKNLZ38uXzL6RaN0F04kNzzqeVkDCN2MZ3/OIjnfxhSGG3CnhO+t7bYjmfR7/NhmammsFZGc9uT+NPLXL9nUtqAHLwwU+lKNi6k51E/y3/wYKBQGJBLHqUgqihIGeUQgzwiAmsQ5aXNLlskorkOHEC2qtpF54PItM/AOy2RgbkmtlVy5UJlUFCUnKDjPP6eKhqzOGxitFSJZzoH1N6DEeW2FNWtF/0jMZozayLlzOFxjOzeyPUZrI1kk0ax16D0VtMFD6SJ58X+TtP/dSZo3j6gV0360NHOBfDi9ctUWNpWidD1pIsmCJjWDyyCSDoyGuOEILkwNJxr9AVHD0sVSyJr6+L5WJG1BD/9xXVsg++qPB5t+krXzvT5HRiQtkMiISCqKohTKAZG5JYs400JLCiy1+NU3BybXKqIv79nSzC2JJq6Z5pbMgNZK9ixUJhVFyQgKzVgWnV9FfftzhOsfiTlANt2cEifXUs3bLJE5yqUikZj24/1diJILbP/I4LQftjYyWCPJ5eFGFknXrDUqkic9n6RPPyNazF6KCk00ax178zr6BaMsF0QkrUSaj3/0JsCHOX9cP8mhQ4m2384MuFNTlZQaySmP7umLJC4TkEhEQCTXO/QJadra1lJn+0lGRNJijjTb0/5wgN4viqII+K4vpHmqm1sS2UliEFEdf51/emP2c/j5lsHNLdnWUi+1k0AH3ln5UJlUFCUWV/tSc1EVFfflgJv2Y2gFJa7qR4lfzTEimQOvWWuqmWgef/F8Z/tHNtSbaT9i+kd2sF/WcfI176ugCyMSieXnjydp0mROg2k/WjtoDIskCsVaMFa6G9wXEElfIgFqJQ+NqZXMTyidSPbvT7TH7kTjxxDNnYUpQOpo8sO7sUi+zKn4avI/fN2v/ngQbXD4M5RqqJZBd0IiCYm0IonH4JEqkoqiFEJcE9eiklLp7YK5JauzNHE1+Zaf/6BWcvMzP7FNXBvkRzNXK6lNXFc+VCYVRUkDBeY5Z9tpP8o5AiJZVkq03vqUuJAFkyUyTST97wnBa9YKkaxbavpGzuFl0SKipiZTnRiUSNRG8tLawl9Md1fQOg+ki+Ql/0vSTx5I0qw5pvlreyrFBXEz7YeidDfuBxaIpMEoWrxIOrILpesnWcq31y67EC3k00yZVE+pploZjVWQywQLY7zmbYjkiCOeo1TjotB8kiKQ3nNEajmB2WBUJBVF6QyuiauZW/I7yQv79eNcjr/D37u6MrZWMiiRgt3EtEXSV7KlUZq45os2ce15qEwqihICBeaq86poAKb9QP9I5BL4tthkU0qcWpe9NtJ+SXjNWtE/Ej3ypX/kXNM/EsO9ZekfWXEPS+QbSVkcEMlTXkzSmLFc2F7IyVuJPv9tJY29aS39UlGWC04kRx79gqzdhx0iud2VufpJxguliOQ1SSouIdpiC77N+mAakDZqblgi04BMe2I/GnnMy1IYM1fDIy+yYWJaGxebfpIozTEbnfAfWQOT2qQTIpKpKIoCkL8V0sQVFJWUS3aCpvnobhLF5FvB/McuFjMdCGSyzuvnrU1cV05UJhVFEfBlgqXmwioqxbQfrlkrZiHeZltKHDW/sGatmJ9jAReyIZJYo3YyrlkraiRTRI3smOgfGZTIO1kisfzqj6ZZa80Sc1r0j4REqkgqyxMjkoESUUDM4nUxN0V8n62zNtHGGxG9/y7fJkswP+RSmvrYPjTqmFf4Su4avPYuXURfPfNTWu/Qx00/yVSDad4aEkkvscE+V4wIq/eNoiiFkGluSbSowJQgNYvwRe4TkkgQ2ETNoswtmbJNXAuaWzJyXqVHoDKpKIpI5LdnRKb9KOWHtdehxMUllDhoek6RTOzzqSw1H+1J1NRINHe2nT+S5bC+wYhkuxVJVxvJSzuLZOKuClqTv0RCIrl/JV32TpJ+9miSZnxjWsa2p9pozO+NSCrK8gL3hy+SdsVy9vWffubXSua0yXAC109y0CCiXXch+uhDvlXmV0s/ySmP7CEiaZCL2UubMERy/cOflj6SqYZFIZE0dQGS2ACJVJFUFCUDhdZKysA7l8+RbGX11c3XfXBuyXD+Y5cIMrdkK2olG+THM5C7VrKIRXQLzcN6ICqTirKKgy+SBedW0aDVeMM1a+3DRrnRJpQ4ozG+f2QEkUg0a0WN5NIlLJGc2WMOycWLiJphgW2mLB0USXZL9I8ccnd6s1aI5Bn/TNK48USz5xK1sXBKs9Ybh+sXibJcwf1hsCUiEbOISFpQ6Z4dk8D1k8RttiffMlMnE838Gn0k66itqTYskl5hzFwfIjniiD9TK0tkcD5Jk8ykESTC31aRVBSlM8jAO2dHB94pk2mMKoaaaaIlzv7zCASjyMA7LJIYeMeRuVZSMjMTVHokKpOKsoqCQjKWmguqqA+atWLajxLOsFcfRLT1tpQ4ZiFL5M6SNhumNpJLxEVcUMa3Cqb9wKitS1gqZZQcNkcnklisSDYH+kc6IJFYjvtbkiZOMqPDSf9IbdaqrACcSI48+kVbnjEFmjiRdOQSyuCAOzvuSNRQR/TluCZqaazlglWt9CPyCk9yORtmIJIbHvl3SjUsZpGc54nkxif8Hz+aNIIVXgdEUlEUpbMcQNG5JYvkxzDkY7U1ZkoPj3D2E0KauLq5JVNm4B3XxDUe/0RaK9lzUZlUlFUQV0gONWvF+N5rrkWJy8oo8bOvAyIZ/60QataKuSIxbyREcuECytU/soFFco37KuiiiEhe/m6Sfvl0kqZOJaqvh0i2a7NWZYViRDJYOspQSgqQSSjH3DDcDLjDt9pGGxENqyAa/T6EcrH8Qj/18e9zKj6/XC5yTSuyrY011LJ0gZVOJ5IWpLHpfMy23kOKokRBWaDgJq5XzpNsZcgQFsklmFtyPdrqPFujGM1+YgjNLWnzsfQmrjhRHidTegQqk4qyioEvj3mY9uNSFkk0a4VI9iknGrURJc5qFolMr5EMZ+pes9aPWSQbG/z+kaiZbOBtTPsR7R+JKNs/Es1ZoiJ53n+SNGEi0TffGDdFs1bU4mghWFkR4D4Z+euX+KMf/OyjeesheYzemlkoi/hbd9gwom23NgPu1CxKskjW0ZRH96JRx/7T3mrha+L/V08fSOsf9hS11CeptalGfs1PE8kQ2C6iaU/up/eQoiidIraJa3EplXC5QeaWDO6KZkERUCtp5pZsMgPvNNd6tZLhJq45TqT0OFQmFWUVAgXk6vOrqB+m/UCzVozWOnA1oq22ocRx1TmatZoM3mvWimOX1LBEfuv3j5RRcgLNWp1ItrIg2v6RF72ZlAXcYZu1nvpykr740lRuymitLJIoAGshWFkRuJp7H3z28xdJR1AoUSuJAXcGDDT9JD//DL/BoEayjiY/vJsRSXsdA6+lptGI5Ihf/plSDdXUsnS+17xVkEPcMQ6zrSKpKMqy4pq4mrklZ0l2M6A/URt/r793daWRwGgWlAHpK5lqMgPvpM0tKZmZCUbQJq49G5VJRVkFQOEYS81FVVTSlyNcs9Y1hlHiij6U+Pk3+fePRG0khLGKhRDNWufPY6msNdWJwWatWNCslb9wmlgkK+81IumASF75fpKO+UuSJvB3Ue1SiGSH1z9SUVYETiSlVlIwhZtCRdKBW0Kat16bpLIyot13I5r9HYve5DouTC2lSQ/uHBBJB4ftJkTS9JNkkYz2kxSJjBxntyGSiqIomUBeV+jcksWl5dK6orLSTCFdKKaJa4M0ce3AL8eMzi258qMyqSi9HFc4rrmkiqicAxDJci7VbjiSEue2ZWjWGiaxzyeyiEi2NLNAzg30j6zL3D+SoxN3VtBw9I8MiuR+lXTJ/5I0ZSpJ/8hmPuXn11fSmN8PU5FUVjhGJK2YycoIWmfACMToJ4lmYVtvTVTK37qffdJKzQ1LRCZHHfsvTuXOj+uZawZHRkw1Ljb9JNtaZHvjE51IBgls26DeS4qidJa4uSVhkmWlpmZyUTV/weeJN7ekNHEND7xjmrhOtCmVlRGVSUXpxUAkk+dWUc1ltn8k7vj+A4i23IoSJyzOszaSJXL0HqZpK0bFmc0FVEz9gc4SjY2mf6QTSSeRvGA6D/SPDDVrZYnEcs7rZtqP7/g0aCqjzVqVngDul5G/fplD1sZ4BaH7+o8Hd6pW0lHEIrneeiypI4jef4dvo1ozn+TUx/exKYBczIZMYPrTP6H1D/sDpeoWcnrTv2jjE9+QFD4IewfyUkTTntDmrYqiZKbQWkkZeOeKOVIrmUgQNXBR4KPfrplhKo94TBNXM/COmxIkn1pJbeLa81GZVJReCr4sai6sorL+vIHaSPRxrKgk2uf7lDj8u/xFErWRMEXXP3LuHKKaxaY6Ma5/JIskZgQZavtHOiCR4OQXkzR2HNFiPkVw2g9FWZG4GnzBShn+fSUiOY8j8CEvDNRKop/k4MFEu3yP6MP3iaoWQiSX0pRH9vBrJWNqIyGSG/zyWUrVV1ELy2Son6SHSStIECL5A72fFEVZJuIH3rFzS1aYXi6F0uFkkvM/rZXsXahMKkovA4ViEcngtB9ol7LBCEpc0EGJ3UcX1qwVTVirFvr9I2tj+kcGm7XeUUHD7q2giyMiecV7STryj0n68ktToanTfig9BSeSUivpSR0FRNKRv1BK81YWyb79iPbm22jSBKJvZywRkZz80K4BkTTpnUQCiOSGR/6NRbI6PJ+k1Eo6vANt0IikoijKsuDyouDcktteOpNlsoj69iUq5TLFkujckllwc0u2ydySGHiHyxB5orWSKwcqk4rSi3CFYpn2A/0jcYf349Ls5ltS4uTavPtHSrNWiCRqH+ehf+R3RAtZKNHMNa5/JCoo0az1TpbIt5KyOCCSF/H2+C+4cP61OVyn/VB6GiOPeZmKbG2kwa2j5BZKEclrkzKh9/f4dluymAtF4xqpBQPuPLATi+SrfHo+v/yPXBPxTKphkYzcWv3hnbLtiyT22/SyCmwzek8pipINlBMyNXH18yIfNHEtKu0j2UxlhWmY9BnmliyoiaudDiTr3JLKyorKpKL0EvAFsfgC2z/STfsxeAjRnvtQ4ojZhTVrLeICMwbWwbCT6CNZXU3U5PpHckInka5/ZAtf6m4jko7bbf/Is15N0mdjjIvqtB9KTwP3zchjXokUotC89aBIrWSQzELpBtxBc7BNNyEakiAa/QFRY10NTbxvO5PIXip0TSuX05/6Ma338yelaWtbC9+DjN9PMpjeexC0eauiKJ3F/KRl8pMv79kydm5J1EgmBpmGSvnizy3ZTO0tjdTWFJ1bUpu49gZUJhWlF4ACMab9KEKzVogkcv1116PExcWU2PtTqnmHRTJQDo3iN2vdi82wlaimhui7mbZ/JIcxgmu2/pH3RETyB5V09YdJOu5vSRozlr0U03606rQfSs/C1eT7twZCuUTSkVkoMeDO8DWJtt6S6N23iZYsghiaASdGHfcqX8EvuMk1bW0kRHKDX/xR+kli8ftJ+s9QgpLexOFRRVJRlM7i50U+obklLzdzS662GlFriui9a+zcknniDbyTqpeBxMBEHXinV6EyqSgrMSgMi0gGp/3o05d3bE6J0+pFIkUkHenfGeFmrZDGJEvhtyySC+YTLeUCML494vpHolmr6x8ZEcnL3zVzR06abGTTNGvVaT+UnseoY16xIb45+H9+IukIC6UbcGe1gUR77k70ycdE8+cskhrGyQ/v7omkh62NBBDJEb/6q/STbKmdG+gn+aasJZ2k9Y9HaKr2k1QUJU9QXgg2cU0TycgmKC4xc0sOG9a5gXfM3JIYeMefWzLuOsrKi8qkoqyk4Euh+rzAtB8lnDsPGkS0+x6UOHJeWCKDBDJxv1krbzQ2mPkjZ31nhLKBt7P1j7wr3D8SEonlgjeT9OlnRLPn4EtEm7UqPRPcP0Yk8eHnRe6LwM2RN0YoXT/J8nIWyT2IZn7DgjiljlJNdTTpwe/RRse9xmcPnN/WRuKaEMmRR79AqQYWSfSTHH237AmJpDyYY0zI39Z7S1GUQgnnR2ZBs9To3JJFxcWSr/Xvt4xzSzb7c0uueZ82ce1NqEwqykqI1EZeVEUlnLlLbSSata65lukf+YNxmUUygN+stY2kHers2WZZVE3U3GTiAwLp+ke22v6Rl0RqI8GpLyfpk0+IlizhQzitNmtVeiJGJP/JIS492UIUHr565qcF1Er6OJEs4dtwu235tuH7ZcwnKWpuWEKTHthBRNJDaiPlgtiwazPgTmrpQhntEIhIBp6bw4TM49Qnvq/3l6IoeeFqJSGRaSIZg5lbcq7sHzLYFBPyn1vSnNSfW7KO2ppNH/CJO2kT196GyqSirGSISIaatXJg400ocVYzJXb9IKdIJvYO9I9MsRliaDZM+zFvjplLEu1Sg/0jnVC28rG3V1DFPekiefUHSfrl00kaN56oCR6aatNpP5QeCe4fDynv4KHzIulAM7ARI4jWX4/ovXe44FVbLYNN+PB1PIkEJjz9qR/RBoc/Y/pJNi7y+0kGnpsf8rdVJBVFKZSQRILAJmoS50YH3ikplcHEMIprMu+Bd4pEBjc/6zOplZQmrk3+3JJaK9n7KJYPki666NLjFxSCRSQx7Ydr1ooe8d/blRK/XpjePzIGiCSatUrT1qYG0wECIun1j4xp1ooaSTvtxyX/TcrigEhe9o4ZrXXGN5BI06wVNTWTv+KCbuQ16KLLCl+YUcf+04ZNxLKI5Ngb15R+kkOH8q24E9H77xItSlbJxNxTHtvL1EoG+kaagNmASI444jlqYZFsDvaTPOktfvQOsCG77R/uh3XRRRddci1B4uKY/YMD71z2LWddRTSgP8sCC2V+c0v6J+2QWkkzJQjm180XqZXU8sNKtWjNpKKsBGw2iiUS035cziKJ0VpL+NYdtgbRHntR4kcTWSK/ZxJmQUTyk71MrWN9HdF8FshZ/MUBoUT/SDRrbbciCYm0Itlu+0cGJfI2lkgs57yepNEf8Sn4aUn/SDRr5S8B+SJQlB4G7iMRSe9bcNlwItmPC1v78K31xTgMglxDrU0YcGc3FsnX+TLuOuFrQiQ3POp5bz7JsEgazBGB4+xq6uPf13tMUZS8Qd631Xm2eaqfDWWlqKSPZF8YeAe9X7LPLRnIpyztbbaJa3Od1FCCfJq4KisfKpOK0sMRkbyYba0vb6BZa3kZ0aiNKHFuKyX2+LgwkUSz1qVLiObM5oULo4sWEzVlmPbDNmsdgv6RQZH8fiVdOzpJxzxnBtqpr4dItptmrVrAVXoouI8MwQLPsvSTXFP6SZaWEu26i5l7bcKXDZRqXEqTHtyJNjoeImkTB68ptZRmu1VEcoFX0HIiib0mhT3OiyhSkVQUpfPYLCVKbBPX4hLJ3zCuX/a5JcMnlSaumFsyZWQStZLaxLV3ozKpKD0YEclLq0Tq5G4dMIBo+x0pcVy1SGTeIinNWhvNnJGzuCA6by5Rba2RS4wW4kTSySRE8o70Zq0Qyas+SNLY8URTpvLhtlnrmBvW0AKu0mNxIjnq2H/J2hR+IJIHdl4kr0kSl7Vo882JVh9I9NGHHdRUV0MT79/eiKTgWaDBSuT0P/yQ1j/sKfrupVOotanG7yfJmBSB47zDIZL76n2mKErn8PKSeEJNXC+fLf3AIZKYMSzz3JLxJ5WBd1ox8E59pO94drwmrspKhcqkovRAUPgdem8/M+1HKTvg1dWUuIGFcrc9KHHw9LwlUkTyo92JGuqJqvlc0j9yAVFdXc7+kZcGJBJAJC96K0kffsQuyuVvGa2VRRJo5q/0dCCSqIU0y4GyLAtFLJJrr0W0BcvkO/8jql2cjPQLChSyArWREEn0k/z2+eNl24nkJie9ZY+wx2ElQS+gKIpSMChP5DcCq09xSZlkWWusQZTkIkM8mfMlb27JljouZqBggSau18k6Fs3mVmqK5iYbUYxUFKWHgIx/8flVVIRmrfi5B9N+rLMuJU41w2pnFkn/VvabtbIZOpGERNYuCY/WCiCRCHN+38Z+OfRuI5JuNyQSnPxCkiZNJmpGZSan1WatysoA7idTI2lLKnb11dOolZzrR+SJ6yeJX+x//COij0cTTZu0iFoaFtPkh3ahjY7/t03JWIF0QCTRT7Jl6TxqWvwtVb1/m92TH3q/KYpSKLlkMjq3JGom0fKiXz/zY9n4MSn66LdrBc6ROc9EzeJmZ4ymVH01tdTOo8ZF31Dy3RuliSt+OItt4ho43Zd3ac3kyojWTCpKDwKZPuaPFJF0035sslkeIunjiSTmisRUH3O5wIw+kpgCpDl7/0gRyf+Fm7VeMzpJhz2ZpC++tIenWlUklZUC3E8GLq2gwCKrooBIAvezSW4gkuCz6ytprz1ZSKcRfT1tKaWalmYVSVzTDclv+kkulF/uwSYn/ddfTnbL/0IL0PtNUZRCySWSUYJzS1ZUmN+f8xVJhz+3ZL3UTIKMtZLe6YpUJFdiVCYVpYcgIomBdtz8kf37E227PSWOnp9H/0hTIPb6R2JUnMUsj5DI+a5/ZIqTcbqgSKL1ie0fCYmMiuTl7ybp40+Ivv3O1FqaaT/W1Axf6fE4kRx17KtegQVCN/3pn5jCUojcQukG3Nn5t0k6999Jum4nvhc+a6Hmhlqa9MCOvkgGmrTi0UnktD8cQOsf/gy11CfT+knahMGAh/aTVBSlu4ifW7KMSrgMgrklF863kUI4b4rizy1pm7iGBt4ZGq6VDGV12c+r9HxUJhVlBYNCr4gk5o8UkeSMNZEw80ce8lVh/SNH70a0lMUR43jPYgNcuNCIZStbY1QkUUEJkUT/yIBEgltZJM96NUnvf8CnWoRfGnXaD2XlY9RxRiSDNYMeaf6YWygxIMWIDYjWWYdon5uS9PHv1+YCU2BwiUBtJJq0TpPlAFlGHPEXStVXhaYBQW2k/7Qiz0+Ii1MURek6wnNLfifZ2MABEkVLahpMIM+8yNRKNlF7Sz21BvPGIKFTmY0v79pcyxYrMSqTirICgUQuPLfKG2hH5o9cYzglLimlxH7j8xTJj6VZa837nBajtUIgIZIQSozgivkjnUi62kheErdV0OC7wiJ5676Vshz1bJI++5yokQ/XaT+UlQ3cVyKSTFAi02ol8xRK109yyGCi7+1E9OF7fHslq2iz00fTlEf3kjSYNxIC6Raw8Qn/J2vwzV9/JSLpQHNW/6lFC2rYxuit++h9pyhKp0A+WOjAO0Ul5fKj2fDhRNVcNPjspvXj+zlmoCPQxNU15Q81cQ1lddF8T1lZUZlUlBUEMvrFF1RReX/eQLPWMrbJERtS4pyU7C9EJKmhwTRrXcCF1bnoH8lSmal/JETy9vRmrZDIqz9M0oEPJmn6dDPYq077oaxs4L4C0drI+OatTA6hlOatLJJ9+hLtuQfR5ElE385YQq1NdTT54V1poxP+4y2QR285kUXS1lSud+jjNGzf66jq/VvDzVvl+UULVGZbRVJRlO4k09ySZWVEg1YnSmadWzKMmVvyYxbIJpbJBqmVTGvi6mV1cfmesjKjMqkoKwAUeEMD7fTtQ7T5lpQ4sSaP/pEGEUn0j3TNWjF35Px5vL2UTTBD/0hM+3FHBV0WbdbKInnBG0l67wMz6KtO+6GszGx03Gs2BDL1kwyQQShdP0n0H9phe6KmBqLxY5uppWkpTXpwJxFIYIpGgcKRSGQRTXtyf9rgF3+U5q2tjYvNPkZqJYPpBXMM/qtIKoqyPNgv0MR1Ozu35ODBplGTmVsy/1rJ9tYWamOZjJ1b0svuovmeNnHtDRTbry9ddNFlOS0ikpfY/pH4OWfgQC6p7kSJI2bnLZEikqN3J6pZZKb9mDvH/IyIGsq4+SNRQQmRvItF8u30Zq0n/D1JH31MMv1ke1uH9I+cwpk7lrjXoIsuPXHBvRUVSdmRD+5+8TAbXj/JtYg+eI9vsaWLaeJ92wVE0l3dYmsjIZIjfvVXGSK/uXae309SRmeNPim7HTyNLrrooksnF+SFnWniWsz53fBhppFToZhaSTe3JAoe0VFc8cziiT5/XVauRWsmFWU5sSln7lhkoJ0yjsBAO0OHUuKKvpQ4cEqB/SN3MRJZxcscFknpH9lk+0dyQieRqI3kpbWFaPDd6SIJDn0sSRMm2eknUyka8/thIpGKsjKBeyskkpA6/j/9qR9nr5WMYoVy7I1rhftJvs+3Gd9vGKEQRJvRmuuZbYjkyKNfMNOA1C1gkbxH4t00H2HM83SnmvrYPnr/KYrSraCJ6+aBuSVBUXER9etL1JeX6irT3SYf3NySyPdm/u1omvd/V4SbuF7ABYxgXqn0OormJRtDv8UqitL1oKCLgXbK+/EGmrVioJ211qbEGY2yP3+R3Juood7USKKPZBXLoYzWGqmNxAKZ5GiM1gqCInnLPpV02TtJ+myMmYoSPyKiNhJoQVZZ2cD9BYxMWjljChZJy9ib1pJ+kihU/eiHRN99Q/TZR0uouX6xNG8NDqxjrhUuKKFQtf7Pn6SmJbOliWu4VtJhjwkcqiKpKMqygvwwV61kUCYn3b+DrB1HPZOkPx+bfxNXyOQmp7xNqbokNXOe17joGy/PywfN81Z+VCYVpZuR2sgLqoj68IYMtFNGtOFIShxbRTXvWonMcRe6GkmZQXgxiyRqIhexTEZHa3US6UQy0qwVQCRPfyVJX/J3jYzRw4djtFagmbqyMuLVStqaQUORjLBaqEyKSKKfZCnRLnx7DuxP9OZ/mql+SVKat4ZFMiyRuOa0J/ejDX75LLXUzqWmmlkqkoqiLFfcj2v5AKGETG5/dVKKJtttR/TwwaY8UCjrH/40NS3+lha8da3USiLvM7WSmUF/Sc33Vn5UJhWlGxGRvIhF0vWP7NuPc+8tKHHYTF8kQYa7EBIJaj7agyWSBRK1kdW8RnWiG60VOInEmuUQ80IOiTRrhUSCI55J0jczORmnaW9to7E3DtfMXFlpMSL5ekjMsNEZkQSQyR1/k6SRI4l22JbotX8SVS2YTxPu2coXSblWvEhueOTfZQqQxsUzqfqDO2SPL5LpEuk2pj62t96HiqIsM8gTs9VMZqqV3O8uzvdGED3ys8JqJTc97QNK1Sfp6z/9zMZy+SMPmVSR7D1on0lF6SZEJIMD7ay+OiWuGVCQSEr/yA92Nb3hF7IYzuf1okXhaT9cTSQWFsRUKl4kr/ogST+6jzP8GSySnKatpVlFUlmp8X6B9+QMgWUUSdtPcucdzYA7mE/S9ZMUpDYyaINmGyI58tcvUapxsfSTVJFUFGV5k0sk49j+qgWS7715QaWIZKGYuSWbaK0f3SYSCcID7yi9HZVJRelikJmLSAYH2hk2jBKXwSopLJIZEJH8dG/TjHXeHNM3csE808w1hZFyrEi6xYokpv2ovMf0kXRAJM/7T5Lee9+M14NaS/SPHHfzOlqAVVZanEhudPzrsnZiZkSS75kCCfaT3HNPoskT0VdyCbU2Yz7J3UytZEyz1iCtTUvkF/rW6LD4KpKKovQA4ueWLKZyLquc/VqS9vhtuFtMNszckp/IKK5tmFuyaanURoYH3lFWBVQmFaULQQEXA+3UXMaZdSlHlJYQrbc+Jc5rF4nMWyRd/8g5s4mSEMkFJPN2xE37gRFbMe3HnRV0+dtJqZHEAonEcuxfk/TxJ2acnvbWdukficKrFmCVlR0jkpCysNQZcIPkh9dP0s4n2cj3yheB+SQ3PvENvkTwGoFr8gq1kiOO+ItMA9KyFKO3un6Sb5sEgeSRDUVRlOWEyXfc3JJo4oq5JREtc0s2EL1/baFzSzaLTLZjbsnm6I9omdEmrr0LlUlF6SKkNvKCKirvzxsQyT7lHLkZJU6ty1siRSQ/3sMMsCNzR7JIojqxkXP54EA7rlkrR6HJKgbaufydcLNWx+TJpumrTPtxwxqagSsrPbjXfJH0Sa+VzF8oMZ/khiOI1nLzSdaZ+SRFJEMErsnBaU/sRxse9TylGiCS8yMiyYSeor+BkNZKKorSVSBfjG/iitwmlBF5uLkl11yTixyF9wywtZLZ5pZUVgVUJhWlCxCRxEA7fXkDI7b2Z6PcdntKHDW/oNrImg93M7WQEMmFC83Irc1NnGNzJh2USCzoH9lCNPRuK5K23AyRvPzdpHSmB5/+ppLamhuk9kULrsrKDu41Q6BwVOT6ScY1b80ulMF+kjvtSPQhi+TiaD9JD3tNWzaDSI465hVqbayhVN1CKVh52DSG0IaEpqhIKorSrYTzHWmWelb63JJo2j+AiyzVyZSNzY2ZW/IjUzPZgiautdrEdRVGZVJRlhERSQy0I1N/cMadGEyJq/pT4pCvcoskl3O9/pGQRvSPnD+PKMkiKf0jOXOPa9bq+kfeG66RvJlF8uzXk/TBh0Q1NTaSGXfL+lpwVXoNGx3/bxti0voxxhEvlMF+knvtSTRpQqSfpFcrGSiUycrfRiEKc0li4B2vVvIUWysp2OMs2FKRVBSlK0mvlQznOyE4O5QmrhikjJNVVnJ5YTHRx79bq/AmrlIrWS8LyKdWUpu49j5UJhWlkyDzFpEMDrQzfE1KXFJSWP9IiOTSWqLZnLmiVhKD7aCDY2ugWasTSV46IJLoH8kSGRXJ4/6WpM8/J2poREaPA8zckZpxK70B3G9xIjn9Dz/MY9AddyMZQv0kd+Bbro4LOeMi/SQFWyjDSoJme9oTP6ANj/ybbd46L6dIeocH4hRFUboWP6cJgprEeRh4J7CrqKRM8r811zCNofLF1HB+Ji0xRCabdeCdVR2VSUXpBCjUJoMD7ZTxw4iRlDi7JT+J3OtjWWo+3tP0j5z1HdFCFslqPl8jm2C0fyRqI9E/soVocKR/5M17V8ryi6eSNHkKUQsGe021av9IpVeBe84DElmQSAbpEJHEJN1eP8nhRB++H+0nGSiUycrfhkjKNCANi2TAnerRd0u8L5KBY5lgaMpje+l9qShKN+DnNHH8AAPvcJli0gM70LaXfitZ6IABXITh4ssbFxc2JUgHF0akv2RLPbXqwDurPCqTilIgUht5QRWVuYF2+vYh2mprSpxYk7dIgprRuxMlWSAhkhhoB+1Sg/NHOpG0MglJHHpPukhi/sifPZakmTM5WSuEE/NHrqkZttJrcCIptZKBZq2Fi6RPcQnRkCGmnyQG3An3kwwUyiTob0MkRx37L2qV+SSTfL/V2T2OwLGMv6UiqShK14P8Me/mqTZDKiotlx/T1lrT9KoBhTdxNTKJMJiUo4lrOGdUehMqk4pSACKSF1f5A+0MHEi0z/cpcfh3LJK7SJpsSG3kp3tTzfssnegfOYsLlhitFc1cs/SPbOS8eli0fySL5IVvJumzz4lm86naOe3nv9X5I5XeyUYn/IdLI0E161zRZOxNa/v9JPcgmvgl0Xcz0U9yqe0n+aZJiNPL9YLXNLRJP8lqmVMy3Lw1nNZs8SOfR0VSUZQVgTRxPYfLGQGKikulRhL9JTEDWb5IE1c7tyQG3gk2cR2epYmrnzMqvRGVSUXJExFJDLRTzhvoHzm0ghJX9GVB/LQgkaS6paZ/5Bw2QDRxbUD/SDbGuP6RmPbjzgpa8/4KuiIikqe/kqTPxxJV8yna+fDPf6fzRyq9D9x3IpIBIJLT/nBAwbWSIpKBfpK4Fb8c30QplsNJD+4cFslA8QchXHMq+kke9Y/0aUBOecemMoRC/oaiKEqX4lpt5OIHHf7cktteNktqJQcNMq2Z3rmywLkl0cQVtZIpv4lrplpJk3cavtAmrr0WlUlFyQEyaxFJb6Advm3WXocSF5JIZFgk40uOIpKf7GWm+kBt5Lx5JtzUxLl5W1giURvJSyv6R97NEvluUhYHRPL4vyXpiwlm0JD21g4a83sjkorSm4gWlCB0yyKSrp/kyA3NoBOj3ydqlH6S2xuR9Eo+/n1sQhDJ75tpQBrQvHUhVX1wu+wxImnwDnchs0FTHtVaSUVRuod8RNBmRUIxmrhyxDprm8Hj88aexB94p5460CSKiauVDF5T6d2oTCpKFlCYTZ4XGWhn620occMX8FMAAP/0SURBVEZj3rWRIpIfoX/kQtM/csF8oiU1dqQcVD9ywkBtJJq1NvOuinuMSDpuYomESB79ZzPQDmYSaUu10ZgbhmlBVel1OJF0tZKQSOBEEnKIpRDQT3LoEKIdtif6gEVycVWgn6ScHg/mOibkb4NUYw211CeptWmJjfHxU3EocJiKpKIoKwo0S93i7OjcksXUp5xo8GCiubNR+MiPL++yc0ummrns0SC1kq6JaxQ/P1RWBVQmFSUDUht5YRWV9eMNiGR/DuyxJyV+Mauw/pEfcFrURMqIrSyUaFsX16wVP/CliBpYJNe4NyKSe1XSFe8l6fA/JGnadHN4e6qFxt44XAuqSq8FImm8LL1oAqHMVyqx3/WT3GMPkvkkZ3n9JHenjU9C81b/GiZkt3mFWskRv/oLtcY2b40c6W8oiqJ0GyijFNI81cwtOUfyqKEVpmXTB9cNy34O5GduYTpaMYqrnVvS/hAXbOIaSBpCm7j2blQmFSUGEUkMtNOHNzDQzuqDiL6/PyX2/zKHSJpf+bz+kegPid7t6COJ+SMz9Y9kkWxH/8i7Kmgt9I+MiOQFbyRp/BdEM7/ldHw4BtpBAVkzZ6U3gvvPiGS4aBLXvDUolXGISF6bpFK+j3dEP8la20+y0faTPOktTmWu4V/NXpNXUx//Po08+gU7DUhYJMPpeTEbHlorqSjKiiJ24J2SMirmkv+66+SYW9LP3ATUSqKG02/iWpc28E4k+1NWIVQmFSWCiGRwoJ011qDEZWWU2O3DAmok9zJNWVEbiYF20D8ybtoP1EayHGIg1yEx/SMhkme9akQSlZoyYqsOtKP0YnD/beyJpI+I5OWzzQ8xMWSrpZT5JDeUW5lGf2D7Sd6/vRVJg7kaHu11eQWRxDQgqcbFlKpbSG1ciHL4z45DgcMcKpKKoqxo9rMD70y8fwfa5pKvqaioSBpZDehP9PIZkbklXT4WyctchEwHInNLmiau+aK1kr0flUlFCSAi6QbaKeXbY+NNKHFum0hkLpFM7PWREcmP9zTTfUAk0bs9R//IJt5VeU8FXRmRSCynvmREspbzbYjkGCuSitIbwf1nCJRmOOiJpMPV7EcI1lK6Zcfrkl4/yQ/fI6rhe3PCPVtnEEm7kqDZbm2soVR9ldRMulrJTb1BdziNPSyIiqSiKN0J8spCmriC4tJ+MvDO8OFEixaZODkH8rCYfCy6AzLZJnNL1kntJHBNXGMPV1YZVCYVhUHGLCJ5uRXJcn7YfkdKHFuVZ23kR1Tzyd5U8+FuZoAdGWhnAdHS7P0j61kkh9/HIvle0isbQyLBic8n6YsviRqbkIm364itSq/GieTGJ/yfrIXIPI9hcE+5uyYMhNIh/SR3N/NJzvrW9JN0+Ge31/AuVURTH9+XNjzy72nNW7OLJCLSIhVFUZYrmZq4YlqktdfGwDsu0q49XB7m7/jyrs1p87M+NTWTqfznllRWHVQmlVUekcgLWRqv4IwX/SP7DyDafU9K/GxG/iKJ/pHNjUTzuBALkUxm7x/ZZvtHrn2/EUkHRPLK95P0qz8macIE0/z18+sracwNa6hIKr2WzCJJNO3J/cO1klHk/gpLJWok0U/ye79L0vtXVNLSWqIJX4T7SZqzBwpNXtnJiOTIX79sRLJuAVV/eJfsMSLJCfHcvPQOEzHl0T31XlUUpdtw+aUpVGQm2MR120u/leb+q61G0n/8tfMqWQKDNZvIv9IyNY9QE9em8MA7mY/SJq6rCiqTyiqNiKQbaAd3w5ChRHvvS4n9vyhMJDFCKwbZmc2F3kXVRE0slnHzR6J/ZAvR0LuNREZF8pL/sURy/v711+ZwDLSDjFgzY6W344mkiJopnkAkt80mkkGsVIpIXpOUaUA234zo+k+TdOu+lfTpDetKP8lNQiJpVxI0AYjkRse9Tq3oJ1mf9KcOETiNPSyMiVx5RDJ7IVRRlJ7NVudPsKH8KCrtI9nqOuuYxlMGk+dlyNRCdEitJEZxraMOjBbIaK2k4uDisyvt6qLLqrV4IukG2ll7HUpcVESJPVgQ8+ofiaate5nBdVAbOW8uUc3i+IF2sLBIYv7IynvDtZHgxj0r6fw3kjRuPNFcPo0MtCMiyecNPGdddOltC+7DkEhagiLpUudLEYskRivceBTRe2/bfkEMRDJUePIu518XtDbVUArTgNQtDDRvfTeajAmcyyP8+nrmAuLiddFFl56/ZCd2bsmSEiorYwFcwwwwny/SxPXMj6nN1kq2ReaWTMsSQ7i9ca9Bl960aM2kskqy6aj1AiO28m0wYgQlzmwSicxHJGs+3otqPtqdKLkAHbGI5s83o+SgXWpMs1Zv/kjbP9IBicRyzutJGjOGvZRd1B+xFSKpKL0X3IcikuJkfrEkU42ku60yMfbmdbwBdzANCEZuXTivOtBP0l5DrhcKCNJP8qjnjUgG+0memkkkfUytpN6ziqJ0H8gzC6mVlCaul8+S7HXwYFNEefMSNHHNv0bR9JVkmUzVU2uTGcU1OLdkJr64azPNE1cRVCaVVY7S2/oHRmwtMSO2nlRbWLPWVjbDefNYJGeZOTvQzDWufyQqKDnzrm0mmT8yKpLXfZyk019J0mcskvUNyLTdQDuaASu9G18kw0KXT9PWOKl0Iokuz7t8j+jL8UTfzayR/j2TH9qFNjnpvyahd6mwDEIkRx3zT2ptRD/JhVT1/m12TxzhY1UkFUXpCcQNvFNcUi5zS66/XmDgnTxAraSZW9I2cY3MLbl1ViEN55FK70ZlUlmlQAG2IsGBUl7K+GHLrShxTLIwkcTAOmgngj6SVSyHDWyB0j/SiqRr1spRcM7Bd1fQeg9W0FXvh0Xy6g+T9PUMLgSPI2ph2fQH2tFCqdK7CYukD0TSEKeL6bhUEMkdWCTRjGvnncztOW1ynR1wZ6ecIumQfpJ1VTIdiENqJUOoSCqK0lNIzyf36wjnR0Vskn36EA0ZYrrRFEJ7W4sZeAejuNpaydwUaa3kKobKpLJKgMIrlprLqoxI9ik3U3/8cnb+/SMhkpgzErWRc+eYvpLB/pFOIrG0mqklK+4xEikiafN8iOQV7yVp4iSiqVNNhabrH6mZr9LbEZE88Q0ub8SLJJpk+ThdzMw4iOS1SRnyfuut+L5rIvpibAs11S+RJl4ikriUXM4LBDCD7oz41V9l9NbmpfPCzVs94o5VFEVZPiDvzL+Ja5HkfzJNEmdbwyqJ6tgF37myM01cTa0khBLk08RVWbVQmVR6PciAF55bZeaQhEj260f0vV0pcchXeYkkqPl4T1MLiYF25mOgHZZK2GJwoB0sViSbeNewe8O1kdgNkbz07aTURs6azclDA+0oSu/GE8kI8SIZJHiT+UAkt786KU24NhxBtPpqfD99StSwtJom3retL5JCnAhCJPehkUe/SK12GpDMIpmO1koqitJTkCauZ4ebuLq5Jddf3/wOni/BuSXb7Ciu+TVx1R/cVkVUJpVeDQqvi86vovL+vMEZKg0cSImrB1DiRxPzG2jnk72p5sPdzFjaEMmFC4iWZugfaQfaqW/GkNlhkQQQyYv/m6RPuLBbxfl9O2okdaAdZRUhXiRR8DCFj8wiGSUslcWlRMOGcWFpXSOStYsWUpudB80v18QVcIxIjjruVUo1LpZ+km0t9XZfkPjCkYqkoijLC+Sf+bAfmTwJ0yBtc/HXVFRURP25/DNwABdj5vn5Zj50tLZIrWQ7RnHNa+Adk1dqE9dVD5VJpdeCzLfmgioq7scbEMlEghJX9BWJzEsk0ay1uZFo3hy/f2Q9FzYziCSmXkrcVUFrPxAWyRv2qJTl7NeSNPojoro61Eh26EA7yioB7sPMIolayf1o28v4PnD3U56gVhID7qw2kGizTYkmfMG36AIzcuvkR3anTU5GP0lcIyqDNs5Go39kqr5KRnAN10rGHWuJNNFVFEXpbgqdW7K4vD8VcSl/rbXMD9gfXDessCaubWYU19bmOuk7CXIPvKOsiqhMKr0SEcmLOPfsyxsQyYpKSlxSmlMigSeSGKEVEonRPKr5XI0sljLQDicKSCSatWK47SF3V9DVH9j+kRZIJEZsPeHvSfr0c6KmJqLPMNDO74epSCq9Hvdrek6RFOyN5e6vLIy7eV0ZcAeDSmy5BdHMGXybfoeRW2vNyK2eSEaxcbya+tg+tOGRfzfNW6PTgGSSSMAiOeWRPfT+VRSlh9Bh55YcY7cNRcWlpokrZ8OYwSxf3NySEMl2DLzTvNRr4pqZLHmm0utRmVR6HSKSF7P8cUGTSjiDW3MtSlzQkVdtpGnaupcZXAfNWufNNZM/BgfawQKRtDLZ3EJUeY8RSVRYOiCS14xO0qTJRBMmsXOycOpAO8qqQrxIosBRJBIZFskg9iZz91oEJ5IYjHnTTc2tOmN6HaVYJCc9uHMGkTTXdSuI5MhjXjbNW5cuoOoP75RUhuixDhyvIqkoyvIFeWlhc0tuT9teOlNqJVdf3UylnVyYKnDgHTuKawvmljSjW+vckkomVCaVXoWI5CUskuW8AZFcb31KnNWSX7PWj/eimo92R65rRHL+fKLaWlPtmKF/ZAM75hr3GZEMApG8iuPGjCX6ZiYyZh1oR1l1yCySpjYSxItkEHvDufuO8USyzDRtbeX7b+qkZmpusCO3nvw/ThWVQbttVxDJjY5/nVobaihVl+Rz+MPdb3rqezYUAc1a+b+KpKIoPY0v796S5kYG3iku6yvZFmol8Zv4x79by+7JDzfwDpq4gvzmllRWVVQmlV4BCq+eSHJBU36KG7UxJU6ty79/JCaFnDfPDrTDQolmrnH9I1FBaftHrnV/vEhi6o+PPiZasIDTsnjqQDvKqgLuQ0hkJpHc9rJvZTE3VD6Ym8+JZDnf35tuTNTUQDTxy0ZqdCO3ikhGsQZpVw7pJ9lQFRm9NYtIKoqirEhyZJf724F3HEXFJVReTrQ2O2ShTVw3O2O01ErKwDu2iWt2TB6ptZKrLiqTykoPCq8zTq+imkutSJaVEG2xJSWOq85fJBvqTd9ILOipjm3pH8k5eEAiUSOJfuiDbf/IoEj+fncz0M75byTp/Q+IlizhQ1QklVUIJ5I+KGSYgoaI5KXRUo0RxVyMu2U9TyQ3GkUyX9q0yfUskotowr3b5C2S0k/y6BdkPkk0b81ZSAqIpNZKKoqyvEGeuuV5eTRxtVmVNHHFyNi8PWQIUUsz0aJFjYU3cbXTgWABOrekkg2VSWWlBhntrDOraMgg3oBIcmkzcf1gSvxqbv4iuaTGDLQzdw7nutVEzU2cm6L6kRMFRbLVTC051PaPDAKR/M0nSTrlpSR9/DG7aKMbaEdFUun94D6MF0mDEcmZZiPWH2MjhaBIjtyQqMb2kWyqX5yhRhLX5cWuDEUikqOO/ZcMuJOqWyi/vDvSayVxvHewiqSiKCuQjgy5Y7CJq59fFZeUe3PvoqHVZzeabgdxuGwSi5lb8jPqaMUorqaJqxt4B01cCxFSZdVCZVJZaUHhdf45VbTaarxRykufvpT4zSCRyGwiCYk0fST3NNN9QCTRvLVmibHFDCLZxLuG3csi+WG8SE6bRjT+C3OKz1kkUfjUAqjS28F9CHyRdEUTA0RyGyeS3o3lr8IE9jMiktcmqU850QbrEy3iW2/WzFpqFpHcLoNI+iuDv9HauNhMA8LrzM1bOX3oeEVRlOWPy1s9YvNMov2LuAwD7A9gRWySffsSVQzl4s1siQqBVG6J0tHWTG2tjdQmo7jmM7ekQZu4rtqoTCorJchkk+dVUd8BvAGR7D+AEtcOzK828pO9qebD3YgWzDciifVSzjQx3GqGgXbqWRCH31dB18SIJKb+GDuOaPpXnFwH2lFWEXAPYgn3jwwUTzgYFEl3WxlsKBwZoMMXyT5E66xtRHLu7CXU0lAjTbkKEcmpj+0tazRvba6dl1kkURgLHa+1koqirDi2PO9LG8pcO+nAD2zbXTFX8rDhaxDVLuGlpk5qFJGtuSUbXhPX5qUyCA/QWkklFyqTykoHCrCLz6+isn68gTkkVx9Eiav65d+stbmRaN4cI5IYubW+nkUyZqAdFsl2O9DO2vcHRNLm6BBJ1FKO/ohoDuff0j9SRVJZBXC/mGdr1jrtCYjkN7wVLgL5W+5mCwfH3bK+LBDJviySaw43Ijl/bo0VSTdqq8MWkdJKSmYDIjny1y/Ruoc8THNePY9F8h6JTyNmoB0VSUVRehR+BipNXLc4Z6zdMhSVmLklN9yQaOZMojG3jAhnixn4QuaW/MQMvBNp4qoouVCZVFYqUIitubCKipxIDh1KicvK8hdJjNCKdh9zWCarq4kaWSwx0A5AJu1qI3lBReWQu41ExtVIXvy/JL33Pjq349c8HWhH6f1kro30iytSG3nJN7L4BZ+ALTKZtiCR21+1wIhkX6LKSiOSyfmLKdVYQ5Me2DFGJP2VwX8+EMlRx71KrQ2LqaVuYahgFKqVjBFJRVGUFQXyWb9W0sfPN+Mp4rxswACigbzMn2sj86S9DbWSZm7JtqYlEqdNXJV8UJlUVhpEJC+qIurDG5hDco3hlLiwKL/+kZ/sZWY3n4X+kZzDLl4cHmgHEukWFkn0e6y4J71Z6+92qxSRPPNfSfrwQ1Op2d7aoQPtKL0e3H8ga22kiOQM3goUeUKln3BRCFsuZtytEMmFVFRi+vsMHcwiybd79cJFLJJLWCR3ylMkDS6EaUBa0E+Sl/TmrZwqg0hqraSiKD0Lm1vyCrWScwJzS0oT1yvnURGX6tdd1za6Wroky7yQyPeCC8oyZm7JtuY66uhAYSifJq7x+aeyaqEyqawUiEheHBDJddalxLmtOUWy5uO9qOaj3U3OOpsLhgvmmY4EKbbFYLNWLKiRbCVqbDYD7cSJJDj2r0n6fAy7KKeTEVtvGKaFTqXXgnsPS7g2EviFCEgkMCLpcDdWOBjZEMbdugFtf3WSRbJIRHLwICOSNVXV1NrEIvlgUCRt4ceufPwNhKY8tjdteOQ/ZPTWlqV+P0mPmP6RDhVJRVF6Ki73PMANvGMpKi6l0lKiEesTfcNZ8djbRtk9DmR4bvFBzeJmZ3wstZLtqQZqtXNL5tPEVWslFaAyqfR4RCQv4ZJlOW+U8Ed2w5GUOL0ht0iiWWsrS+N8FkgZaIeFsq4uY//IDo5O3FlBa95fQdeOThfJ6z9N0mFPJmnyFHMK1z9SM1KlN+IkEqRLpF8YkdrIi79mkfyat8KSaAjEuXtOMBvjWSR3uIZFkm9tiOSg1YxI1vKDEcmdIyLpr3z8CIQgkiOPeZlSjdUyn2T1h3d6BSOplczSrFVFUlGUFQny3bgmrob0PBa1ktte9p3koYMGccGe18mFKVsribzOLZmR6UAwiivmlmSZBDq3pJIvKpNKj8UVZmsu5ZIl5pAsLeHIzShxYk1+ItlQb/pGoo8kpgBpbAiLZKBZa1uKaPBdRiKxBLNriCRGbP3oY6JvuYwp/SN1oB2lFxOUyJzNWlkkBeOGwUCASBwHx986QhYnkqsN5GUARLKdltYkKSUi+b0cIhkuJCEEkdzo+Neln2SqLkmtdnh7/NKeSyQjJ1cURelxTLjHNXH186vi0nLJ2kZswMUeLvJ89Nu1ODZ3foaaRdDeZgbeQRNXVyupo7gq+aIyqfRIUJj9+vQqI5KY+qOslBK/HUyJoxfkJ5K1NUYi57JMYoScpiY2RlQ/ciIsTiRZDNHidejd6bWRACJ5+btJepfLoEneLSO26kA7Si/F/YCTLpHAL5hAIre++CtZzID1YVE0BOI8TNrxt42QZq0YaAcjDyZW5y8j3pWc30D1S0yN5OSHdslDJH2CW+gnmaqvlkF3Qv0kc4jklEd213tbUZQVhvshLxcHFLkJJE2eVlRcQuXlROusQ/QtBtEugM1OH20H3mngvLeQuSU31/xSEVQmlR4HMtNZZ1bR0EG8gRrJPuWUuD4h+zKJJCTS9JHck6iarc8NtLOEpbKlmS2QzdGUY0Mi2cQiWXlvZpE89z9Jeu8DoqVLjUiOUZFUeiG5JdIUWFxt5NYXTectXxZNyN/27jU/4DH+tg1pe1sbWc739+oDiRrqiBYla6i5voa+vHsLFsldrUjaa/tPweJv+LtYBtFP8qjnKdUAkZwf7iepIqkoykpA5iau6Uy8b1va9nIWS87eKivMuIKLqhtp6wsm2xS58QfewdySfAJGayWVQlCZVHoUKNDOP6eKVludN1Aj2a8fJa5bXSQym0jWfLI31Xy4G9HC+UYkF/B6aS1RKsVlWS7MujItJJKlkDi6nkVy+H0ZRHLXSjrp+SR98omp1GxvbdMRW5Veh5NIkC6RwAiYL5HTrEgyck/5omhuMXejWbwgaiM3lAXNWov5tP37EvVhmaxZ1ER1NVWUalpKE+7dRiTSF0l/5eNHBENTHtuLRh3zTzvgzkKqev82v5/kae/LOh2cIe0CiqIoPZIJ92wVGsUVFJeUSz/JkSOJvp1J9OmN+dVuoonr5md9KgIZbeKqKIWgMqn0GFCorTqvivoO4A3MITlwICWuHpBfs9bmRlMTiYF2ZEzseiIWwNiBdlgkE3dV0NoYaOejdJH8LYvkEc8k6csJxkXbW1I05obhKpJKryEskf+XUSQ9ibwQEjnNxgdkEYhQ+nEmFEjDwfG3jaTtr15oRJK/dQb0N/2Ua6prqam+RkYPnHj/9gX3jzQYkdzo+H9Ta+NiaqlPUmtTjeyRfpJZRdKgtZKKoqxokCdved4XHArknzH4TVwNRcVF+N1d5uWd9a2NzBPUSopIttR5+aY2cVUKRWVS6REgE118QRWVciFTRHLwYEpc0Tc/kaxbagbaQa/z6mqiRhZL9I9Ehow82dVG8tLKBdjBd1fQdSyRWIJAIrEc9HCSZswwp8BAO2NvWkszTWWlxwkklo1PYIHEIhIZMjbGSBskEmx94VR+xL0ULOAgHNiWoL9t9nbQ+NtHyiLTfhQVoesz9e2D+c+aqW5JNaWaauWXdn/EVnNtIfS0ws/R3+KQ3UBBSJq3Lo00b43FP4OKpKIoKwNSK3mWXyuJJq7bXTFXugysuSbRksVE/7uisuAmrq5WMtfckuFcWFF8VCaVFQ4KtzUXVlFRX96ASA4bRomLS3L3j/xkL6LFi0xtJAbaqeGcFB0GXP9I5ItuYTFsaSGquKeCfv95kq7fxcwZ6cq/kMirP0zSfnclad48PsSKJAqZWtBUVmacQAInkUJsH0K/NnKrC6fIEiIklCCwLQYpD7L5xe2jaPur5luRNP0jccW6mqXSN7KVCy8Y0h6kNWsNPbXQRmCLQ/x/yqOcDzApad4aFsn4Wkn/DCqSiqKsTBxQEqmVLCmT1h6jRhHNsANr54SzwODckm2pBukvmW8TV62VVKKoTCorFBHJi6qI+vBGCedwa61DifPas4okqPlod9OcFSKJeSRrlxhbbOeCrCvPYkGNZCtRYzM76r0VdMsXZvTI333mCyVE8qK3kvTOe3zeGiuSOtCOshLjBDJeIrH4QuWY9uT+RiIvmCyLdUJe2YDDNR33CO//4vaNrEguQElHpoZF38jW5hZqqF1MLY21IpKTHtix4P6RoS3+D5EcddyrtN7Pn6TZr5wpg0g4comkoihKTwF5tWnimgeBbEymVVqNaOAA85t6RnCMWywdbXZuSc6P0dUATNS5JZVOUDQv2RApKSjK8kFE8mIWyXLegEiuP4ISJ9dmH2gHzVoxOivm6cAgO6iZdM1aXSEXi6uRZJFE/0hw6wQ+hvfBNyGM6FJ57Y6VdNorSfqC83DpH9naTmNuWENFUlnpcOLo2PiE//BjoOQAIhIJgXT4zZqCaThsN80qfHz0fF/csbFpdlVSyimL5IcbDLbT3FjPhZUGlr16lsidJG32/pHAj0gL8crVSI444jlqXjKbmmpmebWS+Yik1koqitJTiJdJP89yTVwPKIExdtDEe7el7a6cTyVlJbTN1kSrs1DedUBME9dwtufxxZ2byQ+MLXULqGnxTF6bbj/IQzON4upOpTWTShSVSWWFICJ5CYskpv5A1cX2O1Di0G9yi2RDPdHChWbUVlQjNrNYSv9IJiiSHNXOIjnk7gq6YYypjURTEMkNIZOc5vJtKun4vyfpqV9Uynx37a2tNPbGNTWTVFYaogK5kQgkPuYxJYiA+IUk8vyJNsT7vSTB44PxCAb3MXxeSKQDA+04kexoS1FLU73MX4amVP6UHw57rtApw+ef+hjf9zmo2OMSGb3VkS6T4XOqSCqK0lNw+Xgumdzy3PFSxHEyiSmW+vQhOvAnRJ99TPTSGQGZDGd5ISCSmFsyVZ+k5tq51Fj9teSf886ppjVz9JdUkVTiUJlUljsikpeySGLqjzIuce68KyUOnJJbJNGUFbWRkElM+yHNWtkK3SfY1UaySKZYJCvvqaBrPkxSGQtrKV+r2NaSIFe8dMtKOvrPSZo2nQ/h9OgfCTSTVHoyUXkETiAd2UQyKJFbnjdB7oVweomwBOOBv88d88Wdm8h6uyvn8SXMrzVjbhhGO12zgOWxiVLNDdTOEjnx/h0kXbbayKmP7WNDYTY99V0b8hNPeXRPed3oI9m0+Fta8Na1dk+6SE55ZA8bCqP3uqIoPQHk61ueyyIZyA8NfoSTSYAiz8R7t5EfwYcPJ9qNi07/ermNRl8/nLa+MPfgO+2tLaaPed1Caq6ZRU0133mtOrRWUukMRfNVJpXlyCYQycucSLLl7bo7JX44IVYkvf6RH+9pmrNCJKuSRHV1pk1qsFkrFogkS2Qz71rjvgq68I0klZeTLLhUCV8TlaCXbV1Jv3gqSTNn8iF8TFtzI427ZT2aqhmk0oPAvRIHpsAQIk1MzVakNMJpwgKJX76DaTgsm0GltCEbH4a3+f+Xd24qW9tdMYeK8CsNRyJlUVEHdbS30uc3rsPX+lJqJCc/9L1QbeTUx/e1oTCbnvKOCYReVyAciIcgbnjU89K8Fb+qBwfdibLZ6R/wo3/s5Id3k8JQ8CqKoigrCuT1IpMgLWMqCokkwHy86JNeUlZMu+/GxaFmogcOqsxLJFEribklU/VV5se4RTNpwf+ul4F38m3iqmUlJYrKpLLccCKZuKWCan67lGj3PSnxg3EZRbLmk71ZDtkMq1k+IZKY9gPNXLP0j2zg5GvdX0GnvcQi2YeoT0AmsVy9QyUd/EiS5s7jQ/k0rc31NP7WDTRzVFYomcQRePIYJE0kw9vT/nCADRlMQcSmkVUwPYe9XS7ei7B4Afryrs1kjdpIOYJ3FfGNCInEL96okcRw85g3Mo5NTnmbH835vEfv9F6Ag4GwYJ7d5Ed25/fkdWqpnU+Ni2fSQi4IOTY7jcUxTkZlVcRiu4ve64qi9BhCIgmi2R5HxMkk5uztP4DooJ8Svf0W0Wvn5S+TaL2RqkMT1znUkJzOEnlP1iauAE9LRVLJhMqkslwQkUTTVhY6zK6buJpzQSajSKJZa1NjYKCdxWZbmrWmi2QHSyTmjwS/ftbUSKIvgRPKMl5u2L2SfnhfUpwUIokRW4FmjsryIqs0Hvd6bEEiRJpgIYWJiwrkFueM5UezD3M8GuxaVi4OcNjbFR//JRckAAbYcc8DEonOye1tKZZIjAzY5EnkJidDGhlJ6tLbRxNgvIAhRgTlMRCPmsUNj/ybDLiDJq6uVnKz0z/kR5vOHCRBA0Tye3qvK4rSo8glkxPu2Zpmn1VFP5KBd4xIokVIMRdyRm7I+d4mJCPT5yOSQLofyDRKC6i55lsWynkFNXHVPFSJQ2VS6XZEJDHYDgudWN6ee1Pi+2Ozi2TdUqKFC8yyZIkZaAciCZxEYs1SyOVYGnpPBR34gG3WysLqJFKEktcY5ez7dySptpYP42MhkpopKt1FNmnEVBZhYQO8HYqK7mciIomtaX/4odmwbHH2GBOQpC69WXdWKL+8ewtZowDjPQf5QadNJFImvZaJr5tY9Ha1NY/ApJXHGEkUYuJNeu/BYsI4P2pqW7gA1LhoBi18+3cSv9kZpkm8wZ7HO9wEXrxwuKwVRVF6CmkyCQJZH2QyrYnr1Ukq5XLOAfsTzZ1N9OQvc8mkOeEXd24qc0ti4B00cW2snkHJd2/Mq4mriqSSDZVJpVsRkXTTf5SVEu22O1G/1czOCKZp614sjzWmNhLzSC5lqZQ5O1D9yIncAplkkWzhXZg/8ge3c+bKpxeZdAuL5NNHmNrHPW9OygwiGGxnzO9VJJWuIas0HvsvfuSv4UDBIF0imZBQgcxppkfkEX1fvPScxoT8bR+7x4tzabwHC4f5/4S7t7TbRNtePts/zkmkNGm1EskLmo+CTU55x57NnMfgBTgYCAuBdyRmX3CFAK4z8ugXpFYy2Fdycy4gmXQx5+D/mI5E73lFUXoSRiQDXRAcgc04mcTAO4MSRD8+gOj//k30xsXZZNI/GWRy01PelelAmpfMkR/kkIfOO6eK1ryvQmVS6TQqk0q3IjJ5BQbc4exo+50oceiMtBpJb6Cdj1g0Fy0imj/P9JOsrydqbbUFWE7gFhZCLI0sksgA97whKYPrQCbRL9LJ5N9PrKSjn03SNzPtwK9tHSySwzRDVAoimzCCUcf+04YiBQJsB6Jy10YCP2L6Uz+yIR/8qmycy6Vz57DbvNOE/G0fu8eLc2m8B+mbA7a5ZAYVlZRxLMcjfUc734a82H6REMiONrPGyKoooLjTBQKGuOcQfrAEwmn7SERy4xPfpJalqJWcSQveukbiNz/zE1lL+tAhZmPSAzvqPa8oSo8jl0zGNnG1c0tuvTVR5RCiW/bNJJKRczJtLfWUqq/2RsFuqU8Gmrhiiqj0YwBiVSaVbKhMKt2GiKQbuXXNtShxdkusSEqz1pZmoipOu4BFEkKJasQsA+0k7jL9I3e5nkWy2I7UWmJkEsurZ1fSzx5N0vwFxkfbW9tpzA1raGaoZCSnNB7zig3ZL1zvezf6BRzdj2BMmkDU9Kd+bEM+/mAyNmFAAk0wPV4eI9v+fhCfZsK9XDJhtrl0pjc6qwH3H0skmrPyYgSyhSY9uJPsjZu2I3w9EHj1Mfs8JJjhWH6Y9OD3JGbdgx+ihqppVP3hXbIdqp118HVcDKYl0fteUZSehPu+ySWTaU1c7dySGHjnS9713HFRmYycyyJNXE//UARSuglUfUVVH9weqJWMl0nEqEgquVCZVLoFEUnXvLVfX6If/pgSO78XkklPJBsbTN/IBbzULDb9IyGSICiSHNXOYjjk7gra8eoFXOgtlnkjUfZ1QonaybcurqQf3pukxTXWR1UklQDZpHHkr1+2IYY/W7ESGFgFAhY5yCN6/PSnf2JDYYJzI2LaC7PNR8vheLDnCUigvw8rP14eI9v+fmDCE+/bVtZg20u/5Wi+ibALP+DwTdchTcsxuE5rjES+J2uPmPPLo/9gCYTT9gGzHd5lApMe3FkG3pnx3C9lG2x+1mf86N4Lh7+BwYD0vlcUpaeB7yFfFEMZmIGjMjVxXWMNor32IHr9VaJ3rnQyGXOOAJBJTNEkTVxlbslZ2sRV6TJUJpVuQWQSzVtLOCvadjtKHP5dvEguXWIkEjKJ0XGkPSoKsTahq41kKUQNY8U9FbS9TJDOBUiRSaytTLJUvndVJe17W5Lq6s1p2lvbaOyNwzUjXAXJKo1Hv8i5X/TL127Lij9XsuEI7gPhvQaO4/9fPX2g3U4nOqF+JtxE+5ue9oF81g3m/O7a8gzT9gG7P7hPVkUskNuZMCNNWYv4ppF0fMPJf9w0bdKcVZq0tqVCx3gS6Z3bYa8pD/H73CoQsJjt8GHhNBBJNHFtrp0rfSXddCBbnP05PwbSBk6C5633vaIoPZGsMsmbRiTdwDwdplbSzi25225cJEoR3X9g/iK5+ZmfUqqhyk6p9A3nob/NOfAOwJlVJpVcqEwqXY6IJEZvLeON1VenxOXlnkh6/SM/3tPUQqJ/ZFWSqK7ODLQT7R9pRbKZHXON+yrMJOkoMPKCdTGbZFExr1kmP7qukna/MSlpMWJrO9vn2BvX1Eywl5NdGl+wocCXrQSDX77hfVGN9PZ70Sbw1TM/lXWUfIUxHyCV4bkTeS1Bs22EMX4fwH4083RsfdF0vl8gkHzf8L8O3GR2UJ2OiESiryGIF0gT9i+Xvk9I2+cwcaFTpqWz27zCADoY0Ai/qDckp1H16LvMyLWBEzjp3eKccV6tq977iqL0NLKKJOCosEyiVnJrmVuyX3+inx1C9P47RC+dAZmcYlNkRgbekbklF8rAOw1VmFsyd60kwJRQmo8quVCZVLockcnL0VeSc8TNNqPE0QtFJqU28pO9zU9qmOxRBtrhdUO9bY+KQi2fAAsk0opkA8vhWvezSF4+2xYeIZIIcoGYA6ih/PS3lbTLb5PUak/TzmI69qa1NBPsJWQTRrDhUc/bEIPPhA0aAlsB+TDYbVnFH/fVHw+SdZSulMbMFLFQ7h4jlH7YBIP7jHw5tuLCRlFxKadDM1abTu41VkmRSCOQHW2t3hyRIP31Bd6fTO8jkGB0P7DHe7vi0wRXDrwe/I2bFs8MzS0ZBBLpgEzqva8oSk8kl0xCHM3AO3NtDFHZgKFUUl5OI0YQbbk50X9e66APfzMsL5lsSzVSqgED7yyg5sXfUfPS3HNLAjwzrZVU8qFofpXKpNJ1bDLSFPprrmSZRF/JA35Eie+ZQqk0a21uMlN+zJ9vaiZlvg62xhiR7GglGmwH2tn28lmyluIoF2RdjQzWn98wnHa6Lknt9nj07Rp709o09WvNAFc23OcnExse+Xf5+/tEvojx2bDB0D4JZjjO7vv6jwfLZpTul8bg84onLJQ2vfc+mAn5g2x90TSONrWPfjrcYxBIjMoalMiUNCN1+K/XHCeP/kOAwHaW/eFd0TTAxqXtMhGoIUVfH9fEdcFb17I4jvX2xyEyqfe/oig9EHzP5d/E1chl/NyS+dVKYh7eVD2auJr5eZPv3pT/3JKajyp5oDKpdBnPHNmfbvikQmolEzcbCXSISNbX+f0jMZckBtqBSAInkVi38X8WyaF3V9C2l87kTymyNV5EFLDmTYR4e8yNa9GO1ySpA3F8bFuqmcbdvI5mgD2c3NL4NxuSP7bF/e0dgQ35bAQJ73N8/aef2VA63SuN4WfXGUQoT/+AJj+8u43x2eqCKfwybc2jXMpdzwikJ5GuJpJvMNeMFfQ0gQyC57nxiW9Q85LZ0sQVBSEjk47wMSqSiqL0VMIiCSJ5Hm/GNnHF3JKDiA78CdEb/yb69wUFNHE95R1qkSaus1kmv8nZxNU9I5VJJV9UJpUuA5mkjOCKvpKlJUQ77ECJn82gmk/2IqpleURtJGolly41/SPdQDtugUyySLbwrmH3VtA2l3zDn1AnkDZ7C2yj9nGHq/l8dp+KZM8jlzSO+NVfbQiYv6P7U7ttwY9kgmFGPhMOE/r62UNlHcUfhZTTRU7TPXT+IjhyMgtkFBQyvH6PwaarDiuOssZNxfeZkci2PAQy+nwD214wPo08ZkwDbFzarri0gP+uvAt9Pjc67jUZfbB+wUQpCIVlMowMvKN5gKIoPZBcMhnbxHVgJZWUldJWW3HZqILoln3yE0kQnFuycfFMqaHM1sTVfzZFLJObaV6q5IXKpNIltN7Yn7Z4osLMK8nlXOrfj2iPPSmxzxiqeX0zI5KYRxK1kxiWVWpLOF1QJDm6kUUSv5Ztc8nXHMHZmhRuUag0a2wbmSSWyXWkQzpOhcnTVSRXHDml8YjnbAh/R7eyYcGIgyEcH9oMbvABM579ud0IkzZ1hUf0fN1FYRdBrWMcW573BZ8KzVV9afySv+DRD9JD7iUrjljL6FMsjyyQwb6TwAik/9wk5L/xlsC2F4xPI48Z04BAXNruDOnNfw/IJOb4RF9JDByx5k4n2D3xqEwqitITcd+TBTdx5XJOeTnRwQcRjR9D9NcTC2jiirkl6zC35FxqqP6Kqj+4I49aSRVJpTBUJpVlxmveeiHLIuaVhEwOHkyJi0uo5pVRRiQXVZv+kZkG2mGRTNj+kTLiJAq4qHVB1sZhyeCk0Gu2x928rvQhAO2tTbKtGV/3k0saN/jls/wXkr+W/Xs5XJz3YDFhkzQYzwSOn/Hnw20oTGZpjIPPF7lE15P9AhmlEYULV9PoPc+4c3XI6Hpbnj/B3keuFtLUPEIgJz+0q02bofYRhP42ILDtJ7Jrh9mWx4xpHDY+bXfm9GlPScBotGZQoLV+dDvN/ffFWiupKMpKSa5aSWxmauI6bBjRvvsQvf4vov9dnr9MytySSxdIy47mJWZuSUdUJs2zMY8qk0ohqEwqy0zHzf1p08dYJl0TV8wtWVlJifPaqeaBPkQ16B/ZZERSDrALJBJuiYF27savZOj3xcfKEhw8xKzd9rhb1qPtr0LzVogkaiRVJLuabNK4wS/+yI/4u2Bl14LVSP/B4tJ6D5agQJjAjOd+IesohUljHHz+4KW7nPDJM0kjRhzF6MNEEEcc455X8HhIolnjn0ijXXfwgj6BMlk/S2Rw4BxH5wUyuh/4ceHDs6RN2xWXFnC8+e8RnMYkEyqTiqKsjGSVSQ7G1krauSV33YXLO1xeul/mlsxPJGVuSQy8sxQD73xDC9/+XcaBd8wzMY8QSaB5qZIvKpPKMtF2U3/qU0I08hGWyUtZJks5sqSYEr8bQjX38I7aJUQtLZwLovbEHOPVRnLGiBavFfeYGsmtLpjMn0gIiW3Sh7CUYG2Y/427dQPa7sr5Et/e1qIiuYxkk8b1D3/GfrXg/ZcAYwOycpH4y8jKPVhsOCb+m7/80obDLLs0RuHrBi/d5ZipO+JwtY3us5v2XOR+MDcFJFHCdu31eQysoyO2gk1PZXEMvT6z4UXJ/RMksO0nsusgJk4e80gXuys+kuF3g3fFieMWZ39uQwak2eSUt80ohNVf0/w3rzbzSzrkEv51VCYVRemJdLpWMjC35Dv/Jfrn2QUMvMPfp6n6ZF5zS9pvcUFrJZVCUZlUlomSW/vTKIjkBYEmrk4mr681A+2ggGzLyrJYkWxmx1wjkKmh+R6E0h9UBIVOXtumf+NvG8EiOVf2z3zrRskYNcPLj6zSeNhT/Ij32WzL+25D5u8gAbtmAoLipZRVIA2Hv/nrr2w4nU1PfdeGogTP0VXwObvgtFMe2cOGwkhto/vM8uK/e1j72atfy4gNbBlRlHAOaQS+aEdfj9nwogJ/H0NkWzajaYCJC++OSwdsfNru9PTBQX+CRMUxDk8ml5j+PjItSFAmA6A5rOYHiqL0RHLJZOzAO3ZuyfXXJ9p2G6J//4vog+tyyaQ57xd3bkIbn/gmtdQtkP7mGIAn08A75gj/+ahMKoWiMql0npv7U59Sog0eYpm8yDVx5aW4iGVyKNVcXW0LyxznFrR05aWBRXKt+9N/HTNCmd7cdfztI2m7y2fzuUvo2//epCKZgWzSCNb/+R/sd4b/xSFhG+fFhoTEhiNx9hCWxqMkJkpmYcyH4LW6Aj5fnqfMLo04D05k1oF3TDDCaEKyiCC6MEZV9deZpdG9b8Fz43o2KJgNLyr0t3EE4vyEdu3wt8OniKYDgbi03SYiThylSW6I9POknc4iMunmmKyaTgv++xuVSUVRVjrCMhnJ8XgztomrnVtyv/2I5s4ieupX+YukP7ck5uedQcn3bs7SxNV/PiqSSmdQmVQ6BQbdOXl7otJionUfNP0lE7dH5pa8igXTlqO9pq2BgXaiGZqhyBut0jV3/eKOjWjby75jr2SR/N8tKpJMLmlc79An7PeK+5rgR+/7wgXCcSYYjvNXRTTzb0fLZhTMYRU4yCcmqjCW+QTpBIwpszSO5WSmNtykt8cEn47kmjbrtLLoRDEYdjWOkx/2B8VxeO9b8LzhDd4MbpuwFyOBSPrgdjhhBBMnj1nTARsf2B0dJdaRLo6FELiADU4SmfwvNaNmkmVy4f+uV5lUFGWlIletJDYzDbyz+upEB/3UDLzzxsWZZDKcd35xxya0CX+/pOoWysA7TYtnSrkpromrOdI/XmVS6Qwqk0qnQPPW8hJecx609gNGDmuuYHnk7cSNLJdRkWzj/yySQzHQzvk2I/PzLya0IUK59YVT5Rc2zDdZVFJK37192yonkjml8WeP2bfOvX+8ttv+O+rHeXiSEkhn42b+/RhZR8GXU+AMGYikyH1ADpb5BDTl0T1tKIwZyIVfP153UBrTgBiatV/LaNbB5qmQx8kP74aEaeC9A+YKuJ4ELJHrxggkkJD/ECEQlyNN+u64tMDET3owXRw3P+tTG3JkOseygZrOTU56y+vzgwEkMjWPRS2mFoIURelpZJVJDkZFEri5JbfYgstYaxLduGelxKfLpD1X4JStTXWUasDAO/OpadFMDldL2Qlkq5UEKpNKZ1CZVAoGo7f2KzW1ksWcD615P8vjJSyP0sTVyiTEEp8sK5LoOll5b34i6YBQgm0v+5a+e+eOXi2SuaRx3UMesW9TtAbRvXd2bePMFj/abR8XR/TtP44zgQhOfHIRPGs6kb3ZE+cg98GZhBFITRaaSzthlNNFzukkUYI27AmjC/vNVDNK48lvB05tAv5m8JqR64f2gWzHOgJxfkK7DmLi5DG0O5w2bmRYkC6O+RL3XAoDMrnxSW8amUxOo+Q7N6hMKoqy0uC+241MxuSJHBXbxNXOLfnTn5q5Jf9+UrRWMnCuQBC1km5uyebaOdRY9RVVf3gnzT+niobrwDtKN6EyqRSEa95ahlpJFkc0mQCeTHK+lLiJZfJy3oZIthI1sUhKJnb+RJMAePlXIBeMAJnc5pIZNOu9u3uNSOaUxoMfMgFPHtz7FRBEWQXfNw7LZlQiQRF9+/zxNhwGA5tkxjtBXmRPHdlb2KkDFGWURjSvTBu4KfZCLIeywiPE0KyDAulqG0UaM4zUin58Pnwd71Im4G8Gn0MwzIT2OQLH+w8BItuxaRwmPpzEBOLEcfMzP7EhR6bzMll25Sb/g03N5H+pGUPb2z6Tm1uZDJ5FRVJRlJ6IXysZk+/ZqExNXCsrifb7PtErLxK9e3VQJgPnigTHo4nryf+llqVo4vodNS+ZHVsraQ4LHMyoTCqdRWVSKYjiW/pT30CtJEZjrTqvSjqJezJ5s62pZJGsayFa5wEnksBmXl4eFs7MHNLM9eKvaPb7JhNc2WQylzSuc9ADNsSvX/6798W9H+Ftf7/3YNZ2G6tvXzgRG2lIbVkQd3jeFHZA9tSRvRkST3l0LxsKE5VG8z/9JKKMkrMZQZSYkDBijV87jDxm6j8JkRHkEsHr2LAXZQLeoxcPQhu8GdkOHUsZBTYKBlhIxz+3u8ykB9MH+kkXx3yIPu8IOXbnJv0EIpP8+W2pmy+DSMx/48qYfplFnE5lUlGUnoeRyXATVsFmd7G1klctoOKyYvrezlzW4nT3/NiJZCCPjGSX2IRIIm/HwDv4Aa5J5pb8fdrAO2nfmbz5xZ0qkkrnUZlU8qb1xv40sNyvleT/0nTVk0mOSNzKInlxFXWwSA6+2w6044kksJmYl5dFMjUBg/BsKhkg6MkimUsa1/7pvfxq3Gt2rxVrXuR/dB8w+/y9/jb47sWTZR0lXFsWxBwXS5Zd8RR2QLbUUx7b24bSMdLIR8tAOMCeyZ3Qy7VsIEYYseCfGQjHrDPVbG580ls2hEsEr+Uu6OBtL8oEvEcvHoQ2eDOyzfszzU8J0LTTvTQPPgdE2sh0cdamvUE2P/NjGwLR59EVZDnnMl4OA/1gdFv5lX3xNzT335fEyKSRTi0IKYrSk8glkiC2VvKaJPXtZ+aWfJu/ml49FzI51aZgAscHs1jIJKaQaqlbKF0DGqu/kvLT/HOqafh9Q0Umve83h91UmVSWBZVJJW9Kbw3USvJSeY+RRZFJjkemhBFdsV3B+0QIiktp4n3bhmsmQ3lZJGPj7Z4qktnEce2f3G1fins9KPj74dA+SIEJyCO2bcCuzP7vXjrVbEfILI354K4VQ5Zd8eR3wNQM0ii1YyJHOA8v3vsAEA5kTSKJEggLo9u2sujkMVPN5sYnvsGP9jqyMmHv0e4KBJj0eH9vcB8IbWQVPswBZkS3jZd2onaz/vpPP6MNj/qHTeXgz0RxiVmKSvgGRLjULiWhmtXNzwjIY/jpxJAzQSfI45wFXBZCOfLoF6mp5lua8+r5KpOKoqwUxMpkIO+DSKbNLdl/CJX06UPrrku04/ZE/3q5jUZfP9zIZCTfjGajkEmZWxID72BuyboFUoYC2UQSgS/u3FTzUKXTqEwq+XFLf+rPwii1kpwBoYnrUCuTSZbHMluB1NxGtMa9FVKbUFRS7hV4faG0uZesvJzM0jNEMldt41o/vlPWYVn0wyaIB8S7MFZm7WXodnvWy6fLOgr6PWTGnqNLyHCuAi4x9bF9bCidzc/8VF5rWj9G+/qFNFk0YcT78mj6MjphhHhluu7GJ/xf+Pzee+49+I92VyDABOOB2fAeI/uyS+Mb8lydLHbwmiCQwe32VrvdSt+9eAqte8jD5mB57fzelTh5LBN5LCrhNS/Fco+V0bQn96NNT3ufX3KxNzjQZlYqvacaes6ZyCtRJ8nj3DFJIJOjjnlFhrif/c+zVCYVRVkpSJPJSP5maiX9/pTSxPXqJHHWTj/Yl8tWC4ie+IWtlYwcG80qIZJmbkkMvGPmlqx67xavievWF0y2KZnQwSqSyrKjMqnkxA2608fWSkImIZILz62iYSyOGCUMcWjyCjY6/t9+QReFXi4EF/N6wr3bsFAGR3ONZodFNGf0gzbc/TKZUxp/dBs/2ufoiYmTIhM2u/FgwlFRDO6b/cqZJiqC1y8vG+50WckrUR5kOA9HZ5I3qQ3Da5bXHXmPPExWY1wRD7yYDV5hbWURYcgXtNGGpz7O36wxbHTCf+wV7HW86wIX5z1E0noPAXjbi/L3mRBL42OZajzjaxlD4ihxWBtxhEC2I9yGbSwpCS/473U0bJ+r7ZkZfguKSsvt/YQ131ulfai4rB9v85r3oTYTTWMhlsV8v3HAm9vSSSUIvdrQRibySrSMZL8GpiYZdey/pNnWrJdPY5mMH10W0qkFIkVRegIhkYzN4opYJreyMmm37cA7A1cjOvinRK+9QvTWZSyTF/lNXDPlljLwjswtuYCaamZ7c0suOLea1rh3qC+ToROYDZVJZVlRmVRygkF3+pWR1D5CJlFeH3J3Bc09u4rWur+C5pxV5c01ieZ5UqCFRKLAi7UtAEMqPaH0MjQ/Z8OgO91RK5lLGtc84GZ+5OchTwU66Id9OTFxRhZtXGBfUJ5m/+tsGw4T7JcH3BFh4mPTyCtZnueKkEncgOl/x+eV12vPz2F3JclMrCDKlomQxYhhMOyE0UlkO0174gc4IA38QCF47zOu7oeD8cHn5fDSelFx6c0KgUxNc9NqGVkO2Qhl7YRRahmDAimiCGlkWQyE27Hd1sLrFvm8F8paP76DSsr606xXzqARv/orh1ku5Z5DbaWpyRSpfGgXSR+UyiCxb0lOCkpcIOFzQyZR09xca0Z0XfjO72OFUmVSUZSegieTaVmliQiLpKFs4DCZW3LTTYnWX5fohj3s3JJWJjPluhBJTJnUUl9FLbVo4vqNjHydVivpnSB8JpVJZVlRmVSyglrJU3YI10qiiWvirgr67swqWu9BI5Fg/cOeNoVYJ49Sm2JqTnyhRA3l1oEhqk2m1lUimUsch+9/o6xFLpxsyNqEQ00x0+IlZOOJ5rx6nqyjyOApgjsmP+JT53mOvJKFE2WSRjSV8d8frBEbPhYS6K8CgiibbttIIpYOr9YRa5bGJ/c3aSNsdNxr9rogcE0bl1sgvYfQYzDeh6Xx8czNZONkEc/dCCFvuzi3LYsRRhFFK42y3dosc31lIvjZd+E4ZPAd3GNFJVT1/q021kwpU9JnIBWzXBaX9pWaS9MqAFKJ9MUyqmsmoQwSepeib1lG8k5YMJjGBP2EW5YukNEJ571xhcqkoig9FlcO2fK8SH/JQD4ZlUn80I65JcvKiH7yE87PviT66wmmVjJz7mr2jL9jY9rstA9YJpNm4B3MLTn6rrBMeicJn01FUukKVCaVrJTcGq6VdCJZfV6VNHWdckoVbfpYhUx14WpDpFmrFGZZIKVgizW2XU1lqfQVMEJpMrY5o838ivmKZC5pXOMHv+Uz87mdEAEbNg5i452kpKWTgMTPee0Cux1GmjZmwp0iRGxkVuKPyPM8nGzq49+3G+mYqSXMazTEnddlD3GyaNayDcmyYSeMCE/7wwFySJRRx74ql/PlUDYsNuD+NoFH/28DAuFAvJfei4I0Zm4mK8/dE0VIotsOSmIgjHhpmoqaRX/djnVri3yJx5FNEh3ZZZLfrWIMWGQH4OG1E8UF/7teUqx36GNUUg6p7GfuPdRS2lYBIpQPmWlCwtOKBN7HGEJ7sycNkHfCnEAmMUIh+gKh3yR+xNkc/XAd9lIqk4qi9ASkVjKLSII4mUQT16FDifbfj+jl54nev7aStgk0cQ3jnw8yie4yGHDHzC05R75LQDaRBCqTSlegMqlkBLWSp+5I1IfLrlIryQvK7Ik7/f6SDgxKg8KqJ5QiklYmpWCLGsqgUJZJZroVZ3ROJEFUJnNJ47B9r+XskZ+UyIS/xmM4zsZ6cS7GD2Pf3NcvwkYIMwJoHHJg/qQlL/B4S/pRLEtPxEvjZqd/yLtxROS1hoAAmrUQkEQniNj2mqZKfLCmsYOmP/UjOTTKqGP/yY/ueub68jwc9m/jp2GCfy+Hlw7YsKz8eJc+7r2QZrKQRE8UfWmUbcii1zTViSPWvEhz1JTt3+jXNC766B579jD5SGOn4PfAF0gnlE4uzZQh8980fS3XP+wPLJUDAjWVaPqKZq84BoKGWsrs81RmIpQid/IABSUOAaGUfpO1c2nWS6eGZdKC5rBaKFIUZUWTLpPhvC+2VtLOLbnjDkR9y4nu/mEmkQyfCyIJ0KpHugIsmkHJd27wayUvdAPvpOe/KpJKV6EyqWQEU4FE+0oiP4JMuv6SV+1cRTd8UiHNR1GYRSK/dtI0t0OBtqQsIJUslGgCO/G+7UIFb/dLWiaG7X2V/yTsWgRCwtgMbmMtkTbOhE18Ec37z6WISCOzOOaDXCR/YpNnPkem/oRApNG+NkPwPMFbHEJo1qGaRbfthY0ksjlhS9bTn/oxDowFo20a8Bzs2mGfk/wdbMjfbQNeGv/RrGxYCMdnej9GHfeq3zQVr8MKY3qzVF5LHCQRcejHaNZGINFcFdIY/7nsamnEdbKd09xfViYxN4+IoZFIjpB4WfMy7/8ul2NGHPGcvf9Mf0pzb+K4IhFKEC+VjuD7nxkvVX7JLfknhkyiFhlD3qMJ18K3f5cmlCqTiqKsaHKJJIitlbwmSX36Eh18ENH77xL96+w4mUw/F2QSI3m76aGcRHoD74hMxue1KpNKV6EyqcSCWsnTIrWSyI8gkovPr6LaFqL1HzQyCSCUw/a9zivcoimrDMQjEsmF2XLUkPSz6768v5wWjH1WjgXBAnvFnpfxpfhiIhhmnb6NoL+NdVy/xvlvXCnrKDJ1RDbkcHe+ZaGAc9ik057YzwQimKkfkMgu0VN7d7IJRGURayOGLuyE0ckjBKyDvnrmQDk+Cub6c++ru779S3jb9sGs5X942+AFOGjCfjrGuwZgaXwy/v2QprIijBBCPH8ji744tvoi6QlkRBhFJBGXeRCcrpbGOHKJJDC1kk4ofZnkDVlL2NZQujhM8r/+4U9TaZ/V7I85uPfKeJ8RTzD5oUy1lHEE/zbxeClyJ7XkTij9JtGMC32Car6T1yXzlHqYc6hQKoqyIgnLZHreBpHEj/EHFM+xMUYmd7wuSWuvTbTzTkSvvJCij3+3VkAm4/NIiOQW54yjVEO1nVtyJpd5rvKEMrNIchz//+KOTTS/VLoElUklFq9WEjKJfAflTl4n7qigqvOqqKaJC/OPhGWyYo9L/YIsCrWoBWFpRK0I+nGV9DHN7tD8rmoSmj/6IOMzx+NivEhmB8UIb2MdFSqkmf/WNbydjvSJi4Aj3WPeSPICj4nFnCOTIAFII9L5chyDyKAEJOzWniwihLUsfu2ipLHi+NUfD5YzRNnwqOcD1+Z1MIzH0D67Ftw2Vi4Q2OcIvC4vHTMtY//Kf/FzRo2irW30xNEJog1LGhMXHQBHhNEK5IqUxjjyEUl5p2yzVrm/AveZ2Xa1kvx+BvfzMvffF9N6P3uMSvsNkvtPpNL2o0QafihQKB2Bv2kMob3Zk1qyJ5Kmrsf8k5qXzrNNXYMyCVDbqjKpKMqKw5fJ+PwstomrnVty772IaqqJHj/c1UpmzxMhk8gHU/VV3tySyXfNIINg6wun2FAQPif/V5FUuhKVSSWN9pv604ByWyvJC0ZwlTyNF8jkgnOraI17fZF0QChRKDYFWVN7Is1d0X+SBRK1IyW81M4KFwJFJLPWRiLK38aQ11G8qSMc7rg8MCnzT++RxzUyjVq66anv8qN5PfHXtreliKEEOIgwpNCsg81S2Zi8bVPj6Isj5iCMY8Mj/x54DWbti7psmLU8T/wPb9sHs5b/bpuJnFfw4oim/+GHNuSD/pWeKOL1sBRKzaKIoxXGtHVYGIM1jz1NGjORt0zivrI1j949Jmu3bdN4234chBJs8Ms/y4850uxVBucp5f0QUQilm0KkZ0olZBItClA72bRoJs1/86o0oUQaLSApirIiMCL5pd2KA3NLbklbsEy6XM4NvDNgANFBPyX6z2tEb14CmZxmU2SATzD+dtPENVW3UOaWbKz+Sr5PFp5bTcOkiWtUJvkge2GVSaUrUZlU0gjWSqK/pGQ+vEAkay6oooYUef0lo0AoQbBwLDUqXHCFTLZwphcFmV/lXujjhYwOSmLWC9/+vUkQYaPjX+dHmyPmA5+rEEzq/I+ZlqFGDWx6CkujnMqdz62Dtx0kEP8Rh4BZZBthu5YaxWDYW0Mk22nGnw/DydLAHIQgXRT9sAnxowRy7bNrG3QpgnEukGlgnpG/fsk8b5FFfg2eNDpRDIax9mXRGznVSuTKIo1x5CeSBl8U+cb0mrPyu+/FR9f4GwTTmAGm1j/sKflRB0JpBsXyayk7L5TA++PHEvloZCE+gTR1PeUdam2opuYlc2U+V62dVBSlp5BdJp1IjvO2J7JIbnfFXCopL6ONNuLvxRFEr/+rgVpbmm2aDHAWCZFEDWeq3jZxrfmW5v3fFfJ9gu+VbCKJFeam1HxS6SpUJpUQob6SqJXkMqjkPLwkbrf9JTmfW/+heJl0+FKJuRjNRyyu4JxJBIDMORjM/bKSM4GPFLLzx6QuyiiNm5z8tpxT0kXPLTLo3gGIoFvHyKKsnSQi3tU2+sKIfTOe+wVOksaII/7Mj7g+L+bJyGKeUjSeH2WHCfvPm9fyP7xtH8zaBoNppj8dPzgPpBFCaJ6/kcSctY29UBozUYhMymfME8Vca/yd3Db+UmYNXC3liF/9hYUSTc9NP8qpj+1jJbKzzV6B+0yECcXGJwmQOQGEEvkCfpT69vnjtd+koig9glwiiez3y7tZJs9hmbRZ3MR7t/XmljyAixfT2f/+cnyWWslA1giZxHy7qbpkhlFcgzLJB9pjsVKRVLoalUklBOaV7O9GcDWt3yT3Qa0kQH/JxU0seoH+krHwMXwK+t3H/vQhIJNMGnHMRSA3zErOBGFsIdsR1wQTYOJ0Obckd8fY20dW7laCAOI/HhBn1iFZdPtEstza7BOJbG+nb/76KzlblA1+8SfvOYjQec/fD2cWRTnChu1aMNtur9u2D2Yt/yGOP7FxPiFptLIo0ihhJ4pWFp04rkLSGCTT68uHobuez3+EbBKJNf+V7LYfxt8RYbMGkMoNfvFH6c/89bOHyufb1VIiXX6jvQYx543D25M5iSV7AsikY+2f3E1zXjs/IJT+sSqUiqIsT+Jl0uRJku0ynkwCjoNMoonr4MEsk/sR/fMloveuySCTXvZmAuNv30hGcccPa801s6iharp8tyw8r5qG3eOauHJae5x3OKMyqXQ1LJP1KL0qCj1z5AA6BXMclZomrtFayZoLq6g5RbTGfdlFEhknFjkcYV5fN9r0pwyCjA9NMFF4DTbRzE8sAc7srzITnyBTE0yMGmkOiR4H6TNrc9Ng294+TgptnC+LHIIkyrYvjGZttmf+7Wg5RRSMwonnYJ4KHnmx30oSa8PePsRKVDQeQRsXPM5Lh//B/Wb91TM/lZgoGKCHzY+fPp5/nDRG1iqNIcw0Lvng/iY+kx/e1YYM0tfYimNUJM3f3I+Xhc/pC2WHjIoKNjzqH1RSZgbn8YWy2JO3/IQS54zH25M5iSV7Ajwf9BFqbVzijTqcec7Jb+2WoihK97HJyPVlHZZJ+61qs7SQSDIT79uWtr9qPue5JbTdtkQD+rm5JSMiGcoS/Q3I5KanvmdHcf1WfhwM10pyWpvcP8qEMHCP5o9KV6IyqfjcMoAGur6SgVpJLCKTF1RRPcvk2hn6SwIcU8yLHIa1DV/7YbxMAow0KU3tirkQywXZaN+/Za21zDQ/4sYnvcmPMQeI+Nm1rAJyaNdhcbQ1iiKHgbUdCEfEsb2DZv7jGJwtjfV//iQ/4o1yrwFfQoFtLwwRsNsS54fj4/nRHmc3zDq0T0L01R8PsmEfXxohiljjdSCcQRqtMEIWg9II4sQqlzRmkrHeRG6xdH+jdIJiWbnXlebvKRIZlMuATOJcvHZ/dyeSjg2P/JsMlAWpRB/nKY/sbkWtQyQuu1Bmfp7ensxJmKw7QwRrJx3yPCOnmPSACqWiKN0PZDJNJCP5EWTSAamETGJuyfI+RAf+hOiT0USvnBWRyQyZJ0Ryy3O/oFTDIpZJNHH9RqZB82TSTikSPspsqUgq3YHKpOJRdtsAM/AOlz0xt6SpWrQieXEVZl2Q/pIbxPSXlHKsXYdkktfXsEiCOJl0mR+4a58qumvwS2ZQEBFLzFVZQl//6VDZD7KJZVzzS7DxiW/YUAQrhHIDSFgCEvZlEPtNnInnONkOiqNNJ+t26csVB6TZfMOYN8YXxgxxWEmMizPbLpxZFN0XWfq+r/90iA33fHLJZm+gq4V52L7X8p87KJF2jc+C/UzgcwORXOtHt8l+FzfntQukpQAGysK9BNF1A/Pgc51ZKN3nK4wXG7/bknWnECePANP+tHJhqnnJHPlVHqAPESTSoYUmRVG6G18m5ds6LVuDSM47p4r2o9myDZF0/PShJO3CWdzVOwREMnR8eh4JmdzinLF28B2WyeoZtOC/14Vk0j8qfLzKpNIdqEwqQvtNA2hgH6Jy1Epy2RHT10kexIvI5EVV1MoyubiRC3GPhmUSroJFDkE4EIfwM5uOI0zEH5QDJ5IuXLHHJVT1PhduI6B/oJHKdLGMEpxTEtf1PtiQPhFA2ZB/fhwkEGEnhMF4E+cJI47EWpp3ttN3L57Ecemse8jD/GjeADwPeSPMu2LjsJYdso01Hmf+41hEdiurgqD1ZoL3TRxROV3zgJv544U70zDvP5fKeq0f38GP/Llzn027nvOqOTdGTJYaSvlhh4USaTraIkKJY9KR2PhdFvTHjKtd/CRjfPSEaMaKJl6tTbWUaqiib/9xnIhkFK2dVBSlOwmJZGy+V8QyuUV6E1c7t+Sn11XaWKJtLg42cc2cv45jmdz8rM9ZJjH4zhxqTE6n5Hs3U/K8aqq8ZyhLacwclXYTA/donqh0NSqTilB8ywCZWxIyGayVxJK4zfSXbEoRDb/P1DI6mUTmKTWRWNy2XWP7qg8qZG64aX84IK0QnC6Ul1JJn4FUXNKHiksxB145zf7nWbI/yMijXxSxxKT7Mk2ICKCoHh4kJIv8x4OVQmxZOfTDiE+vZfTDZj3r5dM5XfeioqfkIpdMRonKZaxE8oJ/s/91jqQBmIO0tO8gKi7vL/cj7je+Gfh2cEL5sUlowdnApIfMoD35kD6tRxR31gCBKIgiRlJubaqRQShmvXSqFcrwcZMe2FELT4qidAuQya3OmxCbXblIkUk3JQgXL6SJ67VJGjSIaP8fEP2HizFvX1EZkMn0kwVjRCY5/5TBd5bMpoaFU6h69N0BmYzrd2nOgFpNzQ+VrkZlUpGBd07egahfpoF3LmZxbCOqbyFa+wFfJp1ExvWRdHFPbz6Z2lONMtE4BpoJFoSjMolpRGTuO5mqoJwLsRDKMl6bvpTS9NXWUErhtqhE+ld6cxaKGEIErShK2Mgh/rk033ZBDWDvET/zh4JMeNuZyLgrfUf1h3fakNJdVO51hQ0FkM+++xEEn3n0ccWPJwYnl2sfeC/fq/i78cJr/Giz7sEPSRhxs14+TX60Ke27Ot+P6EOJe4/vOT7nxPu3l3PEsfmZTjIzfliyEHNMltNAJjc7YzS1NddTa+Niaq6dS3NePY+F8jObwqAyqShKdyAieT6LZBp+xmVEcrzd4vwT04FcvZBKSotoe85K8eP9Az91Ihmf4YVji1gmR9Fmp49mmVwQGsm1imWyIiiTcqB/tIqk0l2oTCrUdtMAWs02cS3njE1axVmhlFpJ219yyN0VNPaEKtruDxV0zS4sk0jCaeJk8sr3jXRi5MX2lgZTe7B0gdR+hAXStPF3cSiwmj6TkEkuwKKGkiVSwhBJrPkJfvvCiZK+M/QOEXS1SyaM/9Uf3mW3VzyZBmhaUTzW39bQubcsIybBKfV+LV1PAvO3uvfWzeUax7B9rxOh9KWS1/iXYSRd1zRbPlPyuSqi7148mUYd808q6bua/MiD+zAokr44OnK+uTHEHJP3aYpEFDc97QMWyqXSf/Kbvx2VJpNAhVJRlK4kH5EEkMktrUyisD3x3m2kVrL/AFMr+d7bRAvn18j+KOEz8ZaNGHebL5MYyRU/ormylIikd6B/BoRQo6n5oNIdqEwq0sS1P5q4sh2iZjKtietFVZRimay8p4LGHF9F2z9VQdft6sskRmqNcs++VfTwJtOlVqStpY7a0LepcRGl6qpo/ptX2VSdZ2UVwmghvqvpaRKndC1BmcxGUDSH7/d7XyhlNF5eIJVtLdI0CgQHhwoKJQaTwqBXJX1WpymP7iFNtYr4zsc5Jt63XR5NVePAuSPERKUTn0iE8pR3qLUZ/ScXS8uDdKGEeO6gBSlFUbqEdJlMz5+CIgkmsEhuf9UCKi4rps03Ixo6mOiuA1ArOd2mMITPxFuRUxuZNHNMpslkTA2n21KZVLoLlUnFjOJaamomSyCTyHns4vpLJu6soG/OqKLaJqJt/hCWxzv2qZKmGrLwMVif9J8Kqblox9yCKdRMLjFLYw0X+BZJTQII1kr2VLpSAFX2lgH7jWhXsWTcF9iR7XhHV50HxKaLROZzLqTByMi/261KfuGOo513tLWbtSMolmvuf5ORyYBUtkMqP0BfSqL1D3uKH/lKLJOuGezMv/9a9qFJaXEppvDBgDzspnwsaiqXte9jZvJKJEAoNznlbclXkL+YAXk+NzvxckyIn68KpaIoy0Y+IgniZBK1kn36Ev1gX6LPOet87bywTIbPFMi8AngyuXQBNdV8F5HJmHNJXm6O0/xP6Q5UJnsRh1ScaUPLh3N+/rSII/pYemvOs7C+bu3pUuhsb20RmZRmaE21IpNGLGup+sM7ul0ku0IEe7oA2u8JWSMomzYswUA4jth9kchsx4OM+wM7cp0DxKbp4nOAXOfpinOAXOcp9BwXvF0hU+gECWbgkEi3oDKyjZdWlkss2HZiueYPb4UNslSiGSykku9Tvler3ud4BqMo44ODf1h/89cjpfYP81BKM/Qi1E6204R7toqRyZhXlc8LFfJOGAIyiefRZvMaDJmPWtUtzrZCGUCFUlGUZcGXyQz5FeeZX961eZpIbnflfCopK6ENNiAasT7Rbd/3RTJ8Jt7KkhWGZBI1k6+dH5JJ/9DweVQmle5CZbIXAZn8aM25dqv72WXeWjZE9PtjrVhyxnXQCxVeM7OOtmYu3NVTW0s9tXIhr83VUPKCqUAyy6SrGTHh6tGd7w+IgUpObbrIbvUwbF4vi325WNtgOH4Zwx6BjVB8BmLTFHgO0BXnyZimwPOAnOkiCfI9r6M7zn/6GxX08P6+TAaPQUYOYcRwO04mg+sU72hpM8vvPzZSKaO7OqFsb2WhbOalSe7NEUf8hS+AK5h7ccZzv5BpQYoxSBb6L7NQtrenWCi3ZpFLn5Yjrxck5J0wAh9nD8UKkhgWyioWyhNUKBVF6TLyEUkQJ5OOS99J0ldTiV441chk+Ey8leHUbse420ayTH7AMmmbuQZkcluR07hzFMlxmu8p3YHKZC9heYukI9EwVtabLjlQ1vef+jTt99cKmVBXaj3amlgkUbirM7WTzbU08E+vS9opg16VdT701NpBfG8gzw5KW6YwHiRuBYUzkXFfYEe24+PImj6ys0vPDZbz+UGh1wCduc5xr1XQ0z+x9wJy7kAaSKMsgW2ppeQwmr7KwtuopYRQNvNy/WgjlWv/5G6RSRFKqaVspuQ7N8gUIeZDzDL558Nok5P+S6X9BtnmrmZ01zZOi6Hu4+Z5jKcz7xawx/Eq0xlEKM/4mJ9ToxHKuqQM1uULpX8kmuhqwUpRlHwxIjnRbkVwX/ZMnEi6vpLrrkP04sn+3JJdhSeTl3xlY4KY56YyqXQXKpO9hBUlk46oVGYDzxO1moft/7SNWTEg75cs1q5lkYjsYTxIXIFhCQbDWOxGZ8J4sJv5bWcjJkHOY2LQ6xg6cy2Q67gj/llBfz2IZZITBtMiEw/KpLe2YUilk0m39moqW01fzHV+eh/LpKmhlL6ULIkL/vcbPgPRyF+/yI9F9PWffia1kyXlmA+2jIqLi6mN06LwlFkml/HdiLzWXEAoMQ9mO4SyCX0oXQ3lGJvCR4VSUZR8ySiT7ouZQV44/5xq2q9oto3x+0r27Uv0vZ2Jpk8l+udZlVnFzxE4NWM2xt66ofRh92omXz03g0ya9O4cY29VmVS6B5XJXsKKlslCWVaZ9KSK1wjKZoawlzYSDqZxYRvMeEwh58oaxtoGMm279DaYextE4wLbjuh2GjEJch4TQ2euA3r6tUBex3XxNX/2YgW9dGh6DT3Oh0xcMnJ+kHBgLbWTWHg7KJXtdi21lCyUl7xrainX+en9fi0lmr2mGmjhOzfINCG42FfPHERbnDOOSmQ+2FIaf9soOQ4YoezsK7TH8arwM4SPkIGBpIayybSIaFxMM/9+TEahBFrIUhQlExDJfEkbdOeaJKEhxyjOKjFi/jNHQiS/tikM7vs/a+5nE429ZYQ06W+pS1JzzXc065UzIjJp0vnnBEUioZrPKd2BymQvYWWUyV8c8LQvULxGUDYzhL20kbBLY4Ox+5YlbINZr5lzG2sXYGLT5NoG0bhc2yAQl4180sQlyuu4GPI+rguv6Sj4+CwHLOtzceQ6z4//UUGvH+7LJDJudwzCTiCBrPkhKJFOLL2aSl7c4DxYmlgosVz+XgWte/BDXi2lafbaRAveulamCZn+9E+kj+SkB3fCVWj7y75haWuh8Xds4vWVzh/7CnhV2PuYO7UbaRbPHc3sMfgX5qEMCaWcpkimOQFa0FIUJYrUSF4wyW4ZZHCyILz5xZ2bhUQSlA0cRiVlpTRwIMvkSJK+km9fUUnbXTrDpoghWFgIYGKLaMwtG0jTfZHJJXPouxdP8mQyF5rHKd2BymQvYGUUyeN/yiKJDX7AOhi2wbyFMZ8wHuxm+j6sg9v84MXbdVpcYBtE4/LaBtG4LNsgGhfdBtE4b18wUYAM0Z2i4HOtRM8JdNXz6sx5fvDXCnrrV4GayUDOjaBXG2kjsBZ5tPtELLGNNfbxQ1AoUWOJfpQQygvfrqD1Dn2MOtoC/ShTTaE5Yrc89wsqLutLxSWlVMw3UKq5QYbCzy6U9pXzqrD3oHPvvAjlWZ9KDasMAgah/MsR0qc7DkilFrYURXFAJLe+YLLZCGVD6XnSF3duml4reW1SplzbcATRksVEr58XFMnMGWGcrDrG3Mwyec44GWSsuXaOTIUEmZyx2/WUuHNwWFRd4YZBjabmb0p3oDLZC1gZZfLMQ41MxklcWhhrGwjus8Fl2gbROG8dSBSbJrqNtQsw3ZUGRNPFpQHednSHJUN0pyj4XFkO6MrnBQo6X47EXfncQufKdmLOpff8cwW9d1R6M1dk4EGRRBg4cXRxWHsyyYs0dbWLk0msW3iBUJ7zFgvlz58ICCWavLJQvnGlnB+1kyV9TN/J0tIyamPhbG1uFPH0sS8qvMqD/FOGkMPCx0IQIbgdEEo75+2MPx+uQqkoSk5EJi+cYrccnMfYbMblNmiZkT7ozkIqLi2iRIJo0GpEs75NUaql2aYIkqaOkWwsvHfMzevTlud9KVMgNdfOpcbkVFrwv+up5qLFlLiDZfKybwJH2JBdQUQ1f1O6GpXJXsDKJJMQyYt+aUXSRIWFCOvgNj948XadFhfdxtoFmGgaEI2L3cbaBRiX5pAX/Engs/Ha4VXeeRBw4bg44O23Aazyeh2OyD4Q3Z+NHLsLpuDzLcfnF3sujnTxeV1rWZ5Qgbkuku/yxwr66JiwTCLeyaMTRhAUSQnz2m07mYwunlAibGsoT3vDfNZdLaXpQ9lI8964QuJReMJUISUslCUlxdTS3CBNvTY/6/PQ+5kfnXxDgzdJBlwz1s1OH+1NHdKydD7Nevn0WKlUoVQURUTyoqkSDucy4a3xd2xMVedX0z7t6YPulJYRDR9GVJ0kev/qSha9mbI/dIbMGzEUsRCuJwMBpRoWsUzOo8aq6dJqxMnk9peba/j454SIat6mdDVFC1QmV3oOXslk8uqjzMA7kr3xQzDrjMZFt0E0ztsXjYtug2hcdBvkEXfCl/tTed/+NHPcByayE7xzJItB4LxAwnFxjsg+EN0fWHlEt9PIkSDn8TnY+Zn8BFzJzefHGaFExi2ZNz+4cFAYozKJBxHHYDi4cLQMzsMLRnqFXDayUNa3EJ3/P7+W0jUZnc9CufmZH1NJn9WouKQPlZWXUTvvb2mqpwn3bCV9erLTyU+VHNa5YyGJGI0WQox+lC31C+m7F06SJmNRMN0JmKYFL0VZ5diYRXKbi6bZLYuX7YTzn/G3b5ReK4lBd4qJBg3iiDaity6ppO2tSGY6TzyBNDY45qb1pLY01bBYfhRrrP6a5v77Yq/f5PaXp+dZ5je3Ivqcj9U8TelqVCZ7ASubTP7uWNtfkvGySQ7kjItug2hcYBsUFAcC8XFx4Nfj9qe5U/zajC33PphKy/tQaVkfKiktk+XDFx6lA0++ggautjq1tLTQ0ro6evPp2+wRPq6mKXh+txGKY7ztDPuBi9vh6bC8jTm+irZ/asUJ3bgT0ptnKp1j2z+k/x3x9w3Jow3L4sJY8yL7A/EhoeTFNXfFAqmEUC5tNkK5/mF/sELZRLP/dQ4fTSJiJeX95XNfVlZGzY0N8kt9ukzGfWLzQA7r5LFC+FiZEzMwMA/6Hc38x7GxQgmQXgtfirLqICIpk/+nY3ITm6fwatxto0QkkZeCiSyS2105j4rLSon/02oDiN64kEUyRvDiieR1kU0HhHJzzmNTdWZ6ELSyCMkk22PcoSqTSnegMtkLWFlkEiJ56wkF1kqCHHFAwnFxIBAfFweyxeMXPbcGh3+2vwkwffuvRjPGvGu38mOvI86h1pYm+vDFx2xM16PytmoRFMzPA2IZt47KpKx5CfahDAql9KFMEZ3w7wra4JfPSv9JI5SNNPufZ8t8Z6V9BlFxKWon+/DJ2lgo62QwnripOPIij6armcl9rAilG5hHRnpdTN/89ch0obSnmnivCqWirAoERdLTsdgspYhFciRtITWSnGlakFdgKpCiYqIB/YmaG4g+uj6bTGbJrzJcF4y5aV3a8rwvzCA8S+bI1EcyCM+e11PitsG0wxXfSTof/2Sf87GanyldicpkL2Blksl7TrZzS3K+5rI2L4sLxAEJx8WBuPi4OBAXb+NksWEXZ4OGQNyOtrZvrU2347gi/vrooL4DVqc+fQdQWZ9+UpAuLS+nktJyqZk89MzfcFw5LVlSSy2pFi6Et0szwHf/ej/teujJ9FDiZjmfonQlTiyjtZUgbptd0awjiyeUHMZclBDK416voBFH/NnIZFvKE0r0OywpHyCf/T59+rBM1tPY20blL5Nyk3l3XYEUeJxNjkIfak/9kV6X0IznDufCoS+Uwd/20XQNaCFMUXonEMnwpP8gJn/hqHG3jqSaCxfR7q0sbZxHAvxIhUF3ikqKqKyMqJTToZ9kWCRjzpcJL2n6MZDJrS6YLP0mW5bOo4bkNBkcreaSxVYmZ9mU6ahMKl2NymQvYGWSyYdOY5nkfDGYNQbzy7zj4+KwtgGvNtGGgZPBzuJq+34yen8+ZzGHWCb7r07l/fpTOctkaXlfKi1zMvkI/fzs66mkpJSW1NZSKpUSmWxrRZ+yOioqLqGHB98i51OU7gBSOZaFErKIwg4yellcOLi24Vih5LXUULJQNrJQHvsahPI5FkqWSZkyhIXyX+fIgBDFpX35XuhLxXzPNTbUymA8GYWym2sfQ4SS+4roBNH0o8RIr0spVbeAvnvp1FAfqCA4RgtiitK7MCL5td0KIJmFn4G40NhbNwy1ZIBIbnflfM4DS6SvZHkp0QeeSIYyoMLIkE9CJre+aDrnWTUskwuosXoGzXn1XL+pK8tkpquqTCpdjcpkL2BlkEmI5ONn+n0lEQhmdLninRzutAwDuXRV00/IJChmIUQzV8ik1EyizyTLJITyg+cfocPP+Z08cchka6qVC+yQyRQ1NSwVyXx4yK1yHkXpLlwtJaQSGb0s/IAFQDSdSOIB6zSh5EVqKFkmMQ8lhPIYJ5SYMiTVxPJ1ikgjpgrBjyn9+venpsZ6GnPzCF8m5WYO3t2FUOBxoeRmI9sZIIjSj5LFuLXF9KPE3G0qlIrS+xGRvBQimZ5LhGPM1thbOV+LiuQVc6iYv/tRVikrIRp9bSVtd3m0qakhW17kkyWV3QWhxPNI1SepqeY7GUwsKJPZwLGahyldhcpkL6GnCyVk8plzAv0lmc6IYU/oC+hkEkLYBzLZ19VMYhCecvro5Sdpv2MupMFDhlA7l8Yhk21cEu/oaKO2FJfE+dumpamBHhmaPiCP0rXEDVYDVrU+pa6WEpm9LIFcH8IIXLxbB4XS9Z/EgDxo7lrPy/HS5PUv1NHWwp/rRpr18mm05fkTWSb78j3Rj8pKS6h+6RIzGE+GOR2zk1+RSwglNRsFHC2IUJ71mW32WketDYukH2W6UJozT7h3a1lrgUxRVl6MSPqT/GfMPWwUJv73RRK5JWRyO+kniTSlxUQf/yazSOZPzHOIMPbmdWmr8ydRqqFamrrOeO6XoX6T2YRSZVLpSlQmewkrg0xOGfSq3TKsrAV6TyZLy0zNJMtkWR80cfVlcv9jLxKZTLFELoVMtrWxWJqaSdDSWE+PVt4hYaV7cCJ571PzZB3k3OPXlPWqJJVRofTgDbcdK5O8zR9dTyiluWsr0S9fqaANj/qHHYzHCNjsf55FW184lUrK+tLAgf2pqamJmuprzWA8OYUyd+EpRCi52SjwDBb/KAgialLl9aRsP8o/H8ZC+YVNkQ6O0UKZoqx8QCS3u/QbuxUhJn8Ze8sGafkYRHL7q82AO2jej8zy09+tsVxkEkAoMa8vmuejqevsf52ttZPKcgcdvxSlW4FI/uX8p6XgHlxWdoqk7a1dOOP3tpni4mLESD9JFM49pEqog1cooivdBcQJEokF4hhdnGBmqrnsjeCe2+6pCimiION3Cz6yKAS5jy/C6PNT4hbexq/tpSVmQV+gvrz85aAqFq3DqaikjIqliXd/PhuXpaQvZSs1N6eoX/++IpKZ4ZN7Sx6EkuMOc//yPoMldCIPSOPE+7enyQ/vSqV9VqeyAUMlvnbWJ7JOgw/HiIoolGJRFGXlIE0kvSyBH+R7PLgYkay5aJGEHSKSVy0wh/BXe0dbV4lkYSD/LS4fQKX9B9uY7JhSiKJ0HShLKL2AV6oeFGlTlh8YhMcryMqXj48M0MNx7VLV47JtjP+Kbfx42WbjlK4mKIgQxziCQrkq4YQSH1pXXjKfX/Nl4KQSa0ikLBBKXsoCSx8rlKCouJQXCGVfWu/QJ2jCPVtKX8pPfr8WvXtVJe3x26SMOoiClz0isORBKLmTR3PfFUboRPHwLsghlkkP7kxTH9uHNj3tfeqTWJfqF0w0TVtjTuOOUaFUlJ6PiORlLJLI7NwSvakDQCTB7i2oxTPf6cjPMJ9kEX55Q2xHG332+64USVduyE1xifkxDz+ArfXjO6VWErWTqHl0RZDgIqfmZbvLZ2mepXQJ2sy1F9FTm7q6msnegmvmin6SffoNpDL0D8NIrugzWVpOo196nH5y0uW0+uqDqL6hQRaZFoQFsrWlWb646pdU01PrPCTnUboWVyvpRDJaC+5k08kk0vWGmvJCwHuQ6TXLF4L9VsAKTV1RAIk2d3WD8Rz6UgWN/PVLdjCeRpnvDGx76UwaPGQADR1KNOOrOhoT6muUhVB5zmzg0Y28urxBszY0e5380C408ugX6Otnfy7iaEgvfE64ZytZa/MxRelZOHHa7rKZss6PIpbJ9UOjUqP1AgbcKSopNzkAi+TnNwzn80ZEMj176AS5T4Kmrlue9yWl6sxAPN8+f7zpO7nHdbRvaYNNFQ+O1bxKWVZUJnsRPVEme5tIAk8m+/YXmYRUuj6TJWVlNPrFx+nAU66k1VZbjerq6qmhoZEL45hjso1SLU3skkX0wOo3yDmUrieXTIKgUK7qMukVVRCIfBtgUxbIpF286UJYJptazWA8h79shBLShSk2vn3+BNrm0m+oL98f225H9NU0orcurZRzFkKm0VTjyVHoyrg7+3FODjc/61OR5SmP7kXrH/60Ge2VC3CZwHFaSFOUnoGpjcxHIsP5QZxIbsvSiJYYkpZFcgyLJOIKIkd2lU7mA8axEKKveqpxMbUsnU8Nyak07z+XeX0nUQOZDRVKZVkx9fNKr0CbunY/TiQBpNC0jpEHm9ebDL8YzVxR+EbpmwPeI5fKpZmJ0mmcCMbhRFLJDkQS75X7yOIjjLCsA4v0nwwsrtkrJuNGP0oMgY8mr3Ka4hIqLimTX+uF9jb6+PpKeuRnlSKSbg431E5uca5bxssCaYxbMsNPIG0JELs7LhJLJsz+Lc+bIMukB3YSkcSclH0HrSu1lE4044BoogCrzcgUZcWSWyTj8wMjkp9zyHyDQyS3ueQbKi7tw9uctrMiCcwpsy8hMu6gbVkWv7hzEypBv8m+g6h8tfjuHZnQ5q7KsqIyqSidxnz5oNBtvoP8flxFXPKWbN8NtAODxH8xyfQvAyU3kB8nki7sltH7d9DnB5r31dVIKrmRdyzwcZSPMj94C28HRRLdgyCRrh9lOQbksd8iXt9JK5Pjbx8lfYoOeyJJ13+SpNJy/JLP8In9f+Ya2XGpgoslbpd3Q0aXTETSBV98YNnq/IkcIGnuWtpvEJUNHEYbHf9vqps7XqQybnFoQU1Rlj/ux5xtWSTdN69Z8P1sFnODpwOR3JxFUr66eZl4/w7SdL+kvD8fwse0L4NI5kv4SQcWfnBLgOKyflTSZzUZOGztA++VONROoubROzTDAiHVfErpLLYYoPQWelLtZG9s4hrE1EyaLyNXMJYvGQajuZq83tRKGlAraRYlf5wwvvzyP+j111+h//s/M8XMHXfcLGvQrx9/aZqBNz1cDSWODeK2V9Umrg5XOwmCn0jziTaLiKRb8yJCyYuM7moXCOVrh1fR9Kd+LLWTGN11xBHP8VGgiBYvJuo/AIuRTD48C9gbXQKk7YpGSGQMMelEGLFEojL8AxBKLChYlqLQ1n8I9UmsI018gavF9Jbz/cUVbBVF6X6cRGIJ3eT2XnYg74suIpJnfcYbJmbSAyySl30rsgY6IJI3drNI5ospaMhz+eL2UYHayeHSxLUQVCiVzqIyqSgF4kZulTUvZi0REg+kmSt/CQXFUb6WUFOpMpkXTiJfeeV5kcj+/ftTWVkZlZaadpV43++88xYJH39oJZXZ5panXfhsWu0kzvPu3qmQSCqG4Kcx+FEOLk4mnVBicTKJpq4QSjne1k56TV357PUNREn29TIXFYJPFFos0Wj3RNJ2xBGTLiYK+Kpo/nk70ggeWERbXTBJBgTCiK9ScBu4Bm18wv9R3bwvCKPZekntCosTUZVKRek+3P0F+QvdiHkwjiUSi4ik+cZmkdxRRM00beXvdBbJsTeu2TNEMgKe05d3bcZCOZDK+g+m9X72mDeyK/pV5oMKpdIZdACeXsqKHoynt9ZKuj6TmPqj74DVqE/fAVTWp58ZyZVLy1g+eP4ROuyc30otTe2SJZRqbZXRXNtaU9TcWEfFHP/wkFvlPEo6TvggkeXl5VRSUmLm7WSZ6Nu3Lw0dOpSGDBlClZVr0a233kCXXnqVpAe/vXssXXu+mYIiKIxBuXTxq3KtZBC83+P5fXDSKN7G8VIEs2EgXxT8gIbb+D0EA/G08TrVZkZ2XdpMdODzfi3wBr98lmb+7Wja+fokbbQR0Wwuey1OLqYv7tiYMJ9jGu5CHmkRGYhJFxvVtedzkSi8AUwc3p6qp9bGGvrqjwd7zWIz4ebf1IEvFGXZcQJkJLJwIJE1F1XTbk0zbGZHNOnBnUTQzI9jHNnRTmNvWrtHiqRj3C3r2ZCPGdn1Wkrc7ufPjm0vm8XHhEUTQgn51LxJyReVyV6KymT34GQSQgiZLBeZ7CtTg5SwSH788pP0g19fQIOHDJUCd23tEmptbZMaSchkU30tFZeU0iNDb5PzKD5OIv/5zxekBtJJJBZIZEVFBSUSCUqlUrRgwQLabrud6Xe/u1a2f/vbm+TYcy5/ngU+SU8/dLpsO+LEUkXS4GQSIrnVk+mFjXz576+q6Pt/qZAauml/OMDGEu34myQNThA11LFwLq5hmdzIyGSaoMUaWwwx6TIc2mmBzHhY5vNBKjFoUHuqiVpbllKqroq++euvAlIZcyxHfXnX5hLUgpuiFM6ySiQwIllFuzWySFrQ6gBShdYWEMmxN5ruQ36N5/InThQzgdYTqYbF1FI7h2Y890tvZFdfhLO8BrtLhVLJF5XJXsyKFMreLpMlJWUskwONTLo5JlkmP2KZ3P/YiygxeAi1tbWxTC6VNZrGtLJMotanubGBHq24Xc6jZJdING2FRA4aNIiamppEIpPJJNXX11NLSwsdeeSxdPHF59Htt98j5wA/PvRSuilxqd3yzx+kt4tk3GvOh4knmRrKYO0kwkC+KPDjPFb8INOEYGknSvGy8zPmmhuf+CZ/3lPU3tpCX//pENrxuqT0aW1uJPrk+kry52gE9uQ5iUkXe2j++ph2gowH5n9GV0uJuSnbWmwt5TM/lYJdZsz53bFaeFOU3HSFRAJp1nrmx3bLMOnB7xmRLEL7fRZJqY3MdZ3884kghQhiITWiOK/MPVlfTU0138pURkN3PZ+qR9+tQql0OSqTvZwVIZS9eeAdJ5OlpeXUpz9ksr/fzJXjPnr5CTrguItFJlFjVrt0qcwv2S7NXFv4yCJqbqijx4bdKedZlXHC869/vSgS6QQSMgmJrKyslLk6GxoaaP78+VRdXS1hSCQWvL8nn3wGnXnmKbR48WJ67rl/yPlWRlHsrPxlopD3ANcef6KpmURP31BTV1ugCAKRxJdGUCZbeWlpI9rtT+Z1bHTCf6iDP+9f/fEgkUl0c21paqUxN6xpZTLmxLHEpIuNij+fa0oax1bnW8HL+FTyfY4gkJaDX965qQQxN2Vb81Ka+vj3ZXurCybLOhsqlYqSma6USLDZGRBJUwzGSM3AE0k0a715nYKv5c6dD93ZZBZCiamYUvVJalz0Dc166VQautuFVP3hnQULJdA8ScmEyuQqwPIWylVCJsv6UF9PJvvKNpq5fvTSE/TDEy6lRGKw1KTV1dWzSBqZbE01c95cRE0NS+nxNe6W86xqOGl6/vm/SNNVDKYDeUR/SKwHDhwoNZFY19XViUQuWrTIk0gIpJPJ5uZmeY+vvPI6+tWvDqO//OX55SqSXSmAXfW8C9GfINvwa5lgayUhlCKTWBCWFAb3ZRGsmcQaNZPoO9nYSrTvc6apa3tbitpTDTTjuV/QTiyUrfz3QsEs20T/PsGrWmKj/Mhs4vjaay9TTU0NHXXUcTbGNAPLTMzFMhJIGznMSeVmp4+m1qYlNP2pH8l2vFTag+3KHasFOEUJSOSl9n4o5BaN4IvkR7JGzjb5oV1tmGi7K+ZIbSQIimS+krisouuzDC+SgUxufdF0yXtSdQtp+tM/oYrdL5Z9VR/cnp9QArtbpVLJhMrkKoDK5LITFIe1Nt1OmrZ6NZOumWtpOY1+6XH68YmX0eqDEtTY2Eh19fWEwXcglK0sQMiUG5fW0JNr3W/Ptmrg3r8XXvgr9emD98qXSIQhj6iJRI3k0qVLad68eVLbiPfQyWNUIrFgv2vimo+Q9SYBzEieJwwm2/pJI5OuVtITSrNbwvJFwQ9Yy8IPIpS2ZhJC2cQyudefWSZPfIM6IJOtzfT1s4fSDtckqa2lQQpj2WXSXTFAJGrC3VvakA+mi1l99dVpl132tDGGa665nH73O38KGSA1kjGX8fF3ulrCzrLVhVM8Kdzi7DHUxnLtmr6CrS6YkuO5+FIJtBCnrEo4gQSeREbJcf8E8STy9NGyRk42+eHdJLTNpTNt/0hI0zqyjtJ1kthZCnixFiOU01goaylVjymcfkQVe14mGXjV+7cGhBLkOL/drVKpRFGZXEVYXkLZ20UyHw48+QpajQu2dXUN1NDYYGSyrY1SqWb68PlHbKquk5GeTFAiXU0kmrI6iYQAQCKxDzVHqInE2kmkq4mEQLoF+7Cg3yRqL1tbW6VWMh96pAAWcLIuvW4EaebKS1QmsQ7iRDJYO+lkspllco9nWSZPesuXyT8dQttdOU/6EGIetMwyGb6QTLER4T//+Zd8VjDKLz4r+OEBC354uPrq622qriN7s9TA8428R3H4TV8/p3b0p2yyo76ycAbxT5V+0i/u3MSGtCCn9E7CAok5IkEeNxjIkCxYo7jZ6R+YAOdbkx/Znba++CsqxmitnNE5SRJxzfOSK478n6CroWxrrqUWCOUffkiVe10h+5Lv3hQRSpDj3Ha3SuWqR/D+DKIyuQqxPISyN8rkFTW30usv3koHrV9Fn/czzVz79BvAy0DpLyk1k2Xl0sx19IuPyf586Y1CGZTvF1/8m1cT6SQS/SMxoA6as2IfmrE6iURtY7ApqxNJVwsZlEgMbOQkMtf72OXlggJO2OXXzpNCrotRXF3NZFAocRKcBwtwXxYik7x2NZNuihD0m6xPEe33V9fUtZm+euYg2vby2bG/9juxnHDPVrIO8uabr8vnBAMu4bOBvznWwalgsuH1iXS4FxFL1p0ZCByTx+EmSZEnhJjLrq25jqY+vo9sby1Smf/zULFUegvxAhnFvzfG3RpfoM3Fpqe9L+spj+wh620u+cYbrRXCFaz9/O7dO2i9vS6yW3mS/+3bjcQ/CRFKFuc2W0M57Q8H0LC9r+Y9HbTwnRtihBLk8YI4iZNKh+ZHKxeZBDET6FMcRWVyFaO7hbI3yyRGCS0dc6kIZd/+ZlqQ8r5ujkkIUxl9yDJ58GlXU7/+A2jp0jqWoEYucHdwobqVWlua5XyH/vBSuuS0UT1KJLuy+Sd46aW/S+2Rk0gsTiJRE4l4DKgDiaytrRVZjKuJdM1Z0WfSSST6nzqJxJQWeZPnF/2KLA90+bULOOFWT1TQpJMDQslxrnZSQMB+W2AVrJl0Mun6Te6DfpO2qSuads748+Fy3KuvvuQ1b/7hD01TT9dEFT8UQBzxN8ZnAp+P9Caq2edu9PGetU9MlE/WnVkIHJfjFP5uE/KlEoP0QCr3le2tL5wq6/zgc/F/zN0ZRAtzSk+l0IJrHBmbvAZwwokpP3ZZ6rcwmPLonlJLV1yKuSOLRLJArnN2Si6D5MgflgeuhhajTbc2LKapT5iBwfAeJe6oyCCUjjxegE2ictm9dMU9FCVOEAtBZXIVpLuEsrcOvONkEn0ld2h8w8jkgNWpjx3J1c0xidrJD194lA4541rqy5KJAjGEqJ1L3O3trZTC3Aic2x6x+CY6/+10eStULntS/z/3XF5++R8ikRAGJ5HYxvyQqInEdlVVlUzx4SQyWhPpBDIokWjKCDyJPDH8fFfk93SXX7uAE3bltbeMyiQWjpcFDxb5wuAHrJ1Mst97g/Cg3+Se6Dd50pssk63UnmqUfpOffPKBnS6nVv6mP//5EfTAA3dLzfQ11/wWZw2x5fkTbMixDNN+gKwH53/mMJHjcpzG7A4n6rxU8nkyXC8qlw4t1CnLi3wKvJlrIXOR/UaDSIpE1rrWCR005bG9pdl6cWlfKuLvIZzD1EZ29jmA7M8jK8tw6LIifdc5f21rXELNdQtoxrM/pzW+fz0t+O91sn+ZpRIEkkXlUuk6llUCuwqVyVWU7hDK3i6TaOaK/PHz/gdQ3/6rU3m//lTupgXBaK6omWSZPPTM37BgltMSLjRDjkyfyVZqYZlEjcwh+19Ml5+5KX0JIeITokaoM3RVzeayfKdhFFDwyivPS80jahzxGiGNaMI6ePBgGjp0qKRBrRMkEmIIycZ7E1cTiRqqYE0kcBL5RUQiO8OyvN6MFHDSbrl+nmS79hb8OZzMMglxjNZOOhDEF4Ys/BDtN4lmrm6KkE1O+i9/9lPU1tpEX//xEHryyUdCf2OMwgu2PC8qjUzgmkEK0cm0k2Q9tJDzRgkcm8dpTJL0hKHmry31NJULv450seTj87hWlEySGWV5SGd3/Lqu9BwwoE0cnfjYZiB8pmDT101OedsEOF/ympFfPJ2/l8r4MEikSRsVye/evZPW2+tCu9VZuugVdt0bFQveA+Qrrc1LqbVhkTR7Hb7f72nKNqfnUUsZpIAn2s2vSVlB8H2mMrkK09VC2RNlsitq79C8Ndhnsri4xDRzZZksK3cyaWomP3j+Efr52ddTSUmpyCRkyclkc1ODiBamD7nloWl02Rl+wa4QMezy/LgT3wUY/RNAIoM1kXh9GCBlyJAhsqBJKgRy4cKFIoaQiWBNZCaJxAKcRIp4dzV5vu4V/f3XLdePOekWjxuZdLWSQZnEWkCAvzHwpSELP7h+k6289vpNthD9AP0mT3xDBuFxo5dGMX0mvbP7xEQZVv7aSYdJlp7YSSVGf514//a00fH/9qYU6SowuqNPzHO4YyMb6l7Qhytfcr+teb7xucj7NF10vYJYhmt2ydPtute87GcyZwhJ5Mn/lbWb1xVsg89YcSmNv3UDG5NZdOPoulcMuvZsy3o6J9VbnvuFTB+CJsDANXsF+Uulo5NPqovfGmUZwRd83nSoTK7qQCjBskrl8hLJQuXQ1f5F8ylvO7IvGO9WF1T5zVznThlrdmTgB7++gBKDh4hUoTlfqrVVZLKtlQWqkQWJhevjl5+kmx+cIrWToKB+f47gk85CnsnyxknkP//5gtREBpuzQiJRC4naSAgjJNL1gXPyGKyJdE1ZgxKJdUaBLODFdPXrLoRuu/ZyeP2bs1BOPcUXSieSsuDBIrWSdu31m7RNXSGTDSnbbxJNXVtbqC3VSDP+fFjeI7kKMVGgx9dOgjxP5SdLP8BJ5ZbnjhchR20lCnxf/+lnERlcVnI/Wcgl+pnlRdrp8nwzcpD7LF1znfxP00XXK4hlvGaXPOWue93LcqZxVg5rLjTfEzvXjKNpT+4nYYyQbEZoLU6TyFnv3knrLnPto6HrPwFdf8aMBC7l96UcJyO+Tnl0L9leNqkM0o2vazm+ZSsd+JLuFIUfqDKpCMtaSwmZnDLoVQl3pvllZ2oQ0b8LeHkJB6L5SlfsO3uBkcmu4HsHH08fv/IU3XT/JLri7M3T+v6B6HNZnmS6Nkb7BHES2a9fP+kPiX6RkENIJPpFQg6z1URCHJ1EQiidRGJU0eVNt7znBZx0Rf7NHXgOm0VkMq6pq8MJZVQm3SA8ez5rmrq2t7WwDDWyBB2aRSZBzEViohAZGx1Lvud05H/mdCLH5nkqP1n8AU4qAWor21ubRCqnP/VjiVs2sczvSS6bTII834wc5D5L11wnv9N00bUKZhmu22VPueteeyFncgIJIJE7Lx4jzTMduBdkdFbOsMbfOkLihuxybpfJY6Es/0/Isl0Rtbxo+irz4TbVek3tu04qC2H5v3sey+vS3W5f3X4BD5VJxaOzQgmRfPzMp6m0mGTZ8enCxXBZBp/56rR0qQyshFDewBuhbcbbtoHg/tPm+TWTAH0j0cz1R98/k977/C/0sx9dRlULZ9L9txxOL/0vyTJF9O/3HqQXHzB9whwP71dFS5qJLnuvgm6490s6aNyads+yEX0tywyfMNqP81//elEk0gkkZLJ///4ikW4kTozMComEIAZrIiGPCAdrIiGQWLDdWYns8tcNCjhpt1y/QLr6OYhMnsoyyeG42kmH+9II1Uzy0soiCaHEIDzSb/Lk/1FHuxmEB3MqZpdJELyKJSYKkbHRseR7Tkf+Z04ncmwBpzJJsx8QV1vpBuwBhYtlfk+wIJkEaact4I3IQu6zdM118j9NF12vYJbhul3ylLv+dWc6Y1Qgd1r0qfdDCsAIz0WlfTifKqbxt21oY1EL+Y0NBVlRf6/OsSKebfD9RvPXtlQ9TX5oVxsTZvmJZWdYuf7WYdw3bPchg0914d9PZVIJ0Zlmr5DJ+099msq4BLr3c0ZCPj+uinZgqcxHEjtzy7uBXxzfnmkGxwnibdtA7P5AZNp+m+DE2bd4MrnNZvtT334DKTF4Tfpkwj9lJNc1B25AG2++O91zwyH0/JtJWriQ6D/vP0AH/+As+uMLN0q/wbZUC73/j4fkvOB394ynn41f2251AdEnn4FoMozgGcfTTz8uwvjrX58gE8UjjKa7WA8YMECm9xg4cKAIISQS0zg4iYzWREYl0jV7dRI5cVlrIvN87aCApN1Ct12/i96DTR+zMsmJZLxDrO0BsnIH87cGvjhk4QeIJH/MZRAeyGQzyyTmm/z+X9Bv8k2pTUO/ydwy6XAXskQ2HfkrZUy6rIfme944IscWcCqTNPcBodrKc8ZRB2p/eYFcYkJyR265zO/J9RSZBNnP1HXXye9UXXi9gljG63bZ0+7a1x9skuqAQCbuDH9PYVRW1ECKQN4+0sZmEsjOsKL+rj0L9/fA+405g9tbGmjyw7tJXBw9Wy5XLtyUNSsLKpNKLIXUUkImbzn+aTrkRZPhv3tUlVdLufMzJi5rv8A88+1oMtd/L8i8c3AdkzKUnjfc9hr3mtFF88UNwONksv+AQTRo8HD65ItXqKxPXxo+YH3abKt96M7f/oT+8u8kVfNT+M8H99Mh+51NfxKZbKNWlkkUfDGS6yWnjaTr7/ycfj7RHzggG9HX3RU4iXzxxb/RoYf+kp577hmRRdQ6Yu2Www77Fb311r9llFbIIyQSNZIYkXXevHm0ePFikUQnj64m0i3YF5RI7Pck0jZTzkV3vP5C6LbrF3Di5fUeQCanWZkUkeQ4rHF9rIPE9Zt0MommrhiEBz8umaauqEXDfJPoN/kFHxU5WUZi0sVGde35DPmeMxOR4/M8nZ8svwOCYomaBIyg297GS6oxVGsJ0uUy/9fYE/pNgtxn6qJr5X2arntthbGM1+2yp925E8WJYyaMPJbwpYrpi9tH2ViDCCQyohX1Z1hpyf8Ni/6tUBuMPAY/Yk16cGcbq3QH6NogeF/ARTTxvm1tuOdQtKBaZVKJ5+ChuYUSInnOYU/TWW8aOXnl51VUznl+GRYrlEGp7IqpHYIEhXLWmVXUr7yYKu4eYmPiqTp/kaxdunufmifrKOcev6Ynkm6dD2dc/Bw9dPuR9MQ/klJb86cXfscy2SyZwSH7XUSXnr4RXXf7J/SLyX6TnK4k21cEpn8AL730dxFELD/60UH0/PN/4afnH+nCEE0we/Y3MsDOkiVLRCJramo8iYyriYxKZGtrqyeRrq9rd5L/12SBFHDibnsOBdCZ57AJCyWajuMj4MkkFrNb1u5LI9Rvkj/rEEoZ0ZXDjSmiPdBv8uT/Sa2ZzDf5p5+J8ISfWGgjCzHpYqM6eb6Mh+V7vkzke510TNL8DwiKJdjiXNRaYhAwXrjw50ZrjJKPJGrtZDa68JoFUdh1x99m+hH2VDCZflFRCRWVlPGacx/II3/ugmxzSVfVPnaSFfWnDuIy4Hzp4ufs+qNG2eqCSfa5dfB3A38J8BfEhHu3Nnk+kOcRfTJ221uF93959xY2pDhytjjBF3MW+K9jQwG8qLhjTdyXd20u6zhUJpWsQChBJqkMDrzzyAFV1L+UqG8ZUR+Wyc5IZTSbyQc3OAz4joVyvQcrPGHMBEQyk0QGgVACJ5M7bLeNbGM6jNEffyrhQ464llYbVEl/evQcOvuyf/D3XzE11NfQE/eeKPuDuFFcr7r5fTpyuhnNFXTmdefEnhRTPjggkdEBdPbbz/Q/QS0l6LAZEdZYDj/8SJo+fZI0Z3USGRTIoERicYPqQCIxSX2+Etmd70G+dMtzKJBufQ55nHyTR41MRmsngazwwB8R98UBkXSLNwgPL00sk7ui3+Qpb4vIeP0mXcHCYc/tkxaRgUi62MPyVct8zhUkv7NmJnB8AacySfM/ICqXQGovuaDX0dFmRJNFP5NkKiuOTU/7wIbsX9zdhB6BbZNAgmHs59/bFU1jt0PR0TQMXzs9Nj5dlIn3bWd/QOJziCAiDS9yTrPONv/pNpfMsKGY6yk9iu76scL/DGTDfSNFyBAdj584/8Nsyk5eJyOSJHe6wsUQmPhschiHTLPj3b+mFZuB72SVSSUfMkklZPKV6gclvPGG69Nte1fRauVE/Vko+7FY9uElm1SCzk4B4ZJF+/2h/+T6OYRyWWRy2AY/pAEDE/SPP14p+7Jx5mmnyQ33wMMP024/P5U+fOFRuuOxb+hHH61mU0TI87WDXEkxzYPj5Zf/IbWQkEjURL755uvyvLAgfq+9fiC1kwACiX6ebn3kkcdK/N/+9qyIoxNJ15Q1TiJxnJNIzF1YEF34Hiwvuu15FHjirngeG2eQSTm3WzP44sDvDliLTLJAek1d21gmbVNX6Td50lum3+TTB3LBcrwc758pQlp0hnQhYtLERuVzLpDf+cLke+5MRI7P83R+svwOiBNMh9+n1f5hBROYcO82tAX/7SbKehzH5PNuZkiRFp3Pc49JE3tYvn/lfM8Hcp/xy7s2syGlUPKTBaX34GUuYTJEZyd8UGGnsKkLOijPxJIs/xPHSiHworOdy+zrnBzKN7yUBeWLXgisvazPBOTRSwdsvMqkUgjBpq9BkQwiUrkXS2UfI5V9IZUskxDLqFQivN1TRnqWZUoICCVqO12z15lnVNEGD8ULZSaRdOIYh5tj0tVMYjqM1dbYi9Zeb3OqGLYBDUqsQVectRm9/HaSqvhlsG/RpA9+Q6mWlNykDz7yiCeTtz86g37yyepynu7ASSTkr0+fPl5N5A9/+FORSNRE/ve//5F4vA6MxrrxxqYpyV//+ieRSNQoysBBvEYT1ZNPPoOefPKRtJpI1FI6iUQ/SuBJ5Cnxf89gNrQi6bbnUeCJe8r7AfBcNgrIpAgl4rG24SAhmeQFMonaScw1CaGs4/tg7z/bpq4sk9LU9dmfB4QySvQKllB0hjRpRNLFHpa/Xma8bs4T5H+FdCLHFnAqk7Swa2cTTSU/tkYBrRPk/5cq7G+6THT7pZbja1HyBDl6HuSZLB7/4MJPY4/o1PULOAhfbnmTUQUNoZ25zhveX4ggbnPx13xL8T3FSxF+BpbbK3iPYZ8N2oC/GUnnrfx4E+JHP4oPs7Eqk0qhuFpKECeTAEIJbmGpXB01lbxITSXLJGoqXW2lE0qsM0ll4HObFfQHDAplXJPXqEgGBRIieMg+lfT0S0lqbiFqqG+h808wI64GayY/H+sXhE+94I9UUbk+rc4yefmZm8jUIFXVXJDm4yezTI7a6WqaMvo3IpO7HnoKjX7xMbrtka/owE8T9gy5yff1Y1oH8Pe//1kk0tVEBgfVQRjxGEQHErnaaqvJNsRwnXVG0LPPPuWJJCQSC2oizznHzNN16603pEkkaiKBk8gpGSSyK8j3vSiYAk/cbc+jQLrreUAoZ5werp3ExXA9d033xYHvXPZHr2bS6zfJS4PrN4mmrq0t1Cb9Jg+xNVsgl8xl2JsWnf0shpg0sVH5nCtIhvQ5T1PodYJEji3gVCbpslzbSCfmozPYcy3bKQtkuV4sOxmfSs94jrmfRQ96L7uKFf2SelWpOv3FFP7y7BFZDtyz6TZZP/DAo5G+2QVeTZIXdkxWFQztyve8Mels1Jd3F1h7iD7CKL/hQy2f6+CH28U5At9eVvJ87Las/H3R9Ga3DdvrYjO0cIFAygaBtcqk0q04qbx5T5ZKW1PZjxepqcwhlcCbNoI/sPmA/oGYjsTNQznnrCpa+wEjlHEiCYEMApn8w4tJkcFTj6iU9EgX7TOJ6TEgYq++/h/ZzsYZp55KDz36KO36s5Np9EuP060PT6eDPhts9xZAlvdgs8cq6B//eE76cmaSSNREQiIHDRokI7MiDaQQI7KiLySauoLHH38oJJKuFvI3v7mBLr/8Ik8isYBsEpnnn61zFHDybn0eBdJT3hOQKfmoR3yZDNVOYqc8MPzN4b48XM2k1E6imautnWxsJdr1jxW06SnvsGzafpPPHCTTWcTizs0BLxhLzN5QVPajfSLpMhyW69lkJuMJc9DZ64HAsQWcxiTN74CwTBaCPX8Bz6v76BFPojBin3L3vo4V/y6thH+nZcblrFGi70WmdD65U2TCHtnpE3TQeZv/14Zzg3IGOPPM82SN/OW4tV+UcHdz0UWX21D3g9GHzfcJL96f0wWCccBs+MlCOxm77ScIPDI2vTyiLOjWNozdskAGeR0SxGjYLvYUPvz5wEdEZVJZLjipvHGPKhoEqURtZaBPpVucVJbwgrCrZcx3BFA08cSUE5jnbnsrpfPOrqI1769Ia9oalElIpOPJF1gmU0SnBWQy2swVIgkh699/APXt01dqAh978km64be/lZo6SBpq95BBFvPd+NCjj9Euh5xIH738JN3y4FQ6eGz89CTBe7QQMKXDa6+9nFEiIb9OIhEHEYREYnRWPF88T4jjEUf8mh544G4JO5HEAoG844575Vq/+tVhnkBOLaQWssAX19n3ojvo1ufSA9+XNJnEwvGy4MHimrliEZm0tZNuepAmzDfZQrTvX9DU9b8sk000/emfyKiNmQlcwOFF2S/EjGQ7FmQ/2pDrHFFyPadMZDgq58k6dzVD5Ng8T2WS+Yk7L5PLQuDJ5vm8ez7L8YXEXqrXvJGK5MKWQLAwOnGgHJL5uBu/P8mGcoMuNuCgg35OW104xTvtl3f5gxV2F9dd54+Bcf31N9pQbra5dKa9i/jRu50C91XIvLyUhtA+R/BY8xBKxccEj0cYZT0JY2Wic0phcAF25RH8s+LP8uYlfhk5DpVJZbnipPKG3Vkq+5qaSiyQyugIsCKU/AnH2tU0AieW0Q+/A809UaPppsEI4oQyKpLRprCP/CVJp/0qXSZ33H5byfDQRFRksl9/mTLj6T89Sxeedx5VVAylJbW11NzULM1FjUwW08OPPUbfO/gE+viVP9BND0ymQ8dlvzELBe8FpnRwA+vgmqilxHN0zxU4iURNJMJuQB3UQuL5HnvsSZLu5pt/J889OrCOJ5Gnxktkpr/JiqBbn0uBJ+9J7wvI9XxGxsgk34ZyYPRYJ5TBmkk332QzCyVkci/pN/l2oN/kobTF2Z//f3vnAWBXUbb/N1uymx7Iht4CBAJC6KRAQEVsnwro/xPb5wcKKKD03kMREVBA6SWh2lEQyyedQAi9hZ5I6CEbSE82ZTf/ed6ZOWfOueeWc/duyub57c6dPufccs6d575TTK10awH+W66AIumaXErYpXIS0eK1YoqUKVO11BmVprrjVVCgCKl6JZp56ZfDbGcvg2S1as9ldcM9zxX+dNeU15cUp4ouvFapop5SZn4gSBTILl1qwSrdYiSkoAmb0JltQ+z2Gub6Md8zehVBcYVxDWvAEAU0PyYqacn8zkqluWjieyE6B5ce+ebRepFLi0LT1YvC2gTCGnB+gL5q5kG/s4174OTK+6F7npscxZeGYpKsFLyoPB+iskmkj1sBFoJSxaQTlH7oq3cQluHektFKoamrBsM+MfdyvunIjrw1Ll+pmLzmt63y428XisnddtlJLY7eytfLi8lbb5MTjj1W1l57bRVqEGkQZ4vaFplzrpdrb7hBfnnD23LcIZvKz349Wb7+4noFF3pngZh86KF7IxGJc8SwVohfiMFPPvlELZEQhxCKfihr2h155DFy1lmnRnMjvaUVQExiU/uuoNavR4IqGu/S86mCFfn6bHFNi7xlxKR+WTmHItEXlvWi73h8MRntGM+bND72moR1EmJyD503+bBuQ9G+ZKHOm9z2yKdtZcUewLebJDtV8SdUQEZ6lJT4Gg8oXadyipQt0USxMypP/mNZOnc8WAq2P9aJyWqbWsWIn8bKekLuuKvF69lN3vRcrISush6yFsetQACCRKG8xy1SPjPZJnZ2D8lQEAIvxKLPp6b7u6vPA1HAUJgeR8NyIIgngsn0KO7DKR/NulMrEIcFzrejARc36CvoXtu8wtCzx1jTB/YNBmQklYVikqxUvKg8b3RsqdTVX42DkFRLJYSk952ghMUS4XCPyfScPQz9BI9+d6YuAnL+5S/KGUcPjwRieoirF5SlxOTuu+5cKCabmmX8rbfKSccfr+kQk2rta18mixYaMWlO/robbtQtQY4/dIicf8WL8t8vbaDHish59aaLYzsHzzvvTFURifPECqt+OCtEpLdE+lVavfPDWuFOOul0beeIIw5VEQrhCbKEZDU3nYrp5Guysuny86niAHmqbG4E5duHx4LSf7FpG/pg0V85ne8tk9EiPCa8aKn9QWfYYROsmNR5k1+RbY+w+7QWnlRBQoDJs/8ZFKnnv4ULKFbePhSrlVmvIKl47WwqadNT6txKkecYnuwCsCpsf+yrLraqU+JJVvdCFiVursYN58Ide2WewsoGN6QEBQmrABUKPE9Nn1OZukWzkxmdFYOgwELowjYI34UNcb4GDD5QmBZHo1BAkOaCiVqR51LVsyLQ+j5s80JXkKYJqTB8EAUM7qXF9+iDp1QjDGe4UBbhgTJIZZcpnQnFJFll8MLy0r1n6iI9EJV+W5HIUhmIykhYGhcOgwUQlhCT8DHUbgcnOtE53vRqO38yS1CCG/5o50we/p1CMTly911ViA0YMFD69umjYrKpuUnG33KrnHLiiTqXEuLNC7aFCxfogjjX3XiTXHztVDnxR1vIub96Tr716sbuaJ3Di8ifHH64/ObqqzX80UfvqYiEJXLu3LmRiAzFI84N5xgKSS80IR5//vNL5X/+51saBxCSb1Zikcx5F6rmptWVdPn5VHGAlfUaeTEZ/nJqLjU9ofCc8AWigtI4FZPOLYOYNA77TWKEwGd+67YIMWIS8ya3OfwJrY92YxIRR5BWtqzH5Nn/DIrUS55IQLHy9qFYLUuJ3IKs0i0VUqR80eQatO+SsFx9wVC0FUre51ILyhyzxqcUN7cynuuqgrmROOJQF1LxQbrqbMq0WzS7/PnUQvilibaiUIxf8FHN+hSH5cIKYTqwkbhoIjPApRsvLpFOswG9B7o0nWeIFMQR1LTYhfEorAHnA59nPf0O9Pjww6flF4ajz/nIhUB0tJggKSO3CGVKprIrb9dCMUlWObyoHDvargCLLUW8sPQL9aStlZG4NFcABCb2nfRAUP52q6ky9sQRLiXGi0kPRCXEpNFVcsR3C8XkqBG7qcWvf/8BTkz2kqamZhl3yy1y2ikn6xxKiEkVbe3LZMH8+dLQ2Cg33DROV3E96cdD5ZxLn5LvvD7EHbEy0hc2tm4AEJEQq5gjCf8Xl16q6ffe+w8dmpoWkd55IekFJHw4CEm4q666Xtvxi+28+aNYSOa9yXQ1XXo+VTS+qr0+oJpzGpISk+mhriEqJo0fickON2/SCEn8mAMxqfMmsaor5k1iqOvtB8g2P55oG4gIGtdg+mA2Hp9DOh+4tERWVjlg0u1/BkXqZL0AEcXqON8EStW2lClRkF2+xSQZ5Ys2kX2+6Jhuf8zLLlZLcj6XvE89k5o0UgUVHndlnV6ainuKFRdcAXTRuXTha9EVog9Y4YcQHlIfqszPWDLRxsxjIjldMTs/StJAokAKK+6ShGk+HKdZK6GNwHPZyXARP/BizFsWvWs+bB4mnJlfFIJRZxthWOxYFVGkVu42y5TMyK68bVOWYpKsqnhRefruM3VOZV/jImulF5ZGOCaslSaMIbC73dIiY3/5jJx93C7aBoaWnnHUcA0DP+QUhNbJ3/6zVYz+kyWLRY78nr15pLcFweqoA4yYxAqpzUZMNjc1yU033yJnnnaa5mGYqx9GOnfeXJ3DeOO48XLR1a/LyYdvLWf+4nH5/pSh2lZevIj86RFHqHjETRTHXG/99aRlUIv8z0EHaT72msTxw+GsXkDC9wIS/rnnXijHHHOkikg/TxL4xXawgX2tyXOTyk0VjXfp+VRJl59TmQMMuToWk6F1EtXgPP4LJLRMwvdiEtbJBUtFRt+Goa6PGDG5RDqWLpQpt35N45knggMliOMaih8cQbggD9h43Gx2fjI5o4z9zyA7VSl4LiGl6jnfBEq1kKRMyYLsylu2xOUnX76dbHf0ZBcz5G2qLLbBmjdbc3Ke4Up7QsUO7K/gGlJVk11wHjmxZ1DZeUy+bDsXqi3DT5hi3inzXunblX7PbPyFi23fBXsQ+nA17HjyOy7k8cdNYxMTWRrJLGyIxZ7HCz4QiT8biX0bUN8Fs30EfaAc5u307+ijVQpCMOrs6S6UF3eiSS8nGbWCpMrbLFMylV15u6YsxSRZHQiFZTi3UoUlRCUEpXP7/r5F50n+c/vX5IJT9kyIyhCsqnrqkckVxW6/p1UWLhRZ3LZcfvL9dTQtLSaxDUj/fv2ld2SZNGJy/M1y9hlnqIVw9pzZ0tHeoUINN80rr7lGRn/jRzLxz9caETtNZs6YJj94p/wXUXghY6sGEIrInj2bZIMN1pe11lpLPvjgA3WLFi3UIbVg3LjrIiHpRWSWJfKyy66Ugw76rgpJ4EUk8EIyz02lKqo4QJefUxV06TlV2XhnzmkzIyjfPSJpnQTqBQ17y2QkKN28SQhJv9/kiFuMmPzRo24RHsyb/C/Z+ocPBO0EDfpwcKC4WFgOpOJF8vUxfghw8RJ5cZPZ+enkV67czYVWf7Y76kUXSjL5iuHJvPRLk5tON1AlVR63U6frOtCrIbjO4+55FVRRFT9crGroxvrmxmDfR/NYcN/JIqNMlNRDXvjFZi5cnh1O/I8LZfPCxZunyrgD4VT1oYc8f5HtV6XZ6dT31dcawfMK44mwjRTxEbIPCd+Tjqdxnxd4j51VvRgEI89Kbg9Xnvg5VI9rIOnlpEitqtosUzqVXWnbFJNktcMLy7NG2pVgMb8SQ2FhrfzOPS1y1Kl/kfr6RuMa5JKxX5TTf/6oikrP/31zpnzhD1acnTj2Xvn+2zslFvJJkxaTWL0V221gj8leJoxhrjeOHy9jzzpTOkxPGvMUMRR26dIl5kYEMXmtjP76YTLxzuvkkuvekv2f6aftVIIXkUcdeWS0hyTE64YbbqjzM9977z2ZPv1DIyLbVCTimLf/7vda5+qrr3BpsSUyFJEQj3AIAy8ip1Zqicx3B1OqqNLldOk5Vdn4qvI6qZg80ohJE8aXqh/qiofwHPElooLSuHCoK7YH0XmTRkxiqOunMW/y0IfsfpPjvyhDD/qXbdgQPia/wYOwBsOSLi9ItxSmR7nF2gaJPBDUNXmvXjNa4+WItj2J2rPhqDUNuDxXxufG+SAKOOI8lLf7Pb5Wun8eZZYqlcoL6nTVsLvVhe2OzhbTMen3qDSTL9/ehUil6MrB0ec+fowoct1GaNTXNH4iO1VWCdKKlE3WcrFkoiMz0Qi5TVwoRi2F5iaqS/PgZoo1shHXMFguL166VUV7vGbuBauvk3H6b+7qUdwKWRwffZbnfh6v6TDi7BnuGfh6loKX3JBIc6fsz3zi2Z0TgmDEmR+4UGn0NKJzyTjRPJgn1bkWXO2kVwUZNYOkytstU7L0YYpCMUlWW0JrJYTkWRNb5Ps/vko++/Y3ZeKwf8l1v/qeHH3aX+Xyn+2v5Z74n5ny9+FT5NwTR8pxZ/1DfnnulzW9HH6+pBeTvXr3lv59+6llEsIS4g7DWM89+2wVbdhKwy9wgxvzVddeK6MOOFQe/8v1ugjPAc8O0Hay8Bct9vkDoYjEsTbeeGO1hr7zzjvy0YyPZLERgyoU4YwohDBcZNLue+BBrX/hhedGQhJ53vn5lCASkT8uFJGV36BWHF1+TlUeYFV8rUKqOT8sVqVi0lT2glKdzU6A/g6+TEIxiaGuEJN+3uSY291QVyMm25dii5D9Zcv/udvUChv1gTgt8XUe9VgK08LHuBzwadGDErVrvNdv+KwNl2CbHz8etYFrWyOBr1lRmg/jP4hHHh400/zHYfdgff1PxmOMmLx0qLWQ1JzS3QJ0aD1YjTGMh2x31AsuVAk91NrZlWQuGpTxVF+6bFsXWnHEHf/0+5ymZGaQXaZcBoU1craRWTz/eWQTtJNoMtl+HCtWPqRoRgambJni2dlx6nM/38iFYuufEgrI5R1WPKoPMRn6y93w8pdcxeLgRwv9IST8fOO+pPcpKyR7YG9F4+P6DedU4t7Ww/Q56urq5ZmfxefcGXY/I3i+GSReu4IXsiChLHiqlvx1E+jr1VlcC0kvJ0VqVdVmmdKp7Erappgk3QIvLP/rG6dKc6++0rNnL/ntTcfJIUeNkxuuOFjzjjvr7/LVN0fonMoxd8SWyJu+OFN+8K+kZRL7X57xmE1LWyYxV7IfxKQRlZgz2dSzSW4YN07OHztWhRwW3YFlEmKth+mFX33tdUZMHmLE5A26CM83nltL28nCi8ijf3Kk3sghInEciEjMjXz77beldWarEZGLZemypbIUIlGFYpu0LWqThYvsHpLPPGc7caefflKBJTItIrE5fVeT70ZXBVUeoMvPq5PU/PxyNrjpVYGYNA7V8SWtvpaw+C8RCEn0g1RMGpeYN2k+dqMwb/JHj0rHssW6CM+UW7/qaops/h03vLrgy9vF4t6Bwafh36fHaVHYgG1IKmHrQx4wj76ThfrGOT8ZB0izvuLzNRiHlTBuwnGOCWnEp9i4LWHD7sF4vl4cB2qlqERMumqWRCQXvuYLl2zpQpYdT5omzzvLRpbFxbPtEXYF3+oofd6vXLW7C1k+9dPnzMvkrC/G93PcMCetUoofsfrXMKJoEzVoO0GF7VV82Pznl6wRxCpqKv/xlKhaeM1ViLu+QNG6rkxmvibGx336ArsV2K5nfKSCEPfLZy9YT3Y6zQ279OIROR3tKh6Xw+9YZsLwzQ3UhF/+zS7mGnrS1ikDrodtDp9k29ZzNefjrgV7XRjf9C8mXz7c/ciCfHe9KLa8v9Z3O/099UN8yYiChJCSmcncfA1nojWiavnrh9h7emdw9ZNeFWTUDJIqb7dMydKHyYRiknQ7YmF5iuzdeoKc9IgVaL/9ykyZsM39OgT2y1P2MkJNouGuWez3rbPlrt+NLbBMYn/JSEw2N0vPJiMmbxonF5x7ru7LiK04ICYh4CAGr77uOhm5/w9l0l9vlIuufkP+3wtrazsh2CQeHP2Tn0gdLJHm5oXjbLKJ7ZhNmzZNPv7kY1myGHMel0SWyDYViYui7T+8iPQCEds7HHroQSoiYaEElYrIym9MVVBl4116TjWi5udYwwbzNrVJSkyaS0b7GtqO9w34EtH+kPO9ZTIc6rrQfPx2v6VFtvnRY6a/hEV47BYhXc2W3/+beQw7SjhxdPSsb8NBJ8qVifLDNB/XPOfrYzIe+WGaqYsQOoTV4Dt8FpwLhrINyx7yFh43k4w8lxTnFK8fikkIyTpzT332wg1l59M/Mp3kdWWnUz+Q5y7cwIjLt2V5+zJzP1wqy5ctlslX2HtoV4CVgl+/fm8Nq2gNO83G4dgQ3rDmlptvVpxSr2kRqqhiqaxi1c0XUKSlTh8gu4EotWT7hZnRJVhAnKGhEuWirKJlUlnFD1qqCXnyfCsix5zfqgV1tMYy60NUPnv+OnrNWMsjhrNCNFrxqNdMO5y5V+LHN+O/fv2ntb1KGfq//7ABXAN19eZp1JubuPHrGjT+6tUj7ZD86DrBs7HPyA/HxjD6OlP+eXPNpwVl5nMv+oIUzYiIShQULV83jdYo3mA+3L27eoLaLlhde0VqVdVmmdKp7HJtU0ySbk0kLP/fqfLpGcfLc1vdJvu8+z2ZuNXdOqeyzrh9p34+6ijDv2/YY3L5z/aTb3zvAvnzbacXiEnMVYSYxHBXiMlbbrtdjj36KF1NFfs7QrhhmKsXk9dcf72M+NoP5Im7b5KfX/mafPOlWMBC7AGISD+cFe1DRGLRHIjIT2Z9okLRD1ddsmSxWiYXGRG5YOECeeJJzM+y4jB9wWN7B2zvAbyIfKtaS2S5u0kRqqy2Qqn5OdaowVXhtYOgfP8n2dbJkLSYhJVSLZNwpo+ERXjmLxbZ+7ctMsx0/NuXtcmb476gFiTtSKF21Kmy4VevGSXDDptg4h2RUPAM+ZadG/zW7w5Uf/Pv/Mk84sTwxe9P0HWQfCcpyisXR12fZsPW00cEnNdDXrs2no9dKdse+ZR5RBumXde+Erav/4h3/fBPT0KY+lOJAxHFhrWG7HyG6UDDwgLLihGUy03nWFfyNe/7y7/eyZVKsvbIo1yoOJ9MusKFYmDVrqvvKT0ajDMd3zdu3Ect4Np5Np3kV68eoUNue5gyL/1qm4rFpD7z6D3pKnK2n6u4+9x2lqiR4q2VPE5mZs5zyyhcWX1zL/EEQfD0hcWt6LXkW+NbVUCa7oHMXyCyeIm5P9pbnTx7np1LCCult0DaH19wvZhr5Tc7az6ApRECED/IlePVa/dwIctm37xd6hqajGuORmvgB5hIZDox6S38atmH6ES66Sc1mGvr2YuGlBeURd+U8u9WVKLyRksSX7rV1Y8wDXWyBYNrIelVQUbNIKnydisomSpSqgbFJFlj8MISHPDtsdLYs5fs/d4PdEuRiVv+yVoEzc2z3txcr7vs+3LgQRfL78efGInJ3XbZ0dzkl8uAAdhjsq8Vk03NcvNtt8nxxxwjgwYNkjlz5qiIhJiEqKyrr5Nrr79BRnz1IHnib+PlZ795WU77SbygxdE/NSLSHA8icuDAgTqcFfMZp709TebMnuNEJATkUvMFhPmOdusOiMgnn3pW2ygpDs3Vjy0ewFuHVy4iK78hrTxqfo41anBVfu2qObeNy4hJ+P5LBJ0j00dSIYnOEkSlDnM14cVuEZ49dd7kBO0otS9ZoPMmvYixgjJqTTfH3+6YyS4N84WGGyH6iCxd9InW2+y/b9OTwd9bf/iODDnwdzauvQhrbYx+bddf321Z+DYN/2Hc5QMTfuOmfW24BNoh8/WBbyNqUxPV2XIgSNfyqTSfklVeQVvWL7/no6vjqxYBr3WtGHV+q7lv2bdN3zpYWtpN53hpm1oGPRCP9Y29pL6pv0y/73TZ4Eu/dDnF+eCfx8lGX/m1flYgUhEHm359nNT17K2dZVhKYfXW1YLN/RU/RGx75DMmr9EKyl8Okx1PxHDXMi9KxQTt1KDJ0k0Uyc193GSFotVzt2sE0s8rX5V0ZbPzyW+5UIroeRe+AJW8JM+Y1+CzF7XKeuuL3PF9Kxh/+s9WmTJVZPZsc19014e95VkrJdjhpLeMkLTWSPyItP2xr6oIxAUPsfniJVtqWjnwownEZ3vbXFmyoFWm/eG7Lgc/xP3BtNlTf4DB9QHB6O91+iOMWi5jp30jc009f3EF1smiL075Vy1RovKGi6I1omr56yeI7tPV4moHjVTXXpFahc1XQJnSGdnFalBMkjWSUFieMWKmvLTZr6WhsafUm85Gg7nB3nHjMfKdQy6TO244JhKTu++6s4pEiD4Vk71gmWyS8bfeJiced5wMXGugzJ41Wy2IKIdtOmD9vPaGG3RLkOMP3UwuuOIl+eCVK3X+IwQkrJFrrbW2bLTRhmrVxJxIrAa7xAjIyBKpw1ljEfnU08/peafFYb6byIqn5udXwwZX5deuJufWiUY2vtKKyXrTBsSNFZT2ayPSOugQWU87SComjdNhXcZBTC6BmDQdqFG3Yt7kYzrsEYvw4FdydKBck4YoYJe3x8IQJg2p6Ehte+TT0r54rixd8LH857f/bUTETeZE6uTtPx9kxOWtphROMGmRjMReICin3n6ASSvP0IP/T8v7tnx9G0dSGI99zU2kwXNxG4nChekacP/JuHswns156bLtaiImi1NYER1VgEU11lmvp9zzE9tZnnn0TGm5vEX2vthuseQMzcZfrp3j590qkd4C2bPPYGnoNVDqe/aRt+/8gQz55h2aXgr8aLD5t/9gQuZTCMunEanT/vg9zdv4a1dHghIW6y2/f49+vrY+5EHtkFe6Gi/pHDueODX5qcn92ctZIVU8juY+cEyiamE7pVqGkBx51nRZa+162ch85DfeRMR0GeT4beIVTXcf2xpZJ3Fz06GtOqx1qd73AO59+DzDeoiCyMMiPnq/LMMLvxiiW/csWzxPli2aJUvmz5B3zDW2/ucvlIbmAVLXaK4T09fB9QS2/P7fVWCqgDTCsa4OP7xATBpfBWWDvHDpVp0Qk6BkphKVyNdwJlqjeIP5cPfbzuFaSHpVkFEzSMrXbpnSqexipSkmCTGE4tIvuIOVYW+55ohITI7YbRdz8+9Qy2Qf883QG4vvNDfL+FtulZNPOEG3C5k1a5YujNO+rF0Xw2kwN+DrbrxRdv3y9+Tpf9wm5132vMx6a5yKyJaWFtlggw1k1uxZ8s7b78i8+fNk6RK7vQdEJCyRbRjOatqBiHz6mef1/KblsDB2lnw3pQqoYYM1P7caUpNz66InmLfZjQIxibm80Dpoo0cP+9WBsIbQIYJnHkwfKbJMhovwYN7kbrfEw7yHHvRPeXP8lzI2z9YWdR80zLtD9PlfbCrDT3hTF+5Z1jbXuDmJxXU23v86efevh7lYefyw2HAupRWgJh6FbTp8/JWPm2iQbkUiCNNcXNPicJwOz/laRlu2YfXiPF+ntHUSbbhgVRRWhpiEZa9P3wGywUYiWw8zAnGQyPTpIq+/IXLXYYNlt3NarZCEa+/QuZQgEpL91pPG3mtrxxZicsqtX7NbxZQBW8ps9YN7TQjnZTrY6IQboTr1tv00f8P/usy011fF47Q//o+mebY9/AkdCotONF6z4cdnzDdNUdlL16kXuEz1ytvOdRbR56hWJNtLxKo6VI5KqaIlzqRyEtUK2yjVKsQk+Pq1rbKJ6Vqsv4GI6QrI9I9E3ja3sxkzRB4+KRaWu5xprhVzw/Rzyf3CWrg2euiveKZQcB3teMq7tmIJ8MMN7gntS+br/RI/vi2e+4G0zZoWDRXf+GtXmeuklxGWxkFI1mMYLHxcIxCTEJJWVPoFrEAoKDNfh6IvTqlXzRKVKChavm4arVG8wdzE9/NqcfWDZqprsUitwuYroILSqSJZNYyYnG+/tQkhEVttvpkcfOT1Mu7KQyMxOXL3XRNiElt0YJjruFtukdNOPkn3nYSYxFxHWCYXLJgvDQ2Ncv1NN8nF106RE3+0pYz95TPSZ+l9su6668rMj2fKu+++KwvmL0hYIjFMFlt+LIQl0rThF9WpVETmu5FUQI0arPl51ZCanVsXPcmV/dpBUE7/KYa6WgED6yTwFkqgIXR4jBdZJuECMYl5k/OWiOx9R4suDlHJAjw7uY5TuPeZZ8iBv5W3fv9t2eirV5lOD0ShX0QCvrNCqh+Gfb7xfRpeYY2b9CiMkAs7v1QefHtsOHjpMpqoLu6UBOlaPpXmU7LKK2jL+sUFpa9TLYWVISYxPLD/wL6y6RCRoUNFzK1QppmO8pQpdhjfE26DccydtFZJu8UAxGRj70HSs+9gaTB+Q1O/3AsxbfPjiTaA9w4Wm46l7seFr8q6nzlHPnrwHM3GMGgIVe0sN2L4a9xZxgIja7SYROlOnnYhcYOJpqs6To5KqaLJaFUHt0RVC9so1SrE5Gd+3ioPnhILRs9Xrm41/QRzPzT3Qf9jyzPnFpYLwbDx3r1F2haKPHbGYNn5tPL7LT77sw10OGz7YiMmF8/VecSgZc+TZOajv5B1Pn2m+yGnt9ThGnHzKdU318nrNya3SkJbGLmVHuqa+ToUfXFKvWqWRImC4uXrp9Ea8UPniO7RncG1kPSqIKNmkJSv3TKlSx9KoZgkJAOISRBuC9KzqacO14IF0otJ7DE57uZb5IxTT9UwxCSEJAQlLI09G3vqtiG/uPoNOenwreTsi5+Qfssfkvffe19XfoWAjCyR4XBWk+dFZDHeLiUu891JilKjZrqEmp1bFzzJbvW6mQob/gZi8mMVkTrMFU4zl0ft4YtEnesgJcSkE5RtxmERnj1ub5GN97tW3r3rR7LF9+6KrErAi0eQJSC3P+41a53U4Vuzte5GX/2NOSEvIEMfJ+ri5kwjMenzcPZBOcRt2Oeh8+DyonA6D3EkFebD19xEGjwXt5EoXJiuAfefjLsH4/mcLEHpy1ivOgorQ0zueto7Mqill2xhhORmRlAuXSby5pvW8oJFRrCWCD4Qz7gFRsqhe3jmAIszFWO9z10gDb1MR9kIVYjJegzpcx3lHtpZNmLyiuEUk5087ULiBhNNV3WcHJVSRZPRqg5uiaoWtlGqVYjJL/yyVYe4wjLZt5/InDn2x5ZbDsy+HnY85T2dR46h/GCn06abz2u91NeLPFmDDf+3+O5fZOmCmfLOXw91KaXBXHBd1ApDXtVCiaGujZ0c6lrqVbMkSlTecFG0RlQtf/0E0b22M7gWgoaqa7NIrcLmK6RMjVR2unSPGRSThBQwNENMgp49ezox2Ud6NUNMNstNN98sZ51+utSbGz8WzYGYxFBX3HawCM+N48fLz696TU45YpicfuEEaZ0y3grIwBKJ7T0gIrHFhxeRzxzkhxZmuy3dnpRp3jlixQ2DzYs57c5Tk0YK6aJma0Luc6vxk0mISegqkwatYw9jvkLctwg8FZPGD8Wkzpt01kkswjPy1sLPrv/FHOxw0jT1bfv20XsY+opNu/UX97bZOnwLc+Y2+uqV5pxwcl5MmivQxcOwFWxhGuLpsPFduWxxWS5uokG6PSYI01xc0+JwnA7P+VpGW3Zh5ytxnRUpJj0n3t+qw/hmzbZDXD/4QKRtsfkMmPdcnS68s0heuGQLu+COEXhNOsR1kM6XhFWyGiGJ/fZ0Lpk5P8ydhPXztWv3cJbPtU3ba8ViUudRYigfrC9GUGIYXwNWdt22rKCs7KXr1Atcpnrlbec7C1O6k6ddSNxgoumqjpOjUqpoMlrVwS1R1cI2irUKITn6nBnSMriHzpXc0AjKno0iM1qtmMQQV8wn1vmScLhfdiyT5362vmvB3P9O/I/57PY14q2HNJi6m5p21ltXZOoUkXuOHCyjx5rGyjDRCFAsbIZFzqKhrgs/liVzp8uH/z5Zr5OGpv5SD+tkE35wsRb8+sZm94MLrhWISC8o7fxJrC2RXtW14LUo+ZKXzFSiEvkazkRrFG8wN/G9vDO4NpJeFWTUDJLytVtB6VSRMGq+PQkhlYJFc9Dp9B1Mf19BOqyWuqUBcB6E5OivH6ZCElxw6hgdujrullvl9t/+Tv745zvl7nv+Lv++7wGZ8NjjKiT//c2Zcv+3Zso80yHDkEB0vrHh+4Klds6Zd5N/OFNeOWSmvHboTHnjsJny5o9mylTjsJVDMVcNeIqdduZBX6tauICs7Gpdrck6RklnHoq57AolXBmyqpRyES6i52WDtow+xGEXjeLhjyBYPRms97nzZb19f2YjBvwq70EYC/ToHKJ278OZD75Br0Fci7pYRE9NQ8/M7tfmfXc9ppy9Rq2L8hFGWiJsglHYpsNPxDUWh+O4I6gX48pFSch3PtIRdI8JogrG12Act1nLVUhCUHYldr7kVNnz3FY5cFyrXLzPYDlum8Fy3qjB8of/HSztziJpwblhA/ZlLm4+Ayrm/HysBpeaD4hPv4UBwP0YwnKrg/+t88H8QiYmYE4B+/b5nrv7bOAE1Sek9jQ09pCmJpFevUQazUd8mfkYLjK3t8XmOx37TOJ6TV7/y42AfEu2O3qypuh9TW+qtn6fPnZYbKVC0mPvkX5fSWtZxPXnwfBwvTbddaLXirtO7LWCk0yG7fVThui5dZKCdvI3rDWiap0/sc630MUEJ5jvXPM/s7AGxSQhJXjhVSz0EKOdFjj86c3e3vB7mF4y5lMCdAdx47U3X5viOeSocbpaq7d0fuOA/eW4o4/SfSY9n/9Di+zzuxb59G9bZMztLTL6thaZC2HpXSAwQ3GZFpmvGpH5uhOaUyoQmv7ZRM48RE+xsy4gK7taV2uyjlHSmYdiLrtCCVeGrCrVus6Az75vybYVPNqg+v51wJcMkr2YrDcJj3xnpky/7wyZfu9pWhxABODXcjhs3bB00SxdhRBz4bB6a3vbPLVGAlihOtqtQNG5kgYvDPHnrkLn47p0ce0kmZAri3R1BXHjBem2riYm8Unq+zKB79BQlIcIcHElSjTBrLD19TxcyAbjuC9RICjx4tcY/HjW2CjS3CxywbOt8ovJrXL4Pa2y72Wt8vgZg+XpsYN1Hhi2O8BcyRd/ubWraeq6oXO+g9sZ4nss7sem42zaBdjoHZ1k63wn2XeU8dr5zjEhtUevDSMkcX3g9rTUfC8vWmTFJH5sSXz03OfR/uhhChr0ujDXLe6fmIvcy7hFCzUrF2q5VzHpBSXEZE8ZvNep8Y8u7hrx10fo4usE52jvm/rDzJpMTW4brpGkVwVFatbkHDPIaNcncZgrIRkUG+bau3dv6devv/TBHpM6zBVzIsfLeeeco8NV5y+Yb27QHbqgTp3p3Fx17bUy6oBD5PG/3CB/fbBV9v9MvrkPhx92mFx93XXyh6/NVIsOOuIY+qph1zEvNhRWO/Jh2LTn0wriJrxFkWGznveOXPWGz+K8c5G7QvWswEPlJnFuFZ7o+r9ukRlHf2w+b257kKie+QoJekfaN3I+hrliuCuGufqhrm1GA+LHEPxIonukunawHyqEpCdrc3qPrvqpHZ12acf8yUWzdf7lhl+5wpwXRg6YT3fgx2ErOjSOA0dpLozUgjBO0NezYfj4Kx1HMI7Dtz9AgTDNxTUtDsfp8Jyv6XHYZod51gd2yOsrcXbVJBuAZXK3096VtVuaZVNzm9xiS/O+mj7wm1PsfMnEED7TUcXeki9cPETfW1hFevZfX3r2xuI7A3XBnLxDXD061PXIp8xzxlBXfN7a9VivXTdGj9Wz7zp2gRE31BVbLNQ3YAgf5k7aFV0nX7EDh7nWlGSDUayq4+SolCpa5Czyk6ha2E46xW4J8qGstXZDYksQLLiDIa4ffigyf34sKO01YkScX8X1l1ubz+MbbhXXOl0Bdv31RDbbVOSsf+Z8HrgJO8Ysm5aYFrB47vvy0f1n6XWC4eANzf3jucXBYlV+frEfSYB9uFfEvEkQlaq84aJojeIN5sfcaDvfimsh6VVBkZpBcr62KyidKoIoxSQhKSAkvYj0K7l6MYn9Jfv266eisrm5WRfdueGmcXL+2LG6FcjCBQvVQoltPSAmIQRH7v9DmfTXG7U++P2/7DCVA784WM64aKIM33Goftn86FuDNQ/pmFuJIbGeX+8zUxpNXxYiUn3Tf/JxFZPez3DpdHQ4C+LmGD69IO7Cm19TG7GJ9nKRu0L1rMBD5SZxbrlOtDbPav1fD4rFpPmAxK36rxD0jlzI+KafZFd1NQGIymgRHiMmMWR7xC0t8h+ISQc+X6GYBF5QrrfPebqlQ48e+HW9Xt7/xzGy6TfGm3CDChbsV/ne3UfothAqLsy1lxaUkUgMwpqHZ2LikVhEukvTdFwNUdilO78gHoThR3GA/CDPJttwJBC978rZmA1bXEqinPMVtGV9oILyWCMoq8a3a4GQ3OGEN6VX777Ssk6DbGbEJATl3HlG3L1qOsvTrfVFO8nmQ4ChpnhvXrxkqGthxWA7yQOlUedNmo5yU1/TUfZbILiFeDBv0nSM8RqVEpTJV6AYlZUqSsnqlbed7yxM6U6ediHJBhOx3MfKWSFVPI7mPnBMomphO+kUiMk9xrbK4HXswjsbbGi+f40gDLcEaWsz90QvJuFgGVxm99zFHF4Md7XzJc13fE+Re2aUP3/TTFn2XPSqruq6bMEnsmTedPng/07U6wQ/tvjtefRHl+AaCa8TO5rAzp208yY3XzHzJkG+xjPRGlG1/PUTRPfmzuJaSXpVUKRm1e2WqZGRTTFJSApvlQRpMdnPCMm+fQMx2bNJt/644NxzZf78+bqIjorJxW3mxlsn11x3vYzc7wcy6a6b5PLxH8jRB22g7eTl9N1tpxsistl8OTUbPy0o1UqJuA8bXwVjGE65skLTHDNMV9+kRXEXhoNlqRTYq7ArwDmsiiTOK/dJdt2zqrbl9byYNG88BKVtyH19oFcUhW1IBaVz0SI8cEZMYjj2Lje3yNRATG7hfqwoJigHjzk5/qXc9LQ+/PepstFXfm3Oo07e+9uRssEXL9F0xK0wrLe+uQAi8ajCMI7jgxuJSJMXldN4OmyddiN8OR92PkLJuPV9HD4ek2nwXNxGonBhugbcfzLuHoznc9yCPDUWkzudNFV69+0vLebtglUSHeaPPxF5xRwGnWVYKfUzYO6DmOfavniBqTdM31csjNPYdx23v+RA3TNy2GETbONVACvkNodPMk+5znzeOuwPC0sWyJvjvqBD+XAcXWCkpxGTWIQn7CirxQVbhGxHMVkzkg0mYrmPlbNCqngczX3gJFH1wnbSKRCTe/+sVdZb3/7IAlGJOZLvGc31zrvmXmauE8x9xA9s9hrBsNGlOmwfn1tsV4NVXesbIeJE+vQW+fP7nTx/hzmcjJ77jCxbOEuWzP9I2ma9LR9P/KUufIYfXhogYL11Uq8ROHuNqK/7TTrrpIk/f/EWq+kWISB//TT23txZXBtJr0oyagdJ+dquoHSqiPkWJYR4QiEZ4m8c8NUhbByE5HHHHK1p0ZxJ/CKvPzlq1IYNEJJv/seuUpkG6cXywEG/my8XPNkiYx9vkVMntMixD7XI9Hki784xX1LGvW/CH84X+QhuQey3LhSZafyZxv94kfkyM252m3Vz4C82fuAwNzN0GI4YOr8QkDoT9vM0FxkXztH0iwHB8vSW28IEK4KWc/51zeNqSaJt85DPuc+Gcy7RumTLFbgkWSWqdRVRaUV9bvCjB8VX0afvfePwhYMfIfBjB+ZNQkB6HYrPSxZeXLZOuEhmPHiuzqGEkATv3fNTFZLAXnfmGoSo0EaNHy4egXy9KJHuDurS1QVptr51YdiWc6BclGZ9zfVFkKQ+HhGxvqYpPs17LicIJ9Odr/VcMIsgT+dP/mpbF6sNdUaw4z3Ej1Q93dpH6CBjaxD8cABwqlbcYQifuZE4dN4WxLv5VEBIbn3Ig6bMsqod0CGCxllzT4drH9ElJs+Vw3kgH/fo1GeEdHdKXSy1Byu3Yq5kc5O9RnBtYPEd+PhRLbqMFXt/0WsFn2GD/UFM/+VPRkiieKYzD3kcKk3st4sVhA1NaqkHGD1gryd7fdj5k7g+/DXizhENIE3jXX/d4Mi1RNurYaO1acq1kvRqR9BgvrYrKJ0qYu+6hKyBQDiG4hHh6/+YvVKaigPnJ8SCAcNZgb3xWjrwi6OLf/NrZ6v/s19PLhCrXkSmzyVLXPo077zAPHdSi5zxWIuc/EiLHGdEJoTkB4HQfA9C0zikz3BCE36W0JwVCE2ISy820yLTLwTkFwOCC4XmQhP2QhMWy1fdqrOvQ2ga5xcE8mJzmnFvHzFTNjCCspxLg3chcu5tqdx1cwEYuPTTK+kymvjoqI9lncsHmZBLQEEEIh8ZNqieS4raNE5FiHGwiO91h30vcZWgawIfn4usuZIQlF5UouPTMuZkWWfv02Xdz5wt6+5zrl0VFh0c3wHSMPy0i9OjjpIeOZmm6a6chl0+CNPhx3lBPHB4jAjKxbhyUZIP2HRLlBlhz1VDLjuO2ywbr7mgNG8kbnkYvodheDiKiklzrSf6mDgJ0zHFvET73uFDgHul8d2HRDuynXBYvfW16/bScIeuTGk6xI44zXSUlxtBqZ+NuKOsn7rE+7CmsSY/99qj8yXPni49jYjE4jvw8fHCNjlt5rsV10h4fSDP3ktMovncvvybXWT48W+ay8v2J/7+Cba88eUyHNoo49ynPOF6mAsXVnlY6YFeE05M+utDz8m5MB7d+xBPgeNVTr7StWdlH78rqPVzqqC9oAjFJFnjSAu3RLzI9YPVWq3g8EPhTNh1iOrqMcQKHThUtn4cNynu53pvuQReEKbPBSAdIP24o4/WcDF8O6GDyAyF5pkQmhOs0DzqgZZIaL4NoTnXCk9vyZyREpofh0LTuNCqmSUys4Qm8JbMSHB637hIeBrfC860dVPFpnHvZAjO9UP3a+viDms5F5OV2xlXEVkVA+c+apW57CYiV3Oixs2DPwDC6seed7A8b3p1iwy9rkW2v6lFnvy+tUTiMoHDZQKHHxuKLb4DUfLxxF+Zayru/GjHJtURgkUyCoe+uz7Ng6ZZP7524aJ8F/dlFJeOv6iMz1PCtAzfoaEoDxHg4hqMEk0wDsfp1tfzcCEbjOM+BGohKHW+5PFvmLfYzpmFVbLBCErc1tBR1i0PUNA/6Gseizt0YrWjrJ8Re3bxli/VO21n2WIrMFU4dugG7fgMWdHpPivG2fc8diiL1+bFS+PVZkPcx3i1IXzPyYqnoaHebgnSLLqiK64NzJGEoMT1oYZxvEnRG2U/g/jcAsxNxA8u/5hdRkgGzt83s1xW+ccG7uGGrpqTdCSvkfheqvdMUym8JyIMt9NJ/5GnLtjINtDV4NAJChJWPHgdXLAmuMZq/syCBvO3Xb7GY2cNVkcxSdYo0sIN3HxXqzpQ7NKB9TEWlOgPWR/UY1iKwd5kNWhu5OZG7FrTG7Khw31hQPDhPK4a1Ffjpfjl5Ze7UH7SItM7iEy48yA0J7bIKU5oHh0Kzdmx0JwOoenFprNkqjUzJTTTVk0vNoEKTdPvS29vErpQcHpx6QVnKELTglOtnEZwetEJwYnFYso5vH2hq5h0xZSzn48KXXYTkasFWe2WdOahmItBxGcg6MIBA3/VImtd1iKDLm+Rda5okek/namLNOF9wpBozPUF6c4P/HJY4WA7P+q002Od7wCFYXst4vp0vv5G79K1rMtz+ep8msYRTeWpr1kuHEVssovGcTwiYn1NU3ya91xOEE6mOx8EwQLCOjUC88BxL4SYRGcZ1kntMJtr2u+fp5gAXnt0Uj12YSTzGTF5b/3uQCP47jT5GIraOQd0qxgnKPWEcIKGSGDqZyT5eYk+G/DJKkhtP7srAuwJia08YJnEtZHeEiQBLhZ15rPo+ga6yI29RPTZw+HTmelMpr9nFnO+TNpNXPeLOtS1ZY8T4h9d/HWC60dVr3X2OoFvKsKZoyNc0XWD4qsQejrROa0qJ1fL8yjSVs5DPHb2OoEzYrGEe/p/Z8pTxnEBHrLGAAF3xfgP5aiD1o/EY8j/7jdYrvt9qxx2YLx9h1+AZ9SI3cz9tUMG9B8gffr0kV69epkvjWYZd/Mtcvopp5gvj2aZPWu26VAtU4ctQhpNbwsrvf7imjflpB8PlXMufUq+e8DgTEHrgdjzhOXC9K6k1Ln5RYAwTLHR9At7GocFgHTRH+fSCwDB/9bfWuTP+82MhjiGDl+cBXFzjDA9nWb+C8Lq3Lml04r5m5VZMMiD4Z0rEpxbbqqqVJ50s4MvHyQfH/uJeV/dG4wXE99UpnMx8BcDbSHH7OPM58Vk+Q6MX4QHq7ouNh2rNtPRwg8OGO6KfVFBeLxtbihc3dWDDtCgUcfoL+x2lUG3jxoW3dEwhAtGERjfnKsdUWDOOfDjMH4YcnGcQSINZxSEke7LaLpNQzjOy4i7tDgf0TAOXxPVabsadX6YpmWDMB4Tec5XT4+AgD7mX5DHtWOwi+/8x9z3ekn/AQ0yZHNRhw3ZX5os8u67IkvM+6mdWNNz7ljWpvuEvvzrnfR9xBythl5r62If2MZlyIG/cy13nrd+/y3Z/Dt/Nm+LF6wdMvW2A2TQ6GOlsc/gxBYhdlVXu8CIXakSW4QMz1yEJ3725ai8ZCYlq+drO1fp6HNTK5LtJWJVHSpHpVTREmeSj0TVwnZ8Coa5fv7SVtlwI5FNNxXpN0Bk7ly7iuv7H4jMmxf/4GI1mV2gCtvZvHjpUHNdvqrXxt/nNtoGy4AmMimaYfHZo96/UxbPfk9mPHSuuT6Pdoti9Y8X4XHXSLRYlVuER1d21f0qG+WFS4Z26SI8ICpVULyy+mm0VvFG8xPdYzuDayFoqHNtJmtPPGcdF6qMp/yoIX20ROEgMcynmCRrDF4ohUISAhIgDeFrf9eqW3SAcI/JZ557QdOyOPO001Q4zp49W9pNJwpicu68udKzZ0+5cdx4ueiq1+XkI7bWbUDOP3m0q5UEYtGfnxeOK0NMlqIioWn62BCYEJpeYB7zYItc9bmZscA0zmsRLxjTLsxDfycRxnHS6UGaL5MVNv9R+TCtlL/pVZWJTjAjj/DEAbqAzjVbuvbgy9eOxOTAS1Pi8cRZ5tsFv2KbiPaW4NtguN8kxCRWdPX7TY66rUUm/9B+fkB4Bp+6sYygHH1c1LnxgtIkmPctEJQqJr24NJ+GhG+OFsRNwIVxFj7flcGZFYQRcmGEXBrC6bxEmSiuKVFelObjNhKFC9M14P7DeBy2wTj+0mXb5hCUvp4VkzufMk169eojA9cy94OtRTvO6DBDTE6fHs+bhKUD++a9cMkW0fuHDqquGmmE3bt3H65bu9SKt/98kGz2zdvNW2O3jsF5/+eOb+ixG3sPcqtV9jMdZbeqKzrJupee7SS/fMWOFJM1IdleIlbVoXJUShUtcSb5SFQtbAcpEJKjzvlIWlrqdG9J7DGJOZOtpquB/SU/+kji/VdxT4QPS6ARk+1LFplra5jscMJUqW/uJ3+bZe4/BlMsN5l1SjS0+5vXy4f3nqrXCa5Lu98kVnXtbX90wQ8uKiaxTYj/4Q6C0lxnJozh4dXvNwlKZiqJEvkaz0RrRNXy1y/AXEM1aMXgWkl6mUw8Z10XqgyIw/BjEIWDxKyPSVY5fF9nQTFJ1ghCIeTFJMRjWrhd89tW+fG3C8XkOpt9QXr3GSALF8yRDTfeRm644mAtU47R3/iRTPzztXLp9dNkxvSpctGZ+7gcS/r4d82ZKdt+PF/DSDv8sMN0r8pVQUyWoxKx6QWmdxCYEHeh0AzT1DcOfqUO/SNTNQ4HaVnxdNj82zI+LZVXzN8kj+g8OhadqNs5qmzBVRt82do2kJPZJxkVgRcK3zS+hwTFqEISfux5yyRcer/J3W9pkRd/UGiZ9GB+ZSlBiaFatpNjhYQKSm+hhPDzolJFInwTV4FpjubTI+Hoy/g8nFEQ1ngYtn7le1HiP4xb3x4HhGkurmlxOE6HZ9Ns0KUhrsE4nq6D+ZPlBaWvb4XkDie8IY1GgPXq00u3PNjaiMkW48Pq8srL5r2YZYfyWTGJLUHm6ybs/r3Dgh/osE6/9zTZeL9rNa1WwNK5yQE3mLfJdnL1PTefw7d+/21dqKkBVhe332SdEbXeOtnDdZLtfpOFW4TEr0A5Ki+ZScnq+drOVTr6zNSSuM1E61UdKkelVNFktKqDx0TVC9tBCsTkmPNbZV3Tx9/EfA2ut569731gro233xGZaW5vGOoKMan3RPPZxBDwjna3JYj57O148tvyt3l90GQmaC8PmeVTiaOm3SIf/PM4vUbtjz3YRsda8HUbHbVO4hrx+016QYlFfBqlvqFRnvvF6rVFCNBaUdXq2giJ7735eXys+bDkJFMcBglZ732Ulio3uog4LMZj341/+A2hmCRrBBA64RDXUEh6UObqO1rl8O+UtkwectQ4WWe9LWTg2uvr8NVPZrfKPY+YznGbyMuPnCNLli7Vm8tV11wro79+mEy88zq55Lr/yH6fq0sILhw/LcCuNGLy86upmCxF+nmm8WITQESmBWcoNFVcBmkIQ9NouEKHe7+pZv0iaWE8EQ7LpNIS4RL+RldWfgNvPfoTFzKgsqFaAZjFzGOC9iugxRx79vFGOfgXHk8q/rndKkd8TflvFuOrmIQz2brfpBEdGOqKLWV2Ht8izx080z+1CB/fYVxpMYkhWtE+aBATTlBGItKJSisw4UMMWoewjeN5+DTIPZ/nhB7CJtXn2zDSEfb1bTp8/FUWR5JN1zY0XRODNASdH6Zp2SCMx0Se89XTIyKgj5UNd3V1DRCTO544RRp7Nkufvk1qkdzKiMk+fc19bIrIG2+IzDO3LSskO3T+4rK2ubqHYyQmTYcUgm76/WfKhl++TNNqyfv/OEY2/trVammsM58F09uVaX/4ru6j19hnkArZeL9Jv5eet7hgv8ntKSZrQtxmovWqDpWzUqp4kTPJT1S9sB2kQEx+9qJWWX8Du7/koEEiC01/4F0jJN81Omv2nNhqr7dGoyrVeo/rZPFcHQq+06nvy1/nNGmb0b2zCGWyE0RlMyohafeXL5aZEy6SQXscL4291oqGg0NMxtZJCEkIyniYKxbUqjfpz1+8JYe6uvvryhaGnmoFYtaxKoVikqwRQMxUIiavvK1VjvyeFZN+viTEJIB1Emyw8Tay3vpbGjG5gZz4oy3kfSMm733IiMlFElk1PaMOOFQe/8v1cvG1U2X/fev1GFkiMsSfly+zugvJSij1engqFZyh0EQ69I73Nez8Ug59LFMlDqfSfVoYT4TDMqm0RLgCP2s7lGLkFYbVADE567hZpjPhXlScKL6GdAwXnAmrs+U1y7n0vEmISSzOhHmTmMgP0JriAvAgOEsJykGjjtWOTtJCCRFpfZNhwkb0aTgWkpF4dHGbhufkfLyjUb5LxxlpGCGfjrBLR8j5WXmZZWxKlBel+biNROHCdA24/+w8G4zj5Ye7+rJWTO500lTp2dRL+vZr1LmSWw61b/Hkl0WmmVsULC/6WwLmSy5dJMsWfaLbHfj3De8LOqozHhwr6+17oabVkun3niobfOlSaz3RoXk9dfgrfmzo2RfzJgfajnKT6yg3oKNsOshatlG3MKGYrAVxm4nWqzpUzkqp4kXOJD9R9cJ2njVCcsSZH8haazfq8FYMc+3bzwjI2XaI6wcfisyf56z25oKxghJziiEmF8mLl24lw497Xe5eNCjZmU9ELBlJEVFeqlC5Onu++Rv56IFz9Dpt7LW21OtQ1z7uRxcrJtOWSSsorXXyBXP+q9tQV6C14ocEk85d34XyUXSuoXko9j5E6akCPppXGIJHi1gPK6HYeSolMikmyRpBKFZKDXP9zS0z5Cfft5OVi1kmf/jTm2S9DbcyXx4byAmHbS6vftgqkx4XWbDA5k9+5DRzo+0hV197nYza/xB5/K836CI8B3y+UfMrEZJgTRKTlVBOcIZiE0BUhoLTLwwE/eOFZlp8emObL+PDWQ79MFM8DpdJg58IO1/LpNISYeNvfk2LrlQbpRuHBw0Hvt0WxS4atO4Vbk/IIlQrPCEmPzl2lulImAP6FwzfMugpRYISSe6rxWUl5k2ajhWsk+G8ySf+x7x/aMrgvAQYDltSUI4+Purk2G0oMJw1FpUm4MLmnFUsOh/Pwbwrcbo5uoYhwAJfX3CXXxC2ToWcr+PTnZ+M4z+MW9+2B8I0F9e0OBynw7NpNujSENdgHE/XKT3c1dezYnLnk9/SxXcGDKyXrYaJbLKpyFzTSX7B3Bqnf2Te16WmIN7j9qU6dO/FS4YWvF94nzDstCuY8fAFsu5nz9FOr11ApJcOf7Wd5LWkAVaXZlhd+rp8dJLDjjKGun4qISjjV6AclZfMpGT1fG3nKh19VmpJ3Gai9aoOlbNSqngyWtUJWKKqhW1ATI4eO0NaBvfQa2LDDc13jfmqnzHDikn4WNE18Vsb5ksuWyLtSxfaIeQn/kfunNtf2zPZRYnyUoU6W2fY9fbeqkPBISab/DWCoa72RxcISSsmraDU/SrrGs1z7SnPXjRklRvq+sR5G7hQfvy2VSD9+qVexoh0ORCWrUYUevKIw2Lnp5TMjKmwWAKKSbLG4MWIF5MAghJ4a2VI2jK59S4Hyx03HKPhLH514zty7A83cTHLyP1+KJPuulEuuvp1+foXmooKolDUpgUuxWRllBOboEBwmu+hhOA0LhSXmeITzqV7F6U7hz5aFHfH8Wnqm7SwjPlP5CMepm93o13x1OdFfhjGQxjXiAs7H/hwJRZPCE6IRx/22KGus+MXCF8//md3KEYVkvBjz1smi82bfOx79r3x5wmisAuMujVbUNrhrke5zo63TjoLpReVaqU056siEGmhgPS+OZCPm4N6MRnl4Z0zvi9nyyBs8+Kw9fFXPm6iQbo9TpAepSHo/DBNywZhPCbynK+eHhEBfUS8uKC0Zfx8yYbGJmnu1VvWwXzJbUTnTb7/vsmfbIfxdcDygs4yhu4tmS8v/XJYppiEpbCr+GTS5TJ4r1OdZQWur7zz10NN2mnRapV+gRFrnfQLjMCa2VPnrlFMdpa4zUTrVR0qZ6VU8WS0qhOwRFUL24CY3PuCVll3PTvEdZ11RVc4xlzid94R+fhjuw9rcr4krJJYfGe+Dq/GNlce3CuVKGBJRSNqUd4vdIZrQhfi0cWq/MrHXkzCim9/dLHDXO1CPBjq2hXzJp8836jyTqA/TjqyXous1wFklQU+fY8qRWElgrDYsSPKFrBUWKwm+GNRTJI1hrTYCEUlKComdzZi0lwl2+x2iA5tbZ1yh2y/19lyxlHDXckYLODz7H2nmH5qnVxz/fUy4msHyxN3j5OfX/mqnHKk6YEZTpgzUy4ZYG9IpYQjxWTtqVZwQjOFgtMLSxWRQTgUn/DVubSizh0D/TqfpmGT7tNGGhGFITSIm3/r+7CPV+DjQeOpPBDFNeLCzgelxOfsU+aZa8RcJKomjINyxEXjv12Mr2ISzmRnzZt8+NvmdXcH88cMQdqYO8oNd8V2IbajEwlKFZHWmQeNeyFZKCatb8N48s6PRKT1zUMcRrrLt2Hrm4dkPCMPvm3fxzUlyitMQ8TlaTAOR/laFv/ZeTYYx4sPd7Vl4vmSTdK7T7NaX4ZuJWJ0pbz6msiUKSILF7m33rzBuiVI22zTSR5eRExmv3+1wLePzi6EI1Zxff/vR+siTY19Wuy8SSzC4zvK0bxJa51Mz5v0r1J5Ki+ZScnq+drOVTr6XNSSuM1E61UdKmelVPFktKoTsCSqJtuBmPzcxa2ygdE+2BIEKx0vWGgX3nnf6Ks5c918SdwLjcN8SVjvcZ20t82Vl3+zc7Q1UhaopkQBSyoakVW+ZFnz8Lmpl0rrIxfq6tiw4ENM6rzJxMrHuE6sZTIWlEZMmvDzqS1CnrpgIxfKjxeB6XOO4qmMdDlPIj2IILjn7dVbCSdUaiUsdmIV0ImqEVW3UWVFikmyRuHFhJ8/WQovJnfbZSdp2WRfGbzOZrrozhUXHiAXXPGSnH7U9nL8scfIXvudLo/97ecydOQpgj26F8xfIG88eb5ce/0N8ssb3pbjDtlUfvabl+W0n3zKtWyBSMwSN6UEJul6qhGc6JOFYlMFp0kLxaUXoKH49OKxnPvCH1vkvgPtXp3mX48HZ5qKwkhP5/twVC7lg6x09VNpwMexR+f7R9rtXhrMQVsuLxxSO/t48xr5bxfjQ0x662SxeZOVUlJQmg6R/mruxKTpARk/tExaX0WlikWkpX2ILhuPw3jmTlxqOcQRdvkurHENu7o+3flxHEmF+fBt2yBMc3FNi8NxOjybZoMuDXENxvF0nWzrpM338yUbm3rJWms1yhZDzftvLhF0mGGV/PBD11mGmOxo160OXrh4SKaQfMmt2hudSkBGUkVk1Rvz8rnmsYf07LuOTL/vdD0X7DfZaMRlvMBIONTVDuFLz5us/JyqPXtHyer52s5VOvqM1JJkm4lY7sPlrJAqXuJM8pGoGkcgJEee9aGsPaghmi/Zu7fIx7Ps/pK4NjD9JZwviWsEqx1jXjFWOwbRdRHgb50hUVqQWbRciTJRPMjY5WY31BVi0s+b1GsE1kkrJt8Y93lXOptJWdbA1MHT5+JJpGcUyqpXrSic8J3C17saij2XWlC07RoetJbnTzFJ1jgqEQvAi0nPPp/ZW+5/8GEXy+anRxwum+xwgkx56mdy7Q03yqXXvyXHHzpExec3v9JPj50WiyFhXndZybU7UulnKBSd6LdFQtP5mMcZisu0+PThb9/TIn/4mhOTxsE32VFYfRMP882/hn2eDyO9aH6F/rY3tMibh7m9Q+FMGpx/Lmh/7csKv+hnHj1TBWV63uS8JZXPKXn90JmytZvjk4UKyj2ON+difzn3FkorIiEqjRCMrJTmhBNxc+JhOl6ZKC3wXbpPMw8ujDyEXT28Yijn/NJxEw3S7XGC9CgNQeeHaVo2DGtuIu4ejOdz4nihoETaNrKDEVcYytbcq4+su34PXcW1ZbDIO++KvPqq3WcSPxCIcR3ty3Tonp8vef82Z9mmHO5ouam4XqrgZ145N7JWYgGext5YrRJzwoKOshOTuk1IfXLeZOXnW+0zc5Ssnq/tXKWjz0stSbaZiOU+XM4KqeIlziQfiapxBGJyz3Nbdcg3LPbrb2jvgZhDDDGJfSaxyjvEJHruVlBivuRiN19yW13JWkn1xNMd8yjuAul8oGlBRrpMFHeBMB+jX3Cd4McWiMkP/+9klxMz0U1FAOm2CxMsRZKVzlgIQSlRWOq4XU3JY1d4Yivr/Iset8wJUUySNZ5Q4IG0UBix2y7S0dEhTz3znC7Ks/Fm26uV8oJTx+iCPfVGESxb2iE//d94I9nDfvhDue7GG2XXL39Pnv7HbXLeZc/LmcfsqMcpJUQoJrsX6fe62PvvRSf6dqHQ9MLzuIda5NefNWLShCHUvGAr5tCOKRqHy6TBLxp2vpZ3YcxxfO4gb5m054MwysAhHtWBb+qh8rpXJDsPU380MzFvshSwzILP/d6WKyUmkeeXslcBqYLSislQVNowfCsgvYj0cZy8T1P5lUgzcaT6MNLDMhq2ZRJxlxaLxay4pkR5hWmIuDwNxuEoX8viPzvPBuM4/mNBadPtfMk3pcGIrb79e+ucMAxxxRsKIYk5YW1uFVd1utXBfFNvWLSyoeIP40hFi1K2XEaBrDoYRo25lJg3acUktghxe+n5oa463xZDXeN5k5WeZ56SmZSsnq/tXKWjz0MtSbaZiFV1uByVUkVLnEl+oupxOxCTn76wVdZb386XHDxYZIm5l733nv2xZdas1HzJjuXG2S1BsA/r5CuGZ64AGqLpQWa6XBR3gXR+SEFeKmGPQNxlzfHrrPhL80iNLIR5KPX6ZJK7gqXKarkpeZycJ1HtOaMexSQhAb6jD9HY8OxJ8re3kzfP/b99jmyw0TYyqGVjOe/k0fKbW42YND3nZcs6pLGxTubPmyeTHz1bGhsa5fqbbpKLr5kiJ/54Sxn7y6flO/u3FBWSacFIMblmUexzkSYhOuFMpz7te0EXOuQl0nw515ZP17BJi8IZaZ//Q4s88C0jJE04fXxvmYyOZ+Koi3rmXx/g6y/0xt/y2s51TkoJyuR2IU5QeiHpRSVEoopJGzaRwMfJJsOxiPRpEGUmTZ+YKxOFEYrT3xxntxZa1cGcoDGm04jOZLnO48jzWs29z72ffr7kotnaSQ6tGOYVyCaVUbRcCl9uxK2Vf34w/NnOmxwoDeG8SRWUbkVXI5ox15NisjMk20zEqjpcjkqpomH02Ys2d6GVx86nfyQdOsQV84rnyCtX7pq4TtIkOuepnnoqWgDycR3Xks6Kv3LnnJsaNVjz8wqouO1OnkRnqifqZjRUqm2fRzFJiMF35v1cyq9uOlOFJFZyxf6Ss95/QLYbeaTMndMq620wVLcFGXviCLny1lZBvxRi8qffjy2Thxx8sNwwbpyLiZx18SQ598SRGj5vzkw50y3AA0JrlReOobigmCSeSkUnCIfYQtip4IPzYfjGqeiDM2laLkzLcN/6W4v8cT8rJtWCGraLMi6cVdf8R/1XCBD8YK+ru7aLLDSiZN/ft8g//1+JDour6/nSH8sMdzUCIloswlknccFay6Qb2qphc9IIex9PQgWjT8fJI+zEo0/DCUX5iNfJ1Nv2w+Gr5tVDg+ef+nZGFEOMV1V2OPEtnS+5onjwW3bDb32ZzMM+zmqdBT4njb0HxQuM6H6TwbxJt8BIOG8S72hlVF4yk5LV87Wdq7R+ZmsDNq9f1fArREekrqeQElkVU7INk4kFxELSwzTT+Z3l4SzxV+Ik9/6tWwhtFaIW70tnyDx+DU6qVs+r0vMrdbwoL2c9D8pQTJI1HnTQISI9aTEZ7jGZJhaTy6X1o//IzKnjzJd5D2lrWyQ3jr9ZrvjMTDnqwRY57cJH5Gen7uVqWUoJR6R999vfktt/+zuKSVIVeYQnqNTqeYz5PF+5TzzEFWnhUFf4mp5KM//aNsqHQFRiDiUW4/nanS3y90BMpopm8uU/ZQvKeLhrqe1CIBydqDRp793zE1ebVMPwE6bIi5esPFHxWNZKi+5DhCX91/n0GUZM2i1C3vnLITaD1AS89pV2PItSYW+0Kzqt6Tb3rrGwq4RyQq4rnnfIp42YfGgVE5OlqPj16MQL15WveWbbJQ5Y6lyivIxC1dbzFMv64h/ja4RikqzRhB1uLyjTYhI0NzdLv379pU+f3vLnv9ylaeXAHLe2A2fLiT/aUgWhP1aWiPSUEpiE1IK8IjOLtNWz0egxb6VEuBEC0olI5HtR6cPwI2OeQVd6dYLyoH+2yD3fmFmRkESh/yoiJoEVlEerxclbJ2c8hJU+Lf8wwrXscVIFKjqvFJU+l5Av/GHFd2aLcb+brxqeow9+9nctcv+34s/DPql4Na9XmqrbCCp+xnSUW8acLDMnXKTxruw0V3W+ZSrV4nWsFbk6jTl7mLCOrQp0taiqhXDris47rpMHy53XKqwaVsSpFT1GmYOXO7coP6NgqbrV1vOgDEb55CXsm1JMkjUadKyvvqNVrSg/+la8z2S0x6QTk7169bJisndvaTbhpqYmuXHceDn37LNl2bJlMm/ePGlvb5elS5eaDnIPueraa2X0AYfKN2ddKMc8FF+kXlSeNGem/CIY6upJi0kKSbKiqIXITJMQnRCaxqngdH4oKtFZhqg86oEW+ZsRk55KOtFf+XNpQfl3316qsUraTlO2zoo4BqjBcUKK1d93FRK1qzoQ0RDTpHrKCplVmQp7058xnxEM0V6RVNrRx49DmBPfnSj53HMqoFLFE3kZBSuqW6N6X/pTvvtQZ/uaFJNkjaRcxzltmezdu48Rk/2smGy2YhJzIs875xxZvHixzF8wXzraO2TJkiWm01ynYnLUAYfIfvueIKccMUy+d9hv5OxTviJjB/WV2zJEpIdikqwu1Fp8Qnhe8GRL5Hvu/nphxyZL+Hz1zuLDXWHpzKKsAKuBYFsljgEyClVzrFJgcaZ7v9nJjmgFJ1XNeWMVYL8icKXkOY6frxlZcWtBjd+gWr/fpDpWZcGWPreVLhBqeAKVNJUok6pQqn6peqCiukXqYSpHXlZ035FikqyRpDvCF131uhGCi3T7DpC2TPbt29e4fkZU9pZezc3SE2LypnFy/tixsnDhQnXYPmTxksVS16NOV2Eduf8PZdJfb5S/PtQq+386tnrmgWKSdCe6wvoJvODEnEsvKMdvEO9xWLITHWRW0tmutC1QSXtpytbJKJD3OLnPq0iFdDLE5L87KyYzyH2+WZhGsMDTvV0oKFcluuy8cza8Or5+NekUl2gEPzzU9EeHGlKLc1vZoiI6fsaJlDq3RF6qYK3qrQ7CsBooJskaS2j9K9bJ9WISVkkvJjF/sqlnk279ccG558r8+fNl0aJF0t7RrlZKWCavue56GbnfD2TSXTdpfc/v/9UqB35xsJxz6VOy486byf6fGaxpAOlpKCbJmkqlwvO9I2fKRlfGX9BeTMIieZcRmZV2ZisqlyrU6barbC+kbJ2MAtUcx1Oq7hf+2CL/998VdETLnEBnzq8UtRa7XXWeeRvusvPIyapyHrWgKzvG1VjJVyRdcX5FX88KX+hSxaK8jEIV1QNl6lYjArPorn06ikmyxoLO6o77flOev/cPLiUbCMr+/ftbMdnLismbb7tNjj/mGBk0aJDMmTNHRSTmTLYtbpP6unq55vrrXW2Ry256T/7r08s0nNcyQzFJSHHKXU9/PaB0hyiz8xskVtI5LlomlVFJWyElyweZNW3Xk1GoknpY3e9flYjJDPI+j2pIiN2cB1wR51eOLj2HHI2vCq/FqkA1nedqrOMl6YIePOZJ1/JHl5KnmMosVTaRl1Ewqy5F4IqBYpKssVQi7HbbdSedCzlgwEAd6tobi+9ATN56m5x43HGy1lpryezZs3WuJMQkLJTh/pIefyMKj4nFe84aO1YOP+wwl5IEQ2V5AyOkevL+eFOKO/fPsHIGCeU62MXqptMrLZemZH4qs1xbIZWWxYIP0R6heQ4QUGW1iqlU7HbZeeRouKtfi0pZVc6ju7DChFqOnn26aGd+FApJtJtxPqVOEXlYqbsWsB/V9VBMEpJi7y8foD7mTI7YbRcViQONmOxjxCRWdW1uapbxt94qJ59wglosZ82aJcuWLTUOYnKh1Nc3yHU33iijv36Y3HzJadpWFpV0dHkTJGTVoJbCFPzFiFMl6K2X6rhn5rnEFV0PpPNhAcBWK9VQ6jxyU6YxLIH/z6CjXNNjV0mXnkOOxleF12JVpGgnOUfv2RftjFArebhO9uTT1fNez1F9E/ivP1MErmlQTBKSAmIS23u8/+qzMnL3XXVhnQEDBkifPn2MmOxtxGSTjLvlVjn1pJM0zYrJZSo6FyxcIG8u6COP/ulq1xpviISQQmopTv/ihvOWEgOZeS4xd70QV+CrpgOJLV3Klk+Rt3yCMpWzsjsjetN06txBBQ10+hgVUPNj1KrBnL3TWnVmM9up0blU+/kre/hOPnlUxxZLtYB9njUPiklCUkBM1tXVy3uvPC2jRuyWFJPNvaWp2YjJm2+R0085RedPYpgrxCQcFuNpbGzUoa4HHHmO/OXKc1yrltGjR8nEiY/zZksIqRm1tpqWm2sKQr2w319a5K50nZSgyKsvypYvUaBUXXSYi20VUyl5n0sBZRrodPsVUPNj1KLBnL3RWnRei7bRBedS7rNXKzFXLeyXkGqhmCQkBcRkuC1Iz549dThrn96wTGKPyWa56eab5czTTlPhCDEJqyTE5Ny5c7X8jePHZ4pJQEFJCFmVqbU47QoKxGtIStiEUWwfk7V3aSV0Wi+VaaAWeqwrWBXOqyuFI6zqqwLsE5DVFYpJQgKyOlGjR+4eiclmFZNNctP4m+XsM87Q4bBYzRXWy6VLl2r8ymuuUSEJQjGJL4qs9vkFQggh+VgdBC9ZPeB3MCGdg2KSkAzQUfGWSVgjsc9kb1gmm62YhOVx7FlnqYiENbKjo12WODF51TXXZorJLH74w4Plxhvt6q/8QiOEEEIIIasTdc4nhBQBAjF2SLDpdXV1KibBcvwkYx4gJAFEZB4hiTAELH9tJ4QQQgghqwsUk4SUIRSTUJP48+kQk8tVSVpB6feMhJUxy4WEQpKikhBCCCGErG5QTBJShh496qyYRBh/zjLpxaTHi8pSpEVlWkhSVBJCCCGEkNUFiklCiuBFY10dBKR3ItffNE6OO/poKMvAKrk8cpXgRWUxIUlRSQghhBBCVnUoJgkpAiyS1rdCUpUknAHzJU1qyjIZD3mtFIpKQgghhBCyukIxSUgRVEA6X//Ut0BMhpZIE5IOxKvcDYuikhBCCCGErG5QTBJSBIhHtUBCRHohaXyAdBAJSvx3WL8zlBOV3qeoJIQQQgghKxuKSUKKoEJS50uGgjIWkwWWSV3ZNR722hlKiUqPF5WEEEIIIYSsDCgmCUkBa98uO+0gS5YskTonJNUiqYLSlkmLSVgkw21CakVaVBJCCCGEELKqQDFJSAbPPPeCuh6JYa5Qks4yWV9nxaPGjJY0IrJfv35yw7jxKv5qTSgqQ2F5yulnuxAhhBBCCCErFopJQjKAZRKuzohIOCsooymTarHUlVwDS+SV11zjQl0HLZWEEEIIIWRVgWKSkBJEVkk1SsZq0g9zBX6465E//rHGVwQQlJVaJf1CPVywhxBCCCGE1BKKSUJKoIvwQEwGfwBp4RxJFZTRoNdVAy8eR48elXAUlIQQQgghpBZQTBKSAcSi92OHBE3WVV51mKtDReUqoiXTIhJMnPi4OkIIIYQQQmoFxSQhGaTFpCpJ4264aZwce9RRaqH0YlJtkm6o68okS0QCiEg/1xJhWicJIYQQQkgtoJgkJINYTJpLxAlK/AE/9DUSjzBKriQh6QVkloj0ePHoy3hxSQghhBBCSGegmCQkAwxjBXXGt0JSNaVLs5dNRyAgV6RlMhSQniwRGVJMaBJCCCGEEFItFJOEZICtP1REBs6rSb+S63LdZ9KKyI7l8WI8XUEoIHfffdfIlcPPlQwdrZKEEEIIIaQWUEwSEgCxhv0lIR6jlVydkHSGyVhMQjw6/bi8Q2WljdSILAEJnnzyaXUNDY1RGkSi99PCMe0IIYQQQgipBaa3bB7pVm0HstLpau8cXkRaZ+MaMNTVOzHpxKNaJjvaEdB4Zrs5nBeQ4dBULyDDoapeQHpUPL5lBGPgstqno6Ojo6Ojo6Ojq4Xr0frJ/NqaUwhZjdlySDwPcdSI3aR///7Sp08f6dXcS5qamuWmm2+WM08/TRobGmX27NnS3t4uy5YtNTqzThYvXizX33STTIGIy0l4XAjGUCim46GF0lPNMQkhhBBCCOkMFJOEOEJBh6GuTU1NVkz27iPNvSAmm+Sm8TfL2WeeIRj0OmfOHN0eZOnSpXLVtde6mpULu7SABF40ZglKiFYKSEIIIYQQsqrAOZOEBOy2y07y6b32lGeee0EmTnrSDXN1Tu355qLpUVewxyT40hc+r34pICC9g0AMRWQoHhFO50NIQkB6RwghhBBCyMqElklCDBB3sEbW19dL7959ZN68uTJw4EC5/8GHXYnaAYGYtjr6eCgePRSOhBBCCCFkVYRikhCDF5MNDQ1GTPbWOZL/+L9/u9wkRx15pIpOWCthlVyyZIlcec01ctYZp7sSIueef4ELWUoJSJCOU0ASQgghhJBVHYpJQgwQk9VyzE9/Kpf9+teRmISQ/NLn95V//vtejUMY+mGtaQEJfBoFJCGEEEIIWZ3gnElCHLBMwuUFQjINLJwhEIqhkASIwyGPQpIQQgghhKxu0DJJ1njSVkkISizAkxcs3vPUM89peP+vfVX+evffNJwFxSMhhBBCCFndoWWSrPGkhV01QhJ4IQka6uvVP/yww9QH3gJJIUkIIYQQQroDtEwSYujMnMlyUDwSQgghhJDuCMUkIQaIyb3H7OFioqu0evfoxEkutXIoIAkhhBBCSHeHYpIQBwTll7/weQ3bi8ILSojLDlnesVw64JuEjo4O55Dvwq4M8jHklYKSEEIIIYR0ZzhnkpCA5uZmae7VS3rBNcPvLb1NuDf83nB91PWB69NH+hqnft++JtzP+NYRQgghhBDS3aFlkpAAWCe/feA3XcwB66R6zlLZ4ayTLqy+s1haJ/L3f/6LlklCCCGEENKtMWJyHsUkIY4thwyR//3e98yVof9uuKvBBCKxiL+O5XL7737nMrOZ8tZbLkQIIYQQQkj3g2KSkACIyUMOPtiJyR5y/U03uZxCvv/d7wbWyA5N8xfTHb/7PcUkIYQQQgjp1lBMEpICgtLz40MPDQRjyllzJf5l/K23uhqVQaFJCCGEEEJWdygmCUkBMXn4YYeZkBWK3g9F5A03jUNGxHbbbSPLli2T9vZ29a1bKh9+2CobbLCu9OzZUxoaGo1rMK5eJk9+1dWMocAkhBBCCCGrExSThKSIxaTKSDxo6Jrrb9A0sPXWQ2X+/HkyaFCLLFq0UMOgR48643pE7t13P5BNNtlQRWhIfX2DrgDb1NQk8+bN1VVjX3jhJZdLYUkIIYQQQlZ9KCYJycALyquvu86lmLQth+i2IHPmzJYlSxablB5SV1dnhGG9vPPO+7ZQDjbffDMjMu0qsAMGDJSlS5fK3LlzVKB6YUlRSQghhBBCVlUoJgnJwM+b/NSnhsknn3wsffv2l/nz56rlEQIQw1fB+usP1jB85NXVwSIZWyfffvs92WyzjROWSYSzxOeWW24uHdhqpKNd1lprbWlrWySvvvqG5lFUEkIIIYSQVQ2KSUICvIjcdtth0tjYIDNmfKTxurp6ef/96RoGEI9Ig1US1kmE4YdDXM2/vPbamzJs2FauFrCXW0cH5l9COMItVwEJ4ekZOtQKy+bmZlm8eIlMmfIfTaeoJIQQQgghqwoUk4Q4ICR32GF7IyCn62I5WEAHhFZIiEYsomNFpBeS3mFnylhMghdfnKxt6uzL4ErThXwiZ4e6trd36AI+7e3LZNq0d7Xc1ltvqWl9+vRVf/LkVzSdopIQQgghhKxsKCbJGo+3RmKhHKy6umDBfBWK3hIJEYkFc+xKrFZIeotk1tBW4P1nnnlOdt11ZxWLIV5IWpFpnbVQ2mGuVlguk6lTp2l5LPiD+MCBa6mofO65FygoCSGEEELISoVikqzRQEgOH76dCS2X1tYZxu8hH34I34pIWCgbGxudgPQWSbvoDgSjFZQ95Omnn9U6edhtt13U92LSCkprpbSi0grKpUshKq1wHDZsqMnHsNsenE9JCCGEEEJWKhSTZI0FQtKKs+W6iirwi+nAMgkRCWetkQ2RiIQPi2PIiBG7G1HpIgGTJj0pI0eOcDGPveSQ59l9910jQeldLCjt0Fes9gpLJeZzYh9LWFA32mhjeeKJpygoCSGEEELICodikqyRQEhuuulGKtqWLl0SzItcR4e6WoukFZENDX5Ya31kgRwxYrdoKKvFLriTpIc8/vgkGTVqpIuD7Mvt8cefcKGksPSC0otKiMjXX39TNtxwPenXr7/uVQlwXhSUhBBCCCFkRUIxSdY4ICRhfbTYYa3eGgkh2dgIMelFpB3aGovI2AIZi8lQSNqAjz/22OOyxx6jNGy0oSN5ydn0OM0LSwhWv+qrFZawUFpB+corr2sZWClxzjgXzqMkhBBCCCErEopJskYRCkksmvPBBx9pHKKxZ88m4zCs1Q9trY+Gs8Yi0gtH65cSlODRRx+TPfcc7WKFwrFUPBSVWcNelyxZIm+8MVW2224bPX+cM86XgpIQQgghhKwIKCbJGgOE5AYbrGuEWYcRfrGQhCXSWiRjIQkrH4iHs4biMQ6HceDFpRWFIo88MkH22mvPhEhMhl1BQ5gOfBaGyo4cuXtkpfSiEhZKbF+ChXi2225bFcIQlU899QwFJSGEEEII6XIoJskaAYQktv7A/EiIPz+01Vojk0Ly2WefD0RkLBqLuVhMWj8UhQ8++LB8+tN7RaIRvs8PyxULeyZOnKR+oZUSFkoIytdl++23laamZl0g6Mknn6agJIQQQgghXUqd8wnptkBIDhmySYGQ9BZJP08SgjIUktbZvSThINIwrxLDX62L9570Ls6zC/YAWy/ehzJ2yPWCNRlGvo+D0aNHqsPKrWgrPAec/zbbbC0vvfSKLF68WMUmhuXieRNCCCGEENJV0DJJujUQVBgCumDBAmlrWxht/WGFZGiVtPMNk0LSO4hBu6dk2nnR989//sseMAdjxuyhvrdEZlkkbRqI02GlxLDX0EKJIa+YQ2ktlJ+SPn366NYjtE4SQgghhJCugmKSdGsgJocP305aWz+KhCSGszY1eSFpV27NFpKxaKyv9z6sjzZ8zz3/cEexYNVWKy5jHn10oowejdVcIRat+MMCOn51WOAX6EF+FsUF5QiTZ1d6tYvytMvzz78om2++qfTu3UefHyytFJSEEEIIIaQroJgk3RYIyY033kAXqQEQk9ifsbm5Wa2SsEjCFQpJiEVviaw3YjMeUorw3Xffo+2BMWP2NOURQnk4DG/1o8eXy333PSB7772Xikgv/KyohLMC0K8YCwq3ETEtm/bDuGfixMdl1KgR2hbaRluwUL7wwkuy447DVSTD0UJJCCGEEEK6AopJ0i2BkPzUp4bp8FbMI/TzJJubewVWSQjJwjmSsSXSCklYMhsbIcwa5c47/6KWROShPNpZa621jN8ot912hzt6eSAaw9VZIQJhRQSYG5lNbPX0AtMLytDqibmhL774suyww/bSu3dv3WKEYpIQQgghhNQaiknSLfFzJT/+uDUxTzK0SmL7jyyLpF/cBlY9lINg/Mtf7tJ29957jJZbe+21ZeONN5LLL/+1poPPfvYz5tFaHgH8hx56ROvYJORZf8KExxBwotKvzAohuFQtiyBbVFpBCTHpeeyx2EJp27HCdMsth+hwV299paAkhBBCCCG1hKu5km4HhORWW22hQtLjVz2123/UZwjJeJiqFZIQkU0qPiEkMZwVW3wMGDBAw7BQQkh+7nOflX32gYOQ9ARKLyL5m82ee+6hFk4IQVgOvXjFOe6003Atg3mREJ9OmzpsJJkGcRkPzUVbO+20g0yZ8pa2CUcIIYQQQkitoWWSdDsgJrGi6cyZMyKrpB3eCqukH976nK6IGgtJP7wV1kgr6iAk//SnO2WvvcaY9DrZZpttdEjrBRdcKPvuu48eK7Y4epG3XB544CENZxGv4BqKwuUqKgHOyc99bGtr09VZYXW04Fxd0IDz9qA+LJloN23lxPxJPOennnqG1klCCCGEEFIzKCZJtwJCctiwoTJnzmyNQ0xiER4IQ4jJwuGt3qJn50f6Ya0o++c/36lDVDE89jOf+YycfvoZ2ua++35OfSsirY+FdkKu/0OrHPrNwRq+6vZWFJEjvmfjHlgmfX19NB7mQIaCctGiRfLaa28EgjIUkaG47GEEJVaOHZkY7grRvMsuO+lzmDSJcycJIYQQQkjtoJgk3QqISSw8M2PG9IRV0s6VtFuBYFuO2CppF9uJh5liaGuT3HnnX1VIYrjrV7/6VTnmmGPl85/3ItIKP4jAe++9X+O33N0q3/9aUixWCuZNhqLS7yPpF9NZuHCRvPHGFJM2IhKPhYLSisk99hitQtKv7or6ixa16UI8eO5PPvkUBSUhhBBCCKkJnDNJug0Qkttuu7URkh+5FFExCJEIsQjrI4TkiBG7mxyIMDtP0lonrZiEZRJC0g5tbZAvfvGLTkjuq3U89957nwpJiEhQrZD85Q3vRENcPbAuYjsPe06NKoQBLIvhcFqL962lE4LSPic/f7JBXn/9TReudyUJIYQQQgjpPBSTpFsxezaGty6PrJJ+ARoIKS+mYMmzzoouWCb9FiB33XW3loH4Gj16tJx44klOSHp6yL//fZ8LVy8iPccdson6GN4KiySAThw1aqQ88cSTes44f2xz4kkLSuvFohLiOBaT9jkvWDBfFi9uU6EK0U0IIYQQQkhnoZgk3YqBA9cyj9aCaFdmLW6V9ILLiy4svAP23nsvGTx4sO5Hmebf/75X/v1EvEpsmivGfxi5kGLpaayghDBcrvMkn3jiKXduPWWrrbZUiyUoJiSxSuyjjz6WEJSYM/naa29qHIvyEEIIIYQQUgsoJkm3wK/gioV3PvxwhqaFw1shqoDRU855QWmHuKIctgDZa689tR7mHp555lkJqySE5MMvtMrnRxRaI/MIyKy0EGwV4oGgxCqsOD/M+QRORyaEJMJh3D5fb3m11kmk+TYIIYQQQgjpLBSTpNswd+4c6eho1zCGuFohaVdrxaqmWMEVJIUkrJLxcFCkbbHFFnLMMce5BXcgzparkAR775AUkuWEYSkqqeeFI84PIhf7Z2L4a1JI2nP0ceDnTfrniX0nIUphmcTcSg51JYQQQgghnYViknQbBgwYoOIJWGskLI4Y7umtklZcWeziO3AQanfd9TfdAxLlN9poI1emNMXE4FEHrV/UpSkmRmGd9EISK7s++eTTep5YIMgSCskkeB4PPzzBPDc/1BXP0Q7hxUqv2HKEEEIIIYSQzkIxSboNCxYsUAEJ7BBXa3mEC7Gi0vux2ES5ddZZV84662zdSxI6DQ4L7tx8V3KeZJYA9IJx3J3ZcyovH/dBpqAsBlZvTVobYUFtkC222EznUqaFZFpX2udtBTReC5/29tvcGoQQQgghhHQeikmy2oMhm8OHf0o3+H/vvQ91iCtEExyEYnqIqxdYcH44qKWHEZN+GCuUmXci/7tf6VVbm5sb5LZ7rIg8+OvZZY8+eAP1lyxpyyUqAayTfu4khHIIRKUf6hoKTGuVjZ8rgL/FFkM1TAghhBBCSGegmCTdgiVLlhgh1eFiEE1WSIZCMRZUVlR597e/3aOroEJ8+iGgXpNhL8k02PQ/FIMIN/US+d5XSgtOAIvmCYcNkZ/95uWKBKVfvdWDc/TzO0HWMFefhOcGsZx87j0y6xBCCCGEEJIXiknSLWhra3MhCCa76I4XizZNvQxikdWrV7NcddU18rnPfdakJK18IbCE+mGuEISwSKYtl4cfdliBA15AnvaTT8mFv3klihebO5kG54mhvJtttrEOdS0GVqW9//4HVXziuaPebrvtouK0vb1d9t57DBfhIYQQQgghnYJiknQLsCF/OPfRWyW9mIxBvDAd0Z497b6S0JBw9933gMZDskRfaJEMhWOaMB1tnPqTbV0sppSgxFBX7JVphXJ86frzjbVvFHBWzKSwxnBgCEpCCCGEEEI6A8Uk6RYMHryuiiwAMYmwt06GIBonIRALL9SzIM2mF1tMJ6SYALz6uusi50lbKM++5Kmyw13TYtFaXsNL158vrKmaEAErpn2+eD1snebmZunoSBUkhBBCCCEkJxSTpFtgh6RalRhb4dJiMgyjnAs4fFm05Ye4FltMB3gR6P3Q8ggBibmV3mUJSojQsSfYhYFKgX0lY8Foz9t4v5zOAAAS7UlEQVQL57R49GU88SI8iPkn7H1CCCGEEEKqh2KSdAvSwhBkpYVAMP7rX/92YZH29uTiO9XihWRIWlCCeL7kB+pnceJYe35JwidW+mT9MFfgXw/45V4bQgghhBBCykExSVZ7Ro0aob63LHqrZCmyLHrLlvl5hMUX3+kKjjrIbhmSRf7z8M/b+nb+aPnXgxBCCCGEkLxQTJLVnscfx+b+WWIpTEvnJwUjgqFlcgVqyZKE2514cN7lRKa3PPo5k9bZRIpLQgghhBBSC3TmFR3d6uw8XiwhNQqWAIJsn32wDYjGoj0mEbauerDtRniOiKdXeS21cqvn0rFfcqGQUmIymY45k8lXKUl4jnR0dHR0dHR0dHR5HC2TpFsQC0lQWghCh3nrnrf8Ibx06dIo7MXaVbfnX83Vi8YtjID0Lr04D8CcyRPO/peGSzFiRHKRHqzE2t5eaLG0+EvbEq7mGlKJ2CaEEEIIIaQUFJOkWzBjxvRIAHoxGIpCk6rORn0ayno/W6Ad8d3iq7l6EekX0kmv2Bq6Ylwy9osVWShDOjo6jMveJxIi0TqrFrHqq38NopfCkNxahBBCCCGEkPywR0m6Bb169VHRtMUWQ9S3wilQTylsmVhswtoXWinh9tprT42n8eLR8/MrX3OheG/JLNJ5WSu1ptsOeeKJp2SXXXZSIRkPyQ3x5sZ4SxQ8PfcUDTYAIdmnT18NE0IIIYQQUi09Zn4yr3iPm5DVAAwj3XbbrWXOnDny/vvTZeONNzDisrc0NTVJY2OjPPvs8zJy5O4qsKzDpv8+3EMefniC7L77rtLQ0GjKN2h8zBgrJCdMeFT9kKlvvaXHTFsm83DEiX+Qqy7+ZkVt+GGuEJM77jhcFiyYL2+++R/ZbbddzflbKyScXbm1TudJPvLIo3Lggf+tK9TOnNmq1swJEx6TPfccreWQj+dBCCGEEEJItdAySboFPXv2dHsq2mGgodWxEG+VtFa7vfceI08++bQJd0h7e7w9iLfkpQmFJPDhs34xSf1yw1aPPfPvCSFZivR8Saw46+d2eiEZWiLjNDFiujlzOGxDQ4MLEUIIIYQQUj0Uk2S1Bxa2559/SXr16iVDhmyq1kkIQy8od9ttF5k06UlX2gIR6QWjDfu5iPG8SaTvueceLlYaCMNzTxqp4WJWxp+ecqf6vzrvvwqEZDp+7Jn3uJAFVsmdd95Rh7d6Melx2tEQW1tB7969ZPHiJRrGc8HrADbccEP1CSGEEEII6QwUk6TbgKGtft6jtU56Z9UiPOsQ99ZJGwYQapg7ucceo3RIqE1frkND02QJRgjCUtbGocNGFS2Tbu9X532lwCqJ81uyZImKZS8MYyAirVXSi0kMZ0V5/5yfeuoZ9adNe1vzCSGEEEII6QwUk6TbMG/evMiyiOGqEIZ2YR0rFr04DPFCa8yYPeSZZ54z5VEvaZ301S+9fpoNOIpZIL1gTLtioJ10/u677xYd21slYZFcvHix5lvB6E2SSSH54IMPyw9+cLC0tbXpsFjTimnHPifkr7XWQA0TQgghhBDSGSgmSbehX79+ao0DVky2GxFlxSQW2AmHulqhBpWIfJsGli1bqgJ01KiR8uijE02KLQNr5fGHbiYXXfW6lvNACBYTleUI65ZrA0JyyZLF8t57seiMBWQsJOHAwIEDjbie78S0yMSJk1QwYyjw3Xffw8V3CCGEEEJIp6GYJN0CO2/yRenff4BsvvmmKrr8HEgvKD02aOM+jHwMZ3322RfUmgdL3ujRI+Wxxx6Pyo0ePUpOPmJr+dmvJ2taSJao9GnF0osBq6TnySftCq4QkosWLdI0COMYLyCt78U0FiTCqq/AP3f4ixa1aZgQQgghhJDOQjFJuhVz585VAQna262Y9A548RiGndaK/KefftbNnwzrgOUqME/76Xby86vivSVDygnIdHqatJDE8FbMe4QI/OCDj6K5krElUmNGRFoh+cADD8lxxx2r26RgmKt9fvZ5wErZ3NysYUIIIYQQQjoLxSTpVvTv31/99dcfLG+99bYb7moX4rGruj6h+aGotILLhjCcFWBYKeqOGLG7TJwI62SkKHUI7ClHDHOxznH06Xe5UFJIemCRbGtbJO+8857GvRXSu1hUxlbJQYMGyfTp093zXq7WVeyb2dzcJPfddz+HuBJCCCGEkJpAMUm6DRBJL744WdZee5Cu7ApBiSGrfjGecKirJ7Q6esGI4awvvPCSWgRRH6uqYs4h8OVHjRqhznPqBQ+5UGX4rT8uv2A/bR/OWhmtRRJuu+221aGtixYt1PTddrPDW1Eudkmr5EknnSCzZs1SCy3ONbauhntoEkIIIYQQ0nkoJkm3w1sVP/ywVcN+hVY4zDd8/HFYJ72KjK2SIRjOGgvKdq0HQfn44xCVcQUIypEjR8iFp3/apWRz1Kl2j0mP3/ojvf2HH9oKIQmL5MKFC/R5wKrqxWPaQUjW19dr/XXWWVfeffcdPWcISCwitNdee0pjY6M8/PAEWiUJIYQQQkjN6DHzk3kZXWlCVl+2GDJEBdncuXNkypS3ZMstN9chnhBU9fUNKryw3QaEIMQY8D6w4tJeFhCQ22+/ranbU+tBuPm6nrA8CFeNTZMWjyFod6eddtDtPyAkYZGMhaQVjuZMnYCEDxEJ1yAPPviQXHDBebo9yjPPPGNEsBXUjz76mOy55x563o88QjFJCCGEEEJqB8Uk6XZATG6//afUEvnJJzNVkA0btpWucNrQYMUkNvC3ghCiDLViMWmxlwWGxsKSuc02W0tTEwRlgxFmqP+05sMqaSm8jCAyn3jiyZICEkBEguHDt1NLKITk4sVtRYSkeTQi0g9txXN56KFH5JhjjpJNNtlUHn74YV18B88d4hFWSZzvQw89TCFJCCGEEEJqCoe5km4HRNNLL72s4rFPn36ahv0jMf8RIgsCMR7u6gnFYFIYQnS++urr8vzzL6nVcOnSJbLLLjtFC/pYV9wamQUEpHfY+mPbbYfpkNb58+fJtGnvOiG5a0khCZEIcQu23nqYTJ482c2VXK5WSYC5ohjmSwghhBBCSK2hZZJ0S2Cd3Gmn4dLWtljF1OuvTzGCa0sjMP1w13jIKuZHxngLZXxZ+IV7vPjcaqstVKhaKyVEnXWwdlYKhuFi+xE4zOvEqq1vv21XbPXWSJAUklZE+uGtsLLef/+Dcumll+iiO0888YQKXWyJMmHCo2qV3GijjeWOO35LqyQhhBBCCKk5FJOk2wJBufXWQ9UqOXXqNBkyZBPp1auXzn+EEINlzwrKJzMEZSgm9THyvRVyyy2HmHYajUM79U7sQfjFBv9nn31e50H6+rAYQtzCtyJyibz77ge2sAEWU0ssIG04PU+yXldvveiiC/XYEyZMiPbYtMNbx2id/v37yd/+9neKSUIIIYQQUnMoJkm3BoISQ1LnzZsrb7wxVYYO3UKamppUTFpBaa2KEIixoISAA8UFJQiHtg4ZsqkKPAg9LyahA1999Q0ZNmyoDjfF6qrLlrWruA0FJIhFpBeQ1k+6pJA8//xzpU+fvkZIPqKWSRzj4YcfkV133VlFM8pz0R1CCCGEENJVUEySbo0Xk5jriCGlr732RjTc1S/G4y2UmPuYV1D6sF9EJw+hgMTxnIZU4eh9LyLjBXcajJB8UM466wwZNKhFHn10gsycOVOFJOaE+q1AdtllF/nVry6nkCSEEEIIIV0GxSTp9kBQfupT2+i8RAxLxWI66dVdIdQg3GILpReTIL5EsoRkOgxs3O4bmRSNIbGADMOxiPQutkhijuS5546VAQMGyMSJE2XGjBk6tNVvAwIhiXIbbbSR3Hrr7RSThBBCCCGky+gxcxbFJOn+bLHZENl2261l0aI2HQL6yiuv6XYfXlD64a6xoBxlwq6yoVAspoVjdhwWy+Jbg8QCMg5b31sjvZB88MGHtdRFF/1c51o+99yz8sknGNraYVy7TJgAITlGnwP21PzXv/4tU6dRSBJCCCGEkK6DYpKsMUBQ+vmLCxbMl/ffn65bcvjVXdMWSrDHHqPU95QSjrG+jPPRzsiRu7tYmlhM4phpIekFLuZH/vCHB5tzHybTp38kr776qixcuNAcz2774YUk2oDwRHkKSUIIIYQQ0tVQTJI1CgjKoUM3NyKtXgXle+99qBZLrPCaFpQQdY8/PknrpUUlKCUsPdhOBPtUFpIlJK3zQtJbI08++UTp37+/TJ36H3n33XfUMun3krRzJMdoOdR56KGHKSQJIYQQQsgKgWKSrHFAUG6xxWYqxvr27SeTJ78i22xj51BigZukoLTC7rHHHte6e+wxWn1L8tLJEpMTJ04q2HZEtaNiw/44/lheRP74x4fJoEGDdMuPd955R+bNm2fOucMcx86RxDlhjiREL9p56KFHKCQJIYQQQsgKg2KSrJFAUG6//afUwgcgKMHw4dsl5lCGohLOi8o99wxFZYxrLuKxxyaqAIXY86Ad78cOIvIhTf/BDw6SgQMHSlvbYvnwww9UTEI82mGty2XChEe13Jgxe0pjY4PWvf/+BygkCSGEEELICoVikqyxQFBi2xCItCVLlsj8+fNk2rR3Zbvtto1WeYXzYg8aEGEITAwvDRkzZg8XSoL5jBB9APXNY9QOLIkhP/jBwXq8pUuXyOzZc5wlcpmenx3W2qHiFOfcq1dv2XnnnaVfv75ywQUXUkgSQgghhJAVDsUkWaOBoPRbdyxYsMCIyHp54YXJGvdWSiso/eqqaWfTH354gtbJw9e/foBbTbZeLY8LFy7ShXWWLVuqFkgMmbXWyI5IvEKYQmDi2N5KSiFJCCGEEEJWBkZMzqWYJGs0W2y2ufpePGKBm/nz58tbb72t6TvuODyaR5ke9motjdbZ/DgMoXnffffLF7/4eVfG1kcZP/dx2bJlKiR93GhHA0QkhsxaEbnrrjurJRLx3r17qxXVzo/8DwoTQgghhBCyUqCYJMQBUTlixO7ywQfvyVprra0CEKJy6lRr+SsvKlEq9Hvo/Ea7bQfSYrxoDPHDWWGJxMI9AJZIiEgcF3mPPGLnS1JIEkIIIYSQlQ3FJCEB3kqJoa8QjJi3iH0oEX722ec1D+y8846ZojItLDHHMV6sJ6UonZj0ItILSLDnnntoGtqHpXT77beT66+/kSKSEEIIIYSsMlBMEpKBF5UjRuymeztuuOFGKuog7mCtfOONKZrvwaI4obC0grKHTJqUvc8khOKkSU+6mMULyMWL26RPn746N3KdddaVO+/8i+ZTSBJCCCGEkFUJiklCSuBFJfaKxFxFWCkXL14cWQ3hYL187bU3tFwe9thjlPpoy/zrQjwQrdgOJFzQhyKSEEIIIYSsilBMElIBXlQCCEssmtPWBgtiHw1jIR1vlYwtkyJPPPGUjBy5u60YgHmRTU1N0rNnkyxatFAX/vHzIQEFJCGEEEIIWdWhmCQkJ6Gw9EBgwsKILT0gFDFEtX///rrq6j77fFbmzp2jgtEOhbUWzUceSW4nQgFJCCGEEEJWJygmCakBWQKzHBSPhBBCCCFkdYZikhBCCCGEEEJIbuqcTwghhBBCCCGEVAzFJCGEEEIIIYSQ3FBMEkIIIYQQQgjJDcUkIYQQQgghhJDcUEwSQgghhBBCCMkNxSQhhBBCCCGEkNxQTBJCCCGEEEIIyQ3FJCGEEEIIIYSQ3FBMEkIIIYQQQgjJDcUkIYQQQgghhJDcUEwSQgghhBBCCMkNxSQhhBBCCCGEkNxQTBJCCCGEEEIIyQ3FJCGEEEIIIYSQ3FBMEkIIIYQQQgjJDcUkIYQQQgghhJDcUEwSQgghhBBCCMkNxSQhhBBCCCGEkNz0+HjW3OUuTAghhBBCCCGEVAQtk4QQQgghhBBCckMxSQghhBBCCCEkNxSThBBCCCGEEEJyQzFJCCGEEEIIISQ3FJOEEEIIIYQQQnJDMUkIIYQQQgghJDcUk4QQQgghhBBCckMxSQghhBBCCCEkNxSThBBCCCGEEEJyQzFJCCGEEEIIISQ3FJOEEEIIIYQQQnJDMUkIIYQQQgghJDcUk4QQQgghhBBCckMxSQghhBBCCCEkNxSThBBCCCGEEEJyQzFJCCGEEEIIISQ3FJOEEEIIIYQQQnJDMUkIIYQQQgghJDcUk4QQQgghhBBCckMxSQghhBBCCCEkNxSThBBCCCGEEEJyQzFJCCGEEEIIISQ3FJOEEEIIIYQQQnJDMUkIIYQQQgghJDcUk4QQQgghhBBCckMxSQghhBBCCCEkNxSThBBCCCGEEEJyQzFJCCGEEEIIISQ3FJOEEEIIIYQQQnJDMUkIIYQQQgghJDcUk4QQQgghhBBCckMxSQghhBBCCCEkNxSThBBCCCGEEEJyQzFJCCGEEEIIISQ3FJOEEEIIIYQQQnJDMUkIIYQQQgghJDcUk4QQQgghhBBCckMxSQghhBBCCCEkNxSThBBCCCGEEEJyIvL/AbYcAer67b/vAAAAAElFTkSuQmCC;" vertex="1" parent="1">
                    <mxGeometry x="60" y="100" width="717.24" height="560" as="geometry"/>
                </mxCell>
                <mxCell id="4" style="edgeStyle=none;html=1;exitX=0.25;exitY=1;exitDx=0;exitDy=0;entryX=0.139;entryY=0.625;entryDx=0;entryDy=0;entryPerimeter=0;strokeWidth=3;strokeColor=#000000;" edge="1" parent="1" source="3" target="2">
                    <mxGeometry relative="1" as="geometry"/>
                </mxCell>
                <mxCell id="3" value="Landing &amp;amp; Taxi Light Space Envelope" style="rounded=0;whiteSpace=wrap;html=1;strokeColor=none;" vertex="1" parent="1">
                    <mxGeometry x="90" y="240" width="170" height="60" as="geometry"/>
                </mxCell>
            </root>
        </mxGraphModel>
    </diagram>
</mxfile>